<svg width="301" height="251" viewBox="0 0 301 251" fill="none" xmlns="http://www.w3.org/2000/svg">
<g style="mix-blend-mode:luminosity" opacity="0.5">
<path d="M150.972 23.5162C151.392 20.4958 147.1 18.0111 143.925 17.753C142.395 17.6304 140.808 17.8627 139.362 17.3593C136.226 16.2686 134.974 12.1963 131.915 10.9056C129.63 9.93749 126.99 10.7958 124.777 11.9123C122.563 13.0288 120.369 14.4358 117.891 14.5971C115.735 14.7326 113.373 13.9517 111.508 14.9843C110.101 15.7717 109.365 17.3916 108.074 18.3467C106.784 19.3019 105.151 19.4761 103.557 19.56C101.963 19.6439 100.33 19.6633 98.923 20.3216C97.5161 20.9799 96.3415 22.49 96.6061 24.0325L150.972 23.5162Z" fill="#EBEBEB"/>
<path d="M277.047 78.8313C277.466 75.811 273.174 73.3198 269.999 73.0617C268.47 72.9391 266.882 73.1779 265.436 72.668C262.3 71.5773 261.048 67.505 257.989 66.2143C255.698 65.2526 253.064 66.111 250.851 67.2275C248.637 68.344 246.443 69.7509 243.965 69.9058C241.809 70.0413 239.447 69.2604 237.582 70.2995C236.175 71.0804 235.439 72.7003 234.148 73.6554C232.858 74.6106 231.225 74.7913 229.631 74.8752C228.037 74.9591 226.404 74.9785 224.997 75.6303C223.59 76.2821 222.383 77.7987 222.68 79.3476L277.047 78.8313Z" fill="#EBEBEB"/>
<path d="M18.064 2.99329H12.1718V125.343H18.064V2.99329Z" fill="#FAFAFA"/>
<path d="M108.5 2.99329H102.608V125.343H108.5V2.99329Z" fill="#FAFAFA"/>
<path d="M198.943 2.99329H193.051V125.343H198.943V2.99329Z" fill="#FAFAFA"/>
<path d="M289.386 2.99329H283.494V125.343H289.386V2.99329Z" fill="#FAFAFA"/>
<path d="M9.15527e-05 238.768L300.79 238.768V122.794L9.15527e-05 122.794V238.768Z" fill="#FAFAFA"/>
<path d="M287.373 3.38691C287.373 3.48372 225.823 3.55471 149.908 3.55471C73.9923 3.55471 12.4429 3.48372 12.4429 3.38691C12.4429 3.29011 73.9794 3.21912 149.908 3.21912C225.836 3.21912 287.373 3.29656 287.373 3.38691Z" fill="#F5F5F5"/>
<path d="M235.349 238.671H227.869V138.864C227.869 138.373 227.966 137.886 228.154 137.432C228.342 136.978 228.618 136.565 228.965 136.217C229.313 135.87 229.725 135.594 230.18 135.406C230.634 135.218 231.121 135.121 231.612 135.121C232.604 135.123 233.554 135.518 234.255 136.22C234.955 136.921 235.349 137.873 235.349 138.864V238.671Z" fill="#E0E0E0"/>
<path d="M255.749 238.671H248.269V138.864C248.269 137.873 248.663 136.921 249.363 136.22C250.064 135.518 251.014 135.123 252.006 135.121C252.498 135.121 252.984 135.218 253.438 135.406C253.893 135.594 254.305 135.87 254.653 136.217C255 136.565 255.276 136.978 255.464 137.432C255.652 137.886 255.749 138.373 255.749 138.864V238.671Z" fill="#E0E0E0"/>
<path d="M250.664 135.489H232.735C232.378 135.489 232.034 135.347 231.782 135.094C231.529 134.841 231.386 134.498 231.386 134.14C231.388 133.783 231.531 133.442 231.784 133.19C232.037 132.939 232.379 132.798 232.735 132.798H250.664C250.84 132.798 251.015 132.832 251.178 132.9C251.34 132.967 251.488 133.066 251.613 133.191C251.738 133.315 251.837 133.463 251.904 133.626C251.971 133.789 252.006 133.964 252.006 134.14C252.007 134.317 251.973 134.492 251.906 134.656C251.839 134.819 251.74 134.968 251.615 135.093C251.491 135.219 251.342 135.318 251.179 135.386C251.016 135.454 250.841 135.489 250.664 135.489Z" fill="#E0E0E0"/>
<path d="M236.814 137.231C236.329 137.23 235.864 137.036 235.522 136.692C235.18 136.349 234.987 135.883 234.987 135.398V132.397C234.987 131.913 235.18 131.449 235.522 131.106C235.865 130.763 236.329 130.571 236.814 130.571C237.298 130.571 237.763 130.763 238.105 131.106C238.448 131.449 238.64 131.913 238.64 132.397V135.398C238.64 135.883 238.448 136.349 238.106 136.692C237.763 137.036 237.299 137.23 236.814 137.231Z" fill="#E0E0E0"/>
<path d="M240.17 137.231C239.685 137.23 239.22 137.036 238.878 136.692C238.536 136.349 238.344 135.883 238.344 135.398V132.397C238.344 131.913 238.536 131.449 238.878 131.106C239.221 130.763 239.686 130.571 240.17 130.571C240.654 130.571 241.119 130.763 241.461 131.106C241.804 131.449 241.996 131.913 241.996 132.397V135.398C241.997 135.639 241.951 135.877 241.859 136.099C241.768 136.322 241.633 136.524 241.464 136.694C241.294 136.864 241.092 136.999 240.87 137.092C240.648 137.184 240.41 137.231 240.17 137.231Z" fill="#E0E0E0"/>
<path d="M243.526 137.231C243.041 137.23 242.576 137.036 242.234 136.692C241.892 136.349 241.699 135.883 241.699 135.398V132.397C241.699 131.913 241.892 131.449 242.234 131.106C242.577 130.763 243.041 130.571 243.526 130.571C244.011 130.571 244.476 130.763 244.82 131.106C245.163 131.448 245.357 131.912 245.359 132.397V135.398C245.359 135.885 245.166 136.351 244.822 136.694C244.478 137.038 244.012 137.231 243.526 137.231Z" fill="#E0E0E0"/>
<path d="M246.888 130.571H246.882C245.873 130.571 245.055 131.389 245.055 132.397V135.405C245.055 136.414 245.873 137.231 246.882 137.231H246.888C247.897 137.231 248.715 136.414 248.715 135.405V132.397C248.715 131.389 247.897 130.571 246.888 130.571Z" fill="#E0E0E0"/>
<path d="M275.182 238.671H267.702V138.864C267.702 137.873 268.095 136.921 268.796 136.22C269.496 135.518 270.447 135.123 271.438 135.121C271.93 135.121 272.417 135.218 272.871 135.406C273.325 135.594 273.738 135.87 274.085 136.217C274.433 136.565 274.709 136.978 274.897 137.432C275.085 137.886 275.182 138.373 275.182 138.864V238.671Z" fill="#E0E0E0"/>
<path d="M270.089 135.489H252.167C251.99 135.49 251.814 135.455 251.65 135.388C251.486 135.32 251.337 135.221 251.212 135.096C251.086 134.97 250.987 134.821 250.919 134.657C250.852 134.493 250.818 134.317 250.818 134.14C250.818 133.963 250.853 133.788 250.921 133.625C250.989 133.462 251.089 133.313 251.214 133.189C251.339 133.064 251.488 132.965 251.652 132.898C251.815 132.831 251.991 132.797 252.167 132.798H270.089C270.266 132.797 270.441 132.831 270.605 132.898C270.769 132.965 270.917 133.064 271.043 133.189C271.168 133.313 271.268 133.462 271.335 133.625C271.403 133.788 271.438 133.963 271.438 134.14C271.439 134.317 271.405 134.493 271.337 134.657C271.27 134.821 271.171 134.97 271.045 135.096C270.92 135.221 270.771 135.32 270.607 135.388C270.443 135.455 270.267 135.49 270.089 135.489Z" fill="#E0E0E0"/>
<path d="M256.246 137.231C255.76 137.231 255.294 137.038 254.95 136.694C254.606 136.351 254.413 135.885 254.413 135.398V132.397C254.415 131.912 254.609 131.448 254.952 131.106C255.296 130.763 255.761 130.571 256.246 130.571C256.73 130.571 257.195 130.763 257.538 131.106C257.88 131.449 258.072 131.913 258.072 132.397V135.398C258.072 135.883 257.88 136.349 257.538 136.692C257.196 137.036 256.731 137.23 256.246 137.231Z" fill="#E0E0E0"/>
<path d="M259.621 137.231C259.135 137.231 258.669 137.038 258.325 136.694C257.982 136.351 257.788 135.885 257.788 135.398V132.397C257.788 131.911 257.982 131.445 258.325 131.101C258.669 130.758 259.135 130.565 259.621 130.565C260.106 130.565 260.57 130.757 260.913 131.1C261.255 131.442 261.448 131.907 261.448 132.391V135.392C261.449 135.633 261.402 135.871 261.311 136.094C261.219 136.317 261.085 136.519 260.915 136.69C260.746 136.861 260.544 136.996 260.322 137.089C260.1 137.182 259.862 137.23 259.621 137.231Z" fill="#E0E0E0"/>
<path d="M262.958 137.231C262.718 137.231 262.48 137.184 262.258 137.092C262.036 136.999 261.834 136.864 261.664 136.694C261.495 136.524 261.36 136.322 261.269 136.099C261.177 135.877 261.131 135.639 261.132 135.398V132.397C261.132 131.913 261.324 131.449 261.667 131.106C262.009 130.763 262.474 130.571 262.958 130.571C263.442 130.571 263.907 130.763 264.249 131.106C264.592 131.449 264.784 131.913 264.784 132.397V135.398C264.784 135.883 264.592 136.349 264.25 136.692C263.908 137.036 263.443 137.23 262.958 137.231Z" fill="#E0E0E0"/>
<path d="M266.314 137.231C266.074 137.231 265.836 137.184 265.614 137.092C265.392 136.999 265.19 136.864 265.02 136.694C264.851 136.524 264.716 136.322 264.625 136.099C264.533 135.877 264.487 135.639 264.488 135.398V132.397C264.488 131.913 264.68 131.449 265.023 131.106C265.365 130.763 265.83 130.571 266.314 130.571C266.798 130.571 267.263 130.763 267.606 131.106C267.948 131.449 268.141 131.913 268.141 132.397V135.398C268.141 135.883 267.948 136.349 267.606 136.692C267.264 137.036 266.799 137.23 266.314 137.231Z" fill="#E0E0E0"/>
<path d="M80.3169 72.1776C80.7364 69.1572 76.4446 66.6725 73.2694 66.4144C71.7399 66.2917 70.1522 66.5241 68.7066 66.0207C65.5701 64.9235 64.318 60.8577 61.259 59.5669C58.9743 58.5989 56.3412 59.4572 54.1211 60.5737C51.901 61.6902 49.7132 63.0971 47.235 63.252C45.0794 63.394 42.7173 62.6066 40.8522 63.6457C39.4517 64.4266 38.716 66.0465 37.4188 67.0016C36.1216 67.9568 34.5017 68.1375 32.9012 68.2214C31.3007 68.3053 29.6743 68.3247 28.2674 68.9765C26.8605 69.6283 25.6794 71.1901 25.9957 72.7132L80.3169 72.1776Z" fill="#EBEBEB"/>
<path d="M242.467 238.394L261.248 233.315C261.248 233.315 272.716 250.701 276.279 250.094L267.74 213.308L238.156 220.014L242.467 238.394Z" fill="#263238"/>
<path d="M257.04 222.317C257.065 221.939 257.229 221.582 257.5 221.317C257.772 221.051 258.132 220.895 258.511 220.878C258.891 220.89 259.251 221.046 259.519 221.315C259.786 221.584 259.941 221.945 259.951 222.324C259.924 222.726 259.748 223.104 259.458 223.384C259.169 223.664 258.785 223.827 258.382 223.841C257.988 223.787 257.629 223.584 257.381 223.272C257.134 222.961 257.016 222.565 257.053 222.169" fill="#E0E0E0"/>
<path d="M267.74 213.327L264.785 214.121L274.078 249.081C274.078 249.081 275.169 250.553 276.279 250.101L267.74 213.327Z" fill="#455A64"/>
<path d="M261.196 233.954C261.377 233.908 261.248 232.992 261.622 231.972C261.996 230.953 262.642 230.307 262.532 230.159C262.422 230.01 261.448 230.52 261.015 231.759C260.583 232.998 261.041 234.031 261.196 233.954Z" fill="white"/>
<path d="M263.687 237.439C263.875 237.439 263.997 236.593 264.617 235.806C265.236 235.018 265.998 234.657 265.946 234.483C265.895 234.309 264.856 234.425 264.107 235.419C263.358 236.412 263.494 237.477 263.687 237.439Z" fill="white"/>
<path d="M268.812 238.562C268.812 238.387 267.856 238.349 266.985 239.033C266.114 239.717 265.907 240.653 266.075 240.698C266.243 240.743 266.65 240.098 267.366 239.543C268.082 238.988 268.837 238.742 268.812 238.562Z" fill="white"/>
<path d="M256.788 234.638C256.937 234.522 256.498 233.754 256.33 232.702C256.162 231.65 256.33 230.804 256.124 230.765C255.917 230.727 255.478 231.617 255.698 232.831C255.917 234.044 256.672 234.754 256.788 234.638Z" fill="white"/>
<path d="M165.022 176.638C165.022 177.245 170.276 206.816 172.767 214.909C175.258 223.002 178.724 237.639 184.913 241.517C191.102 245.396 250.831 233.528 250.831 233.528L248.456 216.316L202.635 217.355L200.937 193.94L202.435 189.313C202.435 189.313 207.043 174.018 207.114 168.79C207.185 163.563 181.576 166.802 181.576 166.802L165.022 176.638Z" fill="#263238"/>
<path d="M185.539 188.771C185.539 188.861 181.97 189.171 177.556 189.455C173.141 189.739 169.559 189.9 169.553 189.804C169.546 189.707 173.122 189.403 177.536 189.119C181.951 188.835 185.532 188.648 185.539 188.771Z" fill="#455A64"/>
<path d="M201.422 105.259C201.422 105.259 209.237 113.488 212.186 116.908C215.136 120.329 215.413 130.274 211.999 132.552C208.585 134.83 195.529 128.725 195.529 128.725L187.985 115.36L201.422 105.259Z" fill="#FFBF9D"/>
<path d="M203.674 131.855C203.374 131.829 203.077 131.771 202.79 131.681C202.445 131.605 202.104 131.511 201.77 131.397L201.125 131.191L200.434 130.92C199.292 130.466 198.232 129.827 197.297 129.029C196.156 128.016 195.349 126.682 194.981 125.202C194.757 124.453 194.612 123.683 194.548 122.904C194.49 122.155 194.477 121.439 194.432 120.761C194.397 119.563 194.121 118.384 193.619 117.296C193.118 116.299 192.465 115.386 191.683 114.592C191.941 114.751 192.174 114.949 192.373 115.179C192.954 115.771 193.437 116.45 193.806 117.192C194.352 118.297 194.662 119.504 194.716 120.736C194.716 122.21 194.905 123.678 195.277 125.105C195.627 126.527 196.393 127.813 197.478 128.796C198.378 129.598 199.4 130.251 200.505 130.732C202.435 131.533 203.693 131.804 203.674 131.855Z" fill="#FF9A6C"/>
<path d="M211.78 119.238C211.722 119.309 208.495 116.657 204.571 113.256C200.647 109.854 197.523 107.086 197.581 107.015C197.64 106.944 200.873 109.596 204.79 112.997C208.708 116.399 211.864 119.167 211.78 119.238Z" fill="#FF9A6C"/>
<path d="M170.65 79.3347C170.65 79.3347 174.07 77.547 178.975 79.98C183.88 82.4131 203.7 101.103 203.7 101.103L188.378 116.011L174.606 101.813L170.65 79.3347Z" fill="#407BFF"/>
<path d="M136.994 86.2918L134.754 93.0553L127.055 98.5539L136.142 127.196L161.647 160.297L206.016 150.21L200.853 138.186L180.782 102.529L170.65 79.3346L162.26 81.4708L154.864 79.1539L136.994 86.2918Z" fill="#407BFF"/>
<path d="M129.068 97.9795C129.068 97.9795 120.562 98.9927 122.983 110.887C125.403 122.781 143.718 131.487 143.718 131.487L153.457 121.355L150.45 105.137L129.068 97.9795Z" fill="#407BFF"/>
<path d="M146.72 104.291C146.108 104.147 145.51 103.95 144.932 103.704L140.692 102.104C139.04 101.458 137.529 100.955 136.432 100.587C135.828 100.415 135.237 100.199 134.664 99.9415C135.29 100.016 135.907 100.156 136.503 100.361C137.62 100.671 139.149 101.168 140.808 101.787C142.467 102.407 143.951 103.026 145.016 103.485C145.606 103.703 146.177 103.973 146.72 104.291Z" fill="#263238"/>
<path d="M153.67 96.2758C153.412 96.217 153.159 96.1349 152.915 96.0306L150.869 95.2561L151.024 95.1399C151.232 96.3594 151.269 97.6019 151.134 98.8315V99.0186L150.96 98.9541L145.99 97.2503C142.886 96.1661 140.085 95.1722 138.059 94.4365L135.671 93.5523C135.373 93.4527 135.084 93.3297 134.806 93.1844C135.117 93.2336 135.422 93.3158 135.716 93.4297L138.136 94.217C140.182 94.8624 142.996 95.8498 146.1 96.9276L151.056 98.6701L150.856 98.7928C151.014 97.591 151.014 96.3739 150.856 95.1722V94.9786L151.037 95.056L153.044 95.9208C153.262 96.0215 153.472 96.1403 153.67 96.2758Z" fill="#263238"/>
<path d="M160.763 82.3485C160.836 82.6123 160.883 82.8825 160.905 83.1552C160.969 83.6715 161.053 84.446 161.111 85.3624C161.257 87.8041 161.208 90.2536 160.963 92.6874C160.898 93.3328 160.815 93.9782 160.731 94.6235V94.8236L160.537 94.7526C158.871 94.1443 157.283 93.3405 155.806 92.3583L155.994 92.2615C155.934 93.0422 155.714 93.8023 155.348 94.4945C155.235 94.7541 155.078 94.9921 154.884 95.1979C154.884 95.1979 155.019 94.9269 155.232 94.4364C155.529 93.7437 155.696 93.0019 155.723 92.2486V92.042L155.897 92.1582C157.386 93.0819 158.967 93.8476 160.614 94.4428L160.389 94.5784C160.472 93.933 160.55 93.3263 160.614 92.6423C160.858 90.2324 160.946 87.8094 160.879 85.3882C160.879 84.4524 160.808 83.6974 160.782 83.1746C160.743 82.901 160.736 82.6236 160.763 82.3485Z" fill="#263238"/>
<path d="M188.721 123.394C188.715 123.509 188.693 123.622 188.656 123.73L188.411 124.672C188.301 125.085 188.159 125.582 187.959 126.15C187.759 126.718 187.565 127.376 187.268 128.086C186.972 128.796 186.688 129.564 186.3 130.371C185.913 131.178 185.5 132.03 185.01 132.92C183.963 134.83 182.786 136.665 181.486 138.412C180.165 140.146 178.725 141.785 177.175 143.317C176.446 144.001 175.761 144.666 175.071 145.253C174.38 145.841 173.78 146.357 173.135 146.815C172.489 147.273 171.967 147.661 171.476 148.009C170.986 148.358 170.54 148.654 170.185 148.848L169.346 149.345C169.251 149.407 169.149 149.459 169.043 149.5C169.043 149.5 169.127 149.416 169.308 149.287L170.114 148.738C170.469 148.506 170.895 148.216 171.373 147.854C171.85 147.493 172.418 147.112 172.999 146.628C173.58 146.144 174.232 145.64 174.89 145.047C175.548 144.453 176.239 143.801 176.962 143.111C180.029 140.053 182.647 136.577 184.739 132.785C185.203 131.907 185.662 131.074 186.029 130.268C186.397 129.461 186.739 128.706 187.03 128.009C187.32 127.312 187.546 126.673 187.759 126.111C187.972 125.55 188.14 125.059 188.262 124.653L188.572 123.73C188.605 123.612 188.655 123.499 188.721 123.394Z" fill="#263238"/>
<path d="M181.951 124.808C181.933 124.909 181.905 125.009 181.867 125.105C181.783 125.331 181.686 125.608 181.57 125.944C181.312 126.673 180.892 127.706 180.331 128.97C177.408 135.573 173.411 141.644 168.501 146.938C167.559 147.944 166.771 148.738 166.21 149.268L165.564 149.868C165.492 149.943 165.412 150.01 165.326 150.068C165.326 150.068 165.384 149.971 165.519 149.823L166.126 149.177C166.662 148.622 167.417 147.803 168.34 146.776C173.123 141.416 177.095 135.385 180.131 128.874C180.711 127.628 181.163 126.608 181.46 125.892L181.815 125.079C181.886 124.898 181.938 124.801 181.951 124.808Z" fill="#263238"/>
<path d="M178.95 98.5088C179.108 98.7327 179.242 98.9729 179.35 99.2252L180.337 101.226C181.176 102.917 182.357 105.24 183.732 107.763C185.107 110.287 186.43 112.526 187.398 114.146C187.856 114.908 188.243 115.547 188.546 116.082C188.703 116.308 188.833 116.55 188.934 116.805C188.746 116.608 188.579 116.392 188.437 116.16C188.133 115.727 187.707 115.088 187.198 114.295C186.171 112.707 184.823 110.474 183.435 107.944C182.048 105.414 180.912 103.072 180.124 101.355C179.731 100.497 179.427 99.7931 179.227 99.3091C179.107 99.0529 179.014 98.7846 178.95 98.5088Z" fill="#263238"/>
<path d="M142.163 107.241C142.392 107.093 142.65 106.997 142.92 106.959C143.19 106.921 143.464 106.942 143.725 107.021C143.725 107.021 148.359 102.007 157.646 98.0828C166.933 94.1589 176.303 87.6987 176.303 87.6987L180.292 94.9592C180.292 94.9592 166.623 111.926 161.918 114.798C157.213 117.67 148.772 123.465 144.293 123.795C139.814 124.124 137.91 123.717 137.91 123.717C137.91 123.717 135.69 118.264 138.039 113.243C139.252 110.823 140.446 108.377 142.163 107.241Z" fill="#FFBF9D"/>
<path d="M143.738 107.021C143.465 107.007 143.191 107.031 142.925 107.092C142.219 107.351 141.596 107.798 141.124 108.383C139.561 110.308 138.38 112.514 137.646 114.882C137.257 116.189 137.057 117.545 137.052 118.909C137.054 120.025 137.202 121.136 137.491 122.213C137.789 123.198 138.178 124.153 138.652 125.066C138.652 125.066 138.594 125.014 138.51 124.898C138.385 124.732 138.27 124.557 138.168 124.375C137.788 123.712 137.482 123.009 137.258 122.278C136.934 121.186 136.76 120.055 136.742 118.916C136.729 117.52 136.924 116.13 137.323 114.792C137.719 113.458 138.272 112.175 138.969 110.971C139.515 109.978 140.164 109.046 140.905 108.189C141.42 107.606 142.092 107.183 142.841 106.97C143.054 106.927 143.273 106.927 143.486 106.97C143.573 106.97 143.658 106.987 143.738 107.021Z" fill="#263238"/>
<path d="M165.339 238.607C165.339 238.607 182.577 246.242 187.52 245.906C187.52 245.906 188.295 248.939 192.496 246.661C192.496 246.661 195.194 251.217 198.401 247.481C198.401 247.481 200.725 248.965 203.345 245.596L261.9 239.549C262.85 239.453 263.723 238.984 264.328 238.244C264.933 237.505 265.22 236.556 265.127 235.606C265.032 234.694 264.594 233.853 263.901 233.253C263.208 232.654 262.312 232.341 261.396 232.379C247.463 232.94 195.194 234.96 189.76 233.889C183.487 232.644 170.282 235.031 167.43 236.09C167.423 236.07 163.977 237.051 165.339 238.607Z" fill="#E0E0E0"/>
<path d="M165.339 238.607L165.197 238.42C165.122 238.321 165.068 238.209 165.038 238.089C165.008 237.969 165.003 237.845 165.022 237.723C165.151 237.32 165.428 236.981 165.797 236.774C166.298 236.451 166.841 236.2 167.41 236.025C169.225 235.464 171.078 235.033 172.954 234.734C175.245 234.321 177.962 233.902 181.073 233.644C182.628 233.508 184.3 233.437 186.029 233.457C186.907 233.457 187.798 233.521 188.714 233.624C189.631 233.728 190.547 233.883 191.489 233.96C195.303 234.141 199.46 234.089 203.906 234.031C212.793 233.908 222.842 233.605 233.703 233.244L250.567 232.637L259.383 232.295C260.131 232.295 260.861 232.224 261.629 232.218C262.421 232.235 263.187 232.504 263.816 232.986C264.287 233.344 264.666 233.809 264.924 234.341C265.182 234.874 265.311 235.46 265.301 236.051C265.291 236.643 265.142 237.224 264.866 237.747C264.591 238.271 264.195 238.722 263.713 239.065C263.399 239.288 263.053 239.462 262.687 239.581C262.323 239.688 261.949 239.755 261.57 239.781L257.221 240.227L248.65 241.085L232.29 242.763L203.338 245.732L203.435 245.68C202.838 246.495 202.057 247.158 201.157 247.616C200.714 247.834 200.227 247.947 199.734 247.947C199.24 247.947 198.754 247.834 198.311 247.616H198.479C198.246 247.842 198.033 248.087 197.788 248.262C197.542 248.469 197.271 248.645 196.981 248.784C196.407 249.089 195.74 249.169 195.11 249.01C194.515 248.838 193.971 248.526 193.522 248.1C193.078 247.704 192.693 247.245 192.38 246.738L192.535 246.784C191.649 247.322 190.635 247.614 189.598 247.629C189.095 247.617 188.609 247.445 188.211 247.139C187.821 246.838 187.537 246.423 187.398 245.951L187.507 246.035C186.596 246.03 185.687 245.931 184.797 245.738L183.506 245.454L182.293 245.119C180.699 244.667 179.221 244.176 177.859 243.699C175.129 242.731 172.831 241.821 170.973 241.066C169.114 240.311 167.694 239.697 166.746 239.278L165.661 238.8L165.3 238.626L165.674 238.775L166.765 239.226C167.726 239.626 169.153 240.22 171.018 240.962C172.883 241.705 175.181 242.595 177.911 243.544C179.279 244.015 180.75 244.499 182.338 244.938L183.551 245.267L184.842 245.545C185.713 245.732 186.603 245.825 187.494 245.822H187.585V245.899C187.718 246.331 187.985 246.71 188.346 246.981C188.708 247.253 189.146 247.403 189.598 247.41C190.592 247.384 191.562 247.099 192.412 246.584L192.502 246.532L192.567 246.622C193.142 247.625 194.058 248.388 195.148 248.771C195.72 248.917 196.326 248.843 196.846 248.565C197.143 248.423 197.419 248.241 197.665 248.023C197.898 247.829 198.098 247.59 198.311 247.377L198.388 247.306L198.472 247.358C198.875 247.552 199.316 247.653 199.763 247.653C200.21 247.653 200.651 247.552 201.054 247.358C201.913 246.918 202.658 246.284 203.229 245.506L203.261 245.461H203.319L232.258 242.447L248.65 240.756L257.201 239.872L261.551 239.42C261.905 239.398 262.256 239.337 262.597 239.239C262.93 239.129 263.246 238.971 263.532 238.768C264.122 238.351 264.564 237.758 264.798 237.074C265.031 236.391 265.042 235.651 264.831 234.96C264.619 234.27 264.195 233.664 263.619 233.228C263.043 232.792 262.344 232.549 261.622 232.534C260.899 232.534 260.131 232.585 259.396 232.611L250.58 232.953L233.71 233.547C222.848 233.889 212.799 234.192 203.906 234.276C199.46 234.321 195.303 234.36 191.476 234.167C190.515 234.089 189.54 233.973 188.682 233.825C187.801 233.717 186.916 233.657 186.029 233.644C184.293 233.644 182.641 233.683 181.092 233.812C177.982 234.05 175.284 234.457 172.973 234.851C171.103 235.154 169.255 235.586 167.443 236.141C166.152 236.542 165.222 237.116 165.074 237.768C165.039 237.994 165.092 238.225 165.222 238.413C165.3 238.536 165.339 238.607 165.339 238.607Z" fill="#263238"/>
<path d="M223.584 233.921L223.977 215.547L229.353 215.573L230.096 233.47L223.584 233.921Z" fill="#E0E0E0"/>
<path d="M244.384 215.522L246.701 233.547L253.852 232.818L249.741 215.464L244.384 215.522Z" fill="#E0E0E0"/>
<path d="M202.641 216.98L187.707 234.993L198.911 238.749L198.995 237.884L205.081 216.625L202.641 216.98Z" fill="#E0E0E0"/>
<path d="M188.308 233.947C188.286 234.547 188.219 235.145 188.107 235.735C187.965 236.838 187.798 238.362 187.707 240.046C187.617 241.73 187.643 243.273 187.675 244.376C187.717 244.976 187.717 245.578 187.675 246.177C187.52 245.593 187.434 244.993 187.417 244.389C187.3 242.94 187.278 241.485 187.352 240.033C187.427 238.58 187.595 237.134 187.856 235.703C187.94 235.102 188.091 234.513 188.308 233.947Z" fill="#263238"/>
<path d="M193.258 233.708C193.268 234.356 193.229 235.003 193.141 235.644C193.038 236.832 192.909 238.471 192.825 240.285C192.741 242.098 192.709 243.744 192.696 244.938C192.725 245.584 192.701 246.232 192.625 246.874C192.512 246.235 192.455 245.587 192.457 244.938C192.412 243.744 192.406 242.092 192.49 240.265C192.573 238.439 192.741 236.8 192.903 235.619C192.955 234.971 193.074 234.331 193.258 233.708Z" fill="#263238"/>
<path d="M198.046 234.412C198.107 235.04 198.12 235.672 198.085 236.303C198.085 237.471 198.085 239.078 198.149 240.853C198.214 242.627 198.35 244.228 198.446 245.37C198.53 245.995 198.569 246.625 198.563 247.255C198.379 246.65 198.26 246.026 198.208 245.396C198.046 244.241 197.891 242.627 197.814 240.879C197.736 239.13 197.775 237.477 197.814 236.309C197.824 235.67 197.902 235.034 198.046 234.412Z" fill="#263238"/>
<path d="M202.944 233.825C203.005 234.403 203.015 234.986 202.977 235.567C202.977 236.645 202.977 238.149 203.028 239.768C203.08 241.388 203.203 242.886 203.293 243.957C203.373 244.534 203.408 245.117 203.396 245.699C203.218 245.142 203.104 244.566 203.054 243.983C202.864 242.589 202.743 241.187 202.693 239.781C202.636 238.375 202.651 236.966 202.738 235.561C202.742 234.976 202.811 234.394 202.944 233.825Z" fill="#263238"/>
<path d="M260.486 232.166H260.299H259.751L257.627 232.276L249.838 232.605L224.126 233.624L209.96 234.115C207.785 234.186 205.713 234.296 203.777 234.205C201.841 234.115 200.034 234.044 198.388 233.96C195.103 233.779 192.444 233.695 190.599 233.689C189.682 233.689 188.966 233.689 188.482 233.689H187.933C187.869 233.699 187.804 233.699 187.74 233.689H187.927L188.482 233.65C188.966 233.65 189.676 233.592 190.599 233.573C192.444 233.534 195.116 233.573 198.401 233.734C200.047 233.799 201.848 233.889 203.784 233.934C205.72 233.979 207.779 233.896 209.953 233.818L224.113 233.302L249.838 232.437L257.634 232.211L259.751 232.172H260.306C260.365 232.161 260.426 232.159 260.486 232.166Z" fill="#263238"/>
<path d="M260.267 235.361C260.267 235.451 247.508 236.78 231.754 238.329C216 239.878 203.216 241.066 203.203 240.969C203.19 240.872 215.962 239.549 231.722 238C247.482 236.451 260.267 235.264 260.267 235.361Z" fill="#263238"/>
<path d="M261.048 237.89C261.048 237.981 248.218 239.388 232.374 241.021C216.53 242.653 203.667 243.912 203.661 243.821C203.654 243.731 216.491 242.324 232.341 240.691C248.192 239.059 261.041 237.8 261.048 237.89Z" fill="#263238"/>
<path d="M105.699 219.342L105.945 238.8C105.945 238.8 86.2478 245.583 85.938 249.178L123.673 250.062L124.538 219.73L105.699 219.342Z" fill="#263238"/>
<path d="M117.639 237.439C118 237.556 118.304 237.803 118.494 238.132C118.683 238.461 118.744 238.849 118.665 239.22C118.559 239.583 118.319 239.893 117.992 240.085C117.666 240.277 117.279 240.337 116.91 240.252C116.528 240.125 116.206 239.86 116.007 239.51C115.808 239.16 115.746 238.749 115.832 238.355C115.982 237.99 116.266 237.695 116.626 237.533C116.986 237.371 117.395 237.354 117.768 237.484" fill="#E0E0E0"/>
<path d="M123.68 250.062L123.647 247.003L87.5064 247.3C87.5064 247.3 85.8091 247.991 85.9704 249.178L123.68 250.062Z" fill="#455A64"/>
<path d="M105.332 238.594C105.332 238.775 106.255 238.884 107.152 239.497C108.049 240.111 108.507 240.898 108.675 240.827C108.842 240.756 108.597 239.685 107.507 238.962C106.416 238.239 105.299 238.42 105.332 238.594Z" fill="white"/>
<path d="M101.337 240.136C101.292 240.317 102.085 240.646 102.692 241.427C103.299 242.208 103.46 243.053 103.641 243.047C103.821 243.041 103.97 242.002 103.195 241.033C102.421 240.065 101.343 239.962 101.337 240.136Z" fill="white"/>
<path d="M98.9812 244.796C99.149 244.841 99.4265 243.925 98.9812 242.905C98.5359 241.885 97.6904 241.466 97.6001 241.614C97.5097 241.763 98.0389 242.318 98.3939 243.163C98.7488 244.009 98.794 244.796 98.9812 244.796Z" fill="white"/>
<path d="M105.77 234.154C105.841 234.321 106.693 234.089 107.707 234.186C108.72 234.283 109.552 234.625 109.643 234.47C109.733 234.315 108.997 233.637 107.745 233.541C106.493 233.444 105.686 234.005 105.77 234.154Z" fill="white"/>
<path d="M183.745 148.532C183.745 148.532 125.087 154.372 120.033 155.902C114.98 157.431 110.353 166.641 108.197 171.113C106.042 175.586 102.64 235.651 102.64 235.651L124.093 236.897C124.093 236.897 127.739 199.833 128.61 193.76C129.482 187.687 128.772 180.071 128.772 180.071C128.772 180.071 187.707 186.725 193.309 186.183C198.911 185.641 205.474 179.368 207.346 173.108C209.727 165.053 204.061 150.52 204.061 150.52C204.061 150.52 199.543 148.299 195.923 148.08C191.858 147.884 187.784 148.035 183.745 148.532Z" fill="#263238"/>
<path d="M182.473 166.538H182.305L181.815 166.583L179.937 166.718C178.298 166.828 175.929 166.97 172.999 167.125C167.139 167.428 159.046 167.77 150.095 167.919C141.143 168.067 133.038 168.067 127.171 167.977C124.241 167.932 121.866 167.88 120.227 167.828L118.342 167.764H117.852H117.684C117.74 167.754 117.796 167.754 117.852 167.764H120.22L127.165 167.803C133.025 167.803 141.131 167.803 150.075 167.648C159.02 167.493 167.12 167.196 172.973 166.951L179.911 166.654L181.802 166.576H182.447L182.473 166.538Z" fill="#455A64"/>
<path d="M111.353 140.729C111.353 140.729 101.872 157.018 101.672 161.968C101.672 161.968 98.5745 162.407 100.382 166.835C100.382 166.835 95.5606 169.01 98.923 172.611C98.923 172.611 97.1934 174.76 100.252 177.735V237.11C100.252 238.059 100.626 238.969 101.293 239.645C101.96 240.32 102.866 240.705 103.815 240.717C104.741 240.729 105.635 240.384 106.314 239.755C106.993 239.126 107.403 238.259 107.461 237.335C108.339 223.324 111.721 170.817 113.392 165.537C115.328 159.432 114.406 146.047 113.67 143.098C113.65 143.078 113.031 139.542 111.353 140.729Z" fill="#E0E0E0"/>
<path d="M111.353 140.729L111.553 140.607C111.659 140.543 111.776 140.501 111.898 140.485C112.02 140.468 112.144 140.477 112.263 140.51C112.654 140.68 112.963 140.994 113.128 141.388C113.392 141.92 113.581 142.487 113.689 143.072C114.057 144.944 114.292 146.84 114.393 148.745C114.548 151.075 114.67 153.837 114.58 156.967C114.541 158.628 114.418 160.287 114.212 161.936C114.101 162.828 113.941 163.714 113.734 164.589C113.483 165.486 113.283 166.389 113.089 167.332C112.508 171.12 112.127 175.276 111.721 179.723C110.921 188.616 110.185 198.684 109.417 209.578C109.049 215.025 108.668 220.678 108.275 226.493C108.09 229.397 107.9 232.345 107.707 235.335C107.655 236.083 107.629 236.819 107.552 237.587C107.452 238.378 107.102 239.115 106.551 239.691C106.141 240.123 105.634 240.451 105.073 240.649C104.512 240.847 103.911 240.91 103.321 240.832C102.731 240.754 102.167 240.537 101.676 240.2C101.186 239.863 100.782 239.414 100.498 238.891C100.313 238.549 100.18 238.181 100.104 237.8C100.045 237.425 100.023 237.044 100.04 236.664V223.595C100.04 217.903 100.04 212.359 100.04 207.022C100.04 196.348 100.04 186.473 100.04 177.735L100.078 177.832C99.3391 177.15 98.7709 176.303 98.4197 175.36C98.2509 174.896 98.1922 174.399 98.2482 173.909C98.3042 173.418 98.4734 172.947 98.7423 172.533V172.701C98.5423 172.443 98.3229 172.204 98.1486 171.94C97.9681 171.67 97.8208 171.38 97.7097 171.075C97.4807 170.47 97.4807 169.802 97.7097 169.197C97.95 168.626 98.3189 168.118 98.7875 167.712C99.2333 167.32 99.7305 166.99 100.265 166.731L100.207 166.88C99.7691 165.939 99.5909 164.899 99.691 163.866C99.7583 163.37 99.9825 162.908 100.331 162.548C100.679 162.188 101.133 161.949 101.627 161.865L101.537 161.962C101.641 161.057 101.84 160.166 102.131 159.303C102.273 158.89 102.415 158.477 102.55 158.07C102.686 157.664 102.866 157.283 103.015 156.902C103.66 155.366 104.305 153.953 104.919 152.649C106.177 150.068 107.339 147.861 108.294 146.099C109.249 144.337 110.011 142.995 110.533 142.091L111.127 141.071C111.263 140.845 111.34 140.729 111.34 140.729C111.34 140.729 111.282 140.852 111.153 141.084L110.585 142.117C110.082 143.033 109.333 144.382 108.391 146.15C107.448 147.919 106.313 150.113 105.067 152.72C104.422 154.011 103.809 155.437 103.189 156.967C103.041 157.354 102.886 157.741 102.731 158.141L102.318 159.361C102.035 160.209 101.844 161.086 101.75 161.975V162.059H101.672C101.229 162.146 100.825 162.369 100.516 162.698C100.207 163.027 100.008 163.444 99.9492 163.892C99.8638 164.882 100.042 165.877 100.465 166.777L100.504 166.873L100.407 166.925C99.3472 167.392 98.4889 168.223 97.9873 169.268C97.7681 169.819 97.7681 170.433 97.9873 170.984C98.0902 171.267 98.2267 171.535 98.3938 171.785C98.5616 172.043 98.7746 172.269 98.9682 172.514L99.0328 172.598L98.9747 172.682C98.735 173.063 98.5854 173.493 98.5373 173.94C98.4892 174.388 98.5439 174.84 98.6972 175.263C99.0375 176.166 99.5859 176.975 100.298 177.625L100.343 177.664V177.722C100.343 186.461 100.343 196.335 100.343 207.009C100.343 212.347 100.343 217.89 100.343 223.582C100.343 226.435 100.343 229.322 100.343 232.243V236.651C100.329 237.009 100.349 237.368 100.401 237.723C100.472 238.069 100.592 238.403 100.756 238.717C101.015 239.194 101.383 239.603 101.83 239.911C102.277 240.218 102.791 240.416 103.329 240.487C103.867 240.558 104.415 240.501 104.926 240.32C105.438 240.139 105.9 239.839 106.274 239.446C106.781 238.917 107.102 238.237 107.19 237.51C107.261 236.78 107.294 236.012 107.345 235.277C107.535 232.291 107.724 229.341 107.913 226.429C108.313 220.62 108.694 214.96 109.068 209.513C109.849 198.626 110.604 188.558 111.424 179.658C111.843 175.212 112.237 171.055 112.831 167.254C113.005 166.305 113.218 165.37 113.476 164.498C113.689 163.633 113.85 162.756 113.96 161.872C114.173 160.229 114.302 158.577 114.348 156.922C114.451 153.798 114.348 151.042 114.212 148.713C114.124 146.814 113.908 144.923 113.567 143.053C113.308 141.762 112.844 140.742 112.211 140.523C112.098 140.487 111.98 140.475 111.862 140.487C111.744 140.5 111.63 140.536 111.527 140.594L111.353 140.729Z" fill="#263238"/>
<path d="M109.604 199.136L127.823 201.549L127.203 206.887L109.333 205.66L109.604 199.136Z" fill="#E0E0E0"/>
<path d="M125.603 221.833L107.435 222.156L107.371 229.346L125.067 227.164L125.603 221.833Z" fill="#E0E0E0"/>
<path d="M128.746 180.181L112.482 163.356L107.52 174.082L107.868 176.664L128.991 185.325L128.746 180.181Z" fill="#E0E0E0"/>
<path d="M113.457 164.072C112.863 163.98 112.277 163.846 111.701 163.672C110.624 163.408 109.12 163.079 107.461 162.801C105.803 162.524 104.267 162.382 103.163 162.291C102.561 162.277 101.961 162.217 101.369 162.11C101.968 162.027 102.573 162.008 103.176 162.052C104.629 162.1 106.078 162.24 107.513 162.472C108.952 162.712 110.372 163.048 111.766 163.479C112.351 163.609 112.919 163.808 113.457 164.072Z" fill="#263238"/>
<path d="M113.154 169.016C112.501 168.956 111.853 168.846 111.217 168.687C110.049 168.455 108.429 168.151 106.635 167.861C104.841 167.57 103.208 167.37 102.027 167.215C101.376 167.171 100.729 167.079 100.091 166.938C100.736 166.889 101.385 166.904 102.027 166.983C103.215 167.067 104.861 167.241 106.661 167.525C108.462 167.809 110.082 168.171 111.243 168.448C111.898 168.57 112.539 168.76 113.154 169.016Z" fill="#263238"/>
<path d="M111.921 173.701C111.289 173.69 110.659 173.632 110.036 173.527C108.881 173.392 107.281 173.224 105.519 173.095C103.757 172.966 102.137 172.914 101.001 172.888C100.369 172.901 99.7376 172.871 99.1101 172.798C99.7335 172.683 100.367 172.633 101.001 172.649C102.169 172.649 103.789 172.649 105.57 172.759C107.352 172.869 108.952 173.095 110.088 173.288C110.711 173.364 111.325 173.502 111.921 173.701Z" fill="#263238"/>
<path d="M111.953 178.632C111.369 178.622 110.786 178.565 110.211 178.464C109.146 178.342 107.668 178.174 106.035 178.058C104.402 177.941 102.918 177.89 101.84 177.858C101.258 177.879 100.675 177.849 100.098 177.767C100.672 177.661 101.256 177.613 101.84 177.625C104.65 177.553 107.46 177.756 110.23 178.232C110.818 178.297 111.396 178.432 111.953 178.632Z" fill="#263238"/>
<path d="M107.313 236.006C107.304 235.944 107.304 235.881 107.313 235.819C107.313 235.677 107.313 235.496 107.313 235.264C107.313 234.76 107.39 234.05 107.442 233.147C107.571 231.288 107.752 228.629 107.971 225.364C108.449 218.774 109.113 209.713 109.843 199.697C110.223 194.683 110.585 189.913 110.914 185.57C111.082 183.401 111.198 181.33 111.508 179.407C111.817 177.483 112.082 175.709 112.347 174.082C112.882 170.855 113.263 168.203 113.463 166.37C113.573 165.46 113.644 164.744 113.683 164.266L113.741 163.717C113.741 163.654 113.752 163.59 113.773 163.53C113.777 163.593 113.777 163.655 113.773 163.717V164.266C113.773 164.75 113.702 165.466 113.618 166.383C113.45 168.222 113.108 170.868 112.598 174.127C112.353 175.754 112.069 177.535 111.805 179.452C111.54 181.368 111.404 183.427 111.243 185.602C110.92 189.945 110.565 194.721 110.198 199.736C109.43 209.739 108.733 218.8 108.229 225.389C107.958 228.655 107.745 231.308 107.584 233.166C107.506 234.063 107.442 234.773 107.397 235.277C107.397 235.503 107.351 235.683 107.339 235.825C107.339 235.886 107.33 235.947 107.313 236.006Z" fill="#263238"/>
<path d="M104.138 235.432C104.047 235.432 104.138 222.595 104.318 206.764C104.499 190.933 104.744 178.096 104.841 178.096C104.938 178.096 104.841 190.933 104.654 206.77C104.467 222.608 104.234 235.432 104.138 235.432Z" fill="#263238"/>
<path d="M101.537 235.935C101.44 235.935 101.459 223.027 101.575 207.087C101.692 191.146 101.859 178.245 101.956 178.245C102.053 178.245 102.027 191.152 101.911 207.093C101.795 223.034 101.627 235.935 101.537 235.935Z" fill="#263238"/>
<path d="M207.695 171.294C207.695 171.294 207.695 171.475 207.617 171.823C207.533 172.331 207.419 172.833 207.275 173.327C206.746 175.144 205.973 176.881 204.978 178.49C204.293 179.613 203.481 180.652 202.558 181.588C201.466 182.637 200.208 183.496 198.834 184.131C195.677 185.553 192.247 186.262 188.785 186.209C185.352 186.153 181.924 185.907 178.517 185.473L170.173 184.582L164.551 183.937L163.022 183.75C162.843 183.733 162.667 183.703 162.493 183.66C162.671 183.642 162.85 183.642 163.028 183.66L164.564 183.789L170.198 184.305L178.55 185.125C181.944 185.542 185.359 185.779 188.779 185.835C192.192 185.886 195.577 185.197 198.698 183.814C200.046 183.197 201.284 182.364 202.364 181.349C203.277 180.432 204.087 179.417 204.778 178.322C205.784 176.735 206.58 175.023 207.146 173.23C207.346 172.585 207.475 172.094 207.553 171.752C207.585 171.595 207.632 171.442 207.695 171.294Z" fill="#455A64"/>
<path d="M193.393 74.8428C191.502 82.4066 188.462 94.3009 187.546 97.8891C187.28 98.8632 187.372 99.9003 187.804 100.813C188.122 101.482 188.596 102.065 189.185 102.515C189.774 102.964 190.463 103.265 191.192 103.394C191.889 103.523 192.606 103.479 193.282 103.265C193.957 103.051 194.569 102.674 195.065 102.168C195.71 101.523 196.284 100.774 196.291 100.187C196.291 99.1799 200.26 83.5618 201.925 77.0242C202.14 76.181 202.101 75.2931 201.812 74.4721C201.524 73.6511 201 72.9336 200.305 72.4097C199.724 71.9786 199.046 71.6967 198.331 71.5886C197.616 71.4805 196.885 71.5496 196.203 71.7898C195.52 72.0299 194.907 72.4339 194.417 72.9662C193.928 73.4985 193.576 74.1429 193.393 74.8428Z" fill="#455A64"/>
<path d="M195.529 100.445C195.497 100.445 195.529 100.309 195.529 100.083C195.498 99.7682 195.369 99.4705 195.161 99.2315C194.658 98.5861 193.458 98.328 192.231 98.0376C191.179 97.7799 190.076 97.8156 189.043 98.1408C188.63 98.3168 188.229 98.5194 187.843 98.7475C188.116 98.3592 188.508 98.0695 188.959 97.9214C190.022 97.5054 191.189 97.4309 192.296 97.7084C192.898 97.8347 193.491 98.0029 194.071 98.2118C194.577 98.3694 195.026 98.6724 195.361 99.0831C195.582 99.3684 195.692 99.7236 195.671 100.083C195.632 100.335 195.542 100.451 195.529 100.445Z" fill="#263238"/>
<path d="M204.887 91.6033C204.752 90.5948 204.44 89.6181 203.964 88.7184C203.935 87.4341 203.594 86.1762 202.971 85.0527C202.112 83.5877 197.943 79.9349 193.735 79.638C193.222 79.6016 192.708 79.6777 192.227 79.861C191.747 80.0444 191.312 80.3304 190.954 80.6993C190.595 81.0681 190.322 81.5107 190.152 81.9963C189.983 82.4818 189.922 82.9985 189.973 83.5103C189.973 83.5103 189.973 83.5683 189.973 83.5942C189.973 83.62 186.339 84.1621 186.307 86.7694V87.8214C186.307 87.8214 183.919 90.9192 187.391 91.7452C187.391 91.7452 186.584 96.0563 189.831 96.3274C191.866 96.4936 193.91 96.5195 195.949 96.4049L196.775 97.8957L196.465 99.4317C196.465 99.4317 195.82 102.11 194.084 102.891C191.689 103.988 190.65 103.594 189.766 104.975C189.306 105.707 189.054 106.55 189.036 107.414C189.017 108.277 189.234 109.13 189.663 109.88L191.341 112.972C191.715 115.456 192.574 116.444 192.574 116.444L202.254 112.12C202.372 112.066 202.475 111.985 202.553 111.882C202.632 111.779 202.684 111.659 202.705 111.531C202.726 111.404 202.715 111.273 202.674 111.15C202.632 111.028 202.561 110.917 202.467 110.829L200.77 109.267C200.77 109.267 201.815 108.828 202.706 106.731L203.3 105.285C204.12 103.935 204.75 102.478 205.171 100.955C205.494 99.0961 205.216 93.5265 204.887 91.6033Z" fill="#E0E0E0"/>
<path d="M202.409 96.792C202.073 95.9889 201.64 95.2302 201.118 94.5332C199.79 92.9047 197.954 91.7685 195.904 91.3063C193.849 90.8847 191.73 90.8847 189.676 91.3063C188.095 91.6096 187.127 91.9001 187.094 91.8484C187.298 91.735 187.515 91.6462 187.74 91.5838C188.172 91.4419 188.804 91.2547 189.598 91.074C191.681 90.5677 193.849 90.5281 195.949 90.9578C198.069 91.4203 199.958 92.6182 201.28 94.3396C201.668 94.8601 201.975 95.4368 202.19 96.0498C202.308 96.2815 202.383 96.5331 202.409 96.792Z" fill="#263238"/>
<path d="M202.99 90.2608C202.351 89.7124 201.681 89.2017 200.983 88.7313C199.233 87.698 197.266 87.0881 195.239 86.9501C193.208 86.832 191.17 86.984 189.179 87.4018C187.636 87.6987 186.694 87.9375 186.681 87.8859C186.885 87.7794 187.102 87.6991 187.327 87.6471C187.746 87.518 188.359 87.3437 189.127 87.1695C191.133 86.6732 193.202 86.486 195.265 86.6145C197.346 86.7552 199.358 87.4213 201.112 88.5506C201.637 88.8956 202.122 89.2982 202.557 89.751C202.726 89.8988 202.871 90.0706 202.99 90.2608Z" fill="#263238"/>
<path d="M201.428 85.4787C201.428 85.5238 200.783 85.1689 199.802 84.7236C197.172 83.5437 194.279 83.0742 191.412 83.3618C190.315 83.4651 189.643 83.62 189.631 83.5619C189.618 83.5038 189.785 83.478 190.089 83.3941C190.512 83.2746 190.944 83.184 191.38 83.123C194.298 82.7038 197.274 83.1857 199.911 84.5041C200.306 84.694 200.688 84.9096 201.054 85.1495C201.305 85.3496 201.441 85.4593 201.428 85.4787Z" fill="#263238"/>
<path d="M193.083 111.61C193.083 111.519 194.794 111.068 196.885 110.416C198.976 109.764 200.654 109.157 200.692 109.248C198.301 110.442 195.731 111.24 193.083 111.61Z" fill="#263238"/>
<path d="M192.096 63.5359C195.729 65.5817 203.654 70.1833 203.654 70.1833C204.448 69.8154 219.021 19.6439 221.757 10.2021C221.897 9.72168 221.921 9.21481 221.827 8.72331C221.733 8.23181 221.523 7.76978 221.215 7.37534C219.279 4.91646 215.084 -0.117463 212.864 0.379475C210.282 0.966767 194.322 50.196 190.966 60.6446C190.794 61.1829 190.811 61.7644 191.017 62.291C191.223 62.8176 191.604 63.2573 192.096 63.5359Z" fill="#407BFF"/>
<path d="M204.887 66.6337C204.848 66.6724 204.184 66.169 203.048 65.4462C201.574 64.5001 200.014 63.6962 198.388 63.0454C196.755 62.4101 195.062 61.9409 193.335 61.6449C192.012 61.4126 191.179 61.3416 191.179 61.29C191.376 61.2569 191.577 61.2569 191.773 61.29C192.309 61.3081 192.843 61.3555 193.374 61.4319C195.142 61.6596 196.876 62.1039 198.537 62.755C200.185 63.4058 201.751 64.2485 203.203 65.2655C203.758 65.6592 204.197 65.9947 204.494 66.24C204.79 66.4852 204.9 66.6143 204.887 66.6337Z" fill="#263238"/>
<path d="M214.497 1.08941C214.482 1.14187 214.465 1.19357 214.445 1.24429C214.4 1.36692 214.348 1.51535 214.277 1.70251C214.118 2.13276 213.892 2.7136 213.6 3.44502L211.102 9.87941C209.005 15.2941 206.204 22.7869 203.358 31.1768C200.511 39.5667 198.104 47.2144 196.439 52.771C195.626 55.5397 194.961 57.7856 194.503 59.3668C194.277 60.1219 194.096 60.7221 193.967 61.1609L193.825 61.6256C193.81 61.6795 193.788 61.7315 193.761 61.7805C193.754 61.7248 193.754 61.6684 193.761 61.6127C193.761 61.4901 193.825 61.3352 193.871 61.1416C193.987 60.7027 194.142 60.0961 194.342 59.3281C194.755 57.7598 195.387 55.4945 196.187 52.7065C197.794 47.124 200.144 39.4505 203.009 31.0671C205.875 22.6837 208.721 15.1779 210.876 9.7697C211.948 7.07203 212.812 4.89712 213.458 3.4063L214.2 1.68315L214.393 1.23784C214.445 1.13458 214.49 1.08295 214.497 1.08941Z" fill="#263238"/>
<path d="M175.819 86.7823L179.459 83.82C179.88 81.8387 180.465 79.8959 181.208 78.0117C181.326 76.6093 181.765 75.253 182.493 74.0485C183.221 72.844 184.217 71.8238 185.403 71.0674C185.796 70.206 186.366 69.4375 187.077 68.8123C187.788 68.1872 188.623 67.7196 189.527 67.4404C189.924 66.4485 190.606 65.5965 191.487 64.9923C192.368 64.388 193.409 64.0586 194.477 64.0457C200.873 63.7682 205.965 67.918 206.785 69.8541C207.604 71.7902 205.662 73.2036 205.662 73.2036L206.075 75.5592C206.242 76.5221 206.029 77.5122 205.481 78.3214C205.481 78.3214 205.92 81.4967 203.88 81.5935C201.841 81.6903 201.538 80.2253 201.538 80.2253C201.538 80.2253 199.782 81.0449 198.956 80.7932L196.917 80.1478L193.438 79.8639L190.818 81.6774C190.818 81.6774 189.527 87.6665 188.398 89.4606C187.268 91.2547 180.982 96.179 180.982 96.179L175.819 86.7823Z" fill="#E0E0E0"/>
<path d="M184.577 74.5847C184.821 74.4717 185.076 74.3872 185.339 74.333C186.046 74.1498 186.764 74.0098 187.488 73.9135C189.89 73.6131 192.326 73.7398 194.684 74.2878C195.98 74.5936 197.242 75.0259 198.453 75.5786C199.475 75.9757 200.416 76.5576 201.228 77.2953C201.528 77.6142 201.73 78.0131 201.809 78.444C201.867 78.7663 201.838 79.0984 201.725 79.4056C201.657 79.6009 201.542 79.7762 201.389 79.9155C201.286 80.0058 201.215 80.0317 201.215 80.0252C201.381 79.8486 201.509 79.6398 201.591 79.4118C201.673 79.1838 201.708 78.9414 201.693 78.6996C201.678 78.4577 201.613 78.2215 201.503 78.0055C201.393 77.7895 201.24 77.5983 201.054 77.4437C200.245 76.7583 199.324 76.2189 198.33 75.8496C197.129 75.3273 195.882 74.9147 194.607 74.617C192.28 74.083 189.883 73.9261 187.507 74.1523C185.694 74.3394 184.59 74.6428 184.577 74.5847Z" fill="#263238"/>
<path d="M190.256 70.2026C190.49 70.1079 190.735 70.0449 190.986 70.0154C191.659 69.8974 192.342 69.8391 193.025 69.8412C195.304 69.8323 197.547 70.4123 199.536 71.5249C201.524 72.6375 203.192 74.245 204.377 76.1917C204.739 76.773 205.046 77.3866 205.294 78.0245C205.4 78.2523 205.476 78.4932 205.52 78.7409C205.462 78.7409 205.113 77.747 204.177 76.3207C202.963 74.4532 201.313 72.9092 199.369 71.8219C197.425 70.7347 195.245 70.1368 193.019 70.0799C191.315 70.0283 190.263 70.2671 190.256 70.2026Z" fill="#263238"/>
<path d="M192.638 67.1693C192.827 67.1059 193.026 67.0732 193.225 67.0725C193.454 67.0436 193.685 67.0328 193.916 67.0402C194.224 67.032 194.532 67.0449 194.839 67.079C195.634 67.1455 196.422 67.2816 197.194 67.4855C198.141 67.7397 199.066 68.0655 199.963 68.4601C200.86 68.8655 201.724 69.3425 202.544 69.8863C203.205 70.3371 203.825 70.8445 204.397 71.403C204.627 71.6025 204.843 71.8182 205.042 72.0484C205.197 72.2214 205.337 72.407 205.462 72.6034C205.587 72.7565 205.687 72.9286 205.758 73.1132C205.707 73.1519 205.249 72.4678 204.255 71.545C203.67 71.0208 203.047 70.5418 202.39 70.1122C200.775 69.0643 199.01 68.2678 197.156 67.7502C196.4 67.5377 195.63 67.3802 194.852 67.279C193.483 67.1435 192.644 67.2339 192.638 67.1693Z" fill="#263238"/>
<path d="M192.322 79.7735C192.322 79.8703 190.902 80.0187 189.224 80.5479C187.546 81.0772 186.171 81.516 186.139 81.4127C187.088 80.9068 188.09 80.5085 189.127 80.2253C190.148 79.8498 191.237 79.6958 192.322 79.7735Z" fill="#263238"/>
<path d="M189.831 96.3209C189.694 96.3253 189.558 96.3123 189.424 96.2822C189.034 96.2187 188.665 96.0639 188.346 95.8304C187.462 95.185 187.004 93.5716 187.282 91.7194L187.365 91.842L186.817 91.6807C186.63 91.6032 186.449 91.5129 186.268 91.416C185.886 91.1854 185.597 90.8263 185.455 90.4028C185.342 89.9451 185.369 89.464 185.533 89.0217C185.68 88.5609 185.898 88.1256 186.178 87.731L186.146 87.8149C186.146 87.3308 186.146 86.8597 186.197 86.3176C186.299 85.777 186.554 85.2772 186.933 84.8784C187.757 84.0825 188.8 83.5501 189.928 83.3489L189.798 83.5231C189.724 82.8616 189.831 82.1922 190.108 81.587C190.404 80.9605 190.866 80.4271 191.444 80.0445C192.042 79.6523 192.742 79.4436 193.458 79.4443C193.812 79.4539 194.166 79.4862 194.516 79.5411C194.858 79.6186 195.22 79.6638 195.555 79.7735C197.783 80.4567 199.829 81.6298 201.544 83.2069C201.952 83.5715 202.332 83.9663 202.68 84.3879C203.017 84.804 203.287 85.2699 203.48 85.769C203.866 86.6988 204.074 87.6926 204.094 88.699V88.6216C204.818 90.1802 205.209 91.8727 205.242 93.591C205.352 95.1011 205.384 96.4177 205.391 97.5019C205.403 98.3419 205.373 99.182 205.3 100.019C205.281 100.236 205.249 100.451 205.204 100.664C205.196 100.739 205.179 100.813 205.152 100.884C205.152 100.884 205.152 100.574 205.21 99.9995C205.268 99.4252 205.249 98.5733 205.21 97.489C205.171 96.4048 205.12 95.0947 204.991 93.6168C204.938 91.9416 204.545 90.2947 203.835 88.7765V88.7377V88.699C203.806 87.734 203.601 86.7825 203.229 85.8916C202.809 84.9403 202.167 84.1037 201.357 83.4521C199.679 81.913 197.676 80.7706 195.497 80.1091C195.168 79.9994 194.852 79.9542 194.497 79.8767C194.163 79.8251 193.827 79.7949 193.49 79.7864C192.839 79.7834 192.202 79.9719 191.657 80.3285C191.131 80.6764 190.71 81.1604 190.437 81.729C190.187 82.2713 190.087 82.8708 190.147 83.465V83.607H190.005C188.943 83.7967 187.959 84.2898 187.172 85.0268C186.838 85.387 186.614 85.8347 186.526 86.3176C186.462 86.7823 186.488 87.305 186.468 87.7761V87.8213V87.86C186.185 88.1914 185.974 88.5786 185.849 88.9966C185.725 89.4146 185.69 89.8541 185.746 90.2866C185.864 90.6573 186.111 90.9733 186.443 91.1773C186.61 91.2676 186.778 91.3515 186.946 91.4225L187.469 91.5903H187.565V91.6807C187.269 93.4748 187.675 95.0495 188.488 95.6626C188.787 95.8989 189.136 96.0644 189.508 96.1466L189.831 96.3209Z" fill="#263238"/>
<path d="M152.799 61.7353C153.091 59.5136 153.015 57.2589 152.573 55.0621C152.496 54.7071 151.121 47.3176 146.152 42.4386C142.602 38.9213 136.645 37.1594 131.837 38.2759C127.029 39.3924 121.511 42.3482 119.44 47.8662C117.368 53.3841 118.258 56.0624 118.258 56.0624C118.258 56.0624 117.936 60.7737 118.258 62.0128C118.839 64.1038 122.086 68.6279 122.086 68.6279L123.925 70.3962L149.908 65.9367L152.799 61.7353Z" fill="#407BFF"/>
<path d="M151.392 65.5107C151.615 62.0427 151.537 58.5619 151.16 55.1072C150.78 51.6319 149.542 48.3054 147.559 45.4266C147.249 45.0007 144.835 42.2449 144.332 42.4321C143.983 42.5741 145.758 45.2782 145.661 45.659C144.771 49.1375 145.319 52.8613 146.578 56.2302C147.828 59.4904 149.439 62.601 151.379 65.5042" fill="#263238"/>
<path d="M120.117 59.5733C119.153 55.7811 119.651 51.765 121.511 48.3228C123.372 44.8806 126.459 42.2641 130.159 40.9929L130.927 40.7348C139.317 38.3921 145.99 44.2069 148.094 52.6613L155.29 79.5799L153.457 94.5332L137.568 88.1763C136.871 85.8207 136.658 85.1172 136.639 85.1237C136.62 85.1301 128.307 86.6016 125.5 78.7345C124.144 74.9526 121.989 66.8918 120.117 59.5733Z" fill="#FFBF9D"/>
<path d="M136.639 85.1495C140.288 83.8859 143.5 81.6039 145.893 78.5731C145.893 78.5731 145.455 85.3689 137.316 87.3631L136.639 85.1495Z" fill="#FF9A6C"/>
<path d="M124.415 65.9625C124.512 66.2588 124.721 66.5054 124.997 66.6491C125.274 66.7927 125.595 66.822 125.893 66.7305C126.041 66.6925 126.179 66.6252 126.301 66.5327C126.422 66.4403 126.524 66.3244 126.599 66.1921C126.675 66.0598 126.724 65.9136 126.742 65.7623C126.76 65.6109 126.748 65.4573 126.706 65.3107C126.609 65.0154 126.4 64.7699 126.124 64.6265C125.848 64.483 125.526 64.453 125.229 64.5427C125.081 64.5808 124.942 64.648 124.821 64.7405C124.7 64.833 124.598 64.9488 124.523 65.0811C124.447 65.2135 124.398 65.3596 124.38 65.511C124.361 65.6624 124.374 65.8159 124.415 65.9625Z" fill="#263238"/>
<path d="M123.002 62.4968C123.189 62.5936 123.828 61.6643 125.041 61.2512C126.255 60.8382 127.358 61.1415 127.442 60.9479C127.481 60.8575 127.248 60.6446 126.764 60.4961C126.114 60.3102 125.422 60.3305 124.783 60.5542C124.149 60.7702 123.6 61.1814 123.215 61.7288C122.944 62.1547 122.905 62.4516 123.002 62.4968Z" fill="#263238"/>
<path d="M135.38 62.7034C135.479 62.9975 135.689 63.2415 135.965 63.3836C136.241 63.5258 136.561 63.5549 136.858 63.4649C137.006 63.4276 137.144 63.361 137.265 63.2692C137.386 63.1773 137.488 63.0621 137.564 62.9303C137.64 62.7984 137.688 62.6528 137.707 62.5018C137.725 62.3509 137.713 62.1977 137.671 62.0515C137.575 61.7552 137.366 61.5087 137.09 61.365C136.813 61.2213 136.491 61.1921 136.193 61.2835C136.046 61.3216 135.907 61.3889 135.786 61.4813C135.665 61.5738 135.563 61.6896 135.487 61.8219C135.412 61.9543 135.363 62.1004 135.345 62.2518C135.326 62.4032 135.338 62.5567 135.38 62.7034Z" fill="#263238"/>
<path d="M134.806 58.986C135 59.0828 135.638 58.1535 136.852 57.7405C138.065 57.3274 139.169 57.6308 139.246 57.4371C139.291 57.3468 139.059 57.1338 138.601 56.9854C137.95 56.7994 137.258 56.8197 136.619 57.0435C135.987 57.2595 135.44 57.6708 135.058 58.218C134.748 58.6311 134.716 58.928 134.806 58.986Z" fill="#263238"/>
<path d="M133.851 69.525C133.141 69.5439 132.437 69.6501 131.753 69.8412C131.431 69.9187 131.108 69.9574 130.992 69.7638C130.856 69.451 130.818 69.1047 130.882 68.7699C130.921 67.918 130.953 67.0274 130.992 66.0981C131.114 62.2968 131.089 59.2119 130.934 59.2055C130.779 59.199 130.559 62.2839 130.437 66.0852C130.437 67.0209 130.392 67.9116 130.372 68.7635C130.305 69.2107 130.396 69.6673 130.63 70.0542C130.711 70.1447 130.811 70.2164 130.922 70.2644C131.034 70.3123 131.155 70.3353 131.276 70.3317C131.465 70.3195 131.651 70.2827 131.831 70.222C132.531 70.0758 133.21 69.8416 133.851 69.525Z" fill="#263238"/>
<path d="M134.006 56.2818C134.264 56.54 135.2 55.8753 136.477 55.4299C137.755 54.9846 138.904 54.8556 138.917 54.4942C138.917 54.3264 138.607 54.1198 138.065 54.0166C137.371 53.9026 136.659 53.9716 136 54.2166C135.346 54.446 134.765 54.8446 134.315 55.3719C133.98 55.7978 133.883 56.1528 134.006 56.2818Z" fill="#263238"/>
<path d="M121.414 57.9147C121.756 58.1083 122.66 57.4952 123.847 57.0951C125.035 56.6949 126.119 56.5594 126.255 56.1916C126.313 56.0173 126.061 55.7914 125.532 55.6753C124.815 55.5448 124.077 55.6118 123.396 55.8689C122.711 56.099 122.102 56.5119 121.634 57.0628C121.305 57.4823 121.26 57.8179 121.414 57.9147Z" fill="#263238"/>
<path d="M149.456 58.7472C149.572 58.6375 154.341 55.2751 156.019 60.7414C157.697 66.2077 151.844 66.7627 151.844 66.6078C151.844 66.453 149.456 58.7472 149.456 58.7472Z" fill="#FFBF9D"/>
<path d="M152.844 64.0264C152.844 64.0264 152.96 64.0651 153.141 64.0909C153.397 64.115 153.653 64.0412 153.857 63.8844C154.374 63.4972 154.574 62.4259 154.296 61.4384C154.17 60.9616 153.936 60.52 153.612 60.1477C153.508 59.9926 153.368 59.865 153.204 59.7762C153.04 59.6874 152.857 59.6399 152.67 59.6379C152.552 59.6415 152.439 59.687 152.352 59.7662C152.264 59.8454 152.208 59.9532 152.192 60.0703C152.192 60.2445 152.231 60.3478 152.192 60.3607C152.154 60.3736 152.05 60.309 152.025 60.0703C152.013 59.9241 152.052 59.7784 152.134 59.6572C152.25 59.4985 152.424 59.3919 152.618 59.3603C152.856 59.3346 153.096 59.371 153.316 59.466C153.535 59.561 153.726 59.7114 153.87 59.9025C154.249 60.3029 154.524 60.7905 154.671 61.3223C154.974 62.4323 154.729 63.6392 154.025 64.1103C153.891 64.1983 153.74 64.255 153.581 64.2763C153.422 64.2975 153.261 64.2827 153.109 64.2329C152.896 64.1555 152.831 64.0458 152.844 64.0264Z" fill="#FF9A6C"/>
<path d="M120.963 49.4473C119.93 49.2214 121.731 45.5751 123.615 43.9165C126.468 41.4447 131.224 39.0245 134.515 38.9793C138.478 38.9277 142.06 39.8442 144.887 42.6193C147.664 45.4826 149.631 49.033 150.585 52.9065C150.974 54.0576 151.052 55.291 150.811 56.4819C150.405 57.9211 149.166 59.1215 149.727 60.7737C149.837 61.0708 149.888 61.3869 149.876 61.7036C149.863 62.0204 149.789 62.3316 149.656 62.6194C148.972 63.9812 147.449 63.3423 146.584 62.5097C144.738 60.722 143.841 58.1986 143.002 55.772C142.313 54.0791 141.906 52.285 141.795 50.4606C141.795 49.4667 141.963 48.4728 141.905 47.4789C141.906 46.9823 141.8 46.4913 141.592 46.04C141.385 45.5887 141.082 45.1878 140.705 44.8652C140.521 44.7403 140.327 44.6323 140.124 44.5425C139.158 44.1074 138.094 43.9379 137.042 44.0513C135.989 44.1648 134.985 44.5571 134.135 45.1879C131.373 47.195 126.59 50.396 124.899 49.7636C122.473 48.8471 121.705 48.0017 121.705 48.0017L120.963 49.4473Z" fill="#263238"/>
<path d="M137.936 69.1377C137.749 69.1764 138.11 70.4285 137.291 71.6482C136.471 72.868 135.09 73.1132 135.135 73.2939C135.135 73.3778 135.503 73.4488 136.077 73.2939C136.817 73.0907 137.461 72.6337 137.897 72.0032C138.315 71.3943 138.48 70.6466 138.355 69.9186C138.252 69.3765 138.02 69.1054 137.936 69.1377Z" fill="#263238"/>
<path d="M149.656 62.6195C149.656 62.6195 150.34 75.669 143.919 80.3028L143.08 80.0382C143.08 80.0382 148.972 74.2298 148.598 62.9551L149.656 62.6195Z" fill="#263238"/>
<path d="M127.965 82.7229C127.965 82.7229 133.844 77.4437 144.383 79.8123C144.383 79.8123 142.273 83.9297 136.336 85.1882C131.786 86.1563 127.965 82.8068 127.965 82.7229Z" fill="#263238"/>
<path d="M132.037 85.9046C129.92 85.9179 127.817 85.5619 125.822 84.8526L125.48 84.7364C123.686 84.162 118.284 74.049 118.007 72.7131C117.691 71.19 119.156 64.5555 119.297 63.8069L119.943 63.9489C119.491 65.9496 118.381 71.4094 118.652 72.584C118.981 74.191 124.377 83.7038 125.687 84.1233L126.035 84.2395C127.7 84.7881 130.798 85.8142 136.322 84.8849C142.131 83.891 147.759 78.5279 148.785 76.5531C149.585 75.0171 151.315 63.4842 152.115 57.6049L152.76 57.6952C152.663 58.3922 150.417 74.8299 149.366 76.8499C148.262 78.9668 142.531 84.4718 136.458 85.5238C134.998 85.7759 133.519 85.9033 132.037 85.9046Z" fill="#E0E0E0"/>
<path d="M118.568 72.8551L118.071 72.4421C118.252 72.2291 122.589 67.15 134.942 66.111C147.294 65.0719 150.495 69.1507 150.624 69.3378L150.101 69.7186C150.069 69.6799 146.984 65.756 134.993 66.7628C123.002 67.7696 118.614 72.8035 118.568 72.8551Z" fill="#E0E0E0"/>
<path d="M121.815 79.4767L121.511 78.9346C125.784 76.7087 130.427 75.2805 135.213 74.7203C143.131 73.7909 148.494 76.8242 148.714 76.9533L148.391 77.5147C144.328 75.5272 139.77 74.7776 135.284 75.3592C130.582 75.905 126.018 77.3001 121.815 79.4767Z" fill="#E0E0E0"/>
<path d="M139.298 84.0975C139.188 83.7812 136.6 76.2433 136.387 75.5398C136.174 74.8363 135.742 67.3629 135.742 66.5046L136.387 66.4658C136.561 69.7637 136.865 74.8557 137.032 75.3333C137.245 76.0303 139.911 83.8006 139.937 83.878L139.298 84.0975Z" fill="#E0E0E0"/>
<path d="M133.522 85.6658L128.359 76.5402C127.713 75.4366 126.042 68.4859 125.971 68.1891L126.616 68.0342C127.1 70.0284 128.462 75.3721 128.939 76.224L134.102 85.3496L133.522 85.6658Z" fill="#E0E0E0"/>
<path d="M128.384 85.4592C128.223 85.2204 124.409 79.5992 123.596 78.2827C123.292 77.7922 120.104 71.4223 119.969 71.1513L120.543 70.8608C121.685 73.1455 123.912 77.5663 124.144 77.96C124.951 79.2507 128.881 85.0591 128.92 85.1107L128.384 85.4592Z" fill="#E0E0E0"/>
<path d="M144.835 81.2256L144.19 81.1675C144.348 79.3566 144.605 77.5555 144.958 75.7722C145.351 74.2297 145.919 67.5823 145.926 67.5114C146.022 66.369 146.248 63.6843 146.281 63.5165L146.926 63.6585L146.61 63.5875L146.926 63.652C146.926 63.8263 146.7 66.1496 146.584 67.5694C146.584 67.8469 146.003 74.3394 145.596 75.9593C145.255 77.7009 145.001 79.4585 144.835 81.2256Z" fill="#E0E0E0"/>
<path d="M132.076 37.3531L137.962 37.7016C138.153 37.7144 138.341 37.7603 138.517 37.8371C139.808 38.4825 144.861 39.0504 146.823 42.3547C148.217 44.691 150.418 48.1179 151.302 50.8737C151.385 51.1428 151.392 51.4294 151.325 51.7027C151.257 51.976 151.116 52.2256 150.917 52.4247C150.718 52.6238 150.468 52.7649 150.195 52.8328C149.921 52.9006 149.635 52.8927 149.366 52.8098C147.523 52.1262 145.556 51.8445 143.596 51.9837C136.026 52.6936 125.68 54.3393 121.195 55.3203C120.13 55.5462 119.059 55.1719 119.227 54.0941C119.594 51.7062 120.182 48.0921 120.517 46.9175C120.982 45.3299 124.254 41.8255 125.035 41.0059C125.144 40.8878 125.273 40.7895 125.416 40.7155L131.263 37.5402C131.511 37.4034 131.793 37.3385 132.076 37.3531Z" fill="#407BFF"/>
<path d="M122.666 50.2217C125.79 49.3311 133.076 48.718 136.716 49.2343C139.163 49.6553 141.51 50.5309 143.635 51.8158L119.001 56.0624L114.051 57.2112C116 54.1004 119.575 51.1124 122.666 50.2217Z" fill="#407BFF"/>
<path d="M118.213 52.5838C118.496 52.3782 118.797 52.1968 119.11 52.0417C119.698 51.7126 120.569 51.2737 121.692 50.751C122.989 50.1847 124.329 49.7229 125.7 49.3699C127.389 48.9501 129.122 48.7335 130.863 48.7245C134.015 48.6375 137.163 49.0358 140.195 49.9055C141.108 50.1865 141.991 50.5607 142.828 51.022C143.05 51.1459 143.266 51.2816 143.473 51.4286C143.55 51.4762 143.622 51.5325 143.686 51.5964C143.366 51.4604 143.054 51.3074 142.75 51.1382C141.898 50.7303 141.013 50.3936 140.104 50.1314C137.085 49.3403 133.97 48.9796 130.85 49.0601C129.135 49.0605 127.427 49.2575 125.758 49.6474C124.399 49.9799 123.066 50.4113 121.769 50.9381C120.659 51.3963 119.782 51.8029 119.188 52.0933C118.879 52.2862 118.552 52.4504 118.213 52.5838Z" fill="#263238"/>
<path d="M151.74 54.0553L152.07 57.6243L149.262 58.8569C149.262 58.8569 149.294 62.8841 147.771 63.452C146.248 64.0199 144.816 62.8453 144.816 62.8453L144.338 51.7255C144.338 51.7255 149.288 50.3057 149.256 50.5058C149.224 50.7058 151.74 54.0553 151.74 54.0553Z" fill="#407BFF"/>
<path d="M128.694 46.4335C128.71 44.9927 128.928 43.5612 129.339 42.1805C129.637 40.7742 130.134 39.418 130.817 38.1533C130.908 38.1533 130.237 39.9862 129.662 42.2644C129.088 44.5425 128.797 46.4399 128.694 46.4335Z" fill="#263238"/>
<path d="M119.072 49.8927C119.258 49.4008 119.498 48.9311 119.788 48.4922C120.272 47.6533 120.976 46.5109 121.802 45.2654C122.628 44.0198 123.409 42.942 123.996 42.1676C124.29 41.7326 124.63 41.3302 125.009 40.9672C124.782 41.441 124.507 41.8908 124.19 42.3095L122.079 45.4525C121.298 46.6271 120.595 47.692 119.995 48.6084C119.731 49.0662 119.421 49.4964 119.072 49.8927Z" fill="#263238"/>
<path d="M143.706 44.9943C143.615 45.033 142.796 43.2324 141.382 41.2705C139.969 39.3086 138.536 37.9339 138.614 37.8629C138.989 38.0833 139.327 38.3622 139.614 38.689C140.364 39.4199 141.046 40.2169 141.653 41.0704C142.266 41.9227 142.801 42.8276 143.254 43.7745C143.466 44.1558 143.618 44.5671 143.706 44.9943Z" fill="#263238"/>
<path d="M152.928 57.4823C152.831 57.5726 151.637 55.4042 149.127 53.8294C146.616 52.2547 144.157 52.1127 144.19 51.9837C144.72 51.9521 145.251 52.0044 145.764 52.1386C148.301 52.6372 150.563 54.061 152.109 56.1334C152.453 56.5359 152.729 56.9914 152.928 57.4823Z" fill="#263238"/>
</g>
</svg>
