<svg width="317" height="232" viewBox="0 0 317 232" fill="none" xmlns="http://www.w3.org/2000/svg">
<g style="mix-blend-mode:luminosity" opacity="0.5">
<path d="M281.259 174.235H166.765C165.781 174.233 164.837 173.841 164.141 173.145C163.445 172.449 163.054 171.506 163.052 170.522V3.71279C163.055 2.72971 163.448 1.78795 164.144 1.0934C164.839 0.398849 165.782 0.00801671 166.765 0.00634766H281.259C282.242 0.00801671 283.185 0.398849 283.88 1.0934C284.576 1.78795 284.968 2.72971 284.972 3.71279V170.522C284.97 171.506 284.578 172.449 283.883 173.145C283.187 173.841 282.243 174.233 281.259 174.235ZM166.765 0.164743C166.296 0.161402 165.832 0.250662 165.398 0.427394C164.964 0.604126 164.57 0.864845 164.237 1.19456C163.905 1.52428 163.64 1.91649 163.46 2.34865C163.279 2.78082 163.186 3.24442 163.185 3.71279V170.522C163.185 171.464 163.56 172.368 164.226 173.035C164.893 173.702 165.797 174.076 166.739 174.076H281.259C282.202 174.076 283.106 173.702 283.772 173.035C284.439 172.368 284.813 171.464 284.813 170.522V3.71279C284.813 2.77011 284.439 1.86604 283.772 1.19946C283.106 0.532887 282.202 0.158406 281.259 0.158406L166.765 0.164743Z" fill="#F0F0F0"/>
<path d="M149.202 174.235H34.6822C33.698 174.233 32.7546 173.841 32.0587 173.145C31.3628 172.449 30.9711 171.506 30.9694 170.522V3.71278C30.9711 2.7286 31.3628 1.78522 32.0587 1.0893C32.7546 0.393381 33.698 0.0016752 34.6822 0H149.202C150.186 0.0016752 151.129 0.393381 151.825 1.0893C152.521 1.78522 152.913 2.7286 152.915 3.71278V170.522C152.913 171.506 152.521 172.449 151.825 173.145C151.129 173.841 150.186 174.233 149.202 174.235ZM34.6822 0.164732C33.7406 0.164731 32.8375 0.53834 32.1711 1.20355C31.5047 1.86875 31.1295 2.7712 31.1278 3.71278V170.522C31.1278 171.464 31.5023 172.368 32.1689 173.035C32.8354 173.702 33.7395 174.076 34.6822 174.076H149.202C150.144 174.076 151.049 173.702 151.715 173.035C152.382 172.368 152.756 171.464 152.756 170.522V3.71278C152.756 2.7701 152.382 1.86603 151.715 1.19945C151.049 0.532876 150.144 0.158395 149.202 0.158395L34.6822 0.164732Z" fill="#F0F0F0"/>
<path d="M316.79 212.927H0V213.086H316.79V212.927Z" fill="#E0E0E0"/>
<path d="M146.142 6.70959H84.1141V68.7371H146.142V6.70959Z" fill="#E6E6E6"/>
<path d="M142.999 65.6009V9.85217L87.2565 9.85217V65.6009H142.999Z" fill="#FAFAFA"/>
<path d="M111.39 52.9356C111.39 52.9356 121.628 31.9515 142.999 31.527V65.5946H115.121L111.39 52.9356Z" fill="#F0F0F0"/>
<path d="M87.2567 47.0433C87.2567 47.0433 96.4626 42.2217 105.814 45.7761C117.561 50.2112 124.378 65.6072 124.378 65.6072H87.2567V47.0433Z" fill="#F5F5F5"/>
<path d="M107.94 37.2328C113.301 36.3674 116.946 31.3196 116.081 25.9583C115.215 20.597 110.167 16.9524 104.806 17.8178C99.4448 18.6833 95.8002 23.7311 96.6656 29.0924C97.5311 34.4537 102.579 38.0983 107.94 37.2328Z" fill="white"/>
<path d="M224.116 6.38647H169.698V111.732H224.116V6.38647Z" fill="#E6E6E6"/>
<path d="M220.974 108.596V9.52905L172.834 9.52905V108.596H220.974Z" fill="#FAFAFA"/>
<path d="M199.3 41.1972C199.833 35.7928 195.885 30.979 190.48 30.4453C185.076 29.9116 180.262 33.8601 179.729 39.2645C179.195 44.6689 183.143 49.4827 188.548 50.0164C193.952 50.5501 198.766 46.6017 199.3 41.1972Z" fill="white"/>
<path d="M181.838 108.596C181.838 108.596 194.009 50.0148 220.974 44.7561V108.596H181.838Z" fill="#F0F0F0"/>
<path d="M172.834 73.8311C172.834 73.8311 179.037 67.8501 188.864 71.4235C207.326 78.1395 217.628 108.596 217.628 108.596H172.834V73.8311Z" fill="#F5F5F5"/>
<path d="M42.8681 180.564C42.8681 180.564 38.2873 181.869 33.2377 175.324C29.5819 170.591 23.1004 160.492 14.2303 160.315C14.2303 160.315 24.8174 155.728 34.1564 160.404C43.4953 165.079 48.4816 177.168 42.8998 180.564" fill="#F5F5F5"/>
<path d="M45.5988 199.533C45.5589 199.532 45.5196 199.522 45.4833 199.505C45.4471 199.489 45.4145 199.465 45.3874 199.435C45.3603 199.406 45.3393 199.371 45.3256 199.334C45.3119 199.296 45.3057 199.256 45.3074 199.217C45.4369 194.677 45.1164 190.135 44.3507 185.658C43.2165 179.062 40.4605 170.344 33.998 166.353C33.9301 166.31 33.882 166.242 33.8642 166.163C33.8464 166.085 33.8603 166.003 33.9029 165.935C33.9236 165.901 33.9507 165.872 33.9827 165.849C34.0146 165.826 34.0508 165.81 34.089 165.801C34.1273 165.792 34.167 165.791 34.2057 165.798C34.2445 165.804 34.2815 165.819 34.3147 165.84C37.2609 167.664 39.7065 170.566 41.5756 174.463C43.1914 177.989 44.3211 181.719 44.9335 185.55C45.7034 190.069 46.0281 194.653 45.9029 199.236C45.8997 199.315 45.8665 199.389 45.8099 199.445C45.7534 199.5 45.6779 199.532 45.5988 199.533Z" fill="#E0E0E0"/>
<path d="M46.3401 166.144C46.3401 166.144 50.9779 165.06 52.2071 156.881C53.1004 150.969 53.8417 139.001 61.5524 134.522C61.5524 134.522 50.0719 135.656 44.1796 144.273C38.2873 152.889 39.8079 165.89 46.3401 166.144Z" fill="#F5F5F5"/>
<path d="M52.7202 200.066C52.6583 200.066 52.5979 200.047 52.547 200.012C52.496 199.977 52.457 199.927 52.4351 199.869C50.2772 193.679 48.4999 187.364 47.113 180.957C45.8932 175.492 45.124 169.935 44.8131 164.344C44.547 158.186 45.1553 153.079 46.6378 149.138C46.6482 149.097 46.6672 149.057 46.6938 149.024C46.7204 148.99 46.7539 148.962 46.7921 148.942C46.8303 148.922 46.8723 148.91 46.9153 148.908C46.9583 148.905 47.0014 148.912 47.0416 148.927C47.0819 148.943 47.1184 148.966 47.1488 148.997C47.1792 149.027 47.2027 149.064 47.2178 149.104C47.233 149.145 47.2394 149.188 47.2366 149.231C47.2338 149.274 47.2219 149.316 47.2017 149.354C43.9134 158.072 45.6621 171.269 47.7086 180.811C49.0865 187.19 50.8554 193.479 53.0053 199.641C53.0318 199.717 53.0273 199.8 52.9929 199.872C52.9585 199.944 52.8969 200 52.8216 200.028C52.7905 200.047 52.7561 200.06 52.7202 200.066Z" fill="#E0E0E0"/>
<path d="M54.45 170.148C54.45 170.148 59.1702 170.782 63.2441 163.597C66.1903 158.395 71.1639 147.485 79.9706 146.053C79.9706 146.053 68.845 143.012 60.2536 148.955C51.6623 154.898 48.4437 167.576 54.45 170.148Z" fill="#F5F5F5"/>
<path d="M55.1721 200.066C55.1024 200.066 55.0348 200.042 54.9806 199.998C54.9264 199.954 54.8889 199.893 54.8744 199.825C53.8512 194.03 53.315 188.159 53.2714 182.275C53.1857 177.25 53.6725 172.231 54.7223 167.316C55.9895 161.88 58.0106 157.533 60.8047 154.391C60.83 154.357 60.8621 154.329 60.8989 154.308C60.9358 154.287 60.9765 154.274 61.0186 154.27C61.0607 154.266 61.1033 154.271 61.1435 154.284C61.1836 154.297 61.2206 154.318 61.2521 154.347C61.2835 154.375 61.3087 154.41 61.326 154.448C61.3433 154.487 61.3523 154.529 61.3526 154.571C61.3528 154.613 61.3442 154.655 61.3273 154.694C61.3104 154.733 61.2856 154.768 61.2545 154.796C55.0771 161.766 53.829 173.569 53.8733 182.275C53.9125 188.119 54.4466 193.95 55.4699 199.704C55.4848 199.783 55.4678 199.865 55.4227 199.932C55.3776 199.998 55.308 200.044 55.2292 200.059L55.1721 200.066Z" fill="#E0E0E0"/>
<path d="M62.5532 181.16C62.5532 181.16 67.0517 182.725 72.4814 176.484C76.397 171.973 83.4424 162.266 92.3568 162.615C92.3568 162.615 82.0548 157.419 72.4561 161.538C62.8574 165.656 57.1805 177.44 62.5532 181.179" fill="#F5F5F5"/>
<path d="M58.1754 200.066C58.0975 200.066 58.0227 200.035 57.9671 199.981C57.9114 199.926 57.8793 199.852 57.8776 199.774C57.8841 195.641 58.3925 191.525 59.3919 187.514C60.2813 183.756 61.6707 180.133 63.5228 176.744C65.601 172.928 68.4591 169.593 71.9114 166.955C71.9767 166.909 72.0573 166.889 72.1364 166.901C72.2155 166.913 72.2869 166.955 72.3359 167.018C72.3843 167.082 72.4055 167.163 72.3948 167.242C72.3841 167.322 72.3425 167.394 72.2789 167.443C64.8407 173.024 61.508 181.508 59.9811 187.641C58.9976 191.598 58.4935 195.659 58.4795 199.736C58.4813 199.816 58.4517 199.893 58.3972 199.951C58.3427 200.009 58.2676 200.043 58.1881 200.047L58.1754 200.066Z" fill="#E0E0E0"/>
<path d="M68.9525 199.337L64.6631 212.864H41.3854L37.0897 199.337H68.9525Z" fill="#E0E0E0"/>
<path d="M74.452 105.13H75.4531V104.129H48.2852C47.4198 104.129 46.5898 104.473 45.9779 105.085C45.366 105.697 45.0222 106.526 45.0222 107.392C45.0222 108.257 45.366 109.087 45.9779 109.699C46.5898 110.311 47.4198 110.655 48.2852 110.655H75.4531V109.654H74.452V105.13Z" fill="#F0F0F0"/>
<path d="M74.452 105.13V109.654H49.5523C48.9602 109.645 48.3956 109.403 47.9823 108.979C47.569 108.555 47.3407 107.984 47.3474 107.392C47.3411 106.797 47.5687 106.224 47.981 105.795C48.184 105.583 48.4281 105.415 48.6982 105.301C48.9683 105.186 49.2589 105.128 49.5523 105.13H74.452Z" fill="white"/>
<path d="M74.4519 106.277V106.986H50.1858C50.0945 106.986 50.0068 106.951 49.9416 106.887C49.8765 106.823 49.839 106.736 49.8373 106.644C49.839 106.553 49.8765 106.466 49.9416 106.402C50.0068 106.338 50.0945 106.302 50.1858 106.302L74.4519 106.277Z" fill="#F0F0F0"/>
<path d="M74.4519 107.981V108.672H50.1858C50.0934 108.672 50.0048 108.635 49.9394 108.57C49.8741 108.504 49.8373 108.416 49.8373 108.323C49.839 108.232 49.8765 108.145 49.9416 108.081C50.0068 108.017 50.0945 107.981 50.1858 107.981H74.4519Z" fill="#F0F0F0"/>
<path d="M70.3529 98.6041H71.3603V97.603H44.186C43.3206 97.603 42.4907 97.9468 41.8788 98.5587C41.2669 99.1706 40.9231 100.001 40.9231 100.866C40.9231 101.731 41.2669 102.561 41.8788 103.173C42.4907 103.785 43.3206 104.129 44.186 104.129H71.3603V103.122H70.3529V98.6041Z" fill="#E0E0E0"/>
<path d="M70.3529 98.6041V103.122H45.4215C45.1284 103.119 44.8386 103.059 44.569 102.944C44.2993 102.829 44.0549 102.662 43.85 102.452C43.6451 102.243 43.4837 101.995 43.375 101.722C43.2663 101.45 43.2125 101.159 43.2167 100.866C43.2134 100.27 43.4404 99.6958 43.8502 99.263C44.0555 99.06 44.2989 98.8995 44.5663 98.7908C44.8338 98.6821 45.1201 98.6272 45.4088 98.6295L70.3529 98.6041Z" fill="white"/>
<path d="M70.3528 99.7445V100.441H46.0677C45.9763 100.44 45.8893 100.402 45.8253 100.337C45.7614 100.272 45.7255 100.184 45.7255 100.093C45.7255 100.002 45.7614 99.914 45.8253 99.8488C45.8893 99.7836 45.9763 99.7462 46.0677 99.7445H70.3528Z" fill="#F0F0F0"/>
<path d="M70.3528 101.449V102.139H46.0677C45.9769 102.139 45.8899 102.103 45.8257 102.039C45.7616 101.975 45.7255 101.888 45.7255 101.797C45.7255 101.706 45.7614 101.618 45.8253 101.553C45.8893 101.488 45.9763 101.451 46.0677 101.449H70.3528Z" fill="#F0F0F0"/>
<path d="M104.161 110.667H37.6346V115.096H104.161V110.667Z" fill="#E6E6E6"/>
<path d="M50.0909 119.588V115.096H44.566L46.5935 119.588H50.0909Z" fill="#E0E0E0"/>
<path d="M90.3928 119.588V115.096H95.924L93.8965 119.588H90.3928Z" fill="#E0E0E0"/>
<path d="M53.2778 9.85217H35.8227V16.3844H53.2778V9.85217Z" fill="#F5F5F5"/>
<path d="M73.1404 9.85217H55.6853V16.3844H73.1404V9.85217Z" fill="#F5F5F5"/>
<path d="M63.1553 18.4055H45.7001V24.9377H63.1553V18.4055Z" fill="#F5F5F5"/>
<path d="M261.326 93.2693H243.871V99.8015H261.326V93.2693Z" fill="#F5F5F5"/>
<path d="M281.189 93.2693H263.734V99.8015H281.189V93.2693Z" fill="#F5F5F5"/>
<path d="M271.204 101.823H253.749V108.355H271.204V101.823Z" fill="#F5F5F5"/>
<path d="M277.027 6.70959H259.571V13.2418H277.027V6.70959Z" fill="#F5F5F5"/>
<path d="M267.041 15.2629H249.586V21.7951H267.041V15.2629Z" fill="#F5F5F5"/>
<path d="M186.634 196.606L182.782 231.149H220.144L221.234 226.676L223.533 231.149L257.874 231.434L256.594 198.532L186.634 196.606Z" fill="#263238"/>
<path d="M244.245 93.7699C230.116 92.0276 210.082 92.186 196.777 94.5049C193.486 95.0932 190.483 96.7563 188.238 99.2339C185.993 101.711 184.634 104.864 184.372 108.197C182.725 128.471 181.597 162.285 185.468 197.987C216.767 208.486 258.52 200.287 258.52 200.287C258.222 190.049 255.643 168.608 255.814 155.734C256.042 138.792 257.55 128.224 257.392 110.934C257.31 102.45 252.659 94.809 244.245 93.7699Z" fill="#407BFF"/>
<path opacity="0.2" d="M244.245 93.7699C230.116 92.0276 210.082 92.186 196.777 94.5049C193.486 95.0932 190.483 96.7563 188.238 99.2339C185.993 101.711 184.634 104.864 184.372 108.197C182.725 128.471 181.597 162.285 185.468 197.987C216.767 208.486 258.52 200.287 258.52 200.287C258.222 190.049 255.643 168.608 255.814 155.734C256.042 138.792 257.55 128.224 257.392 110.934C257.31 102.45 252.659 94.809 244.245 93.7699Z" fill="white"/>
<path d="M207.637 120.976C206.522 118.188 209.538 115.495 212.249 116.826C213.082 117.233 213.861 117.742 214.568 118.34C212.972 117.124 210.456 115.172 211.134 114.336C212.401 112.79 220.708 117.909 224.294 120.583C221.88 117.573 222.279 112.435 223.692 114.393C225.326 116.693 227.652 119.379 231.029 123.573C235.73 129.383 231.516 135.035 231.516 135.035C227.436 138.608 220.682 136.302 217.261 133.768C213.84 131.233 206.864 125.994 207.631 123.878C207.941 123.048 210.089 124.511 211.47 125.519C209.913 124.315 208.62 122.806 207.669 121.084L207.637 120.976Z" fill="#CE7A63"/>
<path d="M221.772 129.117C221.734 129.155 221.683 129.187 221.645 129.219L221.778 129.124C223.191 128.161 225.263 126.893 225.529 127.704C225.534 127.721 225.534 127.739 225.529 127.755C225.584 128.03 225.556 128.314 225.447 128.572C224.775 130.429 221.151 133.255 218.097 135.459C217.172 136.137 216.304 136.727 215.563 137.259C212.066 139.736 204.634 141.573 201.998 137.956C201.998 137.956 196.986 134.154 201.871 128.452C203.987 125.981 205.958 122.249 207.358 120.608C208.264 119.544 209.043 118.613 209.709 117.732C209.994 117.358 210.241 117.257 210.418 117.358C210.478 117.391 210.531 117.435 210.573 117.488C210.615 117.542 210.647 117.603 210.665 117.668C210.814 118.152 210.857 118.662 210.792 119.164C210.711 120.168 210.46 121.151 210.051 122.072C209.765 122.733 209.382 123.348 208.917 123.897L209.5 123.497L210.006 123.162C212.115 121.782 214.302 120.527 216.558 119.405C217.441 118.962 218.349 118.569 219.276 118.226C220.758 117.707 221.886 117.548 222.26 118.055C222.526 118.41 222.26 118.936 221.74 119.5C221.082 120.175 220.361 120.786 219.586 121.324C220.061 121.02 220.556 120.749 221.069 120.513C221.834 120.155 222.709 120.11 223.508 120.387C223.686 120.555 223.802 120.778 223.837 121.02C223.883 121.568 223.725 122.114 223.394 122.553C224.332 122.11 225.092 122.078 225.554 122.484C225.609 122.528 225.658 122.579 225.7 122.636C225.919 123.36 225.867 124.139 225.554 124.828C225.554 124.872 225.523 124.91 225.51 124.955C225.407 125.174 225.288 125.386 225.155 125.588C224.972 125.861 224.756 126.146 224.522 126.437L224.243 126.767C224.211 126.817 224.167 126.855 224.129 126.906C223.412 127.713 222.623 128.453 221.772 129.117Z" fill="#CE7A63"/>
<g opacity="0.2">
<path d="M209.747 123.681C209.721 123.682 209.695 123.677 209.672 123.666C209.649 123.655 209.629 123.638 209.613 123.618C209.575 123.586 209.512 123.491 209.613 123.345C209.975 122.769 211.248 118.765 210.881 117.802C210.836 117.688 210.792 117.675 210.773 117.669C210.139 117.51 208.536 119.386 207.662 120.615C207.649 120.633 207.633 120.648 207.615 120.66C207.596 120.672 207.575 120.68 207.553 120.684C207.531 120.687 207.509 120.686 207.487 120.681C207.466 120.676 207.445 120.666 207.428 120.653C207.409 120.639 207.394 120.623 207.382 120.603C207.37 120.584 207.362 120.563 207.358 120.54C207.355 120.518 207.356 120.495 207.361 120.473C207.366 120.451 207.376 120.43 207.39 120.412C207.789 119.854 209.835 117.073 210.862 117.339C210.94 117.364 211.012 117.408 211.07 117.466C211.129 117.525 211.172 117.596 211.197 117.675C211.59 118.676 210.564 122.066 210.063 123.212C210.545 122.965 211.483 122.408 212.465 121.825C214.302 120.735 216.824 119.24 219.111 118.093C219.131 118.082 219.152 118.076 219.175 118.074C219.197 118.072 219.22 118.074 219.241 118.082C219.263 118.089 219.282 118.1 219.299 118.115C219.316 118.13 219.33 118.149 219.339 118.169C219.357 118.21 219.36 118.256 219.345 118.298C219.331 118.34 219.302 118.376 219.263 118.397C216.982 119.538 214.473 121.027 212.636 122.116C210.481 123.371 209.956 123.681 209.747 123.681Z" fill="black"/>
</g>
<g opacity="0.2">
<path d="M225.973 127.825C226.245 129.035 223.185 132.121 218.37 135.504C218.339 135.513 218.306 135.513 218.275 135.504C218.247 135.504 218.219 135.497 218.194 135.485C218.169 135.473 218.147 135.456 218.129 135.434C218.105 135.397 218.095 135.352 218.104 135.308C218.112 135.264 218.137 135.225 218.173 135.2C222.767 131.987 224.883 129.713 225.479 128.547C225.614 128.35 225.679 128.114 225.662 127.876C225.644 127.818 225.609 127.767 225.561 127.73C225.512 127.711 225.461 127.696 225.409 127.685C224.142 127.489 222.051 129.111 222.026 129.124C221.993 129.152 221.952 129.168 221.908 129.168C221.865 129.168 221.824 129.152 221.791 129.124C221.762 129.094 221.746 129.054 221.746 129.013C221.746 128.971 221.762 128.932 221.791 128.902C221.791 128.902 224.68 126.089 225.327 124.676C225.738 123.776 225.757 123.041 225.384 122.712C225.01 122.382 224.002 122.528 222.913 123.225L219.054 125.956C219.023 125.964 218.99 125.964 218.959 125.956C218.931 125.958 218.903 125.952 218.877 125.94C218.852 125.928 218.83 125.909 218.813 125.886C218.788 125.85 218.778 125.805 218.785 125.761C218.792 125.718 218.816 125.678 218.851 125.652L222.729 122.915C222.881 122.737 223.692 121.768 223.553 121.014C223.518 120.871 223.449 120.739 223.352 120.628C223.255 120.518 223.132 120.433 222.995 120.38C222.19 119.994 220.53 120.843 219.225 121.685C218.725 122.066 218.218 122.433 217.755 122.75C217.718 122.774 217.674 122.783 217.631 122.776C217.587 122.769 217.548 122.746 217.521 122.712C217.492 122.679 217.477 122.638 217.477 122.595C217.477 122.552 217.492 122.51 217.521 122.477C217.584 122.427 218.199 121.939 219.016 121.407C220.315 120.437 221.55 119.468 221.55 119.455C221.581 119.428 221.62 119.412 221.661 119.412C221.702 119.412 221.742 119.428 221.772 119.455C221.804 119.487 221.822 119.531 221.822 119.576C221.822 119.621 221.804 119.664 221.772 119.696C221.772 119.696 221.468 119.943 221.018 120.285C221.336 120.109 221.686 119.998 222.047 119.958C222.408 119.918 222.773 119.949 223.122 120.051C223.277 120.121 223.42 120.215 223.546 120.33C223.724 120.498 223.84 120.721 223.876 120.963C223.921 121.511 223.763 122.057 223.432 122.496C224.37 122.053 225.13 122.021 225.593 122.427C225.648 122.471 225.697 122.522 225.738 122.579C226.1 123.048 226.055 123.846 225.631 124.777C225.507 125.035 225.361 125.281 225.194 125.512C225.01 125.785 224.794 126.07 224.56 126.361L224.281 126.691C224.249 126.741 224.205 126.779 224.167 126.83C223.819 127.236 223.451 127.641 223.115 127.983C223.81 127.544 224.62 127.324 225.441 127.35C225.569 127.36 225.691 127.412 225.787 127.498C225.883 127.583 225.948 127.698 225.973 127.825Z" fill="black"/>
</g>
<path d="M209.348 38.9019C209.348 38.9019 195.079 32.9906 189.472 36.5133C185.037 39.2883 188.332 44.4013 188.332 44.4013C188.332 44.4013 179.823 45.0666 180.095 50.452C180.311 55.0201 184.91 55.0581 184.91 55.0581C184.91 55.0581 182.142 60.4056 185.544 61.4383C188.946 62.471 192.482 55.4256 192.482 55.4256L209.348 38.9019Z" fill="#263238"/>
<path d="M225.333 65.17C225.333 65.17 229.248 70.3084 228.583 71.8163C227.582 74.0718 224.522 71.7023 224.522 71.7023C224.522 71.7023 227.335 75.1996 224.775 77.0623C222.216 78.9251 220.068 70.1817 220.068 70.1817L225.333 65.17Z" fill="#263238"/>
<path d="M203.037 39.8269C205.85 38.961 208.81 38.6828 211.734 39.0098C214.659 39.3368 217.485 40.2619 220.036 41.7277C223.375 43.6981 226.207 46.5935 225.916 50.6991C225.231 60.2725 221.702 76.1627 221.702 76.1627L190.138 58.8913C190.138 58.8913 188.402 50.9399 192.076 45.7255C194.009 43.0265 198.83 41.0941 203.037 39.8269Z" fill="#263238"/>
<path d="M206.927 87.3454C206.947 87.3822 206.964 87.4203 206.978 87.4594L208.733 92.8702C209.053 94.8561 209.043 96.8814 208.701 98.8638C207.586 100.587 207.219 104.37 211.508 104.154C216.925 103.888 226.422 95.4362 226.651 93.0286C223.742 85.7678 221.17 77.2271 221.189 70.1373L215.379 77.1574L206.927 87.3454Z" fill="#CE7A63"/>
<g opacity="0.2">
<path d="M206.978 87.4658L208.733 92.8766C212.034 91.1405 215.398 87.6178 216.013 83.9684C216.437 81.3327 215.132 78.9631 214.074 78.8998L206.978 87.4658Z" fill="black"/>
</g>
<path d="M192.646 76.714C193.033 77.8924 193.457 79.0456 193.914 80.186C197.892 90.2409 210.577 90.4753 218.021 82.4986C218.699 81.7737 219.317 80.9961 219.871 80.1733C224.509 73.3307 222.976 68.3507 221.595 56.9273C221.303 54.2718 220.337 51.7349 218.79 49.5575C217.242 47.3801 215.163 45.6344 212.751 44.4861C210.339 43.3378 207.674 42.8251 205.008 42.9966C202.342 43.168 199.764 44.018 197.519 45.4658C188.218 51.3771 188.769 64.9547 192.646 76.714Z" fill="#CE7A63"/>
<path d="M205.121 61.8501C204.087 61.9669 203.044 61.723 202.169 61.1595C202.082 61.1159 202.007 61.0531 201.948 60.9758C201.89 60.8985 201.85 60.8088 201.832 60.7136C201.813 60.6184 201.817 60.5203 201.842 60.4268C201.868 60.3332 201.914 60.2468 201.979 60.1741C202.043 60.1014 202.123 60.0445 202.212 60.0075C202.302 59.9706 202.399 59.9548 202.496 59.9612C202.592 59.9677 202.686 59.9962 202.77 60.0447C202.854 60.0932 202.926 60.1602 202.98 60.2408C203.474 60.678 205.692 60.8744 206.895 60.1077C207.028 60.0628 207.173 60.0633 207.305 60.1092C207.438 60.1551 207.552 60.2437 207.628 60.3611C207.705 60.4785 207.741 60.6182 207.73 60.7581C207.719 60.898 207.661 61.0303 207.567 61.1341C206.826 61.5772 205.984 61.8236 205.121 61.8501Z" fill="#263238"/>
<path d="M193.464 63.9029C194.445 63.5506 195.27 62.8642 195.795 61.9641C195.854 61.8865 195.894 61.7963 195.913 61.7006C195.931 61.605 195.927 61.5063 195.901 61.4124C195.875 61.3185 195.828 61.2318 195.763 61.1592C195.698 61.0865 195.617 61.0298 195.527 60.9934C195.436 60.957 195.339 60.942 195.242 60.9495C195.145 60.957 195.051 60.9868 194.967 61.0366C194.883 61.0863 194.812 61.1548 194.759 61.2365C194.706 61.3183 194.672 61.4112 194.661 61.5079C194.408 62.1415 192.526 63.3137 191.1 63.1426C190.939 63.1279 190.778 63.1755 190.651 63.2757C190.524 63.3758 190.44 63.5209 190.416 63.6811C190.403 63.8414 190.452 64.0006 190.552 64.1264C190.652 64.2523 190.796 64.3355 190.955 64.3591C191.816 64.4259 192.681 64.2687 193.464 63.9029Z" fill="#263238"/>
<path d="M200.268 78.2472C200.078 78.2472 199.964 78.2472 199.958 78.2472C199.913 78.2456 199.869 78.2351 199.829 78.2163C199.788 78.1975 199.752 78.1708 199.722 78.1377C199.692 78.1047 199.669 78.0659 199.654 78.0238C199.639 77.9817 199.632 77.937 199.635 77.8924C199.636 77.8469 199.647 77.8022 199.666 77.7608C199.685 77.7195 199.713 77.6824 199.746 77.6518C199.78 77.6211 199.819 77.5974 199.862 77.5822C199.905 77.5669 199.951 77.5604 199.996 77.5629C200.18 77.5629 204.697 77.734 205.134 72.5957C205.133 72.5476 205.142 72.4999 205.161 72.4556C205.179 72.4113 205.207 72.3714 205.242 72.3385C205.277 72.3056 205.318 72.2804 205.364 72.2646C205.409 72.2488 205.457 72.2427 205.505 72.2467C205.553 72.2507 205.599 72.2648 205.641 72.2879C205.683 72.3111 205.72 72.3429 205.749 72.3812C205.778 72.4195 205.799 72.4634 205.81 72.5102C205.82 72.557 205.821 72.6055 205.812 72.6527C205.413 77.6389 201.422 78.1902 200.268 78.2472Z" fill="#263238"/>
<path d="M221.785 57.9663C221.785 57.9663 218.338 58.3147 218.351 61.2799C218.363 64.245 218.687 64.6252 218.687 64.6252L214.644 65.6896C214.644 65.6896 215.189 54.3422 212.224 54.64C209.259 54.9378 212.224 49.6981 210.387 49.0581C206.078 47.5439 194.547 48.0381 190.505 55.1975C190.505 55.1975 191.316 48.3042 196.581 44.338C201.846 40.3717 212.782 39.0222 217.489 44.1796C222.197 49.3369 221.785 57.9663 221.785 57.9663Z" fill="#263238"/>
<path d="M227.835 63.5481C227.532 66.4187 226.103 69.0521 223.863 70.8723C220.872 73.2672 217.882 70.9547 217.457 67.3496C217.084 64.0993 218.18 58.942 221.785 57.9536C225.39 56.9652 228.171 60.0064 227.835 63.5354" fill="#CE7A63"/>
<path d="M205.882 65.4805C206.047 66.3739 205.704 67.1785 205.122 67.2862C204.539 67.3939 203.937 66.7603 203.772 65.8733C203.607 64.9863 203.949 64.169 204.532 64.0676C205.115 63.9663 205.717 64.5935 205.882 65.4805Z" fill="#263238"/>
<path d="M196.099 67.1596C196.264 68.0529 195.922 68.8576 195.345 68.9653C194.769 69.073 194.154 68.4394 193.989 67.5461C193.825 66.6527 194.167 65.8481 194.75 65.7403C195.333 65.6326 195.935 66.2726 196.099 67.1596Z" fill="#263238"/>
<path d="M198.95 65.2842C198.95 65.2842 196.663 71.4933 196.524 73.0455C196.429 74.1099 199.787 73.9262 199.787 73.9262L198.95 65.2842Z" fill="#BA4D3C"/>
<path d="M259.679 110.826C261.409 114.919 262.898 118.936 264.374 123.041C265.088 125.094 265.791 127.155 266.484 129.225C267.162 131.297 267.808 133.381 268.448 135.479C269.715 139.679 270.856 143.943 271.869 148.347C272.351 150.564 272.794 152.813 273.136 155.17C273.314 156.349 273.472 157.565 273.586 158.845C273.637 159.479 273.707 160.112 273.719 160.841V161.886C273.719 162.26 273.719 162.665 273.688 163.046V163.628V163.952C273.688 164.199 273.643 164.446 273.605 164.693C273.5 165.382 273.308 166.054 273.035 166.695C272.857 167.111 272.645 167.512 272.401 167.892C271.583 169.177 270.419 170.205 269.043 170.858C267.858 171.421 266.555 171.695 265.242 171.656C265.046 171.656 264.862 171.656 264.672 171.624H264.399L264.171 171.593L263.728 171.523L263.367 171.441C262.974 171.352 262.587 171.24 262.207 171.105C261.689 170.927 261.183 170.716 260.693 170.471C259.995 170.119 259.316 169.73 258.659 169.305C258.076 168.932 257.544 168.57 257.037 168.203C255.022 166.752 253.286 165.32 251.588 163.85C248.211 160.917 245.031 157.952 241.933 154.904C235.73 148.828 229.806 142.619 224.091 136.099L229.863 129.96L250.099 145.419C253.476 147.954 256.834 150.488 260.192 152.782C261.871 153.922 263.544 155.062 265.096 155.95C265.476 156.171 265.85 156.374 266.186 156.545C266.439 156.679 266.701 156.794 266.972 156.887C267.035 156.887 267.067 156.887 266.972 156.843C266.848 156.789 266.718 156.749 266.585 156.722L266.42 156.684L266.173 156.64L265.869 156.602C265.747 156.595 265.624 156.595 265.502 156.602C264.467 156.571 263.439 156.788 262.505 157.236C262.127 157.416 261.764 157.628 261.422 157.869C261.053 158.138 260.71 158.439 260.395 158.769C260.096 159.09 259.826 159.438 259.59 159.808C259.384 160.131 259.203 160.47 259.052 160.822C258.831 161.341 258.675 161.886 258.589 162.444C258.559 162.622 258.538 162.802 258.526 162.982V163.122V162.9L258.488 162.456L258.418 161.911C258.387 161.569 258.298 161.12 258.241 160.72C258.095 159.884 257.918 158.984 257.702 158.066C257.278 156.228 256.752 154.321 256.182 152.395C255.073 148.53 253.736 144.615 252.38 140.687C251.024 136.758 249.612 132.824 248.167 128.889L243.859 117.124L259.679 110.826Z" fill="#CE7A63"/>
<path d="M247.584 94.5935C247.584 94.5935 255.586 94.7266 260.693 105.618C264.97 114.811 270.038 132.38 270.038 132.38L246.596 135.96C246.596 135.96 239.626 117.694 238.815 108.279C238.004 98.8638 241.641 95.5819 247.584 94.5935Z" fill="#407BFF"/>
<path d="M208.581 137.354C203.867 143.056 198.976 148.556 193.926 153.966C191.392 156.678 188.858 159.345 186.159 161.987C185.17 162.963 184.169 163.945 183.13 164.921C182.769 165.263 182.401 165.593 182.028 165.935C181.305 166.568 180.564 167.246 179.759 167.924C179.354 168.254 178.936 168.602 178.492 168.957C177.937 169.381 177.359 169.777 176.763 170.142C176.189 170.488 175.582 170.777 174.951 171.003L174.76 171.067L174.507 171.149C174.32 171.206 174.129 171.252 173.937 171.288C173.27 171.441 172.586 171.501 171.903 171.466C171.627 171.452 171.352 171.422 171.079 171.377C170.902 171.355 170.726 171.321 170.553 171.276C170.357 171.231 170.167 171.181 169.971 171.124C169.044 170.819 168.185 170.342 167.436 169.717C167.008 169.358 166.621 168.952 166.283 168.507C166.093 168.254 165.973 168.057 165.903 167.956L165.656 167.531C165.414 167.093 165.221 166.63 165.079 166.15C165.003 165.928 164.978 165.814 164.94 165.675L164.864 165.276C164.813 165.01 164.801 164.864 164.769 164.642C164.737 164.42 164.737 164.332 164.725 164.173V163.787C164.725 163.318 164.725 163.033 164.725 162.741C164.725 162.197 164.801 161.81 164.845 161.474C165.029 160.087 165.257 159.105 165.479 158.078C165.922 156.082 166.404 154.245 166.904 152.376C167.905 148.714 169.001 145.166 170.123 141.605C172.404 134.547 174.836 127.622 177.624 120.76L183.466 122.965C183.117 130.188 182.883 138.292 182.877 147.041C188.452 142.53 197.291 136.011 202.967 131.569L208.581 137.354Z" fill="#CE7A63"/>
<path d="M192.868 95.7656C190.491 96.9177 188.457 98.6708 186.967 100.851C185.477 103.032 184.582 105.564 184.372 108.196C183.738 116.116 183.162 126.114 182.94 137.468L169.115 131.424C169.115 131.424 173.252 122.756 179.785 109.381C185.138 98.4077 192.57 95.7973 192.868 95.7656Z" fill="#407BFF"/>
<path d="M84.3992 186.463C84.3992 186.463 84.7983 196.467 82.7709 201.707C83.9873 203.829 126.114 210.944 144.716 195.276L142.6 182.927L84.3992 186.463Z" fill="#263238"/>
<path d="M157.502 231.168L144.741 194.066C144.741 194.066 127.476 206.737 83.7973 197.804C83.7973 197.804 75.301 211.369 73.66 223.781C73.3242 226.353 73.1341 228.849 73.0264 231.193L157.502 231.168Z" fill="#263238"/>
<path d="M108.659 40.942C108.659 40.942 128.566 33.225 135.326 49.546C141.092 63.4848 129.751 72.5386 131.772 85.9642C133.793 99.3898 135.656 104.915 124.879 113.208C117.624 118.809 106.087 96.7351 106.087 96.7351L108.659 40.942Z" fill="#263238"/>
<path d="M113.455 39.6558C113.455 39.6558 95.4236 34.074 89.601 53.2271C85.0645 68.1352 88.7583 76.5365 78.9188 80.9019C69.0793 85.2672 65.6136 104.306 88.3655 102.114C111.117 99.9219 110.18 92.5154 121.742 99.5101C133.305 106.505 121.147 38.6928 113.455 39.6558Z" fill="#263238"/>
<path d="M139.191 157.039L139.134 157.096C139.236 158.965 139.362 160.898 139.514 162.849C140.071 169.806 141.151 176.71 142.746 183.504C143.772 187.939 119.462 193.571 101.753 193.952C91.9198 194.167 84.1331 192.76 83.8037 188.668C83.371 184.425 82.4961 180.24 81.1933 176.18C80.338 173.31 79.2926 170.319 78.1901 167.265C78.0127 166.784 77.8353 166.302 77.6516 165.814C77.1025 164.349 76.5323 162.87 75.9409 161.379C74.7308 158.287 73.4066 155.177 72.1395 152.11C71.6579 150.957 71.1891 149.829 70.7329 148.701C64.15 132.672 59.3285 119.094 64.8153 110.097C65.886 108.342 67.7614 106.568 70.0613 104.845C79.3179 97.9199 95.6009 91.8945 95.6009 91.8945L111.561 91.9769C111.561 91.9769 118.036 94.6379 123.599 97.3116C130.226 100.48 134.769 104.351 136.613 109.039C137.146 110.431 137.549 111.869 137.816 113.335C137.816 113.335 143.481 129.111 146.002 137.088C147.713 142.499 146.002 147.517 143.645 151.388C142.381 153.435 140.887 155.332 139.191 157.039Z" fill="#407BFF"/>
<path opacity="0.2" d="M143.69 151.388C142.415 153.455 140.905 155.369 139.191 157.09L129.174 138.798L143.69 151.388Z" fill="black"/>
<path opacity="0.2" d="M106.48 141.244C99.054 154.365 90.9885 166.549 81.1933 176.205C80.338 173.335 79.2926 170.344 78.1902 167.29C78.0128 166.809 77.8353 166.327 77.6516 165.84L106.48 141.244Z" fill="black"/>
<path d="M155.139 147.656C154.967 147.58 154.784 147.485 154.581 147.377H154.689C154.904 147.435 155.116 147.507 155.322 147.592C155.544 147.7 155.588 147.745 155.588 147.764C155.588 147.783 155.36 147.751 155.139 147.656Z" fill="#407BFF"/>
<path d="M161.367 154.67C161.367 154.872 161.367 155.202 161.309 155.462C161.215 156.23 161.019 156.982 160.727 157.698C160.644 157.888 160.518 158.167 160.384 158.408C160.251 158.648 160.106 158.896 159.954 159.13C159.589 159.658 159.164 160.14 158.686 160.568C158.224 160.996 157.711 161.366 157.16 161.671C156.679 161.932 156.174 162.144 155.652 162.304L155.29 162.412L154.986 162.482C154.784 162.526 154.581 162.564 154.353 162.596C154.021 162.64 153.687 162.668 153.352 162.678C152.57 162.692 151.789 162.599 151.033 162.399C150.631 162.295 150.238 162.164 149.854 162.006C149.397 161.825 148.953 161.614 148.524 161.373C147.97 161.048 147.435 160.693 146.921 160.308C146.484 159.979 146.091 159.675 145.723 159.358C144.988 158.725 144.336 158.154 143.696 157.559C142.429 156.387 141.282 155.183 140.142 153.998C139.001 152.813 137.905 151.616 136.841 150.399C134.686 147.979 128.509 139.451 126.494 136.879L129.802 133.673L129.529 133.299L126.805 129.535L124.112 125.734C122.344 123.2 120.539 120.634 118.891 118.074L135.371 106.353C137.366 108.887 139.172 111.497 140.959 114.133C141.84 115.457 142.733 116.775 143.601 118.112L146.135 122.154C149.481 127.597 152.699 133.128 155.639 139.001C157.218 142.069 158.629 145.22 159.865 148.442C160.03 148.917 160.194 149.341 160.365 149.854L160.619 150.64L160.746 151.052C160.822 151.286 160.904 151.552 160.986 151.869C161.095 152.275 161.178 152.688 161.233 153.105C161.28 153.413 161.31 153.724 161.322 154.036C161.367 154.239 161.373 154.454 161.367 154.67Z" fill="#407BFF"/>
<path opacity="0.2" d="M134.56 128.655L152.192 144.368C152.192 144.368 144.906 134.015 134.56 128.655Z" fill="black"/>
<path d="M105.833 102.082C106.074 102.152 106.315 102.203 106.549 102.253C110.433 102.995 113.461 99.168 112.207 95.4172C111.726 93.8525 111.726 92.1793 112.207 90.6146C112.667 89.0004 113.32 87.4475 114.152 85.9895L112.359 83.4235L102.836 71.6959C102.399 78.8554 100.397 89.075 94.4414 92.4013C94.4414 92.4013 95.7086 96.754 102.855 100.936C103.81 101.41 104.807 101.794 105.833 102.082Z" fill="#FF8B7B"/>
<g opacity="0.2">
<path d="M112.22 90.6147C112.68 89.0005 113.333 87.4476 114.165 85.9895L112.372 83.4235L106.479 82.093C106.479 82.093 108.12 88.3781 112.22 90.6147Z" fill="black"/>
</g>
<path d="M100.91 58.98C100.175 70.7456 100.093 73.7741 105.136 80.4837C112.739 90.5703 126.589 90.7857 130.758 79.4636C134.515 69.2756 135.086 51.7445 124.422 45.7191C113.937 39.7762 101.614 47.2144 100.885 58.98" fill="#FF8B7B"/>
<path d="M123.681 44.8132C123.681 44.8132 126.722 54.4752 114.551 55.4636C102.38 56.452 106.03 64.8343 101.461 63.8396C96.8933 62.8448 97.6599 52.3211 104.629 46.942C109.495 43.2165 115.28 40.3211 123.681 44.8132Z" fill="#263238"/>
<path d="M123.934 76.7392C123.051 76.7475 122.187 76.4794 121.464 75.9726C120.253 75.1087 119.427 73.806 119.164 72.3422C119.164 72.2616 119.196 72.1842 119.253 72.1272C119.31 72.0701 119.387 72.0381 119.468 72.0381C119.548 72.0397 119.624 72.0723 119.681 72.129C119.738 72.1856 119.77 72.2621 119.772 72.3422C120.041 73.6003 120.766 74.7147 121.806 75.4721C122.378 75.852 123.039 76.0793 123.724 76.1325C124.409 76.1858 125.097 76.0631 125.721 75.7762C125.797 75.7476 125.881 75.7503 125.954 75.7836C126.028 75.8168 126.085 75.878 126.114 75.9536C126.143 76.0292 126.14 76.1131 126.107 76.1868C126.073 76.2604 126.012 76.3179 125.937 76.3464C125.298 76.5967 124.62 76.7297 123.934 76.7392Z" fill="#263238"/>
<path d="M118.112 63.5608C117.998 64.5112 118.404 65.3412 119.024 65.4236C119.645 65.5059 120.247 64.79 120.361 63.8396C120.475 62.8892 120.07 62.0529 119.449 61.9769C118.828 61.9009 118.226 62.6105 118.112 63.5608Z" fill="#263238"/>
<path d="M127.996 65.0307C127.882 65.9811 128.287 66.8174 128.915 66.8934C129.542 66.9695 130.131 66.2598 130.251 65.3095C130.372 64.3591 129.96 63.5228 129.333 63.4467C128.705 63.3707 128.116 64.0803 127.996 65.0307Z" fill="#263238"/>
<path d="M129.054 63.4657L131.417 63.0919C131.417 63.0919 130.03 64.7329 129.054 63.4657Z" fill="#263238"/>
<path d="M126.456 65.17C126.456 65.17 127.787 67.8881 129.295 70.2957C129.412 70.4772 129.488 70.683 129.514 70.8977C129.541 71.1123 129.519 71.3303 129.449 71.5352C129.38 71.74 129.265 71.9265 129.113 72.0805C128.961 72.2346 128.776 72.3522 128.572 72.4245C127.573 72.7489 126.54 72.9614 125.493 73.0581L126.456 65.17Z" fill="#FF5652"/>
<path d="M115.362 58.3401C115.423 58.2951 115.493 58.2633 115.568 58.247C115.642 58.2306 115.719 58.23 115.793 58.245C116.484 58.3956 117.2 58.3805 117.884 58.201C118.568 58.0215 119.2 57.6827 119.728 57.2123C119.777 57.1526 119.838 57.1037 119.908 57.0688C119.977 57.0338 120.052 57.0135 120.13 57.0091C120.207 57.0047 120.285 57.0163 120.357 57.0432C120.43 57.0701 120.497 57.1118 120.552 57.1655C120.608 57.2192 120.653 57.2839 120.682 57.3555C120.712 57.4271 120.727 57.504 120.726 57.5816C120.724 57.6591 120.707 57.7355 120.675 57.8061C120.643 57.8766 120.596 57.9398 120.539 57.9916C119.881 58.5974 119.088 59.0366 118.226 59.2726C117.364 59.5085 116.458 59.5342 115.584 59.3475C115.442 59.3197 115.317 59.2382 115.235 59.1201C115.152 59.0019 115.118 58.8563 115.14 58.7139C115.166 58.5731 115.245 58.448 115.362 58.3654" fill="#263238"/>
<path d="M133.685 60.3295C133.768 60.4477 133.809 60.5908 133.799 60.735C133.791 60.8095 133.767 60.8816 133.731 60.9471C133.694 61.0126 133.645 61.0702 133.586 61.1167C133.528 61.1632 133.46 61.1977 133.388 61.218C133.316 61.2384 133.24 61.2444 133.166 61.2355C132.275 61.1606 131.415 60.8729 130.659 60.3966C129.903 59.9203 129.272 59.2694 128.819 58.4985C128.779 58.4323 128.753 58.3585 128.743 58.2818C128.733 58.2051 128.738 58.127 128.759 58.0526C128.78 57.9781 128.817 57.9087 128.866 57.8489C128.915 57.789 128.976 57.7399 129.044 57.7045C129.113 57.6692 129.189 57.6485 129.266 57.6436C129.343 57.6387 129.421 57.6498 129.494 57.6761C129.566 57.7024 129.633 57.7435 129.689 57.7967C129.745 57.8499 129.79 57.9141 129.82 57.9853C130.186 58.5909 130.692 59.1001 131.295 59.4704C131.898 59.8407 132.581 60.0615 133.286 60.1141C133.362 60.1228 133.435 60.1463 133.501 60.1833C133.567 60.2202 133.626 60.2699 133.673 60.3295" fill="#263238"/>
<path d="M119.17 62.0022L121.533 61.6221C121.533 61.6221 120.139 63.263 119.17 62.0022Z" fill="#263238"/>
<path d="M94.7011 64.4605C95.014 65.4865 95.5405 66.4347 96.2459 67.2427C96.9513 68.0508 97.8197 68.7004 98.7941 69.149C101.328 70.1944 102.944 67.5017 102.596 64.5238C102.26 61.8438 100.549 58.0677 97.8754 58.3148C95.2017 58.5619 93.8458 61.7551 94.7075 64.4605" fill="#FF8B7B"/>
<path d="M109.109 121.071C108.006 118.315 111.01 115.654 113.677 116.972C114.499 117.372 115.268 117.874 115.964 118.467C114.387 117.263 111.903 115.35 112.575 114.507C113.791 112.974 122.034 118.036 125.582 120.684C123.2 117.707 123.586 112.625 124.993 114.564C126.608 116.839 128.908 119.493 132.241 123.637C135.935 128.199 133.413 132.729 132.241 134.408C131.963 134.806 131.628 135.16 131.246 135.459C125.652 139.793 121.952 136.188 118.657 133.698C115.362 131.208 108.374 126.095 109.153 123.947C109.457 123.13 111.586 124.581 112.955 125.569C111.419 124.385 110.144 122.897 109.21 121.198C109.173 121.158 109.139 121.116 109.109 121.071Z" fill="#FF8B7B"/>
<path d="M123.079 129.124C123.041 129.162 122.991 129.193 122.953 129.225L123.086 129.13C124.479 128.18 126.526 126.925 126.798 127.723C126.801 127.742 126.801 127.762 126.798 127.78C126.854 128.051 126.825 128.332 126.716 128.585C126.082 130.416 122.465 133.21 119.449 135.396C118.536 136.068 117.675 136.663 116.959 137.176C113.499 139.628 108.089 142.619 103.831 137.348C103.831 137.348 98.8385 132.317 103.666 126.71C105.757 124.264 107.468 122.351 108.849 120.729C109.742 119.683 110.509 118.758 111.168 117.89C111.447 117.516 111.694 117.415 111.865 117.516C111.983 117.584 112.069 117.696 112.106 117.827C112.257 118.303 112.302 118.807 112.239 119.303C112.156 120.298 111.908 121.273 111.504 122.186C111.219 122.837 110.842 123.443 110.382 123.985L110.959 123.593L111.459 123.263C113.557 121.887 115.734 120.637 117.979 119.519C118.852 119.081 119.749 118.692 120.665 118.353C122.129 117.833 123.25 117.681 123.618 118.188C123.878 118.537 123.618 119.056 123.098 119.614C122.445 120.279 121.733 120.884 120.969 121.419C121.441 121.118 121.932 120.849 122.439 120.615C123.195 120.263 124.058 120.218 124.847 120.488C125.02 120.646 125.134 120.858 125.17 121.09C125.217 121.633 125.062 122.175 124.733 122.61C125.664 122.173 126.418 122.135 126.874 122.534C126.928 122.583 126.977 122.636 127.02 122.693C127.236 123.409 127.184 124.179 126.874 124.86C126.874 124.898 126.874 124.936 126.83 124.98C126.725 125.197 126.609 125.409 126.482 125.614C126.298 125.88 126.082 126.165 125.848 126.444L125.569 126.773C125.535 126.823 125.497 126.869 125.455 126.912C124.732 127.72 123.937 128.46 123.079 129.124Z" fill="#FF8B7B"/>
<g opacity="0.2">
<path d="M111.181 123.751C111.154 123.75 111.129 123.743 111.106 123.731C111.083 123.719 111.063 123.702 111.047 123.681C111.015 123.644 110.998 123.597 110.998 123.548C110.998 123.499 111.015 123.452 111.047 123.415C111.415 122.845 112.669 118.885 112.315 117.935C112.27 117.821 112.22 117.808 112.207 117.802C111.573 117.643 109.996 119.5 109.134 120.71C109.124 120.732 109.108 120.752 109.089 120.768C109.071 120.784 109.048 120.796 109.024 120.803C109 120.81 108.975 120.811 108.951 120.807C108.926 120.803 108.903 120.793 108.882 120.779C108.862 120.765 108.845 120.747 108.832 120.726C108.819 120.704 108.811 120.68 108.809 120.656C108.806 120.631 108.809 120.606 108.817 120.583C108.825 120.559 108.838 120.538 108.855 120.52C109.254 119.962 111.282 117.212 112.289 117.478C112.369 117.5 112.441 117.542 112.5 117.599C112.559 117.657 112.602 117.729 112.625 117.808C113.012 118.796 111.991 122.148 111.504 123.282C111.979 123.041 112.904 122.49 113.873 121.913C115.698 120.83 118.188 119.379 120.45 118.22C120.469 118.21 120.491 118.204 120.512 118.203C120.534 118.201 120.556 118.204 120.577 118.211C120.597 118.218 120.616 118.23 120.632 118.244C120.649 118.259 120.662 118.276 120.672 118.296C120.682 118.315 120.689 118.336 120.691 118.357C120.694 118.379 120.692 118.401 120.685 118.422C120.679 118.443 120.668 118.462 120.653 118.478C120.639 118.495 120.622 118.508 120.602 118.517C118.346 119.645 115.863 121.128 114.044 122.205C111.934 123.459 111.39 123.751 111.181 123.751Z" fill="black"/>
</g>
<g opacity="0.2">
<path d="M127.236 127.85C127.495 128.997 124.701 131.829 120.323 134.997L120.038 134.788C124.207 131.81 126.165 129.719 126.729 128.585C126.855 128.398 126.919 128.177 126.912 127.951C126.892 127.896 126.857 127.848 126.811 127.812L126.659 127.761C125.43 127.571 123.339 129.174 123.314 129.187C123.282 129.215 123.242 129.231 123.2 129.231C123.158 129.231 123.117 129.215 123.086 129.187C123.058 129.157 123.043 129.117 123.043 129.076C123.043 129.035 123.058 128.996 123.086 128.965C123.086 128.965 125.949 126.184 126.589 124.784C126.988 123.897 127.014 123.168 126.64 122.845C126.266 122.522 125.278 122.667 124.201 123.352L120.399 126.051C120.371 126.071 120.338 126.082 120.304 126.082C120.277 126.082 120.251 126.076 120.226 126.064C120.202 126.052 120.181 126.034 120.165 126.013C120.151 125.995 120.142 125.975 120.137 125.953C120.131 125.932 120.13 125.909 120.134 125.887C120.137 125.866 120.145 125.845 120.157 125.826C120.169 125.807 120.185 125.791 120.203 125.778L124.036 123.073C124.182 122.896 124.993 121.939 124.847 121.21C124.815 121.067 124.747 120.935 124.651 120.824C124.555 120.713 124.433 120.628 124.296 120.577C123.504 120.196 121.863 121.039 120.57 121.844C120.076 122.218 119.569 122.579 119.113 122.895C119.077 122.919 119.034 122.928 118.992 122.921C118.949 122.914 118.911 122.891 118.885 122.857C118.856 122.827 118.839 122.786 118.839 122.743C118.839 122.701 118.856 122.66 118.885 122.629C119.358 122.251 119.851 121.898 120.361 121.571C121.628 120.608 122.851 119.671 122.896 119.671C122.91 119.656 122.926 119.645 122.945 119.637C122.963 119.63 122.983 119.626 123.003 119.626C123.023 119.626 123.043 119.63 123.062 119.637C123.08 119.645 123.097 119.656 123.111 119.671C123.127 119.685 123.14 119.704 123.149 119.724C123.158 119.744 123.163 119.766 123.163 119.788C123.163 119.81 123.158 119.832 123.149 119.852C123.14 119.872 123.127 119.89 123.111 119.905C123.111 119.905 122.813 120.152 122.37 120.494C122.684 120.319 123.03 120.208 123.388 120.167C123.746 120.127 124.109 120.159 124.454 120.26C124.606 120.327 124.745 120.419 124.866 120.532C125.039 120.69 125.153 120.903 125.189 121.134C125.237 121.678 125.081 122.219 124.752 122.655C125.683 122.218 126.437 122.18 126.893 122.579C126.947 122.627 126.996 122.68 127.039 122.737C127.394 123.2 127.356 123.973 126.931 124.91C126.807 125.164 126.663 125.407 126.501 125.639C126.317 125.905 126.101 126.19 125.867 126.469L125.588 126.798C125.554 126.848 125.516 126.894 125.474 126.938C125.132 127.337 124.771 127.736 124.441 128.078C125.125 127.641 125.924 127.421 126.735 127.445C126.849 127.457 126.956 127.502 127.045 127.574C127.134 127.646 127.2 127.742 127.236 127.85Z" fill="black"/>
</g>
<path d="M107.943 141.111C102.057 148.308 95.905 155.1 89.3031 161.721C86.0148 165.041 82.6061 168.254 78.906 171.421C76.9598 173.099 74.9184 174.662 72.792 176.104C71.4628 177.008 70.0573 177.794 68.5913 178.454C68.1225 178.657 67.6156 178.853 67.0137 179.05C66.2663 179.29 65.4987 179.462 64.7202 179.563C63.3506 179.746 61.9586 179.662 60.6209 179.316C60.1247 179.188 59.6396 179.02 59.17 178.815C58.6242 178.576 58.1023 178.285 57.6114 177.947L57.2313 177.688L57.0475 177.548C56.9145 177.447 56.699 177.263 56.5343 177.117C56.1875 176.805 55.8655 176.466 55.5713 176.104C55.367 175.855 55.1767 175.594 55.001 175.324C54.5529 174.637 54.1931 173.897 53.9303 173.119L53.8163 172.746L53.7276 172.442L53.6515 172.131L53.5945 171.897L53.5058 171.447L53.4488 171.073L53.3727 170.439L53.3284 169.933C53.284 169.299 53.2777 168.824 53.2777 168.387C53.2777 167.519 53.3221 166.79 53.3664 166.099C53.4551 164.718 53.5755 163.47 53.7085 162.241C53.981 159.789 54.2978 157.451 54.6399 155.119C55.3812 150.488 56.1415 145.926 57.0412 141.402C58.7899 132.33 60.7476 123.459 63.1109 114.52L82.0866 119.107C80.1859 127.901 78.0824 136.733 76.0106 145.483C75.2503 148.803 74.4393 152.11 73.6917 155.392C75.7255 153.922 77.7656 152.395 79.8057 150.868C86.9335 145.476 94.0296 139.799 101.145 134.23L107.943 141.111Z" fill="#407BFF"/>
<path opacity="0.2" d="M80.5976 123.681L74.832 154.555L98.9081 136.182C98.9081 136.182 80.9461 148.853 78.4815 148.498C76.9102 148.277 80.5976 123.681 80.5976 123.681Z" fill="black"/>
</g>
</svg>
