<svg width="314" height="313" viewBox="0 0 314 313" fill="none" xmlns="http://www.w3.org/2000/svg">
<path d="M272.07 68.1127C271.318 73.1773 269.127 77.9195 265.759 81.7755C262.39 85.6314 257.985 88.4391 253.068 89.8646C248.15 91.2901 242.927 91.2735 238.018 89.8168C233.11 88.3601 228.723 85.5246 225.379 81.6473C222.035 77.77 219.874 73.014 219.155 67.9447C218.435 62.8755 219.186 57.7062 221.319 53.0513C223.451 48.3965 226.875 44.4519 231.185 41.6865C235.494 38.9211 240.506 37.4512 245.626 37.4515V64.1791L272.07 68.1127Z" fill="#EBEBEB"/>
<path d="M277.798 58.7498C277.799 60.064 277.702 61.3764 277.506 62.676L251.07 58.7498V32.0222C254.581 32.0193 258.058 32.7086 261.302 34.0507C264.546 35.3929 267.494 37.3615 269.976 39.844C272.459 42.3264 274.427 45.2741 275.769 48.5181C277.112 51.7622 277.801 55.2391 277.798 58.7498Z" fill="#DBDBDB"/>
<path d="M276.945 73.6841H248.52V74.4319H276.945V73.6841Z" fill="#C7C7C7"/>
<path d="M278.942 76.4286C278.473 76.4301 278.014 76.2923 277.623 76.0328C277.232 75.7732 276.927 75.4035 276.747 74.9704C276.566 74.5374 276.518 74.0605 276.609 73.6001C276.699 73.1398 276.925 72.7167 277.256 72.3844C277.587 72.0521 278.009 71.8256 278.469 71.7335C278.93 71.6414 279.407 71.6879 279.84 71.8671C280.274 72.0463 280.644 72.3502 280.905 72.7402C281.166 73.1302 281.305 73.5888 281.305 74.058C281.306 74.369 281.246 74.6771 281.128 74.9646C281.009 75.2522 280.835 75.5136 280.616 75.7339C280.396 75.9541 280.135 76.1288 279.848 76.248C279.561 76.3673 279.253 76.4286 278.942 76.4286ZM278.942 72.4427C278.621 72.4412 278.306 72.5353 278.038 72.7131C277.77 72.8908 277.561 73.1442 277.437 73.441C277.313 73.7378 277.28 74.0647 277.343 74.3802C277.405 74.6957 277.56 74.9856 277.787 75.213C278.015 75.4404 278.304 75.5951 278.62 75.6575C278.935 75.7198 279.262 75.6871 279.559 75.5633C279.856 75.4396 280.109 75.2304 280.287 74.9624C280.465 74.6944 280.559 74.3796 280.558 74.058C280.558 73.6296 280.387 73.2187 280.084 72.9158C279.781 72.6129 279.371 72.4427 278.942 72.4427Z" fill="#C7C7C7"/>
<path d="M308.25 72.5623H286.166V73.5569H308.25V72.5623Z" fill="#C7C7C7"/>
<path d="M298.663 74.5591H286.166V75.5537H298.663V74.5591Z" fill="#C7C7C7"/>
<path d="M17.6414 124.993H10.5893V175.173H17.6414V124.993Z" fill="#EBEBEB"/>
<path d="M29.7638 137.145H22.7117V175.18H29.7638V137.145Z" fill="#EBEBEB"/>
<path d="M41.8862 156.155H34.8341V175.173H41.8862V156.155Z" fill="#EBEBEB"/>
<path d="M54.0011 145.297H46.949V175.173H54.0011V145.297Z" fill="#EBEBEB"/>
<path d="M66.1235 133.892H59.0714V175.18H66.1235V133.892Z" fill="#EBEBEB"/>
<path d="M78.2459 127.184H71.1938V175.18H78.2459V127.184Z" fill="#EBEBEB"/>
<path d="M6.49869 118.614L6.58095 132.756L6.62582 146.897L6.67817 175.173L6.49869 175.001C12.9799 175.001 19.4612 175.001 25.9424 175.001L45.3861 175.038L64.8298 175.075L84.2735 175.18L64.8298 175.285L45.3861 175.33L25.9424 175.367C19.4612 175.367 12.9799 175.367 6.49869 175.367H6.32669V175.188L6.37904 146.912V132.77L6.49869 118.614Z" fill="#EBEBEB"/>
<path d="M4.94318 121.433C5.44922 121.292 5.97342 121.226 6.49867 121.239C7.02399 121.225 7.54837 121.291 8.05417 121.433C7.54793 121.574 7.02414 121.642 6.49867 121.635C5.97326 121.641 5.44962 121.573 4.94318 121.433Z" fill="#EBEBEB"/>
<path d="M4.94318 125.748C5.44962 125.608 5.97326 125.54 6.49867 125.546C7.02414 125.539 7.54793 125.607 8.05417 125.748C7.54793 125.889 7.02414 125.957 6.49867 125.95C5.97326 125.956 5.44962 125.888 4.94318 125.748Z" fill="#EBEBEB"/>
<path d="M4.94318 130.048C5.44962 129.908 5.97326 129.84 6.49867 129.846C7.02414 129.839 7.54793 129.907 8.05417 130.048C7.54793 130.189 7.02414 130.257 6.49867 130.25C5.97326 130.256 5.44962 130.188 4.94318 130.048Z" fill="#EBEBEB"/>
<path d="M4.94318 134.348C5.44962 134.208 5.97326 134.14 6.49867 134.146C7.02414 134.139 7.54793 134.207 8.05417 134.348C7.54837 134.491 7.02399 134.556 6.49867 134.543C5.97342 134.555 5.44922 134.49 4.94318 134.348Z" fill="#EBEBEB"/>
<path d="M4.94318 138.633C5.44962 138.493 5.97326 138.425 6.49867 138.432C7.02437 138.42 7.54875 138.488 8.05417 138.633C7.54758 138.772 7.02379 138.838 6.49867 138.828C5.97361 138.837 5.44994 138.771 4.94318 138.633Z" fill="#EBEBEB"/>
<path d="M4.94318 142.941C5.44922 142.8 5.97342 142.734 6.49867 142.747C7.02399 142.733 7.54837 142.798 8.05417 142.941C7.54793 143.082 7.02414 143.15 6.49867 143.143C5.97326 143.149 5.44962 143.081 4.94318 142.941Z" fill="#EBEBEB"/>
<path d="M4.94318 147.241C5.44962 147.101 5.97326 147.033 6.49867 147.039C7.02414 147.032 7.54793 147.1 8.05417 147.241C7.54793 147.382 7.02414 147.45 6.49867 147.443C5.97326 147.449 5.44962 147.381 4.94318 147.241Z" fill="#EBEBEB"/>
<path d="M4.94318 151.541C5.44962 151.401 5.97326 151.333 6.49867 151.339C7.02414 151.332 7.54793 151.4 8.05417 151.541C7.54793 151.682 7.02414 151.75 6.49867 151.743C5.97326 151.749 5.44962 151.681 4.94318 151.541Z" fill="#EBEBEB"/>
<path d="M4.94318 155.834C5.44962 155.694 5.97326 155.626 6.49867 155.632C7.02414 155.625 7.54793 155.693 8.05417 155.834C7.54837 155.976 7.02399 156.042 6.49867 156.028C5.97342 156.041 5.44922 155.975 4.94318 155.834Z" fill="#EBEBEB"/>
<path d="M4.94318 160.141C5.44962 160.001 5.97326 159.933 6.49867 159.939C7.02437 159.928 7.54875 159.996 8.05417 160.141C7.54837 160.284 7.02399 160.349 6.49867 160.336C5.97361 160.344 5.44994 160.279 4.94318 160.141Z" fill="#EBEBEB"/>
<path d="M4.94318 164.434C5.44994 164.296 5.97361 164.231 6.49867 164.239C7.02399 164.226 7.54837 164.291 8.05417 164.434C7.54875 164.579 7.02437 164.647 6.49867 164.636C5.97326 164.642 5.44962 164.574 4.94318 164.434Z" fill="#EBEBEB"/>
<path d="M4.94318 168.734C5.44962 168.594 5.97326 168.526 6.49867 168.532C7.02414 168.525 7.54793 168.593 8.05417 168.734C7.54793 168.875 7.02414 168.943 6.49867 168.936C5.97326 168.942 5.44962 168.874 4.94318 168.734Z" fill="#EBEBEB"/>
<path d="M58.6153 111.719H79.7715L124.342 182.06H103.179L58.6153 111.719Z" fill="#F0E823"/>
<path opacity="0.1" d="M58.6153 111.719H79.7715L124.342 182.06H103.179L58.6153 111.719Z" fill="black"/>
<path d="M172.869 72.0612H194.033L238.597 142.41H217.44L172.869 72.0612Z" fill="#F0E823"/>
<path opacity="0.1" d="M172.869 72.0612H194.033L238.597 142.41H217.44L172.869 72.0612Z" fill="black"/>
<path d="M79.749 111.719H58.5853L0.0747681 204.076H21.231L79.749 111.719Z" fill="#F0E823"/>
<path d="M194.07 72.0612H172.907L103.216 182.06H124.372L194.07 72.0612Z" fill="#F0E823"/>
<path d="M308.183 32.4036H287.026L217.336 142.41H238.492L308.183 32.4036Z" fill="#F0E823"/>
<path d="M282.113 32.4036H313.186L305.214 17.7086L282.113 32.4036Z" fill="#F0E823"/>
<path d="M313.186 292.231L274.044 292.411L234.895 292.478L156.596 292.598L78.2983 292.478L39.1491 292.411L0 292.231L39.1491 292.044L78.2983 291.977L156.596 291.857L234.895 291.984L274.044 292.044L313.186 292.231Z" fill="#263238"/>
<path d="M149.806 152.012C134.917 164.284 96.2238 208.399 94.2421 211.443C89.0596 219.43 84.58 258.287 107.703 252.828C130.826 247.369 156.596 182.255 164.374 160.186C168.502 148.49 161.958 141.999 149.806 152.012Z" fill="#C7C7C7"/>
<path opacity="0.1" d="M115.727 248.782C136.51 233.077 157.471 179.734 164.337 160.186C166.857 153.059 165.406 147.854 161.136 147.159L115.727 248.782Z" fill="black"/>
<path d="M98.0037 170.603C95.3414 165.645 59.5874 179.824 62.4741 187.587C73.0335 216.004 88.207 243.054 93.7335 248.416C100.98 255.445 112.34 251.369 115.81 245.424C120.626 237.108 100.644 175.517 98.0037 170.603Z" fill="#D3766A"/>
<path d="M70.3862 193.607C74.9405 195.648 99.1778 174.694 98.056 169.676C97.039 165.189 96.4706 151.818 99.4395 142.171C101.922 134.064 106.544 122.316 102.229 120.813C95.9546 118.614 88.3342 132.778 84.4529 141.161C81.5139 137.085 78.5974 133.855 76.2267 132.591C68.2997 128.403 45.0944 161.435 48.7289 169.803C52.1988 177.887 65.8244 191.573 70.3862 193.607Z" fill="#D3766A"/>
<path d="M92.1462 125.374L86.3372 121.258L68.2302 146.813L74.0391 150.929L92.1462 125.374Z" fill="#C7C7C7"/>
<path d="M63.0349 169.646L54.2479 163.417L70.2964 140.765L79.0835 146.987L63.0349 169.646Z" fill="#263238"/>
<path d="M87.1227 141.505C86.502 146.119 81.4167 142.747 81.4167 142.747C81.4167 142.747 87.5714 149.372 85.0886 153.889C82.6806 158.234 76.6755 153.934 76.2417 153.635C76.5633 153.987 82.0599 160.223 79.0984 164.501C76.0174 168.988 70.7302 163.604 70.3936 163.252C70.5956 163.686 73.1382 169.407 70.1469 172.144C65.0092 176.855 58.0993 162.422 52.6999 160.754C52.6999 160.754 48.856 169.579 48.6915 169.811C48.6915 169.811 41.8339 156.2 44.4737 149.043C44.8406 147.998 45.5537 147.109 46.4949 146.524C47.4361 145.939 48.5488 145.694 49.6487 145.828C49.6487 145.828 46.949 141.685 49.1776 138.237C50.3218 136.472 54.1656 136.741 54.1656 136.741C54.1656 136.741 52.1465 133.331 54.3227 130.392C56.0427 128.037 59.6323 128.672 59.6323 128.672C59.6323 128.672 59.206 124.499 61.7487 122.69C66.8564 118.965 88.4464 131.611 87.1227 141.505Z" fill="#D3766A"/>
<path d="M60.2156 128.68C60.205 128.679 60.1946 128.676 60.1853 128.671C60.176 128.666 60.1681 128.659 60.1622 128.65C60.1563 128.641 60.1526 128.631 60.1514 128.62C60.1502 128.61 60.1515 128.599 60.1552 128.589C60.159 128.579 60.165 128.57 60.1729 128.563C60.1808 128.556 60.1902 128.55 60.2005 128.548C60.2108 128.545 60.2216 128.544 60.232 128.547C60.2424 128.549 60.2522 128.553 60.2605 128.56C68.367 130.983 76.5334 136.136 81.7084 142.896C81.8804 143.12 81.5962 143.494 81.3569 143.285C74.6937 137.332 68.2997 132.584 60.2156 128.68Z" fill="#263238"/>
<path d="M54.0834 136.629C54.0011 136.629 54.0834 136.442 54.1657 136.472C62.5115 139.022 71.5453 145.072 76.6007 153.568C76.7727 153.859 76.6007 154.316 76.4062 153.979C72.6222 148.58 61.3823 140.129 54.0834 136.629Z" fill="#263238"/>
<path d="M70.5432 163.97C65.3831 156.013 58.1965 150.509 50.0002 145.91C49.8955 145.85 50.0002 145.701 50.0899 145.73C54.7116 146.882 59.6323 150.36 63.2294 153.381C66.624 156.129 69.2408 159.718 70.8199 163.791C70.8797 163.955 70.6479 164.142 70.5432 163.97Z" fill="#263238"/>
<path d="M81.5738 142.739C81.7757 143.008 81.1625 143.008 81.3569 143.285C82.1795 144.429 86.5244 151.758 84.4829 154.016C82.8526 155.819 79.2929 154.869 78.0664 153.972L74.9853 151.728L77.0942 154.929C78.0385 156.341 78.7481 157.897 79.1957 159.535C79.607 161.143 79.592 162.848 78.7395 164.082C78.3701 164.708 77.7983 165.189 77.1184 165.446C76.4386 165.703 75.6914 165.721 75.0003 165.496C73.452 164.948 72.0695 164.014 70.9844 162.781L67.8809 159.491L69.7281 163.596C70.2444 164.742 70.6138 165.948 70.8274 167.186C71.0701 168.349 70.9661 169.558 70.5283 170.663C70.3099 171.153 69.9589 171.573 69.515 171.874C69.071 172.175 68.5516 172.346 68.0155 172.368C66.8124 172.234 65.6717 171.762 64.7251 171.007C62.6567 169.398 60.7165 167.63 58.9219 165.72C57.9796 164.785 57.0373 163.85 56.0502 162.953C55.1099 161.997 53.9749 161.255 52.7223 160.777C53.8925 161.383 54.9338 162.211 55.7884 163.215C56.7008 164.172 57.5608 165.174 58.4283 166.206C60.13 168.283 62.0228 170.196 64.0819 171.92C65.1783 172.872 66.5307 173.481 67.9707 173.67C68.7668 173.691 69.5519 173.479 70.2285 173.059C70.9052 172.639 71.4436 172.03 71.7771 171.306C72.3667 169.952 72.536 168.451 72.2632 166.999C72.05 165.618 71.6579 164.27 71.0966 162.99L69.8477 163.753C71.1104 165.227 72.7337 166.348 74.5591 167.006C75.5826 167.339 76.6898 167.308 77.6925 166.917C78.6617 166.501 79.4827 165.802 80.0482 164.912C80.5471 164.047 80.8564 163.085 80.9557 162.091C81.0549 161.097 80.9419 160.094 80.624 159.147C80.1097 157.348 79.301 155.648 78.231 154.114L77.2588 155.048C78.8517 156.14 82.718 157.636 85.6121 155.153C88.8652 151.347 82.7853 144.003 81.5738 142.739Z" fill="#263238"/>
<path d="M81.4167 142.747C82.3049 143.11 83.2428 143.337 84.1987 143.42C84.5813 143.462 84.9684 143.401 85.3195 143.244C85.6707 143.086 85.9731 142.837 86.1954 142.522C86.5892 141.768 86.7555 140.916 86.674 140.069C86.6291 139.127 86.5319 138.147 86.3973 137.13C87.0143 137.967 87.4521 138.921 87.6836 139.935C87.8384 140.486 87.8824 141.063 87.813 141.632C87.7437 142.2 87.5625 142.749 87.2797 143.248C86.912 143.772 86.3887 144.167 85.7841 144.377C85.2139 144.556 84.6052 144.571 84.0267 144.422C83.0014 144.153 82.0876 143.567 81.4167 142.747Z" fill="#263238"/>
<path d="M102.573 177.596L62.4142 206.686C62.4142 206.686 87.7808 251.482 99.806 253C107.83 254.009 117.948 251.684 117.575 236.428C117.201 221.172 102.573 177.596 102.573 177.596Z" fill="#C7C7C7"/>
<path d="M106.252 189.524C107.591 192.226 108.723 195.026 109.64 197.899C110.635 200.734 111.547 203.583 112.347 206.477C113.933 212.315 115.122 218.254 115.907 224.253C116.363 227.603 116.655 230.984 117.066 234.326C117.066 234.342 117.06 234.357 117.048 234.369C117.037 234.38 117.022 234.386 117.006 234.386C116.99 234.386 116.975 234.38 116.964 234.369C116.953 234.357 116.946 234.342 116.946 234.326C116.617 231.335 116.094 228.344 115.518 225.427C114.942 222.511 114.306 219.497 113.589 216.558C112.183 210.792 110.672 205.049 108.997 199.358C108.526 197.765 108.04 196.172 107.501 194.594C106.963 193.016 106.409 191.318 106.006 189.636C105.998 189.486 106.177 189.389 106.252 189.524Z" fill="#263238"/>
<path d="M103.747 189.539C102.618 190.167 101.571 190.959 100.516 191.692L97.2334 193.936C94.9899 195.432 92.8287 197.002 90.645 198.565C86.2777 201.683 81.9103 204.787 77.6028 207.98C76.4137 208.855 75.2322 209.738 74.073 210.65C72.9139 211.562 71.7024 212.647 70.4759 213.596C70.4011 213.649 70.4759 213.753 70.5732 213.701C71.6799 212.953 72.8167 212.31 73.9534 211.57C75.0901 210.829 76.1969 210.074 77.3336 209.266C79.5272 207.721 81.7084 206.16 83.8771 204.585C88.1473 201.481 92.4398 198.393 96.6427 195.2L100.157 192.515C101.384 191.58 102.685 190.698 103.822 189.658C103.882 189.606 103.822 189.486 103.747 189.539Z" fill="#263238"/>
<path d="M139.336 292.082H201.698C202.214 290.077 202.708 288.103 203.194 286.159C203.762 283.915 204.323 281.739 204.862 279.615C204.981 279.137 205.109 278.665 205.228 278.194L206.432 273.438C206.672 272.496 206.911 271.576 207.135 270.656C207.359 269.736 207.614 268.809 207.838 267.912C207.905 267.68 207.958 267.44 208.025 267.209C208.092 266.977 208.152 266.7 208.212 266.461C208.272 266.221 208.369 265.84 208.451 265.533L208.698 264.576C208.855 263.978 209.005 263.387 209.147 262.811C209.364 261.951 209.581 261.114 209.782 260.306C209.872 259.947 209.969 259.558 210.052 259.244C210.201 258.676 210.343 258.122 210.478 257.577C210.575 257.21 210.665 256.829 210.747 256.507C211.121 255.081 211.465 253.738 211.779 252.476C211.861 252.147 211.944 251.826 212.033 251.504C212.168 250.958 212.303 250.442 212.422 249.934C212.512 249.62 212.594 249.305 212.662 249.006C212.938 247.937 213.193 246.957 213.409 246.09C213.477 245.865 213.529 245.641 213.589 245.432C213.731 244.856 213.866 244.355 213.978 243.936C214.023 243.749 214.06 243.577 214.105 243.42C214.15 243.263 214.195 243.069 214.232 242.919C214.269 242.769 214.292 242.702 214.314 242.605C214.337 242.508 214.397 242.306 214.427 242.179C214.456 242.051 214.427 242.044 214.471 241.992C214.569 241.618 214.613 241.431 214.613 241.431H153.919C153.919 241.431 151.915 248.318 148.684 259.431L146.583 266.73C144.489 274.081 142.006 282.726 139.336 292.082Z" fill="#37474F"/>
<path d="M191.49 292.082H193.046C195.354 282.534 197.598 272.964 199.776 263.372C200.3 261.039 200.816 258.703 201.324 256.365C201.377 256.148 201.422 255.931 201.467 255.714C201.511 255.498 201.317 255.542 201.287 255.662L201.227 255.879C200.524 258.384 199.814 260.897 199.133 263.41C196.486 272.957 193.938 282.514 191.49 292.082Z" fill="#263238"/>
<path d="M155.886 241.378L158.563 254.787L160.762 265.765L164.501 284.514L164.883 286.435L165.526 289.636L166.004 292.059H201.706C202.214 290.048 202.723 288.073 203.202 286.136C203.77 283.893 204.331 281.717 204.869 279.593C204.989 279.114 205.116 278.643 205.236 278.172L206.44 273.416C206.679 272.473 206.918 271.554 207.143 270.634C207.367 269.714 207.621 268.787 207.846 267.889C207.913 267.657 207.965 267.418 208.033 267.186C208.1 266.954 208.16 266.678 208.22 266.438C208.279 266.199 208.377 265.818 208.459 265.511L208.706 264.554C208.863 263.956 209.012 263.365 209.154 262.789C209.371 261.929 209.588 261.091 209.79 260.284C209.887 259.917 209.977 259.536 210.059 259.222C210.209 258.653 210.351 258.1 210.485 257.554C210.583 257.188 210.672 256.806 210.755 256.485C211.129 255.059 211.473 253.715 211.787 252.454C211.869 252.125 211.951 251.803 212.041 251.482C212.176 250.936 212.31 250.42 212.43 249.911C212.52 249.597 212.602 249.283 212.669 248.984C212.946 247.915 213.2 246.935 213.417 246.067C213.484 245.843 213.537 245.619 213.596 245.409C213.739 244.833 213.873 244.332 213.985 243.914C214.03 243.727 214.068 243.555 214.112 243.398C214.157 243.241 214.202 243.046 214.24 242.897C214.277 242.747 214.299 242.68 214.322 242.582C214.344 242.485 214.404 242.283 214.434 242.156C214.464 242.029 214.434 242.022 214.479 241.969C214.576 241.595 214.621 241.408 214.621 241.408L155.886 241.378Z" fill="#263238"/>
<path d="M155.849 241.349C155.849 241.678 156.095 245.297 156.686 250.824C156.851 252.431 157.045 254.204 157.277 256.103C157.629 259.095 158.077 262.4 158.623 265.892C159.55 271.987 160.769 278.606 162.362 285.127C162.923 287.467 163.544 289.786 164.202 292.052H242.56C241.64 280.086 240.788 269.31 240.122 260.8C239.18 248.834 238.582 241.319 238.582 241.319H167.492L155.849 241.349Z" fill="#37474F"/>
<path d="M156.043 248.565C156.125 251.37 156.245 254.166 156.432 256.963C156.619 259.955 156.896 263.006 157.292 266.027C157.292 266.139 157.292 266.244 157.292 266.356C157.666 269.183 158.09 272.005 158.563 274.822C159.012 277.446 159.311 280.273 160.508 282.704C160.946 283.641 161.57 284.48 162.34 285.172C163.047 285.816 163.911 286.265 164.845 286.473C165 286.509 165.158 286.534 165.316 286.548H165.451C165.421 286.565 165.397 286.59 165.381 286.62C165.365 286.651 165.358 286.685 165.361 286.72C165.361 287.654 165.361 288.612 165.473 289.546C165.473 289.546 165.473 289.629 165.473 289.666C165.571 290.481 165.72 291.281 165.87 292.089H167.216C167.216 292.089 167.216 292.089 167.216 292.044C166.984 291.162 166.782 290.264 166.565 289.374C166.348 288.485 166.027 287.572 165.817 286.645C165.817 286.607 165.78 286.585 165.757 286.555C166.61 286.598 167.456 286.378 168.18 285.925C168.903 285.471 169.47 284.806 169.803 284.02C170.141 282.819 170.161 281.552 169.863 280.341C169.624 278.733 169.384 277.132 169.115 275.525C168.659 272.578 168.068 269.662 167.545 266.73C167.463 266.289 167.388 265.833 167.306 265.391C166.259 259.409 165.159 253.426 163.836 247.548C163.791 247.301 163.731 247.055 163.678 246.8C163.626 246.546 163.379 246.681 163.394 246.838C163.432 247.234 163.477 247.638 163.521 248.027C163.751 250.3 164.023 252.561 164.337 254.81C164.718 257.457 164.972 260.119 165.346 262.766C165.473 263.671 165.6 264.569 165.735 265.474C166.341 269.826 166.976 274.186 167.717 278.523C168.068 280.535 169.325 284.147 166.423 284.775C165.758 284.919 165.065 284.832 164.456 284.528C163.173 283.756 162.214 282.544 161.757 281.118C161.044 278.747 160.529 276.321 160.216 273.864C159.747 271.212 159.326 268.555 158.952 265.892C158.484 262.562 157.985 259.239 157.457 255.924C157.202 254.234 156.933 252.544 156.664 250.853L156.282 248.505C156.305 248.341 156.043 248.386 156.043 248.565Z" fill="#263238"/>
<path d="M225.397 269.385C222.133 269.353 218.885 268.916 215.728 268.084C214.269 267.71 212.834 267.246 211.405 266.775C209.988 266.385 208.661 265.719 207.502 264.816C205.303 262.924 204.278 259.94 203.329 257.285C202.283 254.298 201.436 251.245 200.794 248.146C200.794 247.989 200.539 248.042 200.532 248.184C200.456 251.69 200.899 255.188 201.848 258.564C202.633 261.428 203.695 264.629 206.013 266.64C208.444 268.749 211.757 269.49 214.868 269.878C218.372 270.285 221.914 270.235 225.405 269.729C225.45 269.728 225.494 269.709 225.525 269.676C225.557 269.643 225.574 269.599 225.573 269.553C225.572 269.507 225.553 269.464 225.52 269.433C225.487 269.401 225.443 269.384 225.397 269.385Z" fill="#263238"/>
<path d="M230.819 248.236C230.994 252.618 231.178 257.008 231.372 261.405C231.821 271.626 232.32 281.846 232.868 292.067H234.364C233.691 281.821 232.98 271.578 232.232 261.338C231.908 256.961 231.577 252.586 231.238 248.214C231.235 248.158 231.21 248.106 231.169 248.069C231.127 248.032 231.073 248.013 231.017 248.015C230.962 248.018 230.91 248.043 230.872 248.085C230.835 248.126 230.816 248.181 230.819 248.236Z" fill="#263238"/>
<path d="M142.388 273.812L245.701 265.765C245.701 265.765 225.562 186.585 185.254 144.616C175.958 134.939 164.912 141.946 159.588 147.899C146.074 163.043 142.066 273.476 142.388 273.812Z" fill="#C7C7C7"/>
<path d="M243.345 257.255L142.694 264.187C142.759 262.692 142.836 261.027 142.926 259.192L241.85 252.387C242.373 254.166 242.874 255.797 243.345 257.255Z" fill="#DBDBDB"/>
<path d="M240.474 248.154L143.098 254.884C143.188 253.294 143.28 251.629 143.375 249.889L238.858 243.33C239.437 245.005 239.975 246.613 240.474 248.154Z" fill="#DBDBDB"/>
<path d="M196.232 154.585C217.979 183.279 254.286 258.048 259.626 269.003C263.245 276.482 223.535 296.127 221.853 290.691C219.691 283.736 184.177 191.977 179.226 158.541C176.466 140.256 188.679 144.661 196.232 154.585Z" fill="#D3766A"/>
<path d="M220.753 286.996C221.681 293.764 226.354 307.382 229.839 309.431C233.324 311.48 251.594 311.069 260.807 311.069C270.021 311.069 271.838 308.541 271.681 305.43C271.524 302.319 252.2 301.691 252.2 301.691C252.2 301.691 278.022 308.96 284.514 310.149C291.005 311.338 305.969 315.04 308.13 309.753C309.11 307.367 305.012 304.952 305.012 304.952C305.012 304.952 311.294 306.754 312.288 303.688C313.425 300.203 308.437 298.281 308.437 298.281C308.437 298.281 312.355 299.029 312.453 296.217C312.647 289.861 288.096 286.735 288.096 286.735C288.096 286.735 306.896 295.709 307.539 290.541C308.377 283.362 269.841 275.495 265.833 272.369C262.918 269.981 260.188 267.376 257.666 264.576L220.753 286.996Z" fill="#D3766A"/>
<path d="M271.546 307.031C271.609 306.586 271.562 306.133 271.41 305.711C271.257 305.288 271.004 304.91 270.671 304.608C270.008 304.01 269.25 303.527 268.428 303.179C266.721 302.462 264.954 301.899 263.148 301.497C259.513 300.592 255.797 299.949 252.087 299.014C255.917 298.954 259.738 299.376 263.462 300.27C265.356 300.696 267.183 301.381 268.891 302.305C269.759 302.786 270.522 303.437 271.135 304.219C271.443 304.611 271.644 305.077 271.716 305.57C271.788 306.063 271.73 306.567 271.546 307.031Z" fill="#263238"/>
<path d="M305.012 305.004C302.357 304.369 299.777 303.636 297.122 302.888C294.467 302.14 291.887 301.392 289.315 300.592L281.537 298.199C278.942 297.399 276.347 296.614 273.73 295.843C276.448 296.134 279.144 296.606 281.799 297.257C284.461 297.855 287.086 298.603 289.689 299.38C292.291 300.158 294.886 301.018 297.436 301.968C299.986 302.918 302.529 303.905 305.012 305.004Z" fill="#263238"/>
<path d="M279.989 289.509C282.503 289.668 285.002 290.006 287.467 290.519C289.927 291.004 292.358 291.62 294.751 292.366C297.132 293.087 299.469 293.943 301.751 294.931C304.055 295.903 306.289 297.032 308.437 298.311C306.059 297.503 303.748 296.613 301.385 295.836C299.022 295.058 296.688 294.265 294.31 293.555C291.932 292.844 289.561 292.134 287.176 291.446C284.79 290.758 282.382 290.152 279.989 289.509Z" fill="#263238"/>
<path d="M283.766 283.459C287.808 283.775 291.793 284.615 295.619 285.957C299.465 287.198 303.131 288.941 306.522 291.139C302.708 289.808 298.999 288.395 295.2 287.153C291.401 285.912 287.617 284.678 283.766 283.459Z" fill="#263238"/>
<path d="M262.789 266.603L216.476 285.471C216.476 285.471 180.647 185.321 177.371 162.43C174.096 139.538 180.647 135.859 196.561 153.972C212.475 172.084 262.789 266.603 262.789 266.603Z" fill="#C7C7C7"/>
<path d="M254.989 257.913C253.755 258.265 252.551 258.788 251.347 259.244L247.608 260.65C245.095 261.6 242.597 262.595 240.13 263.597C235.149 265.601 230.168 267.59 225.233 269.677C223.872 270.252 222.518 270.828 221.172 271.434C219.826 272.04 218.398 272.817 216.992 273.453C216.902 273.49 216.992 273.618 217.051 273.58C218.3 273.124 219.587 272.765 220.843 272.309C222.099 271.853 223.401 271.359 224.664 270.858C227.157 269.861 229.65 268.864 232.143 267.867C237.026 265.855 241.917 263.866 246.755 261.749L250.801 259.97C252.215 259.356 253.695 258.796 255.041 258.055C255.06 258.048 255.076 258.034 255.084 258.016C255.092 257.998 255.093 257.977 255.086 257.958C255.079 257.939 255.065 257.924 255.047 257.915C255.029 257.907 255.008 257.906 254.989 257.913Z" fill="#263238"/>
<path d="M211.817 272.331C208.79 264.424 205.876 256.477 203.074 248.49C200.255 240.511 197.54 232.494 194.848 224.462C192.156 216.431 189.613 208.369 187.153 200.27C184.693 192.171 182.337 184.027 180.363 175.793L182.292 181.843L184.274 187.871L188.282 199.956L196.284 224.036C198.931 232.068 201.586 240.1 204.181 248.154C206.776 256.208 209.334 264.27 211.817 272.331Z" fill="#263238"/>
<path d="M183.519 186.585C182.988 186.128 182.52 185.602 182.128 185.022C181.73 184.454 181.372 183.859 181.058 183.242C180.417 182.009 179.961 180.689 179.705 179.323C180.093 179.894 180.45 180.486 180.774 181.096C181.11 181.694 181.41 182.3 181.724 182.905C182.315 184.117 182.905 185.321 183.519 186.585Z" fill="#263238"/>
<path d="M179.166 117.178C179.166 117.178 178.882 123.632 179.458 125.868C180.034 128.104 185.074 130.452 185.074 130.452C185.074 130.452 179.338 132.486 177.708 132.097C176.078 131.709 173.445 127.528 173.445 127.528C173.445 127.528 175.868 134.221 178.201 134.573C179.645 134.79 174.649 134.842 174.649 134.842C172.993 134.728 171.438 134.006 170.282 132.815C168.562 130.893 179.166 117.178 179.166 117.178Z" fill="#263238"/>
<path d="M162.101 162.654C168.3 162.602 176.167 151.19 178.358 142.971C178.508 142.41 171.568 123.041 170.588 119.04C170.394 118.218 147.077 131.23 147.077 131.23C147.077 131.23 151.564 138.97 153.239 145.925C153.373 146.531 156.11 162.699 162.101 162.654Z" fill="#D3766A"/>
<path d="M147.077 131.252C147.077 131.252 151.564 138.992 153.246 145.947C153.246 146.082 153.448 147.091 153.777 148.557C165.391 144.549 171.164 135.403 173.842 129.188C172.346 124.799 170.985 120.671 170.596 119.063C170.387 118.248 147.077 131.252 147.077 131.252Z" fill="#263238"/>
<path d="M178.845 91.9088C181.784 100.973 177.401 127.386 171.007 133.361C161.742 142.021 146.329 143.083 138.918 131.91C131.716 121.082 138.035 86.7637 145.2 81.312C155.744 73.2803 174.545 78.5151 178.845 91.9088Z" fill="#D3766A"/>
<path d="M154.405 107.03C155.199 106.998 155.991 106.92 156.776 106.798C157.621 106.835 158.455 106.59 159.147 106.103C159.337 105.908 159.457 105.654 159.487 105.383C159.517 105.112 159.455 104.839 159.311 104.607C158.646 103.65 157.501 103.493 156.402 103.568C155.282 103.601 154.215 104.051 153.411 104.831C153.235 105.02 153.12 105.257 153.078 105.511C153.037 105.765 153.071 106.026 153.177 106.261C153.284 106.496 153.457 106.694 153.675 106.831C153.894 106.968 154.148 107.037 154.405 107.03Z" fill="#263238"/>
<path d="M144.182 106.746C144.182 106.679 144.025 106.806 144.018 106.88C143.779 108.668 143.203 110.679 141.49 111.001C141.438 111.001 141.43 111.106 141.49 111.106C143.502 111.158 144.242 108.481 144.182 106.746Z" fill="#263238"/>
<path d="M142.896 104.622C140.069 103.927 138.895 109.64 141.513 110.276C144.13 110.911 145.267 105.205 142.896 104.622Z" fill="#263238"/>
<path d="M141.027 99.8134C141.811 99.9569 142.602 100.059 143.397 100.12C144.215 100.348 145.086 100.298 145.873 99.9779C146.103 99.8315 146.278 99.6118 146.369 99.3542C146.46 99.0965 146.461 98.8158 146.374 98.557C145.947 97.4727 144.878 97.0614 143.771 96.8819C142.676 96.6662 141.541 96.8662 140.585 97.4428C140.374 97.5865 140.209 97.7888 140.11 98.025C140.012 98.2611 139.984 98.5208 140.031 98.7723C140.078 99.0238 140.197 99.2562 140.374 99.4411C140.551 99.626 140.777 99.7554 141.027 99.8134Z" fill="#263238"/>
<path d="M153.934 124.993C153.433 125.344 152.917 125.846 152.259 125.793C151.6 125.675 150.974 125.42 150.419 125.045C150.409 125.037 150.395 125.033 150.382 125.033C150.368 125.033 150.355 125.038 150.345 125.047C150.334 125.055 150.327 125.067 150.324 125.081C150.321 125.094 150.323 125.108 150.33 125.12C150.525 125.514 150.824 125.847 151.194 126.085C151.564 126.322 151.992 126.454 152.431 126.466C152.81 126.43 153.169 126.284 153.465 126.044C153.76 125.805 153.978 125.483 154.091 125.12C154.136 125.008 154.002 124.948 153.934 124.993Z" fill="#263238"/>
<path d="M152.947 119.354C152.378 119.982 151.686 120.485 150.914 120.834C150.142 121.183 149.307 121.369 148.46 121.381C147.718 121.398 146.978 121.31 146.261 121.119C146.121 121.092 145.983 121.052 145.85 121L145.469 120.872C145.376 120.84 145.298 120.777 145.245 120.694C145.192 120.612 145.168 120.514 145.177 120.416C145.182 120.354 145.197 120.294 145.222 120.237V120.08C145.409 118.704 145.888 116.64 145.888 116.64C145.349 116.804 142.605 117.53 142.762 116.819C144.1 110.949 145.588 104.42 148.161 98.8712C148.175 98.8295 148.205 98.7951 148.244 98.7754C148.283 98.7558 148.329 98.7526 148.37 98.7665C148.412 98.7803 148.446 98.8102 148.466 98.8495C148.486 98.8887 148.489 98.9342 148.475 98.9759C147.413 104.667 145.357 110.134 144.197 115.84C145.171 115.569 146.178 115.435 147.189 115.443C147.376 115.533 146.194 119.414 146.157 120.042V120.11C148.4 120.79 150.27 120.379 152.76 119.205C152.955 119.085 153.074 119.227 152.947 119.354Z" fill="#263238"/>
<path d="M159.805 108.84C159.293 108.592 158.75 108.418 158.189 108.324C157.613 108.229 157.027 108.216 156.447 108.286C155.837 108.368 155.248 108.566 154.712 108.87C154.165 109.197 153.7 109.645 153.351 110.178L152.723 111.143H153.882C154.704 111.126 155.526 111.194 156.335 111.345C157.176 111.481 157.968 111.829 158.638 112.355C158.232 111.491 157.505 110.821 156.611 110.485C155.733 110.117 154.79 109.929 153.837 109.932L154.368 110.874C154.931 110.109 155.738 109.56 156.656 109.318C157.682 109.028 158.739 108.867 159.805 108.84Z" fill="#263238"/>
<path d="M156.148 113.14C155.299 112.868 154.489 112.486 153.74 112.003C153.568 111.869 152.91 111.3 152.992 111.158C153.119 110.736 153.302 110.334 153.538 109.962C153.193 110.284 152.918 110.673 152.73 111.106C152.768 111.356 152.861 111.595 153.002 111.806C153.143 112.017 153.328 112.194 153.545 112.325C154.326 112.822 155.224 113.103 156.148 113.14Z" fill="#263238"/>
<path d="M178.411 116.774C173.655 114.95 172.638 98.3551 172.638 98.3551L170.895 107.269C168.762 105.128 167.099 102.566 166.012 99.7461C165.01 96.7548 165.757 92.7539 166.401 90.817C166.401 90.817 160.261 94.8328 153.874 95.9172C151.526 96.321 136.674 95.2815 136.749 94.2271C137.026 91.1011 142.507 80.8035 147.017 78.2907C152.207 75.3966 164.105 72.0164 173.856 76.7951C181.656 80.609 180.318 86.7861 181.694 91.3105C181.694 91.3105 187.146 96.5454 187.22 98.9908C187.37 104.233 180.161 117.447 178.411 116.774Z" fill="#263238"/>
<path d="M154.353 118.577C152.445 117.905 150.882 116.505 150.005 114.682C149.129 112.86 149.012 110.764 149.679 108.855C150.151 107.507 150.991 106.319 152.105 105.425C153.219 104.531 154.561 103.968 155.979 103.8C157.397 103.632 158.834 103.865 160.126 104.473C161.418 105.081 162.514 106.039 163.288 107.239C164.062 108.439 164.484 109.832 164.506 111.26C164.527 112.688 164.147 114.093 163.41 115.316C162.672 116.538 161.606 117.529 160.332 118.176C159.059 118.822 157.63 119.099 156.208 118.973C155.575 118.921 154.952 118.788 154.353 118.577ZM150.614 109.191C150.182 110.425 150.125 111.759 150.451 113.025C150.778 114.291 151.472 115.432 152.446 116.304C153.421 117.175 154.632 117.738 155.926 117.922C157.221 118.105 158.54 117.9 159.718 117.334C160.897 116.767 161.88 115.864 162.545 114.738C163.21 113.613 163.526 112.315 163.454 111.01C163.382 109.705 162.924 108.45 162.138 107.405C161.353 106.36 160.276 105.571 159.042 105.138C158.522 104.956 157.982 104.838 157.434 104.787C155.97 104.663 154.507 105.028 153.272 105.825C152.038 106.622 151.103 107.806 150.614 109.191Z" fill="#F0E823"/>
<path d="M138.918 115.324C135.822 114.837 133.84 111.061 134.491 106.903C134.757 105.019 135.604 103.265 136.913 101.885C137.439 101.257 138.118 100.776 138.884 100.488C139.651 100.201 140.478 100.116 141.287 100.243C142.096 100.371 142.858 100.705 143.499 101.214C144.14 101.723 144.638 102.39 144.945 103.149C145.763 104.866 146.024 106.795 145.693 108.668C145.072 112.601 142.305 115.488 139.389 115.398C139.23 115.384 139.073 115.359 138.918 115.324ZM137.631 102.61C136.468 103.845 135.722 105.415 135.5 107.097C134.932 110.702 136.54 113.955 139.075 114.351C141.61 114.748 144.138 112.145 144.706 108.548C145.001 106.886 144.768 105.173 144.04 103.65C143.78 103.053 143.38 102.527 142.873 102.117C142.367 101.707 141.77 101.425 141.131 101.294C141.002 101.275 140.873 101.262 140.742 101.257C140.159 101.253 139.581 101.371 139.045 101.602C138.51 101.834 138.028 102.175 137.631 102.603V102.61Z" fill="#F0E823"/>
<path d="M149.709 109.767L150.509 109.139C149.574 107.95 147.219 106.148 144.99 107.703L145.581 108.533C147.578 107.12 149.627 109.662 149.709 109.767Z" fill="#F0E823"/>
<path d="M182.599 118.592L183.578 118.322C183.451 117.859 182.27 113.835 180.108 112.998C178.097 112.25 164.449 110.709 163.865 110.642L163.753 111.659C167.672 112.093 178.194 113.357 179.749 113.947C181.17 114.493 182.285 117.485 182.599 118.592Z" fill="#F0E823"/>
<path d="M173.169 114.793C173.169 114.793 179.076 106.245 182.958 108.346C186.839 110.448 182.427 122.817 177.895 124.529C177.328 124.789 176.716 124.931 176.093 124.948C175.47 124.965 174.851 124.856 174.271 124.627C173.691 124.399 173.164 124.056 172.72 123.619C172.276 123.182 171.925 122.66 171.688 122.084L173.169 114.793Z" fill="#D3766A"/>
<path d="M181.604 111.861C181.62 111.861 181.635 111.867 181.646 111.879C181.658 111.89 181.664 111.905 181.664 111.921C181.664 111.937 181.658 111.952 181.646 111.963C181.635 111.974 181.62 111.981 181.604 111.981C178.426 113.282 176.766 116.243 175.621 119.309C176.564 118.128 177.865 117.47 179.435 118.562C179.518 118.621 179.435 118.749 179.346 118.734C178.786 118.557 178.186 118.559 177.627 118.739C177.068 118.918 176.579 119.266 176.227 119.736C175.64 120.525 175.139 121.375 174.731 122.271C174.582 122.555 174.066 122.405 174.171 122.076V122.009C174.126 117.978 177.252 112.287 181.604 111.861Z" fill="#263238"/>
<path d="M153.448 147.002L161.084 160.141L176.953 138.275L183.055 143.33C183.055 143.33 169.31 175.277 169.011 173.954L160.994 162.654L153.074 172.862L151.668 150.778L153.448 147.002Z" fill="#EBEBEB"/>
<path d="M151.511 151.018C151.511 150.883 151.736 150.786 151.751 150.943C152.274 154.989 153.119 169.168 153.403 171.65L153.441 171.606C153.74 171.172 160.919 162.549 160.994 162.631C162.624 164.411 168.472 172.563 168.921 173.34C170.947 168.233 179.734 149.821 182.322 144.885C182.334 144.854 182.358 144.828 182.389 144.814C182.42 144.8 182.455 144.799 182.487 144.811C182.518 144.822 182.544 144.847 182.558 144.877C182.572 144.908 182.573 144.943 182.561 144.975C180.901 150.285 169.609 175.128 169.384 175.098C169.25 175.233 161.981 165.144 160.979 163.133C159.939 164.942 152.812 174.515 152.753 173.976C152.341 170.79 151.511 154.428 151.511 151.018Z" fill="#263238"/>
<path d="M87.7957 117.694C88.4749 118.331 89.2108 118.904 89.9944 119.407C90.1739 119.526 90.3683 119.639 90.5627 119.751C90.7572 119.863 90.9067 119.953 91.0862 120.042L91.4526 120.237L96.9791 122.959C96.4756 122.717 95.9884 122.442 95.5209 122.136C95.1179 121.88 94.7285 121.603 94.3543 121.306C94.0028 121.037 93.6588 120.738 93.3148 120.424C84.9241 112.601 85.4999 96.321 94.601 84.064C101.616 74.6039 111.637 70.2964 119.713 72.3978C120.718 72.6527 121.694 73.0137 122.622 73.4747L117.096 70.7451C117.081 70.7393 117.065 70.7393 117.051 70.7451C116.819 70.618 116.572 70.5133 116.303 70.4086C116.034 70.3039 115.884 70.2291 115.668 70.1543L115.376 70.0496L114.882 69.8851L114.598 69.8028C109.67 68.3595 103.964 69.3691 98.6543 72.51L97.8466 73.0036C94.4287 75.226 91.4456 78.0544 89.0446 81.3494C79.9809 93.6064 79.3976 109.887 87.7957 117.694Z" fill="#37474F"/>
<path d="M127.633 114.852C118.382 127.311 104.667 132.15 94.7282 127.259L89.2092 124.529C99.103 129.428 112.826 124.582 122.114 112.123C132.778 97.7419 133.451 78.6273 123.61 69.4513C122.812 68.7069 121.948 68.0361 121.03 67.4471C120.48 67.0939 119.91 66.7718 119.324 66.4824L124.843 69.2045C125.427 69.5037 126.003 69.8252 126.563 70.1767C127.478 70.7677 128.339 71.4384 129.136 72.1809C138.978 81.3643 138.304 100.494 127.633 114.852Z" fill="#37474F"/>
<path d="M84.9465 121.56C85.7437 122.302 86.6045 122.973 87.519 123.565C88.1899 123.994 88.8895 124.376 89.613 124.709C89.635 124.715 89.6582 124.715 89.6803 124.709C89.9869 124.851 90.286 124.978 90.5926 125.098C90.7796 125.18 90.9591 125.24 91.1535 125.307C93.7923 126.226 96.598 126.565 99.3797 126.302C100.015 126.249 100.651 126.167 101.279 126.062C102.252 125.901 103.214 125.679 104.158 125.397L105.123 125.098C105.766 124.881 106.409 124.641 107.038 124.35C107.666 124.058 108.331 123.789 108.959 123.467C109.588 123.146 110.231 122.802 110.851 122.428C115.26 119.763 119.092 116.244 122.121 112.078C132.778 97.7045 133.459 78.5899 123.617 69.4065C123.213 69.0251 122.787 68.6586 122.361 68.3371C121.934 68.0155 121.493 67.6939 121.044 67.4023C120.79 67.2452 120.536 67.0882 120.297 66.9386L120.117 66.8414C119.908 66.7143 119.683 66.6021 119.467 66.4899C109.55 61.5019 95.7677 66.3403 86.487 78.8441C75.7706 93.2699 75.0826 112.377 84.9465 121.56ZM89.082 81.3494C91.483 78.0544 94.4661 75.226 97.884 73.0036L98.6917 72.51C104.001 69.3691 109.707 68.3595 114.636 69.8028L114.92 69.8851L115.413 70.0496L115.705 70.1543C115.922 70.2291 116.124 70.3188 116.341 70.4086C116.557 70.4983 116.827 70.618 117.088 70.7451C117.103 70.7393 117.119 70.7393 117.133 70.7451C118.065 71.1955 118.943 71.7499 119.751 72.3978C120.11 72.6732 120.455 72.9678 120.783 73.2802C129.173 81.1101 128.605 97.3979 119.511 109.655C112.497 119.108 102.468 123.415 94.3916 121.306C93.2567 121.014 92.1598 120.59 91.1236 120.042C90.9441 119.953 90.7721 119.855 90.6001 119.751C90.4281 119.646 90.2113 119.526 90.0318 119.407C89.2353 118.906 88.4867 118.333 87.7957 117.694C79.3976 109.887 79.9809 93.6064 89.082 81.3494Z" fill="#455A64"/>
<path opacity="0.4" d="M93.3222 120.439C93.6662 120.753 94.0102 121.052 94.3617 121.321C102.438 123.43 112.467 119.123 119.481 109.67C128.575 97.4129 129.144 81.125 120.753 73.2952C120.425 72.9828 120.08 72.6882 119.721 72.4128C111.644 70.3114 101.623 74.6563 94.6085 84.079C85.5074 96.336 84.9315 112.616 93.3222 120.439Z" fill="white"/>
<g opacity="0.3">
<path d="M106.828 73.8935L123.901 101.99C124.651 100.229 125.258 98.4106 125.718 96.5529L111.068 72.4651C109.611 72.7988 108.19 73.2772 106.828 73.8935Z" fill="#EBEBEB"/>
<path d="M116.961 71.9566L126.683 87.9677C126.519 82.1197 124.559 76.84 120.76 73.2952C120.432 72.9828 120.088 72.6882 119.728 72.4128C118.821 72.1785 117.895 72.0258 116.961 71.9566Z" fill="#EBEBEB"/>
<path d="M103.784 75.5013L122.106 105.609C122.525 104.861 122.929 104.113 123.28 103.328L105.691 74.4244C105.056 74.7535 104.42 75.105 103.784 75.5013Z" fill="#EBEBEB"/>
<path d="M87.6237 101.242C87.462 102.512 87.3845 103.791 87.3919 105.071L97.5699 121.8C98.4186 121.867 99.2713 121.867 100.12 121.8L87.6237 101.242Z" fill="#EBEBEB"/>
<path d="M90.2112 91.7293L107.314 119.825C110.09 118.55 112.646 116.844 114.89 114.77L95.5134 82.9198C95.2068 83.2937 94.9076 83.6677 94.6085 84.079C92.8464 86.4469 91.3704 89.0148 90.2112 91.7293Z" fill="#EBEBEB"/>
</g>
<path d="M12.0999 5.21985H11.3521V39.7922H12.0999V5.21985Z" fill="#263238"/>
<path d="M11.726 5.59376C11.1722 5.59672 10.63 5.43521 10.1681 5.12969C9.7062 4.82417 9.34539 4.38839 9.13141 3.87759C8.91742 3.3668 8.85989 2.80397 8.96612 2.26044C9.07234 1.71691 9.33753 1.21715 9.72809 0.824503C10.1186 0.431852 10.617 0.163985 11.1599 0.0548479C11.7029 -0.054289 12.266 0.000217478 12.7779 0.211462C13.2899 0.422706 13.7276 0.781179 14.0356 1.24145C14.3436 1.70171 14.508 2.24305 14.508 2.79686C14.506 3.53546 14.2128 4.24348 13.6919 4.76715C13.1711 5.29081 12.4646 5.58785 11.726 5.59376ZM11.726 0.747795C11.3202 0.744832 10.9225 0.862485 10.5836 1.08583C10.2447 1.30918 9.97971 1.62815 9.82232 2.0023C9.66494 2.37645 9.62222 2.78891 9.69959 3.18737C9.77695 3.58583 9.97092 3.95233 10.2569 4.2404C10.5428 4.52846 10.9079 4.72511 11.3058 4.80539C11.7037 4.88568 12.1164 4.84598 12.4917 4.69134C12.867 4.5367 13.1879 4.27408 13.4138 3.9368C13.6396 3.59952 13.7601 3.20276 13.7602 2.79686C13.7602 2.256 13.5463 1.73706 13.1653 1.35322C12.7842 0.969369 12.2669 0.751743 11.726 0.747795Z" fill="#263238"/>
<path d="M45.9245 0.373871H19.0698V1.58536H45.9245V0.373871Z" fill="#263238"/>
<path d="M34.2733 2.79688H19.0698V4.00837H34.2733V2.79688Z" fill="#263238"/>
<path d="M114.935 9.69937H109.154V15.4801H114.935V9.69937Z" fill="#F0E823"/>
<path d="M145.476 9.69937H118.621V10.9109H145.476V9.69937Z" fill="#263238"/>
<path d="M133.825 12.1224H118.621V13.3339H133.825V12.1224Z" fill="#263238"/>
<path d="M114.935 21.4852H109.154V27.266H114.935V21.4852Z" fill="#37474F"/>
<path d="M145.476 21.4852H118.621V22.6967H145.476V21.4852Z" fill="#263238"/>
<path d="M133.825 23.9082H118.621V25.1197H133.825V23.9082Z" fill="#263238"/>
<path d="M114.935 33.2786H109.154V39.0593H114.935V33.2786Z" fill="#C7C7C7"/>
<path d="M145.476 33.2786H118.621V34.4901H145.476V33.2786Z" fill="#263238"/>
<path d="M133.825 35.7016H118.621V36.9131H133.825V35.7016Z" fill="#263238"/>
<path d="M114.935 45.0645H109.154V50.8452H114.935V45.0645Z" fill="#455A64"/>
<path d="M145.476 45.0645H118.621V46.2759H145.476V45.0645Z" fill="#263238"/>
<path d="M133.825 47.4874H118.621V48.6989H133.825V47.4874Z" fill="#263238"/>
<path d="M2.16122 60.4998H2.2734H2.37809L4.46455 59.7519H4.59168L5.78074 59.3331L5.92283 59.2883L7.81485 58.6302L7.96441 58.5704L9.12356 58.1665L9.29556 58.1142L11.4718 57.3663L11.6512 57.3065L12.9599 56.8503L13.1619 56.783L14.7921 56.2147L15.009 56.1399L16.4374 55.6388L16.6692 55.5641L18.6435 54.876L18.8454 54.8013L20.3411 54.2778L20.5355 54.2105L21.9788 53.7094L22.1508 53.6496L23.7961 53.0738L23.9531 53.0139L25.3815 52.5204L25.5236 52.4755L27.5278 51.7725L27.6773 51.7277L29.7862 50.9798L29.8984 50.935L31.5137 50.3741H31.6184L33.7123 49.6263H33.8021L35.567 49.013H35.6492L37.4964 48.3699L35.739 47.8015H35.6642L33.6301 47.1509H33.5403L31.7979 46.59H31.7007L29.4572 45.8422H29.33L27.8344 45.3636L27.6998 45.3187L24.4317 44.2643L24.2672 44.2119L23.482 43.6585L23.31 43.6062L20.1167 42.5742L19.9223 42.5143L19.2193 42.29L19.0099 42.2302L15.7344 41.1907L15.4801 41.1159L14.7323 40.8766L14.493 40.8018L11.0455 39.6875L10.7912 39.6127L10.3949 39.4856L10.1556 39.4034L6.35657 38.1844L6.13222 38.1096L5.78822 37.9974L5.5863 37.9376L1.79478 36.7112C1.79478 36.8158 1.72748 36.9205 1.69756 37.0327C1.69756 37.1225 1.63774 37.2122 1.6153 37.3019V37.3767C1.57791 37.4814 1.548 37.5936 1.51808 37.6983C0.768851 40.3841 0.305117 43.1414 0.134589 45.9245V46.261C0.0635353 47.5338 0.0635353 48.8096 0.134589 50.0824C0.134589 50.3292 0.13459 50.5685 0.17946 50.8303C0.442175 54.1223 1.10773 57.3698 2.16122 60.4998Z" fill="#C7C7C7"/>
<path d="M35.7465 47.6221L35.6567 48.8335H35.5745L35.6717 47.5697L35.7465 47.6221ZM33.5478 46.9191L33.7198 49.5066H33.8096L33.6376 46.9789L33.5478 46.9191ZM31.5212 50.2769H31.6259L31.8054 46.3956H31.7082L31.5212 50.2769ZM29.36 45.573L29.7937 50.8826L29.9059 50.8377L29.4871 45.6029L29.36 45.573ZM27.5352 51.6604L27.6848 51.6155L27.8718 45.0944L27.7372 45.0495L27.5352 51.6604ZM24.4691 43.9951L24.3046 43.9427L24.858 48.2502L25.389 52.4082L25.531 52.3633L24.9776 48.2278L24.4691 43.9951ZM23.8035 52.9691L23.9606 52.9092L23.482 43.6585L23.31 43.6062L23.8035 52.9691ZM20.1242 42.6041L19.9298 42.5443L21.9863 53.5972L22.1583 53.5374L20.1242 42.6041ZM18.995 42.2451L20.3261 54.1656L20.5205 54.0983L19.2044 42.3049L18.995 42.2451ZM15.712 41.1832L15.4577 41.1084L18.621 54.7639L18.823 54.6891L15.712 41.2281V41.1832ZM14.508 40.7943L16.4374 55.5267L16.6692 55.4519L14.7473 40.8691L14.508 40.7943ZM10.7688 39.6053L14.7547 56.1025L14.9716 56.0277L11.0604 39.68L10.7688 39.6053ZM10.1331 39.3959L12.9226 56.7381L13.1245 56.6708L10.3724 39.4707L10.1331 39.3959ZM6.10978 38.1021L11.4344 57.2542L11.6138 57.1943L6.37152 38.1769L6.10978 38.1021ZM5.56386 37.9301L9.08616 58.0693L9.25817 58.0169L5.80317 37.9899L5.56386 37.9301ZM1.60782 37.3094L7.77745 58.533L7.92702 58.4731L1.72747 37.0327C1.72747 37.1225 1.66765 37.2122 1.64521 37.3019L1.60782 37.3094ZM1.48817 37.7132L5.74334 59.2359L5.88543 59.191L1.62278 37.3917C1.58539 37.4964 1.55547 37.6086 1.52556 37.7132H1.48817ZM0.119629 46.2759L4.46455 59.6921H4.59168L0.104675 45.9768V46.3133L0.119629 46.2759ZM0.179458 50.8303L2.27339 60.4474H2.37809L0.134586 50.1198C0.142065 50.3442 0.157023 50.5835 0.179458 50.8303Z" fill="#DBDBDB"/>
<path d="M2.16125 60.4998L5.16007 60.1782L40.4952 47.8688L37.5039 48.1904L2.16125 60.4998Z" fill="#A6A6A6"/>
<path d="M37.5039 48.1904L40.4952 47.8688L4.81605 36.3896L1.81723 36.7112L37.5039 48.1904Z" fill="#A6A6A6"/>
<path d="M57.2692 9.71432L57.5159 48.2128L21.3806 36.5466C26.4733 20.341 40.5102 9.8265 57.2692 9.71432Z" fill="#37474F"/>
<path d="M56.282 9.72928L57.2692 11.4044V11.6288L56.1474 9.73676L56.282 9.72928ZM54.8836 9.80406L57.2991 15.1735V14.8744L55.0556 9.7891L54.8836 9.80406ZM50.6882 10.3051L57.3365 21.2235V20.9244L50.8453 10.2827L50.6882 10.3051ZM49.7908 10.4771L57.3739 26.6827V26.3013L49.9404 10.4547C49.89 10.4579 49.84 10.4654 49.7908 10.4771ZM52.3335 23.7437L57.4038 31.222V30.9453L52.498 23.6839L46.5602 14.8669L44.5709 11.9279C44.5095 11.9458 44.4495 11.9683 44.3915 11.9952L46.4031 14.9866L52.3335 23.7437ZM43.9428 12.1597L57.4038 35.7763V35.3576L44.1222 12.085L43.9428 12.1597ZM39.3959 14.2387L57.4412 37.9002V37.5412L39.5979 14.1265L39.3959 14.2387ZM38.9846 14.4631L57.4786 42.7761V42.3274L39.1865 14.3509C39.1253 14.4063 39.0575 14.4541 38.9846 14.493V14.4631ZM35.066 16.9982L57.501 43.9203V43.5239L35.2903 16.8412L35.066 16.9982ZM34.6098 17.3497L55.1079 47.4351L55.5492 47.5772L34.8267 17.1852C34.7495 17.2333 34.6769 17.2884 34.6098 17.3497ZM31.2296 20.2663L54.0161 47.0836L54.5321 47.2481L31.424 20.0793C31.3629 20.1454 31.298 20.2078 31.2296 20.2663ZM30.8631 20.6402L48.8112 45.401L49.2075 45.5281L31.0501 20.4757L30.8631 20.6402ZM27.9242 23.968L46.8518 44.7653L47.3155 44.9224L28.0662 23.7886L27.9242 23.968ZM27.4605 24.5813L41.1384 42.9107L41.4824 43.0229L27.6026 24.3943C27.5502 24.4541 27.5054 24.5214 27.4605 24.5813ZM25.1198 28.0961L37.9975 41.9086L38.3789 42.0357L25.217 27.954C25.1812 27.999 25.1487 28.0464 25.1198 28.0961ZM24.7683 28.7018L34.1013 40.6672L34.3854 40.7569L24.858 28.5373C24.825 28.5904 24.795 28.6453 24.7683 28.7018ZM22.809 32.6728L29.1207 39.0519L29.4647 39.1715L22.8912 32.5382C22.861 32.5813 22.8335 32.6263 22.809 32.6728ZM22.465 33.4955L26.2041 38.1096L26.4434 38.1919L22.5098 33.3459C22.4918 33.3948 22.4768 33.4447 22.465 33.4955Z" fill="#263238"/>
<path d="M57.5159 48.2128L93.6513 59.8716C91.2874 67.5744 86.5361 74.3263 80.0838 79.1522C73.6315 83.978 65.8121 86.6278 57.7553 86.7188C53.7724 86.7397 49.8117 86.1263 46.0217 84.9016C34.0564 81.0353 25.4787 72.4501 21.5227 60.3427L57.5159 48.2128Z" fill="#F0E823"/>
<path d="M93.6513 59.8716H96.6426C94.2785 67.5736 89.5269 74.3246 83.0744 79.1491C76.622 83.9737 68.8028 86.622 60.7466 86.7114H57.7552C65.8112 86.6208 73.6298 83.9721 80.082 79.1477C86.5343 74.3233 91.2861 67.573 93.6513 59.8716Z" fill="#F0E823"/>
<g opacity="0.1">
<path d="M93.6513 59.8716H96.6426C94.2785 67.5736 89.5269 74.3246 83.0744 79.1491C76.622 83.9737 68.8028 86.622 60.7466 86.7114H57.7552C65.8112 86.6208 73.6298 83.9721 80.082 79.1477C86.5343 74.3233 91.2861 67.573 93.6513 59.8716Z" fill="black"/>
</g>
<path opacity="0.1" d="M92.021 59.3631L92.4323 63.2219C92.4355 63.2367 92.4355 63.252 92.4323 63.2668L92.0135 59.3556L92.021 59.3631ZM87.878 58.0244L90.9142 66.4525L87.9229 58.0693L87.878 58.0244ZM86.3823 57.5533L88.222 70.7675V70.7152L86.3823 57.5683V57.5533ZM83.7724 56.7083L87.6312 71.5827V71.5303L83.7948 56.7382L83.7724 56.7083ZM82.7553 56.3867L84.8044 74.933L84.8642 74.8657L82.86 56.3717L82.7553 56.3867ZM79.6742 55.3921L84.1613 75.5836L84.2286 75.5163L79.7416 55.4369L79.6742 55.3921ZM78.9264 55.1453L80.7437 78.6198L80.8409 78.5525L79.0236 55.1752L78.9264 55.1453ZM76.1071 54.2404L75.9799 54.1955L80.1977 79.0461L80.295 78.9713L76.1071 54.2404ZM74.9928 53.8814L75.3144 82.2019L75.4415 82.1271L75.1199 53.9188L74.9928 53.8814ZM71.7696 52.842L71.6051 52.7821L74.8956 82.4188L75.0302 82.3515L71.7696 52.842ZM70.618 84.3407L70.7975 84.2734L71.0442 52.6101L70.8947 52.5503L70.618 84.3407ZM67.851 51.5781L67.664 51.5108L70.2964 84.4604L70.4609 84.4006L67.851 51.5781ZM66.1085 85.7168C66.1792 85.7062 66.2491 85.6912 66.3179 85.6719L67.3649 51.3762L67.1705 51.3164L66.1085 85.7168ZM63.5285 50.1423L63.2967 50.0675L65.7271 85.8065L65.9365 85.7616L63.5285 50.1423ZM59.8791 48.9607L59.6099 48.8784L60.8812 86.5693H61.128H61.3747L62.9751 50.0077L62.7433 49.9329L61.128 86.5244L59.8791 48.9607ZM55.3921 48.9607L55.1453 49.0355L56.0352 86.6964H56.267H56.5288L59.2958 48.7588L59.0265 48.6765L56.2895 86.4496L55.3921 48.9607ZM51.2565 86.1879L51.4734 86.2253L54.9135 49.1177L54.6667 49.2L51.2565 86.1879ZM51.7501 50.1871L51.0472 86.1505H51.2565L51.952 50.0824L51.7501 50.1871ZM46.0217 84.8941H46.0815H46.1937L51.5108 50.2096L51.2939 50.2844L46.0217 84.8941ZM45.917 83.2938L45.7974 84.8493L45.9768 84.9091L46.0965 83.3012L46.4854 78.2459L47.2332 68.1277L48.512 51.279L48.3475 51.3388L47.0537 68.1202L46.3059 78.2309L45.917 83.2938ZM40.4055 82.6357L40.5401 82.703L47.9511 51.4809L47.7716 51.5407L40.4055 82.6357ZM43.6062 52.9466L39.9343 82.3739L40.0689 82.4412L43.7109 52.8644L43.6062 52.9466ZM36.1279 80.1603L36.2251 80.2276L43.1201 53.1037L42.978 53.1486L36.1279 80.1603ZM33.9367 56.2296L31.4464 76.4212C31.4747 76.4395 31.5 76.4622 31.5212 76.4885L34.004 56.1923L33.9367 56.2296ZM27.954 72.5549L27.9989 72.6147L33.2337 56.4764H33.159L27.954 72.5549ZM38.9547 54.547L35.4473 79.6668C35.476 79.6941 35.5088 79.7168 35.5445 79.7341L38.9995 54.4423L38.9547 54.547ZM31.9699 76.8998L32.0372 76.9521L35.7764 63.9174L38.1096 55.6912L38.3788 54.7414H38.2741L37.9825 55.6239L35.6492 63.8501L31.9699 76.8998ZM30.6537 57.2691L27.5352 71.9716C27.5338 71.9915 27.5338 72.0115 27.5352 72.0314L30.6687 57.2542L30.6537 57.2691ZM25.546 69.0849C25.5409 69.0994 25.5409 69.1153 25.546 69.1298L29.9807 57.5234H29.9283L25.546 69.0849ZM27.5801 58.3385L25.0749 68.3072V68.352L27.5876 58.3311L27.5801 58.3385ZM23.9606 59.565L22.5995 63.3042L23.9681 59.565H23.9606ZM21.5974 60.5671C21.6597 60.4689 21.7271 60.374 21.7994 60.2829L21.5974 60.5671Z" fill="black"/>
<path d="M57.2692 9.71435C78.2085 9.57974 95.2891 26.7051 95.4087 47.9661C95.4688 52.0045 94.8702 56.0258 93.6363 59.8716L57.501 48.2129L57.2692 9.71435Z" fill="#455A64"/>
<path d="M90.7123 29.6142L90.8394 29.861L57.4636 40.5101V40.2185L90.7123 29.6142ZM90.9366 30.0405L57.4935 44.4063V44.6756L91.0563 30.2723C91.0209 30.1927 90.981 30.1153 90.9366 30.0405ZM57.4411 36.0231V36.2849L88.1023 25.5235C88.0561 25.4428 88.0009 25.3676 87.9378 25.2992L57.4411 36.0231ZM88.2669 25.7105L57.4561 39.2837V39.5903L88.409 25.9348C88.3716 25.8451 88.3117 25.7703 88.2669 25.7105ZM57.3738 26.7874V26.9669L80.7437 17.8134L80.5866 17.6862L57.3738 26.7874ZM81.2522 18.2322L57.3963 30.0479V30.2723L81.4092 18.3069C81.3593 18.2771 81.3068 18.2521 81.2522 18.2322ZM57.4037 31.0949V31.3118L84.6399 21.3506C84.5863 21.2896 84.5289 21.2322 84.4679 21.1786L57.4037 31.0949ZM85.0736 21.7844L57.4337 35.0584V35.3202L85.2082 21.919C85.1559 21.8666 85.1035 21.8068 85.0437 21.7544L85.0736 21.7844ZM57.314 17.4843V17.589L69.3317 11.6512H69.1971L57.314 17.4843ZM70.775 12.1597L57.3663 20.3859V20.4757L70.9171 12.1747L70.775 12.1597ZM57.3439 22.1284V22.2705L75.9425 14.5678C75.8902 14.5335 75.8352 14.5034 75.778 14.478L57.3439 22.1284ZM76.8325 15.0912L57.3888 25.5086V25.7105L76.997 15.1959L76.8325 15.0912ZM57.2916 12.9973V13.0721L62.8779 10.0808H62.7657L57.2916 12.9973ZM65.1737 10.4995L57.3065 15.8914V15.9886L65.2934 10.5145C65.2539 10.5078 65.2138 10.5053 65.1737 10.507V10.4995ZM57.2766 11.0529V11.1202L59.1462 9.74423H59.049L57.2766 11.0529ZM95.2741 51.6304L79.9734 55.4668L80.1678 55.5341L95.2741 51.7501C95.2741 51.7501 95.2741 51.6753 95.2741 51.6304ZM74.5516 53.7169L74.8358 53.8066L95.3115 51.0696C95.3115 51.0247 95.3115 50.9873 95.3115 50.9424L74.5516 53.7169ZM94.5262 56.6035L88.4837 58.2039L88.6258 58.2488L94.5113 56.6933C94.5199 56.6641 94.5249 56.6339 94.5262 56.6035ZM85.3877 57.2093L85.5971 57.2766L94.5711 56.3343C94.5747 56.3045 94.5747 56.2744 94.5711 56.2446L85.3877 57.2093ZM95.3862 46.418L71.5303 52.7372L71.7771 52.812L95.3862 46.5676V46.418ZM64.6503 50.5087L65.0092 50.6283L95.3638 46.074C95.3675 46.0217 95.3675 45.9693 95.3638 45.917L64.6503 50.5087ZM78.5525 45.0869L63.02 49.9852L63.3042 50.0824L78.6123 45.2589L88.7156 42.0731L93.7784 40.4877L94.616 40.226C94.616 40.1661 94.616 40.1063 94.616 40.039L93.7634 40.3082L88.7081 41.9011L78.5525 45.0869ZM57.8824 48.3325L58.2638 48.4521L94.5262 39.9567C94.5175 39.8962 94.505 39.8363 94.4888 39.7773L57.8824 48.3325ZM93.0306 34.7593L57.5384 48.2203L57.8524 48.3175L93.1128 34.9762C93.092 34.9015 93.0645 34.829 93.0306 34.7593ZM57.486 44.9822V45.2364L93.0306 34.6845C93.011 34.6095 92.9834 34.5368 92.9483 34.4676L57.486 44.9822Z" fill="#37474F"/>
<path d="M57.2692 9.71432H60.2605C81.1999 9.57223 98.2879 26.6976 98.4 47.9586C98.4619 52.0002 97.8607 56.0246 96.6202 59.8716H93.6289C94.8627 56.0257 95.4614 52.0045 95.4012 47.966C95.2741 26.7051 78.201 9.57971 57.2692 9.71432Z" fill="#37474F"/>
</svg>
