<svg width="395" height="286" viewBox="0 0 395 286" fill="none" xmlns="http://www.w3.org/2000/svg">
<path d="M394.298 258.186H0V258.383H394.298V258.186Z" fill="#EBEBEB"/>
<path d="M354.789 270.875H328.671V271.072H354.789V270.875Z" fill="#EBEBEB"/>
<path d="M261.199 273.02H254.346V273.217H261.199V273.02Z" fill="#EBEBEB"/>
<path d="M327.882 263.557H312.749V263.754H327.882V263.557Z" fill="#EBEBEB"/>
<path d="M75.4292 264.881H41.3698V265.079H75.4292V264.881Z" fill="#EBEBEB"/>
<path d="M87.4474 264.881H82.4556V265.079H87.4474V264.881Z" fill="#EBEBEB"/>
<path d="M177.552 268.209H103.677V268.406H177.552V268.209Z" fill="#EBEBEB"/>
<path d="M186.897 223.015H34.6273C33.4344 223.013 32.2911 222.537 31.4483 221.693C30.6056 220.849 30.1323 219.705 30.1323 218.512V4.46345C30.1426 3.27742 30.6206 2.14339 31.4622 1.30766C32.3038 0.471942 33.4412 0.00203173 34.6273 0H186.897C188.091 0 189.237 0.47441 190.081 1.31886C190.926 2.16332 191.4 3.30864 191.4 4.50288V218.512C191.4 219.706 190.926 220.852 190.081 221.696C189.237 222.54 188.091 223.015 186.897 223.015ZM34.6273 0.15772C33.4867 0.159809 32.3935 0.614367 31.5877 1.42162C30.782 2.22888 30.3294 3.32287 30.3294 4.46345V218.512C30.3294 219.653 30.782 220.747 31.5877 221.554C32.3935 222.361 33.4867 222.816 34.6273 222.818H186.897C188.039 222.816 189.132 222.361 189.94 221.554C190.747 220.747 191.201 219.653 191.203 218.512V4.46345C191.201 3.32214 190.747 2.22817 189.94 1.42114C189.132 0.614111 188.039 0.159804 186.897 0.15772H34.6273Z" fill="#EBEBEB"/>
<path d="M357.478 223.015H205.201C204.007 223.013 202.863 222.538 202.019 221.694C201.175 220.85 200.7 219.706 200.698 218.512V4.46345C200.71 3.2767 201.19 2.14268 202.033 1.30717C202.876 0.471666 204.014 0.00200957 205.201 0H357.478C358.663 0.00410424 359.798 0.474931 360.638 1.31043C361.478 2.14593 361.955 3.27879 361.965 4.46345V218.512C361.965 219.703 361.493 220.846 360.652 221.69C359.811 222.534 358.67 223.011 357.478 223.015ZM205.201 0.15772C204.059 0.159804 202.965 0.614111 202.158 1.42114C201.351 2.22817 200.897 3.32214 200.895 4.46345V218.512C200.897 219.653 201.351 220.747 202.158 221.554C202.965 222.361 204.059 222.816 205.201 222.818H357.478C358.62 222.816 359.714 222.361 360.521 221.554C361.328 220.747 361.782 219.653 361.784 218.512V4.46345C361.782 3.32214 361.328 2.22817 360.521 1.42114C359.714 0.614111 358.62 0.159804 357.478 0.15772H205.201Z" fill="#EBEBEB"/>
<path d="M324.491 230.909C324.491 230.909 318.435 219.08 325.359 207.361C332.283 195.643 334.286 192.914 329.87 190.517C325.453 188.12 323.435 199.87 323.435 199.87C323.435 199.87 319.713 191.786 322.788 183.309C325.864 174.832 327.788 161.071 323.577 159.596C319.366 158.121 322.788 176.779 319.129 183.143C319.129 183.143 316.077 176.046 315.572 169.264C315.068 162.482 315.856 151.623 312.544 148.84C309.232 146.056 307.103 147.988 310.36 162.979C312.315 171.911 313.398 181.012 313.593 190.154C313.593 190.154 306.401 170.487 301.575 169.919C296.749 169.351 296.756 175.715 300.889 181.235C305.021 186.755 312.986 196.66 314.295 201.739C314.295 201.739 306.409 186.945 299.312 191.487C292.214 196.029 305.494 204.964 311.416 208.189C317.339 211.415 321.44 231.674 321.44 231.674L324.491 230.909Z" fill="#E0E0E0"/>
<path d="M319.705 235.79C319.705 235.79 325.611 223.851 318.53 212.251C311.448 200.65 309.406 197.93 313.798 195.477C318.191 193.025 320.359 204.743 320.359 204.743C320.359 204.743 323.971 196.605 320.785 188.183C317.599 179.76 315.493 166.015 319.665 164.485C323.837 162.955 320.698 181.661 324.397 187.97C324.397 187.97 327.362 180.872 327.772 174.051C328.182 167.23 327.251 156.41 330.532 153.587C333.813 150.764 335.95 152.656 332.898 167.687C331.065 176.647 330.103 185.764 330.027 194.909C330.027 194.909 336.959 175.147 341.777 174.508C346.596 173.87 346.675 180.241 342.613 185.817C338.552 191.392 330.721 201.399 329.483 206.51C329.483 206.51 337.18 191.605 344.34 196.045C351.501 200.485 338.339 209.601 332.464 212.913C326.589 216.225 322.749 236.523 322.749 236.523L319.705 235.79Z" fill="#E6E6E6"/>
<path d="M346.927 227.265H298.176L302.119 258.557H342.984L346.927 227.265Z" fill="#F0F0F0"/>
<path d="M259.968 29.2254H171.157V127.5H259.968V29.2254Z" fill="#E9E9E9"/>
<path d="M256.294 33.121H175.068V123.81H256.294V33.121Z" fill="#F4F4F4"/>
<path d="M198.024 33.121L175.068 119.094V72.5508L185.572 33.121H198.024Z" fill="white"/>
<path d="M208.284 33.121L184.074 123.81H179.508L203.718 33.121H208.284Z" fill="white"/>
<path d="M256.294 57.8514V104.402L251.152 123.81H238.7L256.294 57.8514Z" fill="white"/>
<path d="M217.14 29.2254H213.985V127.5H217.14V29.2254Z" fill="#E9E9E9"/>
<path d="M258.265 49.1689H172.703V52.3233H258.265V49.1689Z" fill="#E9E9E9"/>
<path d="M138.525 29.2254H49.7131V127.5H138.525V29.2254Z" fill="#E9E9E9"/>
<path d="M134.85 33.121H53.6245V123.81H134.85V33.121Z" fill="#F4F4F4"/>
<path d="M76.5805 33.121L53.6245 119.094V72.5508L64.1286 33.121H76.5805Z" fill="white"/>
<path d="M86.8401 33.121L62.6302 123.81H58.0643L82.2742 33.121H86.8401Z" fill="white"/>
<path d="M134.85 57.8514V104.402L129.708 123.81H117.256L134.85 57.8514Z" fill="white"/>
<path d="M95.6961 29.2254H92.5417V127.5H95.6961V29.2254Z" fill="#E9E9E9"/>
<path d="M136.821 49.1689H51.2587V52.3233H136.821V49.1689Z" fill="#E9E9E9"/>
<path d="M300.975 258.557H179.934C179.209 258.568 178.491 258.426 177.825 258.14C177.159 257.854 176.561 257.431 176.071 256.898C175.58 256.365 175.207 255.734 174.978 255.047C174.748 254.36 174.666 253.632 174.737 252.911L189.996 57.1495C190.134 55.624 190.832 54.2033 191.954 53.1609C193.077 52.1186 194.545 51.5281 196.076 51.5032H317.11C317.835 51.492 318.554 51.634 319.22 51.9199C319.886 52.2057 320.484 52.6289 320.976 53.1619C321.467 53.6949 321.84 54.3256 322.071 55.0128C322.302 55.6999 322.385 56.4281 322.315 57.1495L307.055 252.911C306.916 254.435 306.218 255.855 305.096 256.897C303.974 257.939 302.506 258.53 300.975 258.557Z" fill="#2E353A"/>
<path opacity="0.2" d="M300.975 258.557H179.934C179.209 258.568 178.491 258.426 177.825 258.14C177.159 257.854 176.561 257.431 176.071 256.898C175.58 256.365 175.207 255.734 174.978 255.047C174.748 254.36 174.666 253.632 174.737 252.911L189.996 57.1495C190.134 55.624 190.832 54.2033 191.954 53.1609C193.077 52.1186 194.545 51.5281 196.076 51.5032H317.11C317.835 51.492 318.554 51.634 319.22 51.9199C319.886 52.2057 320.484 52.6289 320.976 53.1619C321.467 53.6949 321.84 54.3256 322.071 55.0128C322.302 55.6999 322.385 56.4281 322.315 57.1495L307.055 252.911C306.916 254.435 306.218 255.855 305.096 256.897C303.974 257.939 302.506 258.53 300.975 258.557Z" fill="white"/>
<path d="M284.58 64.3021H226.619C226.365 64.3066 226.114 64.2575 225.881 64.158C225.648 64.0584 225.438 63.9107 225.266 63.7246C225.094 63.5384 224.963 63.318 224.883 63.0777C224.802 62.8375 224.773 62.5829 224.797 62.3306L225.688 50.8881C225.737 50.3537 225.981 49.8561 226.374 49.4908C226.767 49.1255 227.281 48.9182 227.817 48.9087H285.779C286.033 48.9052 286.284 48.9553 286.517 49.0558C286.75 49.1563 286.958 49.3049 287.13 49.4918C287.301 49.6787 287.431 49.8998 287.511 50.1404C287.59 50.381 287.619 50.6358 287.593 50.8881L286.702 62.2991C286.661 62.837 286.421 63.3402 286.028 63.7106C285.636 64.081 285.12 64.2919 284.58 64.3021Z" fill="#407BFF"/>
<path opacity="0.2" d="M284.58 64.3021H226.619C226.365 64.3066 226.114 64.2575 225.881 64.158C225.648 64.0584 225.438 63.9107 225.266 63.7246C225.094 63.5384 224.963 63.318 224.883 63.0777C224.802 62.8375 224.773 62.5829 224.797 62.3306L225.688 50.8881C225.737 50.3537 225.981 49.8561 226.374 49.4908C226.767 49.1255 227.281 48.9182 227.817 48.9087H285.779C286.033 48.9052 286.284 48.9553 286.517 49.0558C286.75 49.1563 286.958 49.3049 287.13 49.4918C287.301 49.6787 287.431 49.8998 287.511 50.1404C287.59 50.381 287.619 50.6358 287.593 50.8881L286.702 62.2991C286.661 62.837 286.421 63.3402 286.028 63.7106C285.636 64.081 285.12 64.2919 284.58 64.3021Z" fill="black"/>
<path d="M261.025 52.4653H251.956L252.311 47.923C252.422 46.698 252.982 45.5573 253.883 44.7202C254.784 43.8831 255.963 43.4088 257.193 43.3885C257.775 43.3792 258.353 43.4929 258.888 43.7223C259.424 43.9516 259.905 44.2913 260.3 44.7193C260.696 45.1473 260.996 45.6539 261.182 46.2059C261.368 46.758 261.436 47.3431 261.38 47.923L261.025 52.4653Z" fill="#407BFF"/>
<path opacity="0.4" d="M261.025 52.4653H251.956L252.311 47.923C252.422 46.698 252.982 45.5573 253.883 44.7202C254.784 43.8831 255.963 43.4088 257.193 43.3885C257.775 43.3792 258.353 43.4929 258.888 43.7223C259.424 43.9516 259.905 44.2913 260.3 44.7193C260.696 45.1473 260.996 45.6539 261.182 46.2059C261.368 46.758 261.436 47.3431 261.38 47.923L261.025 52.4653Z" fill="white"/>
<path d="M299.343 250.379H182.836L197.709 59.673H314.208L299.343 250.379Z" fill="white"/>
<path d="M273.8 69.6567H236.579C235.982 69.665 235.39 69.5474 234.842 69.3114C234.294 69.0755 233.802 68.7266 233.398 68.2875C232.993 67.8484 232.687 67.329 232.497 66.7632C232.307 66.1974 232.239 65.5979 232.297 65.0039L232.77 58.9475C232.884 57.6912 233.459 56.5214 234.383 55.6626C235.307 54.8039 236.516 54.3168 237.777 54.2948H275.007C275.604 54.2866 276.196 54.4042 276.745 54.6401C277.293 54.8759 277.786 55.2247 278.19 55.6636C278.595 56.1026 278.903 56.6219 279.094 57.1877C279.284 57.7535 279.353 58.3531 279.297 58.9475L278.824 65.0039C278.706 66.2616 278.128 67.4316 277.201 68.2901C276.274 69.1485 275.064 69.635 273.8 69.6567ZM237.635 55.8799C236.803 55.8939 236.006 56.2149 235.396 56.7811C234.786 57.3473 234.407 58.1188 234.331 58.9475L233.858 65.0039C233.819 65.3961 233.864 65.792 233.988 66.1659C234.113 66.5397 234.315 66.883 234.582 67.1733C234.848 67.4636 235.173 67.6944 235.535 67.8506C235.896 68.0067 236.287 68.0847 236.681 68.0795H273.919C274.753 68.0654 275.552 67.7436 276.164 67.176C276.775 66.6083 277.155 65.8347 277.231 65.0039L277.704 58.9475C277.74 58.5556 277.694 58.1603 277.568 57.7874C277.442 57.4145 277.239 57.0724 276.972 56.7831C276.705 56.4938 276.38 56.2639 276.018 56.1083C275.657 55.9527 275.267 55.8749 274.873 55.8799H237.635Z" fill="#407BFF"/>
<g opacity="0.4">
<path d="M273.8 69.6567H236.579C235.982 69.665 235.39 69.5474 234.842 69.3114C234.294 69.0755 233.802 68.7266 233.398 68.2875C232.993 67.8484 232.687 67.329 232.497 66.7632C232.307 66.1974 232.239 65.5979 232.297 65.0039L232.77 58.9475C232.884 57.6912 233.459 56.5214 234.383 55.6626C235.307 54.8039 236.516 54.3168 237.777 54.2948H275.007C275.604 54.2866 276.196 54.4042 276.745 54.6401C277.293 54.8759 277.786 55.2247 278.19 55.6636C278.595 56.1026 278.903 56.6219 279.094 57.1877C279.284 57.7535 279.353 58.3531 279.297 58.9475L278.824 65.0039C278.706 66.2616 278.128 67.4316 277.201 68.2901C276.274 69.1485 275.064 69.635 273.8 69.6567ZM237.635 55.8799C236.803 55.8939 236.006 56.2149 235.396 56.7811C234.786 57.3473 234.407 58.1188 234.331 58.9475L233.858 65.0039C233.819 65.3961 233.864 65.792 233.988 66.1659C234.113 66.5397 234.315 66.883 234.582 67.1733C234.848 67.4636 235.173 67.6944 235.535 67.8506C235.896 68.0067 236.287 68.0847 236.681 68.0795H273.919C274.753 68.0654 275.552 67.7436 276.164 67.176C276.775 66.6083 277.155 65.8347 277.231 65.0039L277.704 58.9475C277.74 58.5556 277.694 58.1603 277.568 57.7874C277.442 57.4145 277.239 57.0724 276.972 56.7831C276.705 56.4938 276.38 56.2639 276.018 56.1083C275.657 55.9527 275.267 55.8749 274.873 55.8799H237.635Z" fill="white"/>
</g>
<path d="M271.876 57.7883H240.332C240.193 57.7912 240.055 57.7645 239.927 57.7102C239.799 57.6558 239.684 57.575 239.589 57.4729C239.495 57.3708 239.423 57.2499 239.378 57.1181C239.334 56.9862 239.317 56.8464 239.331 56.7079L239.575 53.5535C239.604 53.2606 239.74 52.9886 239.957 52.7893C240.174 52.5901 240.456 52.4775 240.75 52.4732H272.294C272.433 52.4702 272.571 52.4967 272.699 52.5512C272.826 52.6056 272.941 52.6866 273.035 52.7888C273.129 52.891 273.2 53.0121 273.244 53.144C273.287 53.2758 273.302 53.4154 273.288 53.5535L273.043 56.7079C273.016 57.0002 272.882 57.2721 272.667 57.4715C272.451 57.6709 272.17 57.7837 271.876 57.7883Z" fill="#407BFF"/>
<path d="M298.586 87.5341H210.263L211.012 77.8975H299.335L298.586 87.5341Z" fill="#407BFF"/>
<path d="M262.839 100.948H204.041L204.238 98.4641H263.036L262.839 100.948Z" fill="#407BFF"/>
<path d="M262.287 108.124H203.489L203.678 105.632H262.476L262.287 108.124Z" fill="#407BFF"/>
<path d="M261.727 115.301H202.929L203.119 112.809H261.916L261.727 115.301Z" fill="#407BFF"/>
<path d="M261.167 122.469H202.369L202.559 119.985H261.356L261.167 122.469Z" fill="#407BFF"/>
<path d="M299.745 122.469H275.756L277.633 98.4641H301.622L299.745 122.469Z" fill="#407BFF"/>
<path d="M293.105 107.375C293.216 105.971 292.127 105.009 290.156 105.009C289.391 104.973 288.627 105.11 287.922 105.411C287.218 105.711 286.59 106.167 286.087 106.744L284.573 105.601C285.308 104.78 286.216 104.134 287.233 103.708C288.249 103.283 289.347 103.089 290.448 103.14C293.602 103.14 295.542 104.615 295.345 107.083C295.061 110.75 291.157 111.026 290.937 113.873H288.736C289.012 110.403 292.908 109.899 293.105 107.375ZM288.153 117.414C288.181 117.021 288.362 116.654 288.656 116.392C288.951 116.13 289.336 115.993 289.73 116.01C289.911 116.003 290.092 116.036 290.26 116.105C290.427 116.175 290.578 116.28 290.701 116.414C290.824 116.547 290.916 116.706 290.972 116.878C291.028 117.051 291.045 117.234 291.023 117.414C290.994 117.795 290.821 118.152 290.541 118.412C290.26 118.672 289.892 118.817 289.509 118.818C289.323 118.832 289.137 118.804 288.963 118.738C288.789 118.672 288.631 118.568 288.502 118.434C288.373 118.3 288.274 118.139 288.214 117.963C288.153 117.787 288.133 117.599 288.153 117.414Z" fill="white"/>
<path d="M260.008 137.279H201.21L201.407 134.787H260.205L260.008 137.279Z" fill="#407BFF"/>
<path d="M259.448 144.447H200.65L200.847 141.963H259.645L259.448 144.447Z" fill="#407BFF"/>
<path d="M258.896 151.623H200.098L200.288 149.139H259.085L258.896 151.623Z" fill="#407BFF"/>
<path d="M258.336 158.8H199.538L199.728 156.308H258.525L258.336 158.8Z" fill="#407BFF"/>
<path d="M296.914 158.8H272.925L274.794 134.787H298.783L296.914 158.8Z" fill="#407BFF"/>
<path d="M290.274 143.706C290.385 142.294 289.296 141.34 287.325 141.34C286.56 141.304 285.796 141.441 285.091 141.741C284.387 142.042 283.759 142.498 283.256 143.075L281.742 141.947C282.476 141.125 283.384 140.478 284.401 140.052C285.417 139.627 286.516 139.433 287.617 139.487C290.771 139.487 292.711 140.961 292.514 143.43C292.23 147.097 288.326 147.373 288.105 150.22H285.905C286.173 146.679 290.077 146.229 290.274 143.706ZM285.322 153.776C285.348 153.388 285.522 153.026 285.809 152.763C286.095 152.5 286.471 152.358 286.86 152.365C287.042 152.357 287.223 152.39 287.391 152.46C287.559 152.53 287.71 152.636 287.834 152.77C287.957 152.905 288.049 153.064 288.104 153.238C288.159 153.412 288.176 153.595 288.153 153.776C288.121 154.157 287.948 154.512 287.668 154.772C287.388 155.032 287.021 155.177 286.639 155.18C286.456 155.188 286.274 155.156 286.105 155.087C285.936 155.018 285.783 154.913 285.658 154.78C285.533 154.647 285.438 154.488 285.38 154.315C285.322 154.142 285.302 153.958 285.322 153.776Z" fill="white"/>
<path d="M257.177 173.601H198.379L198.576 171.117H257.374L257.177 173.601Z" fill="#407BFF"/>
<path d="M256.617 180.778H197.819L198.016 178.286H256.814L256.617 180.778Z" fill="#407BFF"/>
<path d="M256.057 187.954H197.267L197.456 185.462H256.254L256.057 187.954Z" fill="#407BFF"/>
<path d="M255.505 195.122H196.707L196.897 192.638H255.694L255.505 195.122Z" fill="#407BFF"/>
<path d="M294.083 195.122H270.094L271.963 171.117H295.952L294.083 195.122Z" fill="#407BFF"/>
<path d="M287.443 180.029C287.553 178.625 286.465 177.663 284.486 177.663C283.722 177.627 282.96 177.764 282.256 178.065C281.553 178.365 280.927 178.821 280.425 179.398L278.91 178.223C279.645 177.401 280.553 176.753 281.57 176.328C282.586 175.902 283.685 175.709 284.786 175.762C287.94 175.762 289.872 177.229 289.683 179.666C289.399 183.341 285.495 183.609 285.274 186.456H283.106C283.342 183.041 287.246 182.552 287.443 180.029ZM282.491 190.052C282.519 189.665 282.694 189.305 282.98 189.043C283.266 188.782 283.641 188.641 284.028 188.648C284.21 188.641 284.39 188.673 284.558 188.743C284.726 188.813 284.876 188.918 284.999 189.051C285.122 189.185 285.215 189.343 285.27 189.516C285.326 189.689 285.344 189.871 285.322 190.052C285.292 190.433 285.12 190.789 284.839 191.049C284.559 191.31 284.19 191.454 283.808 191.455C283.625 191.464 283.442 191.434 283.272 191.365C283.102 191.297 282.949 191.192 282.824 191.058C282.699 190.925 282.604 190.766 282.546 190.592C282.489 190.418 282.47 190.234 282.491 190.052Z" fill="white"/>
<path d="M254.346 209.932H195.548L195.745 207.44H254.543L254.346 209.932Z" fill="#407BFF"/>
<path d="M253.786 217.108H194.988L195.185 214.616H253.983L253.786 217.108Z" fill="#407BFF"/>
<path d="M253.226 224.277H194.428L194.625 221.793H253.423L253.226 224.277Z" fill="#407BFF"/>
<path d="M252.666 231.453H193.868L194.066 228.961H252.863L252.666 231.453Z" fill="#407BFF"/>
<path d="M291.252 231.453H267.263L269.132 207.44H293.121L291.252 231.453Z" fill="#407BFF"/>
<path d="M284.612 216.359C284.722 214.948 283.634 213.993 281.655 213.993C280.891 213.957 280.128 214.094 279.425 214.395C278.722 214.695 278.095 215.151 277.594 215.728L276.079 214.585C276.814 213.763 277.722 213.116 278.739 212.69C279.755 212.264 280.854 212.071 281.955 212.124C285.109 212.124 287.041 213.599 286.852 216.067C286.568 219.734 282.664 220.01 282.443 222.857H280.243C280.511 219.364 284.415 218.883 284.612 216.359ZM279.66 226.398C279.686 226.01 279.86 225.648 280.146 225.385C280.433 225.122 280.809 224.979 281.197 224.986C281.38 224.979 281.561 225.012 281.729 225.082C281.897 225.152 282.048 225.258 282.171 225.392C282.295 225.527 282.387 225.686 282.442 225.86C282.497 226.034 282.514 226.217 282.491 226.398C282.459 226.779 282.286 227.134 282.006 227.394C281.726 227.653 281.359 227.799 280.977 227.802C280.794 227.809 280.612 227.778 280.443 227.709C280.274 227.64 280.121 227.535 279.996 227.402C279.871 227.269 279.776 227.11 279.718 226.937C279.66 226.763 279.64 226.58 279.66 226.398Z" fill="white"/>
<path opacity="0.7" d="M298.586 87.5341H210.263L211.012 77.8975H299.335L298.586 87.5341Z" fill="white"/>
<path opacity="0.7" d="M262.839 100.948H204.041L204.238 98.4641H263.036L262.839 100.948Z" fill="white"/>
<path opacity="0.7" d="M262.287 108.124H203.489L203.678 105.632H262.476L262.287 108.124Z" fill="white"/>
<path opacity="0.7" d="M261.727 115.301H202.929L203.119 112.809H261.916L261.727 115.301Z" fill="white"/>
<path opacity="0.7" d="M261.167 122.469H202.369L202.559 119.985H261.356L261.167 122.469Z" fill="white"/>
<path opacity="0.7" d="M299.745 122.469H275.756L277.633 98.4641H301.622L299.745 122.469Z" fill="white"/>
<path opacity="0.7" d="M260.008 137.279H201.21L201.407 134.787H260.205L260.008 137.279Z" fill="white"/>
<path opacity="0.7" d="M259.448 144.447H200.65L200.847 141.963H259.645L259.448 144.447Z" fill="white"/>
<path opacity="0.7" d="M258.896 151.623H200.098L200.288 149.139H259.085L258.896 151.623Z" fill="white"/>
<path opacity="0.7" d="M258.336 158.8H199.538L199.728 156.308H258.525L258.336 158.8Z" fill="white"/>
<path opacity="0.7" d="M296.914 158.8H272.925L274.794 134.787H298.783L296.914 158.8Z" fill="white"/>
<path opacity="0.7" d="M257.177 173.601H198.379L198.576 171.117H257.374L257.177 173.601Z" fill="white"/>
<path opacity="0.7" d="M256.617 180.778H197.819L198.016 178.286H256.814L256.617 180.778Z" fill="white"/>
<path opacity="0.7" d="M256.057 187.954H197.267L197.456 185.462H256.254L256.057 187.954Z" fill="white"/>
<path opacity="0.7" d="M255.505 195.122H196.707L196.897 192.638H255.694L255.505 195.122Z" fill="white"/>
<path opacity="0.7" d="M294.083 195.122H270.094L271.963 171.117H295.952L294.083 195.122Z" fill="white"/>
<path opacity="0.7" d="M254.346 209.932H195.548L195.745 207.44H254.543L254.346 209.932Z" fill="white"/>
<path opacity="0.7" d="M253.786 217.108H194.988L195.185 214.616H253.983L253.786 217.108Z" fill="white"/>
<path opacity="0.7" d="M253.226 224.277H194.428L194.625 221.793H253.423L253.226 224.277Z" fill="white"/>
<path opacity="0.7" d="M252.666 231.453H193.868L194.066 228.961H252.863L252.666 231.453Z" fill="white"/>
<path opacity="0.7" d="M291.252 231.453H267.263L269.132 207.44H293.121L291.252 231.453Z" fill="white"/>
<path d="M157.719 159.296V181.014C157.725 185.297 156.071 189.415 153.106 192.504L132.839 213.709H144.313L165.369 192.985C166.939 191.441 168.187 189.6 169.04 187.569C169.893 185.539 170.334 183.359 170.337 181.156V159.296H157.719Z" fill="#407BFF"/>
<path opacity="0.4" d="M170.337 159.296V181.133C170.34 182.356 170.202 183.576 169.927 184.768C169.236 187.891 167.653 190.746 165.369 192.985L144.313 213.709H132.839L153.106 192.504C156.071 189.415 157.725 185.297 157.719 181.014V159.296H170.337Z" fill="white"/>
<path opacity="0.2" d="M170.337 159.296V181.133C170.34 182.356 170.202 183.576 169.927 184.768L157.719 179.839V159.296H170.337Z" fill="black"/>
<path d="M124.866 216.075L107.88 280.787C107.728 281.377 107.384 281.898 106.903 282.271C106.422 282.644 105.831 282.846 105.222 282.846H74.8693C74.6193 282.845 74.3728 282.787 74.1486 282.676C73.9245 282.565 73.7286 282.405 73.576 282.207C73.4228 282.009 73.3175 281.779 73.2682 281.534C73.2189 281.289 73.2271 281.036 73.2921 280.795L90.2863 216.075H87.0215L70.2402 279.991C70.0564 280.699 70.0368 281.44 70.1831 282.157C70.3293 282.874 70.6375 283.549 71.0842 284.128C71.5308 284.708 72.104 285.178 72.76 285.502C73.416 285.827 74.1375 285.997 74.8693 286H105.222C106.527 285.999 107.795 285.566 108.828 284.769C109.861 283.971 110.601 282.854 110.932 281.592L128.123 216.075H124.866Z" fill="#407BFF"/>
<g opacity="0.4">
<path d="M124.866 216.075L107.88 280.787C107.728 281.377 107.384 281.898 106.903 282.271C106.422 282.644 105.831 282.846 105.222 282.846H74.8693C74.6193 282.845 74.3728 282.787 74.1486 282.676C73.9245 282.565 73.7286 282.405 73.576 282.207C73.4228 282.009 73.3175 281.779 73.2682 281.534C73.2189 281.289 73.2271 281.036 73.2921 280.795L90.2863 216.075H87.0215L70.2402 279.991C70.0564 280.699 70.0368 281.44 70.1831 282.157C70.3293 282.874 70.6375 283.549 71.0842 284.128C71.5308 284.708 72.104 285.178 72.76 285.502C73.416 285.827 74.1375 285.997 74.8693 286H105.222C106.527 285.999 107.795 285.566 108.828 284.769C109.861 283.971 110.601 282.854 110.932 281.592L128.123 216.075H124.866Z" fill="white"/>
</g>
<path d="M131.814 286L113.242 215.184L110.19 215.981L128.549 286H131.814Z" fill="#407BFF"/>
<path d="M169.666 286L151.095 215.184L148.043 215.981L166.402 286H169.666Z" fill="#407BFF"/>
<g opacity="0.5">
<path d="M131.814 286L113.242 215.184L110.19 215.981L128.549 286H131.814Z" fill="white"/>
</g>
<g opacity="0.5">
<path d="M169.666 286L151.095 215.184L148.043 215.981L166.402 286H169.666Z" fill="white"/>
</g>
<path opacity="0.2" d="M87.0215 216.075H90.2863L87.7234 225.83L84.7031 224.907L87.0215 216.075Z" fill="black"/>
<path opacity="0.2" d="M113.242 215.184L117.461 231.279L113.921 230.207L110.19 215.981L113.242 215.184Z" fill="black"/>
<path opacity="0.2" d="M124.866 216.075H128.123L122.776 236.5L119.748 235.577L124.866 216.075Z" fill="black"/>
<path opacity="0.2" d="M158.547 243.794L154.991 242.706L148.043 216.178L151.095 215.31L158.547 243.794Z" fill="black"/>
<path d="M84.1432 217.156L69.3964 137.326L69.1993 136.119C69.0536 135.374 69.0734 134.605 69.2573 133.868C69.4413 133.131 69.7849 132.443 70.2639 131.853C70.7265 131.299 71.3073 130.856 71.9637 130.556C72.6201 130.255 73.3354 130.106 74.057 130.118H105.979C107.494 130.193 108.942 130.77 110.092 131.758C111.243 132.746 112.033 134.089 112.335 135.575L112.572 136.924L127.311 216.572L124.204 217.14L109.418 137.255L109.228 136.135C109.064 135.373 108.66 134.684 108.075 134.169C107.491 133.654 106.756 133.34 105.979 133.273H74.0255C73.7664 133.263 73.5084 133.311 73.2707 133.415C73.0331 133.519 72.822 133.675 72.6533 133.872C72.4692 134.112 72.3398 134.39 72.2744 134.686C72.209 134.981 72.2092 135.288 72.2748 135.583L72.4956 136.908L87.2502 216.556L84.1432 217.156Z" fill="#407BFF"/>
<g opacity="0.5">
<path d="M84.1432 217.156L69.3964 137.326L69.1993 136.119C69.0536 135.374 69.0734 134.605 69.2573 133.868C69.4413 133.131 69.7849 132.443 70.2639 131.853C70.7265 131.299 71.3073 130.856 71.9637 130.556C72.6201 130.255 73.3354 130.106 74.057 130.118H105.979C107.494 130.193 108.942 130.77 110.092 131.758C111.243 132.746 112.033 134.089 112.335 135.575L112.572 136.924L127.311 216.572L124.204 217.14L109.418 137.255L109.228 136.135C109.064 135.373 108.66 134.684 108.075 134.169C107.491 133.654 106.756 133.34 105.979 133.273H74.0255C73.7664 133.263 73.5084 133.311 73.2707 133.415C73.0331 133.519 72.822 133.675 72.6533 133.872C72.4692 134.112 72.3398 134.39 72.2744 134.686C72.209 134.981 72.2092 135.288 72.2748 135.583L72.4956 136.908L87.2502 216.556L84.1432 217.156Z" fill="white"/>
</g>
<path d="M90.5939 209.238H151.261C152.306 209.238 153.309 209.654 154.049 210.393C154.788 211.132 155.204 212.135 155.204 213.181V218.441H86.6509V213.165C86.6551 212.122 87.0723 211.123 87.8113 210.387C88.5503 209.651 89.5508 209.238 90.5939 209.238Z" fill="#407BFF"/>
<path d="M156.15 213.851H85.7046C84.8292 213.851 84.1195 214.561 84.1195 215.436V216.872C84.1195 217.747 84.8292 218.457 85.7046 218.457H156.15C157.025 218.457 157.735 217.747 157.735 216.872V215.436C157.735 214.561 157.025 213.851 156.15 213.851Z" fill="#407BFF"/>
<path opacity="0.6" d="M156.15 213.851H85.7046C84.8292 213.851 84.1195 214.561 84.1195 215.436V216.872C84.1195 217.747 84.8292 218.457 85.7046 218.457H156.15C157.025 218.457 157.735 217.747 157.735 216.872V215.436C157.735 214.561 157.025 213.851 156.15 213.851Z" fill="white"/>
<path d="M116.972 169.548H76.8881L70.9105 137.216H110.987L116.917 169.248L116.972 169.548Z" fill="#407BFF"/>
<path d="M156.402 100.648C156.402 100.648 151.363 88.9457 150.929 87.6918C150.496 86.438 151.008 80.1055 150.622 79.0173C150.235 77.929 144.384 77.1483 143.146 77.2903C141.908 77.4322 142.996 87.2266 143.509 87.9994C144.177 88.7945 144.931 89.5138 145.756 90.1444L150.212 103.55L156.402 100.648Z" fill="#B97964"/>
<path d="M130.907 122.737C134.345 123.281 148.422 125.316 151.568 123.218C154.107 121.523 146.955 94.04 146.955 94.04L153.319 91.4456C153.319 91.4456 168.436 124.74 160.361 132.342C156.26 136.206 144.731 137.184 128.147 137.184L130.907 122.737Z" fill="#407BFF"/>
<path opacity="0.8" d="M130.907 122.737C134.345 123.281 148.422 125.316 151.568 123.218C154.107 121.523 146.955 94.04 146.955 94.04L153.319 91.4456C153.319 91.4456 168.436 124.74 160.361 132.342C156.26 136.206 144.731 137.184 128.147 137.184L130.907 122.737Z" fill="white"/>
<path opacity="0.1" d="M136.735 137.105C134.29 137.176 131.68 137.208 128.935 137.208L131.301 128.147C133.865 130.606 135.738 133.695 136.735 137.105Z" fill="black"/>
<path d="M150.756 141.939L167.443 159.588" stroke="#2E353A" stroke-width="2" stroke-miterlimit="10"/>
<path d="M138.793 152.333C138.793 152.333 151.529 151.939 152.854 151.805C154.178 151.671 159.691 148.516 160.874 148.39C162.056 148.264 165.211 153.248 165.605 154.431C165.999 155.614 156.67 158.768 155.748 158.642C154.745 158.368 153.775 157.987 152.854 157.506L138.793 159.162V152.333Z" fill="#B97964"/>
<path d="M131.301 279.817L137.586 278.958L138.454 264.022L132.184 264.889L131.301 279.817Z" fill="#B97964"/>
<path d="M138.06 278.201L130.962 277.751C130.844 277.742 130.726 277.779 130.634 277.854C130.541 277.928 130.481 278.036 130.465 278.153L129.771 283.753C129.752 284.046 129.85 284.336 130.043 284.558C130.237 284.779 130.511 284.915 130.804 284.935C133.281 285.054 134.471 284.983 137.594 285.156C139.518 285.267 143.296 285.677 145.938 285.416C148.579 285.156 148.256 282.554 147.12 282.428C144.408 282.12 140.812 280.133 139.124 278.619C138.825 278.365 138.451 278.218 138.06 278.201Z" fill="#2E353A"/>
<path d="M140.236 279.415C139.669 279.364 139.108 279.253 138.564 279.084C138.536 279.077 138.511 279.062 138.492 279.041C138.472 279.02 138.459 278.994 138.454 278.966C138.452 278.937 138.458 278.908 138.47 278.882C138.483 278.856 138.501 278.833 138.525 278.816C138.738 278.69 140.607 277.578 141.364 277.925C141.448 277.966 141.521 278.028 141.575 278.106C141.629 278.183 141.662 278.273 141.671 278.366C141.709 278.506 141.708 278.654 141.668 278.793C141.627 278.932 141.549 279.057 141.443 279.155C141.087 279.39 140.657 279.482 140.236 279.415ZM141.238 278.224C140.835 278.035 139.747 278.5 138.982 278.918C140.102 279.21 140.93 279.226 141.253 278.958C141.318 278.89 141.365 278.806 141.388 278.715C141.411 278.624 141.411 278.528 141.387 278.437C141.384 278.392 141.368 278.348 141.342 278.31C141.316 278.273 141.28 278.243 141.238 278.224Z" fill="#407BFF"/>
<path d="M138.596 279.084C138.575 279.091 138.553 279.091 138.533 279.084C138.493 279.056 138.464 279.014 138.454 278.966C138.454 278.911 138.454 277.057 139.1 276.482C139.189 276.408 139.294 276.356 139.405 276.327C139.517 276.298 139.634 276.295 139.747 276.316C139.872 276.327 139.99 276.38 140.081 276.465C140.173 276.551 140.233 276.665 140.252 276.789C140.354 277.491 139.329 278.753 138.675 279.084C138.662 279.09 138.649 279.093 138.635 279.093C138.621 279.093 138.608 279.09 138.596 279.084ZM139.621 276.624C139.562 276.619 139.502 276.628 139.446 276.648C139.391 276.668 139.34 276.7 139.298 276.742C138.887 277.081 138.785 278.122 138.761 278.713C139.373 278.266 139.8 277.609 139.96 276.868C139.96 276.781 139.905 276.671 139.692 276.631L139.621 276.624Z" fill="#407BFF"/>
<path opacity="0.2" d="M132.184 264.889L138.454 264.03L137.957 272.562L131.695 273.114L132.184 264.889Z" fill="black"/>
<path d="M131.554 192.031L130.024 182.426L94.805 180.32C94.805 180.32 91.0592 200.303 93.9376 205.626C99.0713 215.129 126.759 210.358 134.858 211.265C130.016 231.066 130.489 269.763 130.489 269.763L142.058 270.646C142.058 270.646 150.961 228.953 152.759 209.136C153.973 195.769 142.894 196.1 131.554 192.031Z" fill="#2E353A"/>
<path d="M129.133 270.307L143.036 271.222L144.226 265.268L128.951 264.558L129.133 270.307Z" fill="#407BFF"/>
<path d="M145.796 274.242L152.12 274.707L156.079 260.284L149.762 259.827L145.796 274.242Z" fill="#B97964"/>
<path d="M152.743 274.061L145.89 272.152C145.777 272.115 145.654 272.124 145.548 272.177C145.441 272.23 145.36 272.323 145.322 272.436L143.477 277.767C143.438 277.909 143.427 278.058 143.445 278.205C143.464 278.351 143.511 278.493 143.584 278.621C143.657 278.75 143.755 278.862 143.872 278.952C143.989 279.043 144.123 279.109 144.266 279.147C146.632 279.77 147.838 279.936 150.858 280.772C152.712 281.284 156.323 282.467 158.965 282.767C161.607 283.066 161.828 280.448 160.74 280.093C158.153 279.226 155.062 276.529 153.713 274.699C153.471 274.383 153.129 274.158 152.743 274.061Z" fill="#2E353A"/>
<path d="M154.62 275.709C154.07 275.544 153.541 275.316 153.043 275.031C153.017 275.02 152.995 275.001 152.98 274.977C152.966 274.953 152.96 274.924 152.964 274.897C152.966 274.868 152.976 274.84 152.992 274.816C153.009 274.793 153.032 274.774 153.059 274.763C153.287 274.684 155.353 273.974 156.016 274.486C156.092 274.543 156.153 274.619 156.192 274.706C156.23 274.793 156.246 274.888 156.237 274.983C156.247 275.132 156.214 275.281 156.143 275.412C156.072 275.543 155.965 275.652 155.834 275.725C155.442 275.871 155.009 275.865 154.62 275.709ZM155.842 274.747C155.487 274.479 154.328 274.747 153.477 274.96C154.51 275.48 155.322 275.669 155.685 275.472C155.764 275.42 155.828 275.348 155.871 275.264C155.914 275.18 155.934 275.086 155.929 274.991C155.937 274.945 155.932 274.897 155.914 274.854C155.896 274.811 155.865 274.773 155.827 274.747H155.842Z" fill="#407BFF"/>
<path d="M153.082 275.046H152.988C152.969 275.03 152.955 275.009 152.947 274.985C152.939 274.962 152.937 274.937 152.94 274.912C152.94 274.857 153.311 273.043 154.084 272.618C154.188 272.57 154.301 272.545 154.415 272.545C154.529 272.545 154.642 272.57 154.746 272.618C154.867 272.656 154.973 272.733 155.045 272.837C155.118 272.941 155.154 273.066 155.148 273.193C155.093 273.895 153.831 274.92 153.122 275.109C153.102 275.094 153.088 275.071 153.082 275.046ZM154.565 272.854C154.508 272.838 154.449 272.834 154.39 272.842C154.332 272.85 154.276 272.871 154.226 272.901C153.753 273.154 153.437 274.147 153.287 274.723C153.934 274.423 154.786 273.627 154.865 273.146C154.865 273.059 154.865 272.949 154.652 272.87L154.565 272.854Z" fill="#407BFF"/>
<path opacity="0.2" d="M149.762 259.827L156.079 260.292L153.816 268.533L147.57 267.768L149.762 259.827Z" fill="black"/>
<path d="M158.224 267.515L147.089 264.243C147.089 264.243 153.776 226.721 160.479 213.709C159.975 213.544 159.304 213.331 158.476 213.086C156.986 212.637 155.006 212.077 152.68 211.43C136.498 206.943 103.7 198.529 103.7 198.529L118.684 184.547C118.684 184.547 178.365 193.648 179.603 209.372C180.194 216.935 158.224 267.515 158.224 267.515Z" fill="#2E353A"/>
<path d="M145.654 264.487L159.06 268.28L161.465 262.705L146.671 258.825L145.654 264.487Z" fill="#407BFF"/>
<path opacity="0.2" d="M158.508 213.086C157.017 212.637 155.038 212.077 152.712 211.43C153.177 207.614 153.185 203.237 151.347 201.005C147.696 196.557 138.304 193.947 132.957 193.001C128.486 192.212 113.463 190.635 113.463 190.635C113.463 190.635 132.957 188.766 152.893 194.578C162.703 197.464 160.787 207.093 158.508 213.086Z" fill="black"/>
<path d="M130.907 122.737C130.907 122.737 136.017 141.663 130.047 182.426C118.92 182.189 100.223 181.756 94.805 181.637C94.6709 175.959 98.8584 148.138 93.9612 121.302C97.4877 120.693 101.054 120.34 104.631 120.245C109.867 120.058 115.109 120.171 120.332 120.584C123.907 121.029 127.442 121.748 130.907 122.737Z" fill="#407BFF"/>
<path opacity="0.7" d="M130.907 122.737C130.907 122.737 136.017 141.663 130.047 182.426C118.92 182.189 100.223 181.756 94.805 181.637C94.6709 175.959 98.8584 148.138 93.9612 121.302C97.4877 120.693 101.054 120.34 104.631 120.245C109.867 120.058 115.109 120.171 120.332 120.584C123.907 121.029 127.442 121.748 130.907 122.737Z" fill="white"/>
<path opacity="0.1" d="M106.326 155.882C103.172 155.188 99.4104 152.152 96.3113 149.155C96.3113 143.824 96.051 138.154 95.4753 132.374C99.8599 138.864 111.736 157.072 106.326 155.882Z" fill="black"/>
<path d="M93.9376 121.302C81.88 125.647 103.046 158.295 109.615 161.662C116.184 165.029 149.573 157.979 149.573 157.979L148.256 151.229C148.256 151.229 118.715 151.978 115.995 151.292C113.274 150.606 106.807 136.687 103.085 130.118C101.016 126.308 97.8216 123.229 93.9376 121.302Z" fill="#407BFF"/>
<path opacity="0.8" d="M93.9376 121.302C81.88 125.647 103.046 158.295 109.615 161.662C116.184 165.029 149.573 157.979 149.573 157.979L148.256 151.229C148.256 151.229 118.715 151.978 115.995 151.292C113.274 150.606 106.807 136.687 103.085 130.118C101.016 126.308 97.8216 123.229 93.9376 121.302Z" fill="white"/>
<path d="M145.89 150.622L147.602 159.588L150.756 158.508L149.573 150.622H145.89Z" fill="#407BFF"/>
<path opacity="0.7" d="M145.89 150.622L147.602 159.588L150.756 158.508L149.573 150.622H145.89Z" fill="white"/>
<path d="M146.742 96.0352L155.227 92.6758L153.579 89.7816L146.048 92.4155L146.742 96.0352Z" fill="#407BFF"/>
<path opacity="0.7" d="M146.742 96.0352L155.227 92.6758L153.579 89.7816L146.048 92.4155L146.742 96.0352Z" fill="white"/>
<path opacity="0.1" d="M102.707 120.324C102.707 120.324 102.935 124.007 110.167 127.555L115.167 123.936C115.167 123.936 116.594 133.178 117.532 140.078C117.532 140.078 117.469 129.038 116.523 124.795L120.348 126.152C120.348 126.152 117.091 120.561 111.547 119.275C106.003 117.99 102.707 120.324 102.707 120.324Z" fill="black"/>
<path d="M106.539 102.644C107.423 107.714 108.211 116.988 104.607 120.284L115.135 123.218L120.277 120.624C114.67 119.157 114.906 114.977 115.971 111.074L106.539 102.644Z" fill="#B97964"/>
<path opacity="0.2" d="M110.403 106.082L116.002 111.074C115.743 111.982 115.561 112.911 115.458 113.85C113.313 113.495 110.411 111.066 110.23 108.81C110.118 107.898 110.177 106.973 110.403 106.082Z" fill="black"/>
<path d="M114.007 88.5514C111.713 91.0434 113.692 93.8902 121.018 97.3521C122.761 93.5117 121.696 87.1004 119.33 85.9806C116.965 84.8608 116.01 86.3906 114.007 88.5514Z" fill="#2E353A"/>
<path d="M103.464 96.3901C105.325 102.991 106.082 106.941 110.198 109.646C116.397 113.708 123.991 108.858 124.141 101.831C124.267 95.5226 121.207 85.7835 114.086 84.5454C112.519 84.2654 110.906 84.3901 109.401 84.9078C107.895 85.4254 106.546 86.3188 105.483 87.5034C104.419 88.6879 103.675 90.1244 103.322 91.6768C102.969 93.2292 103.017 94.8461 103.464 96.3743V96.3901Z" fill="#B97964"/>
<path d="M113.85 96.0588C113.968 96.603 114.354 96.9815 114.709 96.9026C115.064 96.8238 115.253 96.327 115.135 95.7828C115.017 95.2387 114.638 94.8602 114.283 94.9311C113.928 95.0021 113.771 95.5147 113.85 96.0588Z" fill="#2E353A"/>
<path d="M120.04 94.7261C120.158 95.2702 120.545 95.6488 120.9 95.5699C121.254 95.491 121.452 94.9942 121.333 94.4422C121.215 93.8902 120.829 93.5196 120.474 93.5984C120.119 93.6773 119.922 94.182 120.04 94.7261Z" fill="#2E353A"/>
<path d="M118.076 95.4201C119.084 96.9458 120.3 98.3234 121.688 99.5129C121.373 99.8591 120.986 100.132 120.554 100.313C120.122 100.495 119.656 100.579 119.188 100.562L118.076 95.4201Z" fill="#A24E3F"/>
<path d="M111.736 94.4738C111.678 94.4957 111.614 94.4992 111.553 94.4838C111.492 94.4685 111.438 94.435 111.397 94.3879C111.356 94.3408 111.33 94.2822 111.323 94.2201C111.316 94.1579 111.328 94.0951 111.358 94.04C111.564 93.5626 111.882 93.1419 112.286 92.8138C112.69 92.4857 113.166 92.2598 113.676 92.1553C113.758 92.1413 113.843 92.1597 113.912 92.2068C113.981 92.2538 114.03 92.3258 114.047 92.4076C114.056 92.4929 114.033 92.5785 113.982 92.6473C113.93 92.716 113.855 92.7628 113.771 92.7783C113.37 92.8671 112.997 93.05 112.682 93.312C112.366 93.5739 112.118 93.9073 111.957 94.2845C111.938 94.3315 111.908 94.3732 111.87 94.4061C111.831 94.439 111.785 94.4623 111.736 94.4738Z" fill="#2E353A"/>
<path d="M122.406 92.0291C122.345 92.0445 122.281 92.0415 122.222 92.0204C122.163 91.9993 122.112 91.9612 122.075 91.9108C121.83 91.5814 121.511 91.314 121.144 91.1305C120.777 90.9469 120.372 90.8523 119.961 90.8541C119.875 90.8607 119.789 90.833 119.722 90.7769C119.656 90.7208 119.614 90.641 119.606 90.5544C119.602 90.4695 119.629 90.3858 119.683 90.3201C119.737 90.2543 119.814 90.2113 119.898 90.1996C120.418 90.1877 120.934 90.3004 121.401 90.5281C121.869 90.7558 122.276 91.092 122.587 91.5086C122.614 91.5422 122.634 91.5807 122.645 91.6219C122.657 91.6632 122.661 91.7063 122.655 91.7489C122.65 91.7915 122.637 91.8326 122.616 91.8698C122.594 91.9071 122.566 91.9398 122.532 91.966C122.496 91.9976 122.453 92.0194 122.406 92.0291Z" fill="#2E353A"/>
<path d="M104.883 89.8999C108.243 90.2942 108.59 93.7482 105.278 101.137C101.453 99.3552 98.0856 93.7877 99.166 91.4061C100.246 89.0246 101.91 89.545 104.883 89.8999Z" fill="#2E353A"/>
<path d="M101.437 102.431C101.841 103.184 102.39 103.85 103.051 104.392C103.713 104.933 104.475 105.338 105.293 105.585C107.486 106.224 108.605 104.268 108.022 102.186C107.494 100.309 105.711 97.7149 103.503 97.9909C101.295 98.2669 100.443 100.562 101.437 102.431Z" fill="#B97964"/>
<path d="M99.4262 90.8383C99.4262 90.8383 97.7623 88.6934 101.003 84.4034C104.245 80.1134 112.162 78.7965 118.234 79.9794C124.306 81.1623 120.695 87.8653 118.526 88.9773L118.794 87.9284C116.473 89.1393 113.917 89.8334 111.302 89.963L112.501 88.8511C112.501 88.8511 102.975 91.3194 99.4262 90.8383Z" fill="#2E353A"/>
<path d="M118.786 102.375C118.649 103.186 118.572 104.006 118.558 104.828L118.132 104.891C116.176 105.151 115.19 104.623 114.686 103.968C114.446 103.639 114.286 103.258 114.22 102.857C114.188 102.629 114.188 102.398 114.22 102.17C115.499 102.548 116.844 102.645 118.163 102.454C118.526 102.423 118.786 102.375 118.786 102.375Z" fill="#2E353A"/>
<path d="M118.116 102.454L118.029 103.18C116.2 103.416 114.875 103.338 114.22 102.857C114.188 102.629 114.188 102.398 114.22 102.17C115.484 102.541 116.812 102.638 118.116 102.454Z" fill="white"/>
<path d="M118.132 104.883C116.176 105.143 115.19 104.615 114.686 103.961C115.427 103.876 116.177 103.925 116.902 104.103C117.384 104.227 117.814 104.5 118.132 104.883Z" fill="#A24E3F"/>
<path d="M106.46 117.17C106.46 117.17 112.154 121.444 115.135 122.429C115.135 122.429 116.539 119.796 115.963 117.619L120.277 120.624C120.762 122.432 120.762 124.336 120.277 126.144L115.135 123.218L110.277 126.767C110.277 126.767 103.093 124.685 102.675 120.324L106.46 117.17Z" fill="#407BFF"/>
<path opacity="0.8" d="M106.46 117.17C106.46 117.17 112.154 121.444 115.135 122.429C115.135 122.429 116.539 119.796 115.963 117.619L120.277 120.624C120.762 122.432 120.762 124.336 120.277 126.144L115.135 123.218L110.277 126.767C110.277 126.767 103.093 124.685 102.675 120.324L106.46 117.17Z" fill="white"/>
<path d="M200.437 157.617H121.838C121.329 157.617 120.915 158.03 120.915 158.539V160.85C120.915 161.359 121.329 161.773 121.838 161.773H200.437C200.947 161.773 201.36 161.359 201.36 160.85V158.539C201.36 158.03 200.947 157.617 200.437 157.617Z" fill="#407BFF"/>
<path opacity="0.5" d="M201.092 158.429V160.739C201.092 161.252 200.95 161.662 200.445 161.662H121.838C121.325 161.662 120.655 161.252 120.655 160.739V158.429C120.655 157.924 121.325 157.719 121.838 157.719H200.445C200.95 157.719 201.092 157.924 201.092 158.429Z" fill="white"/>
<path opacity="0.2" d="M153.776 158.429V160.739C153.776 161.252 153.603 161.662 153.098 161.662H121.838C121.325 161.662 120.655 161.252 120.655 160.739V158.429C120.655 157.924 121.325 157.719 121.838 157.719H153.098C153.603 157.719 153.776 157.924 153.776 158.429Z" fill="black"/>
<path d="M135.922 42.6867C135.243 40.2243 133.949 37.9749 132.163 36.1491C130.377 34.3233 128.156 32.981 125.709 32.248C123.262 31.515 120.669 31.4153 118.173 31.9583C115.677 32.5012 113.36 33.6691 111.439 35.3523C109.517 37.0356 108.055 39.1791 107.189 41.582C106.322 43.9849 106.08 46.5684 106.485 49.0905C106.89 51.6125 107.928 53.9905 109.503 56.0014C111.078 58.0124 113.138 59.5905 115.49 60.5878C116.501 61.0024 117.315 61.7862 117.769 62.7801L118.281 63.9393L132.8 59.9963L132.65 58.7346C132.545 57.6408 132.852 56.5473 133.509 55.6669C134.862 53.8244 135.782 51.7002 136.2 49.4527C136.618 47.2052 136.523 44.8924 135.922 42.6867Z" fill="#407BFF"/>
<path d="M123.021 63.9709C123.021 63.9709 120.837 57.118 116.98 54.0819L119.117 53.4983L119.283 50.2099L122.777 55.2648L122.493 49.1137L125.939 54.7207L126.286 51.5663L129.338 50.7777C127.668 54.5278 127.369 58.7454 128.494 62.6934" stroke="white" stroke-linecap="round" stroke-linejoin="round"/>
<path d="M125.765 62.8195C123.194 63.5214 121.759 66.4786 122.564 69.4201C123.368 72.3615 126.097 74.1516 128.667 73.4735C131.238 72.7953 132.666 69.8223 131.869 66.8808C131.073 63.9393 128.336 62.1256 125.765 62.8195Z" fill="#2E353A"/>
<path d="M130.718 70.7686L125.544 72.1802C124.309 72.5164 122.991 72.3734 121.857 71.7797C120.722 71.1859 119.853 70.1854 119.425 68.9785L117.729 64.1917C117.696 64.0971 117.682 63.9965 117.689 63.8963C117.696 63.796 117.723 63.6983 117.77 63.6094C117.817 63.5204 117.881 63.4421 117.96 63.3795C118.038 63.3168 118.129 63.2711 118.226 63.2454L132.484 59.3576C132.581 59.3308 132.683 59.3244 132.782 59.3389C132.882 59.3535 132.977 59.3885 133.062 59.4419C133.148 59.4953 133.221 59.5659 133.278 59.6491C133.334 59.7323 133.373 59.8264 133.391 59.9254L134.361 64.9014C134.605 66.1586 134.366 67.4616 133.69 68.5496C133.015 69.6376 131.953 70.4302 130.718 70.7686Z" fill="#407BFF"/>
<path opacity="0.4" d="M130.718 70.7686L125.544 72.1802C124.309 72.5164 122.991 72.3734 121.857 71.7797C120.722 71.1859 119.853 70.1854 119.425 68.9785L117.729 64.1917C117.696 64.0971 117.682 63.9965 117.689 63.8963C117.696 63.796 117.723 63.6983 117.77 63.6094C117.817 63.5204 117.881 63.4421 117.96 63.3795C118.038 63.3168 118.129 63.2711 118.226 63.2454L132.484 59.3576C132.581 59.3308 132.683 59.3244 132.782 59.3389C132.882 59.3535 132.977 59.3885 133.062 59.4419C133.148 59.4953 133.221 59.5659 133.278 59.6491C133.334 59.7323 133.373 59.8264 133.391 59.9254L134.361 64.9014C134.605 66.1586 134.366 67.4616 133.69 68.5496C133.015 69.6376 131.953 70.4302 130.718 70.7686Z" fill="white"/>
<path d="M101.24 57.7646C99.8272 57.505 98.3943 57.3704 96.9579 57.3624C96.2437 57.3582 95.53 57.3977 94.8208 57.4807C94.4659 57.5359 94.111 57.5754 93.7719 57.6621C93.5984 57.7094 93.4249 57.7331 93.2593 57.7962L92.7625 57.9539L92.1947 58.1353L92.5338 57.6385C93.4903 56.2224 94.2516 54.684 94.7971 53.0646C95.0683 52.2613 95.2662 51.4352 95.3885 50.5963C95.4488 50.1807 95.4857 49.7621 95.499 49.3424C95.5226 48.9248 95.5226 48.5062 95.499 48.0886C95.4688 47.6751 95.4108 47.2641 95.3255 46.8583L95.1756 46.259L94.9785 45.6676C94.8385 45.2809 94.667 44.9064 94.4659 44.5478C94.272 44.1861 94.0533 43.8383 93.8114 43.5068C93.5675 43.176 93.3041 42.8601 93.0228 42.5605L92.589 42.1189L92.1159 41.7088C91.8083 41.4249 91.4456 41.2041 91.1222 40.9202C90.7989 40.6363 90.4125 40.4786 90.0576 40.2499L89.269 39.7294L90.1444 39.3115C90.5623 39.1065 91.004 38.862 91.4219 38.6096C91.8399 38.3573 92.2578 38.0971 92.6679 37.821C93.4807 37.267 94.2529 36.6556 94.9785 35.9915C95.3333 35.6603 95.6803 35.3212 96.0194 34.9663C96.3585 34.6115 96.6661 34.2329 96.9579 33.8544C97.2496 33.4759 97.5335 33.0658 97.7464 32.6636C98.0011 32.2604 98.2303 31.8417 98.4325 31.4098C98.6409 30.9807 98.8201 30.5381 98.9688 30.0849L99.1738 29.4067L99.3236 28.7049C99.4116 28.2416 99.4643 27.7724 99.4814 27.3012C99.5232 26.3505 99.4384 25.3984 99.229 24.4701L99.0713 23.7683L98.8505 23.0822C98.7164 22.6169 98.5035 22.1832 98.33 21.7337C98.1565 21.2842 97.9042 20.8662 97.6912 20.4246L96.5636 18.0588L98.7243 19.4468C99.1028 19.6991 99.5129 19.9436 99.9624 20.1723C100.412 20.401 100.83 20.6218 101.271 20.8189C102.151 21.2296 103.057 21.5801 103.984 21.8678C104.45 22.0018 104.915 22.128 105.38 22.2305C105.846 22.3368 106.317 22.4158 106.792 22.4671C107.26 22.5272 107.731 22.5561 108.203 22.5538C108.67 22.5503 109.136 22.5187 109.599 22.4592L110.277 22.3409L110.948 22.1595C111.38 22.0174 111.802 21.8434 112.209 21.6391C112.412 21.5414 112.607 21.428 112.793 21.3C112.991 21.185 113.178 21.0531 113.353 20.9057C113.715 20.624 114.057 20.3184 114.378 19.9909C114.693 19.6506 114.986 19.2896 115.253 18.9105C115.531 18.5294 115.782 18.1288 116.002 17.7119C116.247 17.3097 116.413 16.8523 116.625 16.4264C116.838 16.0006 116.965 15.5274 117.138 15.0779L118.124 12.4913L118.613 15.1883C118.695 15.6295 118.809 16.0642 118.952 16.4895C119.368 17.8084 120.002 19.048 120.829 20.1565C121.374 20.8803 122.019 21.5229 122.745 22.0649C123.103 22.3377 123.483 22.5803 123.881 22.7904C124.278 23.0064 124.692 23.191 125.119 23.3424C125.547 23.4919 125.984 23.6131 126.428 23.7052C126.878 23.7958 127.334 23.859 127.792 23.8944C128.252 23.9181 128.712 23.9181 129.172 23.8944C129.637 23.8944 130.103 23.8314 130.568 23.7919C131.033 23.7525 131.498 23.6421 131.956 23.5711L133.336 23.2399L134.7 22.8298L136.049 22.3488L137.918 21.6785L136.845 23.3424C136.648 23.6342 136.451 23.9891 136.269 24.3282C136.088 24.6673 135.922 25.0143 135.765 25.377C135.454 26.0841 135.209 26.8179 135.031 27.5693C134.855 28.3107 134.768 29.0705 134.771 29.8326C134.779 30.5795 134.91 31.32 135.157 32.0249L135.37 32.5453L135.638 33.121C135.831 33.4408 136.05 33.7441 136.293 34.0279C136.536 34.3095 136.8 34.5731 137.082 34.8165C137.374 35.0703 137.682 35.3047 138.004 35.5183C138.324 35.7365 138.656 35.9366 138.998 36.1177C139.337 36.3069 139.7 36.4489 140.055 36.6224L141.159 37.0403L142.294 37.3952L143.083 37.6476L142.42 38.1601C141.974 38.5064 141.555 38.8861 141.167 39.2957C140.774 39.7064 140.41 40.1438 140.078 40.6048C139.897 40.8335 139.755 41.0779 139.597 41.3145C139.445 41.5529 139.308 41.8004 139.187 42.0558C139.049 42.308 138.933 42.5719 138.84 42.8444C138.731 43.0992 138.644 43.3631 138.58 43.633C138.525 43.909 138.43 44.1771 138.399 44.4216L138.32 45.2654C138.32 45.5493 138.32 45.8332 138.367 46.1171C138.383 46.4001 138.43 46.6805 138.509 46.953C138.561 47.2215 138.634 47.4853 138.73 47.7416L139.053 48.5302C139.162 48.8052 139.296 49.0693 139.455 49.3188L139.897 50.1074L140.062 50.3834H139.755C138.589 50.3864 137.428 50.5402 136.301 50.8408C135.737 50.9903 135.191 51.2046 134.676 51.4795C134.548 51.5482 134.425 51.6246 134.306 51.7082C134.178 51.7806 134.058 51.868 133.951 51.9685C133.833 52.0545 133.723 52.1494 133.62 52.2523L133.312 52.5757L133.604 52.2366C133.699 52.1245 133.805 52.0215 133.919 51.929C134.026 51.8241 134.142 51.729 134.266 51.6451C134.385 51.5663 134.503 51.4716 134.629 51.4007C135.139 51.095 135.681 50.8464 136.246 50.6594C137.381 50.2906 138.562 50.0809 139.755 50.0364L139.621 50.3124L139.132 49.5238C138.954 49.2763 138.801 49.0122 138.675 48.7352L138.304 47.9466C138.186 47.667 138.096 47.3764 138.036 47.0792C137.937 46.7907 137.874 46.4916 137.847 46.188C137.847 45.8884 137.776 45.5808 137.768 45.2812V44.3585C137.768 44.0588 137.878 43.7592 137.925 43.4595C137.985 43.1587 138.07 42.8634 138.178 42.5763C138.264 42.2824 138.378 41.9973 138.517 41.7246C138.635 41.4527 138.772 41.1892 138.927 40.936C139.07 40.6648 139.228 40.4016 139.4 40.1474C139.74 39.6444 140.117 39.1673 140.528 38.72C140.939 38.2634 141.384 37.8389 141.86 37.4504L142.01 38.239L140.82 37.8999L139.645 37.4819C139.258 37.3163 138.856 37.1665 138.493 36.9694C138.115 36.7849 137.749 36.5768 137.397 36.3464C137.036 36.1199 136.691 35.8696 136.364 35.5972C136.04 35.3231 135.739 35.0223 135.465 34.6982C135.171 34.3732 134.907 34.0221 134.676 33.6494L134.353 33.0816L134.093 32.4744C133.789 31.6715 133.619 30.8244 133.588 29.9666C133.557 29.1061 133.634 28.2451 133.817 27.4037C133.992 26.5764 134.24 25.7662 134.558 24.9827C134.716 24.5884 134.889 24.1941 135.079 23.8314C135.268 23.4686 135.465 23.0901 135.709 22.7037L136.498 23.6973L135.094 24.2099L133.667 24.6515C133.178 24.7856 132.689 24.896 132.2 25.0143C131.711 25.1325 131.214 25.2035 130.71 25.2587C130.205 25.3285 129.697 25.3706 129.188 25.3849C128.662 25.4139 128.136 25.4139 127.611 25.3849C127.097 25.3476 126.586 25.2791 126.081 25.1799C125.571 25.0773 125.068 24.943 124.574 24.7777C124.083 24.6025 123.603 24.3944 123.139 24.1547C122.673 23.9126 122.227 23.6331 121.807 23.3188C120.966 22.6995 120.217 21.964 119.583 21.1344C118.953 20.3173 118.424 19.4277 118.005 18.4847C117.792 18.017 117.605 17.5379 117.446 17.0494C117.275 16.5517 117.138 16.0433 117.036 15.5274L118.51 15.6378C118.329 16.1268 118.163 16.6236 117.966 17.1046C117.764 17.5915 117.538 18.0678 117.288 18.532C117.058 19.005 116.794 19.4609 116.499 19.8963C116.19 20.338 115.853 20.7594 115.49 21.158C115.113 21.5512 114.707 21.915 114.275 22.2463C114.063 22.4175 113.836 22.5705 113.597 22.7037C113.37 22.8554 113.133 22.9924 112.887 23.1137C112.397 23.3578 111.888 23.5635 111.365 23.7288L110.577 23.926L109.788 24.0679C109.265 24.1345 108.738 24.1635 108.211 24.1547C107.684 24.1557 107.157 24.1215 106.634 24.0522C106.104 23.9892 105.577 23.8971 105.057 23.7762C104.544 23.6658 104.039 23.5238 103.543 23.3661C102.555 23.0568 101.59 22.6773 100.656 22.2305C100.183 22.0176 99.7258 21.781 99.2763 21.5365C98.8268 21.2921 98.3852 21.0318 97.9199 20.7479L98.953 19.8095C99.1817 20.2827 99.4262 20.7401 99.6312 21.229C99.8423 21.7109 100.029 22.2031 100.191 22.7037L100.428 23.4923L100.601 24.2809C100.707 24.8021 100.786 25.3286 100.838 25.858C100.868 26.3833 100.868 26.91 100.838 27.4352C100.814 27.9649 100.75 28.4921 100.648 29.0124L100.475 29.801L100.238 30.5896C100.066 31.0968 99.8606 31.592 99.6233 32.0722C99.3932 32.5501 99.1297 33.0113 98.8347 33.4522C98.5461 33.8832 98.2355 34.2991 97.9042 34.6982C97.5651 35.1083 97.2181 35.4868 96.8553 35.8732C96.4926 36.2596 96.1062 36.5987 95.7198 36.9457C94.9334 37.6222 94.1036 38.2465 93.2357 38.8147C92.7993 39.0986 92.3577 39.3614 91.9108 39.6033C91.4535 39.8556 91.004 40.0922 90.5071 40.313L90.5623 39.3746C90.933 39.6269 91.3509 39.8556 91.6821 40.1159C92.0134 40.3761 92.4077 40.6442 92.731 40.9597L93.2357 41.417L93.701 41.906C94.0043 42.2421 94.2886 42.5949 94.5526 42.9627C94.8136 43.3376 95.0481 43.7302 95.2545 44.1377C95.4639 44.5391 95.6431 44.9556 95.7907 45.3837L95.9879 46.0382L96.1298 46.7006C96.2135 47.146 96.2662 47.5965 96.2875 48.0491C96.3435 49.8362 96.0322 51.6157 95.3728 53.2775C94.7445 54.9234 93.8984 56.4776 92.8572 57.8987L92.6285 57.5833L93.1568 57.4334C93.3382 57.3782 93.5196 57.3546 93.701 57.3151C94.0558 57.2363 94.4186 57.2126 94.7813 57.1653C95.5062 57.122 96.233 57.122 96.9579 57.1653C98.3998 57.2418 99.8324 57.4423 101.24 57.7646Z" fill="#407BFF"/>
<path opacity="0.7" d="M101.24 57.7646C99.8272 57.505 98.3943 57.3704 96.9579 57.3624C96.2437 57.3582 95.53 57.3977 94.8208 57.4807C94.4659 57.5359 94.111 57.5754 93.7719 57.6621C93.5984 57.7094 93.4249 57.7331 93.2593 57.7962L92.7625 57.9539L92.1947 58.1353L92.5338 57.6385C93.4903 56.2224 94.2516 54.684 94.7971 53.0646C95.0683 52.2613 95.2662 51.4352 95.3885 50.5963C95.4488 50.1807 95.4857 49.7621 95.499 49.3424C95.5226 48.9248 95.5226 48.5062 95.499 48.0886C95.4688 47.6751 95.4108 47.2641 95.3255 46.8583L95.1756 46.259L94.9785 45.6676C94.8385 45.2809 94.667 44.9064 94.4659 44.5478C94.272 44.1861 94.0533 43.8383 93.8114 43.5068C93.5675 43.176 93.3041 42.8601 93.0228 42.5605L92.589 42.1189L92.1159 41.7088C91.8083 41.4249 91.4456 41.2041 91.1222 40.9202C90.7989 40.6363 90.4125 40.4786 90.0576 40.2499L89.269 39.7294L90.1444 39.3115C90.5623 39.1065 91.004 38.862 91.4219 38.6096C91.8399 38.3573 92.2578 38.0971 92.6679 37.821C93.4807 37.267 94.2529 36.6556 94.9785 35.9915C95.3333 35.6603 95.6803 35.3212 96.0194 34.9663C96.3585 34.6115 96.6661 34.2329 96.9579 33.8544C97.2496 33.4759 97.5335 33.0658 97.7464 32.6636C98.0011 32.2604 98.2303 31.8417 98.4325 31.4098C98.6409 30.9807 98.8201 30.5381 98.9688 30.0849L99.1738 29.4067L99.3236 28.7049C99.4116 28.2416 99.4643 27.7724 99.4814 27.3012C99.5232 26.3505 99.4384 25.3984 99.229 24.4701L99.0713 23.7683L98.8505 23.0822C98.7164 22.6169 98.5035 22.1832 98.33 21.7337C98.1565 21.2842 97.9042 20.8662 97.6912 20.4246L96.5636 18.0588L98.7243 19.4468C99.1028 19.6991 99.5129 19.9436 99.9624 20.1723C100.412 20.401 100.83 20.6218 101.271 20.8189C102.151 21.2296 103.057 21.5801 103.984 21.8678C104.45 22.0018 104.915 22.128 105.38 22.2305C105.846 22.3368 106.317 22.4158 106.792 22.4671C107.26 22.5272 107.731 22.5561 108.203 22.5538C108.67 22.5503 109.136 22.5187 109.599 22.4592L110.277 22.3409L110.948 22.1595C111.38 22.0174 111.802 21.8434 112.209 21.6391C112.412 21.5414 112.607 21.428 112.793 21.3C112.991 21.185 113.178 21.0531 113.353 20.9057C113.715 20.624 114.057 20.3184 114.378 19.9909C114.693 19.6506 114.986 19.2896 115.253 18.9105C115.531 18.5294 115.782 18.1288 116.002 17.7119C116.247 17.3097 116.413 16.8523 116.625 16.4264C116.838 16.0006 116.965 15.5274 117.138 15.0779L118.124 12.4913L118.613 15.1883C118.695 15.6295 118.809 16.0642 118.952 16.4895C119.368 17.8084 120.002 19.048 120.829 20.1565C121.374 20.8803 122.019 21.5229 122.745 22.0649C123.103 22.3377 123.483 22.5803 123.881 22.7904C124.278 23.0064 124.692 23.191 125.119 23.3424C125.547 23.4919 125.984 23.6131 126.428 23.7052C126.878 23.7958 127.334 23.859 127.792 23.8944C128.252 23.9181 128.712 23.9181 129.172 23.8944C129.637 23.8944 130.103 23.8314 130.568 23.7919C131.033 23.7525 131.498 23.6421 131.956 23.5711L133.336 23.2399L134.7 22.8298L136.049 22.3488L137.918 21.6785L136.845 23.3424C136.648 23.6342 136.451 23.9891 136.269 24.3282C136.088 24.6673 135.922 25.0143 135.765 25.377C135.454 26.0841 135.209 26.8179 135.031 27.5693C134.855 28.3107 134.768 29.0705 134.771 29.8326C134.779 30.5795 134.91 31.32 135.157 32.0249L135.37 32.5453L135.638 33.121C135.831 33.4408 136.05 33.7441 136.293 34.0279C136.536 34.3095 136.8 34.5731 137.082 34.8165C137.374 35.0703 137.682 35.3047 138.004 35.5183C138.324 35.7365 138.656 35.9366 138.998 36.1177C139.337 36.3069 139.7 36.4489 140.055 36.6224L141.159 37.0403L142.294 37.3952L143.083 37.6476L142.42 38.1601C141.974 38.5064 141.555 38.8861 141.167 39.2957C140.774 39.7064 140.41 40.1438 140.078 40.6048C139.897 40.8335 139.755 41.0779 139.597 41.3145C139.445 41.5529 139.308 41.8004 139.187 42.0558C139.049 42.308 138.933 42.5719 138.84 42.8444C138.731 43.0992 138.644 43.3631 138.58 43.633C138.525 43.909 138.43 44.1771 138.399 44.4216L138.32 45.2654C138.32 45.5493 138.32 45.8332 138.367 46.1171C138.383 46.4001 138.43 46.6805 138.509 46.953C138.561 47.2215 138.634 47.4853 138.73 47.7416L139.053 48.5302C139.162 48.8052 139.296 49.0693 139.455 49.3188L139.897 50.1074L140.062 50.3834H139.755C138.589 50.3864 137.428 50.5402 136.301 50.8408C135.737 50.9903 135.191 51.2046 134.676 51.4795C134.548 51.5482 134.425 51.6246 134.306 51.7082C134.178 51.7806 134.058 51.868 133.951 51.9685C133.833 52.0545 133.723 52.1494 133.62 52.2523L133.312 52.5757L133.604 52.2366C133.699 52.1245 133.805 52.0215 133.919 51.929C134.026 51.8241 134.142 51.729 134.266 51.6451C134.385 51.5663 134.503 51.4716 134.629 51.4007C135.139 51.095 135.681 50.8464 136.246 50.6594C137.381 50.2906 138.562 50.0809 139.755 50.0364L139.621 50.3124L139.132 49.5238C138.954 49.2763 138.801 49.0122 138.675 48.7352L138.304 47.9466C138.186 47.667 138.096 47.3764 138.036 47.0792C137.937 46.7907 137.874 46.4916 137.847 46.188C137.847 45.8884 137.776 45.5808 137.768 45.2812V44.3585C137.768 44.0588 137.878 43.7592 137.925 43.4595C137.985 43.1587 138.07 42.8634 138.178 42.5763C138.264 42.2824 138.378 41.9973 138.517 41.7246C138.635 41.4527 138.772 41.1892 138.927 40.936C139.07 40.6648 139.228 40.4016 139.4 40.1474C139.74 39.6444 140.117 39.1673 140.528 38.72C140.939 38.2634 141.384 37.8389 141.86 37.4504L142.01 38.239L140.82 37.8999L139.645 37.4819C139.258 37.3163 138.856 37.1665 138.493 36.9694C138.115 36.7849 137.749 36.5768 137.397 36.3464C137.036 36.1199 136.691 35.8696 136.364 35.5972C136.04 35.3231 135.739 35.0223 135.465 34.6982C135.171 34.3732 134.907 34.0221 134.676 33.6494L134.353 33.0816L134.093 32.4744C133.789 31.6715 133.619 30.8244 133.588 29.9666C133.557 29.1061 133.634 28.2451 133.817 27.4037C133.992 26.5764 134.24 25.7662 134.558 24.9827C134.716 24.5884 134.889 24.1941 135.079 23.8314C135.268 23.4686 135.465 23.0901 135.709 22.7037L136.498 23.6973L135.094 24.2099L133.667 24.6515C133.178 24.7856 132.689 24.896 132.2 25.0143C131.711 25.1325 131.214 25.2035 130.71 25.2587C130.205 25.3285 129.697 25.3706 129.188 25.3849C128.662 25.4139 128.136 25.4139 127.611 25.3849C127.097 25.3476 126.586 25.2791 126.081 25.1799C125.571 25.0773 125.068 24.943 124.574 24.7777C124.083 24.6025 123.603 24.3944 123.139 24.1547C122.673 23.9126 122.227 23.6331 121.807 23.3188C120.966 22.6995 120.217 21.964 119.583 21.1344C118.953 20.3173 118.424 19.4277 118.005 18.4847C117.792 18.017 117.605 17.5379 117.446 17.0494C117.275 16.5517 117.138 16.0433 117.036 15.5274L118.51 15.6378C118.329 16.1268 118.163 16.6236 117.966 17.1046C117.764 17.5915 117.538 18.0678 117.288 18.532C117.058 19.005 116.794 19.4609 116.499 19.8963C116.19 20.338 115.853 20.7594 115.49 21.158C115.113 21.5512 114.707 21.915 114.275 22.2463C114.063 22.4175 113.836 22.5705 113.597 22.7037C113.37 22.8554 113.133 22.9924 112.887 23.1137C112.397 23.3578 111.888 23.5635 111.365 23.7288L110.577 23.926L109.788 24.0679C109.265 24.1345 108.738 24.1635 108.211 24.1547C107.684 24.1557 107.157 24.1215 106.634 24.0522C106.104 23.9892 105.577 23.8971 105.057 23.7762C104.544 23.6658 104.039 23.5238 103.543 23.3661C102.555 23.0568 101.59 22.6773 100.656 22.2305C100.183 22.0176 99.7258 21.781 99.2763 21.5365C98.8268 21.2921 98.3852 21.0318 97.9199 20.7479L98.953 19.8095C99.1817 20.2827 99.4262 20.7401 99.6312 21.229C99.8423 21.7109 100.029 22.2031 100.191 22.7037L100.428 23.4923L100.601 24.2809C100.707 24.8021 100.786 25.3286 100.838 25.858C100.868 26.3833 100.868 26.91 100.838 27.4352C100.814 27.9649 100.75 28.4921 100.648 29.0124L100.475 29.801L100.238 30.5896C100.066 31.0968 99.8606 31.592 99.6233 32.0722C99.3932 32.5501 99.1297 33.0113 98.8347 33.4522C98.5461 33.8832 98.2355 34.2991 97.9042 34.6982C97.5651 35.1083 97.2181 35.4868 96.8553 35.8732C96.4926 36.2596 96.1062 36.5987 95.7198 36.9457C94.9334 37.6222 94.1036 38.2465 93.2357 38.8147C92.7993 39.0986 92.3577 39.3614 91.9108 39.6033C91.4535 39.8556 91.004 40.0922 90.5071 40.313L90.5623 39.3746C90.933 39.6269 91.3509 39.8556 91.6821 40.1159C92.0134 40.3761 92.4077 40.6442 92.731 40.9597L93.2357 41.417L93.701 41.906C94.0043 42.2421 94.2886 42.5949 94.5526 42.9627C94.8136 43.3376 95.0481 43.7302 95.2545 44.1377C95.4639 44.5391 95.6431 44.9556 95.7907 45.3837L95.9879 46.0382L96.1298 46.7006C96.2135 47.146 96.2662 47.5965 96.2875 48.0491C96.3435 49.8362 96.0322 51.6157 95.3728 53.2775C94.7445 54.9234 93.8984 56.4776 92.8572 57.8987L92.6285 57.5833L93.1568 57.4334C93.3382 57.3782 93.5196 57.3546 93.701 57.3151C94.0558 57.2363 94.4186 57.2126 94.7813 57.1653C95.5062 57.122 96.233 57.122 96.9579 57.1653C98.3998 57.2418 99.8324 57.4423 101.24 57.7646Z" fill="white"/>
</svg>
