<svg width="130" height="200" viewBox="0 0 130 200" fill="none" xmlns="http://www.w3.org/2000/svg">
<g opacity="0.1">
<path d="M129.932 192.585L116.732 190.115L63.4715 181.265L13.4515 190L0.0515137 194.235L85.4565 199.945L129.932 192.585Z" fill="#2B2B2B"/>
</g>
<path d="M36.29 53.36L19.42 64.975L18.325 78.78L29.865 99.29L109.255 92.205L106.81 61.385L98.395 56.285L36.29 53.36Z" fill="#B8C645"/>
<path d="M98.395 56.285L36.29 53.36L19.42 64.975L18.325 78.78L28.015 72.11L99.91 66.135L106.81 61.385L98.395 56.285Z" fill="#E8EF78"/>
<g opacity="0.99">
<path d="M100.375 76.8665L97.9125 31.1825L87.998 27.8635L65.255 13.545L41.1445 31.093L34.2 34.403L32.577 73.8035L100.375 76.8665Z" fill="#2B2B2B"/>
</g>
<path d="M105.125 174.355L103.07 118.79L99.91 99.9399L71.02 88.1899L33.6915 108.347L20.165 181.32L32.81 192.335L105.63 192.525L117.07 190.055L105.125 174.355Z" fill="#446024"/>
<path d="M33.8475 108.285L25.51 99.865L13.77 190.055L22.165 184.549L26.475 176.765L33.8475 108.285Z" fill="#5A753C"/>
<path d="M32.81 192.334L13.77 190.054L26.475 176.764L32.81 192.334Z" fill="#6F9D52"/>
<path d="M93.9925 164.213L77.785 172.525L80.1945 184.49H88.5695L94.055 179.735L93.9925 164.213Z" fill="#3E8F6E"/>
<path d="M94.0555 179.735L104.465 190.055C104.465 190.055 105.375 190.004 101 190.065C96.625 190.125 93.53 190.085 93.53 190.085L79.9505 190.055L80.195 184.49L94.0555 179.735Z" fill="#53AF8A"/>
<path d="M104.465 194.665H79.9505V190.055H100.625L108.75 186.995L104.465 194.665Z" fill="#3E8F6E"/>
<path d="M94.055 165.9L79.1345 178.635L77.785 172.525L75.895 163.866L93.982 157.9L94.055 165.9Z" fill="#35785D"/>
<path d="M56.36 173.315L53.805 183.491L45.425 184.491L37.91 181.32L39.27 169.51L39.44 168.035L56.36 173.315Z" fill="#3E8F6E"/>
<path d="M37.91 181.32L32.81 192.335H54.155L53.805 183.49L37.91 181.32Z" fill="#53AF8A"/>
<path d="M54.155 196.165H32.81V192.335L43.485 189.055L54.155 192.335V196.165Z" fill="#3E8F6E"/>
<path d="M39.315 169.785L55.025 178.635L56.36 173.315L60.5325 159.27L40.232 160.454L39.315 169.785Z" fill="#35785D"/>
<path d="M93.9849 77.5549L99.91 66.01L121.095 97.8852L93.3251 108.7L91.2042 102.57L93.9849 77.5549Z" fill="#5A753C"/>
<path d="M41.22 67.1949L60.52 77.3049L78.035 90.8099L68.6155 127.174H43.31V118.665L32.81 91.5649L41.22 67.1949Z" fill="#5A753C"/>
<path d="M71.02 88.065L68.595 118.665L68.615 127.175H93.985L94.055 115.29L99.91 66.01L87.535 64.85L87.095 69.995L81.835 69.75L79.07 81.64L71.02 88.065Z" fill="#6F9D52"/>
<path d="M68.615 127.3L56.3599 165.9L69.1894 176.141L94.1174 165.775L93.9845 128.31L82.5095 130.985L68.615 127.3Z" fill="#5A753C"/>
<path d="M42.69 136.41L39.1899 169.223L69.1899 176.14L68.6155 127.3L42.69 136.41Z" fill="#6F9D52"/>
<path d="M43.31 127.3L93.985 127.3L93.985 136.82L42.69 136.411L43.31 127.3Z" fill="#99C26C"/>
<path d="M25.51 99.74L28.015 71.985L47.495 65.42L42.65 82.705L44.385 103.265L25.51 99.74Z" fill="#738D56"/>
<path d="M70.795 83.455L77.785 76.2L81.835 69.75L89.205 70.82L88.56 81.705L71.02 88.065L66.86 84.345L70.795 83.455Z" fill="#35785D"/>
<path d="M70.795 83.455L71.02 88.065L42.65 82.705L41.22 67.57L47.495 65.795L54.605 73.135L70.795 83.455Z" fill="#53AF8A"/>
<path d="M89.205 70.945L56.36 69.4L47.06 62.755L42.65 12.32L93.995 10.11L89.205 70.945Z" fill="#DFBCA4"/>
<path d="M84.26 70.715L50.6555 66.295L46.62 17.235L40.58 7.625L45.86 69.04L47.0605 76.68L70.7945 83.58L83.1455 77.505L84.26 70.715Z" fill="#C3977A"/>
<path d="M72.155 79.6796L84.26 70.7146L45.86 69.0396L72.155 79.6796Z" fill="#8A6651"/>
<path d="M54.245 0L45.86 6.3895L35.175 9.055L34.1545 34.625L43.3895 41.865L47.4395 10.94L71.41 21.7295L93.575 14.4745L92.2495 32.2895L97.98 31.3L100.135 12.3195L89.205 7.625L82.88 0H54.245Z" fill="#4F5252"/>
<path d="M54.245 0L35.175 9.0555L46.62 17.235L71.41 21.73L54.245 0Z" fill="#6E7073"/>
<path d="M49.645 53.985L90.355 56.35L89.205 70.945L50.635 69.25L49.645 53.985Z" fill="#C3977A"/>
<path d="M82.88 0L71.41 21.73L93.38 17.065L100.135 12.32L82.88 0Z" fill="#464646"/>
<path d="M49.6451 53.985L44.3851 51.875L45.8601 69.04L50.6351 69.25L49.6451 53.985Z" fill="#8A6651"/>
<path d="M58.056 59.7476L59.996 61.6826H71.531" fill="#8A6651"/>
<path d="M58.056 59.7476L59.996 61.6826H71.531" stroke="#8A6651" stroke-width="4" stroke-miterlimit="10"/>
<path d="M56.791 58.4925L60.521 58.0625L56.361 62.1025L56.791 58.4925Z" fill="#8A6651"/>
<path d="M65.7 50.225L70.515 53.525L75.335 50.225H65.7Z" fill="#8A6651"/>
<path d="M50.635 37.585L60.71 40.68L65.7 50.225L68.54 34.805L54.19 33.505L50.635 37.585Z" fill="#C3977A"/>
<path d="M75.335 50.225L82.495 40.68L90.395 37.585L86.8455 35.35L80.3245 34.625L72.49 34.805V44.365L75.335 50.225Z" fill="#C3977A"/>
<path d="M75.335 50.2251L70.515 51.4401L65.7 50.2251L68.54 34.8051H72.4905L75.335 50.2251Z" fill="#E8C9B6"/>
<path d="M72.49 34.805L86.845 35.35L90.395 37.585L86.845 31.66L80.2175 33.112L72.49 34.805Z" fill="#464646"/>
<path d="M68.54 34.805L54.19 35.35L50.635 37.585L54.19 31.66L68.54 34.805Z" fill="#464646"/>
<path d="M80.3255 38.24C81.6725 38.24 82.7655 39.3325 82.7655 40.68C82.7655 42.0275 81.6725 43.12 80.3255 43.12C78.978 43.12 77.8845 42.0275 77.8845 40.68C77.8845 39.3325 78.978 38.24 80.3255 38.24Z" fill="#2B2B2B"/>
<path d="M58.44 38.24C59.7875 38.24 60.88 39.3325 60.88 40.68C60.88 42.0275 59.7875 43.12 58.44 43.12C57.0925 43.12 56 42.0275 56 40.68C56 39.3325 57.0925 38.24 58.44 38.24Z" fill="#2B2B2B"/>
<path d="M82.6801 79.6794H88.1851V192.615H82.6801V79.6794Z" fill="#C4C4C4"/>
<path d="M85.4306 74.22C88.2581 74.22 90.5501 76.512 90.5501 79.34C90.5501 82.168 88.2581 84.46 85.4306 84.46C82.6031 84.46 80.3101 82.168 80.3101 79.34C80.3101 76.512 82.6031 74.22 85.4306 74.22Z" fill="#DDDDDC"/>
<path d="M76.405 194.58L85.23 198.65L90.55 189.93L88.1855 113.805L76.405 113.87V194.58Z" fill="#C4C4C4"/>
<path d="M94.055 113.87H85.43L85.23 198.65L94.055 194.58V113.87Z" fill="#9DA0A1"/>
<path d="M103.07 118.665L108.331 112.6L103.07 107.34L98.085 112.325H89.2055L85.43 108.545L81.655 112.325H73.5805L68.5955 107.34L62.5345 112.6L68.5955 118.665L71.5245 115.29H81.655L85.43 119.065L89.2055 115.29H100.145L103.07 118.665Z" fill="#DDDDDC"/>
<path d="M25.51 99.74L43.31 118.665L72.865 113.74L73.87 104.825L70 100.95L25.51 99.74Z" fill="#53AF8A"/>
<path d="M121.095 97.8852L95.7742 100.82L91.2046 106.005L94.4041 112.325L106.964 114.12L121.095 97.8852Z" fill="#53AF8A"/>
<path d="M72.865 113.74L70 100.95L82.555 97.1699L72.865 113.74Z" fill="#DFBCA4"/>
<path d="M82.5555 97.1694L80.3105 105.455L81.3655 112.325H94.405L95.7745 100.82L82.5555 97.1694Z" fill="#DFBCA4"/>
<path d="M82.555 97.1694L81.365 112.325L72.865 113.74L74.3995 104.134L82.555 97.1694Z" fill="#C3977A"/>
</svg>
