<svg width="130" height="200" viewBox="0 0 130 200" fill="none" xmlns="http://www.w3.org/2000/svg">
<path d="M108.265 93.01L112.46 81.7951L119.065 84.1101L124.98 89.5101L113.19 99.9951L107.996 100.58L108.265 93.01Z" fill="#DFBCA4"/>
<path d="M115.125 89.3101L111.065 78.135L107.535 78.205L108.265 93.01L105.903 101.108L111.52 96.64L115.125 89.3101Z" fill="#C3977A"/>
<path d="M112.46 81.795L122.8 71.0251L129.35 77.1501L124.98 89.5101L112.46 81.795Z" fill="#C3977A"/>
<path d="M78.35 81.595L89.005 90.83L86.7145 97.25L80.22 104.87L64.454 121.043L68.912 96.7575L78.35 81.595Z" fill="#3E8F6E"/>
<path d="M89.005 90.83L103.029 102.205L100.484 107.49L87.27 109.82L80.2205 104.87L89.005 90.83Z" fill="#99C26C"/>
<path d="M87.27 109.82L108.29 92.78L119.195 104.11L99.21 118.13L87.27 109.82Z" fill="#738D56"/>
<g opacity="0.1">
<path d="M129.705 192.54L61.19 187.23L0.719971 193.16L61.33 200L129.705 192.54Z" fill="black"/>
</g>
<path d="M43.585 188.044L30.56 193.149L28.29 188.109L30.125 179.714L34.15 178.204L40.145 180.099L43.585 188.044Z" fill="#4F5252"/>
<path d="M93.035 181.31L87.89 190.645L77.745 185.38L76.895 179.57L86.055 175.315L93.035 181.31Z" fill="#4F5252"/>
<g opacity="0.1">
<path d="M86.425 175.629L77.7455 185.379L76.895 179.569L79.8905 176.345L86.425 175.629Z" fill="black"/>
</g>
<g opacity="0.1">
<path d="M30.125 179.715L35.39 178.205L40.145 180.1L29.035 184.7L30.125 179.715Z" fill="black"/>
</g>
<path d="M86.3905 189.145L77.7455 185.38L78.385 192.4L105.694 192.63L105.545 185.075L93.035 181.31L86.3905 189.145Z" fill="#6E7073"/>
<path d="M48.7299 195.939L48.5849 187.809L36.5799 186.544L31.3899 191.834L28.2899 188.109L27.9399 195.939H48.7299Z" fill="#6E7073"/>
<path d="M79.37 129.68L91.4645 166.31L82.69 174.299L72.67 173.34L68.18 159.75L59.705 154.23L47.815 173.34L40.1455 178.205L27.53 172.39L27.655 135.78L34.2705 117.75L79.37 129.68Z" fill="#53AF8A"/>
<path d="M75.855 132.44L88.58 168.505L83.775 170.945L69.645 139.12L75.855 132.44Z" fill="#3E8F6E"/>
<path d="M66.97 147.45L78.615 172.774L72.6695 173.34L59.705 154.23L60.675 138.975L66.97 147.45Z" fill="#3E8F6E"/>
<path d="M52.685 148.66L43.255 174.319L38.235 173.799L46.16 139.504L52.685 148.66Z" fill="#3E8F6E"/>
<path d="M41.37 132.775L34.39 174.49L30.025 172.624L31.62 141.4L41.37 132.775Z" fill="#3E8F6E"/>
<path d="M91.465 166.31L72.67 173.34L76.895 179.57L93.845 173.52L91.465 166.31Z" fill="#35785D"/>
<path d="M47.815 173.34L27.53 172.39L27.505 179.57L43.485 180.3L47.815 173.34Z" fill="#35785D"/>
<path d="M66.97 147.45L59.705 154.23L52.685 148.66L60.675 135.475L66.97 147.45Z" fill="#35785D"/>
<path d="M2.29498 118.35L22.105 131.75L27.505 120.94L2.29498 118.35Z" fill="#4F5252"/>
<path d="M8.85999 65.0449L51.635 65.4249L64.3725 66.2904L44.695 74.3299L28.36 74.9799L8.85999 65.0449Z" fill="#C4C4C4"/>
<path d="M28.725 71.6799L8.85998 65.0449L7.12998 79.1249L7.02998 89.8249L4.77498 98.2249L2.29498 118.35L34.795 123.01L28.725 71.6799Z" fill="#6E7073"/>
<path d="M45.695 69.5749L28.725 71.6799L27.905 79.1149L25.095 121.875L55.08 115.32L61.702 66.4839L45.695 69.5749Z" fill="#4F5252"/>
<path d="M7.12996 79.1249L12.1 82.2699L19.275 83.5499L16.295 103.62L4.77496 98.2249L5.86996 89.3449L7.39996 85.6099L7.12996 79.1249Z" fill="#9DA0A1"/>
<path d="M19.275 83.5499L5.87 89.3449L7.12999 79.1249L19.275 83.5499Z" fill="#C4C4C4"/>
<path d="M73.145 82.7L80.22 104.87L79.37 129.68L66.97 147.45L60.675 138.975L52.685 148.66L38.205 128.33L27.505 126.66L29.44 106.195L44.432 74.4245L58.892 72.168L73.145 82.7Z" fill="#738D56"/>
<path d="M62.13 104.109L53.41 127.84L60.675 133.41L68.425 128.079L62.13 104.109Z" fill="#4F5252"/>
<path d="M68.425 128.08L53.41 127.84L60.675 138.975L68.425 128.08Z" fill="#464646"/>
<path d="M69.77 95.685L62.13 104.11L54.89 94.615L62.855 93.215L69.77 95.685Z" fill="#464646"/>
<path d="M33.795 102.11V86.97L27.905 79.115L13.34 112.465L23.57 111.94L29.44 108.7L33.795 102.11Z" fill="#5A753C"/>
<path d="M44.695 74.33L27.905 79.115L33.795 102.11L44.695 74.33Z" fill="#3E8F6E"/>
<path d="M38.205 128.33L41.37 132.775L31.62 141.4L27.655 135.779L30.025 129.315L38.205 128.33Z" fill="#C3977A"/>
<path d="M13.34 112.464L24.845 137.765L38.205 128.329L29.44 108.7L13.34 112.464Z" fill="#99C26C"/>
<path d="M62.855 93.215L55.39 80.06L44.695 74.33L42.685 103.12L62.855 93.215Z" fill="#99C26C"/>
<path d="M78.35 81.595L65.895 84.235L62.855 93.215L80.22 104.87L78.35 81.595Z" fill="#99C26C"/>
<path d="M50.99 0L21.21 26.875L68.18 21.0045L50.99 0Z" fill="#3E8F6E"/>
<path d="M76.17 70.9399L68.1805 77.3649V89.3449L78.3495 81.5949L76.17 70.9399Z" fill="#5A753C"/>
<path d="M47.85 59.345L44.695 74.33L54.06 84.07L53.41 71.91L47.85 59.345Z" fill="#5A753C"/>
<path d="M29.44 62.9499L47.85 59.3449L48.845 54.0399L45.66 48.1799L38.305 52.8499L29.44 62.9499Z" fill="#35785D"/>
<path d="M107.689 27.5649L99.9995 43.8349L97.5395 64.2349L112.004 57.1399L111.279 31.4749L110.734 28.2349L107.689 27.5649Z" fill="#3E8F6E"/>
<path d="M102.685 43.335L107.255 59.47L97.5399 64.235L98.9149 57.955L102.29 56.235L101.04 51.59L102.685 43.335Z" fill="#99C26C"/>
<path d="M107.69 27.5649L101.312 50.6149L99.496 57.1739L94.815 74.0899L76.17 70.9399L66.645 85.7399L62.855 93.2149L58.92 80.1399L45.66 48.1799L69.8655 26.1249L95.3 14.0449L107.69 27.5649Z" fill="#DFBCA4"/>
<path d="M90.4105 16.3649L107.799 27.6849L101.665 18.1899L95.2995 12.0449L91.0955 13.2399L90.4105 16.3649Z" fill="#8A6651"/>
<path d="M69.865 26.125L60.9795 67.74L68.5445 74.09L72.1745 80.14L68.18 89.345L62.8545 93.215L54.06 84.07L47.85 59.345L48.8445 54.04L45.6595 48.18L69.865 26.125Z" fill="#C3977A"/>
<path d="M69.8655 26.125L61.01 40.665L52.235 46.275L61.4 49.875L47.8505 59.345L45.6595 48.18L54.485 38.565L69.8655 26.125Z" fill="#8A6651"/>
<path d="M60.745 34.4349L61.4 49.8749L41.865 51.6349L39.555 40.6499L43.2595 37.9964L46.69 46.2849L57.285 45.7599L56.58 37.2699L60.745 34.4349Z" fill="#99C26C"/>
<path d="M76.17 70.94L54.26 66.325L72.175 80.14L76.17 70.94Z" fill="#8A6651"/>
<path d="M69.865 26.125L41.865 35.795L22.905 48.425L29.4395 62.95L69.865 26.125Z" fill="#3E8F6E"/>
<path d="M51.0228 0.0222616L23.19 28.9091L69.6361 19.7765L51.0228 0.0222616Z" fill="#3E8F6E"/>
<path d="M21.2095 26.875L8.8595 38.5L22.9045 48.425L24.0695 35.795L21.2095 26.875Z" fill="#3E8F6E"/>
<path d="M50.9905 0.000488281L63.33 19.5805L95.2995 14.0455V9.78999L89.7305 0.245488L50.9905 0.000488281Z" fill="#71C8A6"/>
<path d="M95.2995 14.045L111.28 31.475L119.995 20.8245L89.73 0.244995L95.2995 14.045Z" fill="#53AF8A"/>
<path d="M95.2995 14.0449L22.9045 48.4249L21.2095 26.8749L95.2995 14.0449Z" fill="#53AF8A"/>
<path d="M85.81 48.63L82.6 34.145L78.835 26.875L88.52 26.635L88.77 31L85.81 48.63Z" fill="#C3977A"/>
<path d="M92.895 31.755L95.3 28.085L103.53 32.205L90.78 43.5L92.895 31.755Z" fill="#C3977A"/>
<path d="M89.72 49.375L87.1745 51.725L85.81 48.63L89.72 49.375Z" fill="#8A6651"/>
<path d="M92.895 31.755L89.72 49.375L85.81 48.63L88.77 31L92.895 31.755Z" fill="#E8C9B6"/>
<path d="M95.3 28.085L100.865 27.12L103.53 32.205L95.3 28.085Z" fill="#3E8F6E"/>
<path d="M88.52 26.635L84.405 23.97L78.835 26.875L88.52 26.635Z" fill="#3E8F6E"/>
<path d="M96.45 58.8349L84.285 66.3249L72.915 54.6849L96.45 58.8349Z" fill="#738D56"/>
<path d="M93.42 59.04L87.285 59.2535L85.81 59.305L83.682 58.5605L75.865 55.825L82.3745 61.84L87.0145 62.62L93.42 59.04Z" fill="white"/>
<path d="M96.45 58.8349L86.48 55.5649L72.915 54.6849L83.908 58.9344L85.81 59.6699L96.45 58.8349Z" fill="#446024"/>
<path d="M100.345 39C100.345 40.3805 99.2254 41.5 97.8449 41.5C96.4639 41.5 95.3449 40.3805 95.3449 39C95.3449 37.6195 96.4639 36.5 97.8449 36.5C99.2254 36.5 100.345 37.6195 100.345 39Z" fill="#2B2B2B"/>
<path d="M84.125 35.35C84.125 36.7305 83.006 37.85 81.6249 37.85C80.2439 37.85 79.1249 36.7305 79.1249 35.35C79.1249 33.969 80.2439 32.85 81.6249 32.85C83.006 32.85 84.125 33.969 84.125 35.35Z" fill="#2B2B2B"/>
</svg>
