<svg width="180" height="200" viewBox="0 0 180 200" fill="none" xmlns="http://www.w3.org/2000/svg">
<g opacity="0.1">
<path d="M26.835 191.22L74.485 185.93L132.18 192.73L67.72 200L26.835 191.22Z" fill="#2B2B2B"/>
</g>
<path d="M63.58 167.75L60.125 180.6L55.59 185.065L53.36 182.22L52.03 163.575L53.575 151.99L63.58 167.75Z" fill="#C3977A"/>
<path d="M54.62 160.375L64.625 163.72L63.58 167.75L52.03 163.575L54.62 160.375Z" fill="#8A6651"/>
<path d="M85.175 144.14L85.785 163.935L85.065 177.4L80.675 183.66L77.69 178.765L74.63 167.75L85.175 144.14Z" fill="#C3977A"/>
<path d="M78.05 158.035L85.785 163.935L74.63 167.75L73.515 163.795L78.05 158.035Z" fill="#8A6651"/>
<path d="M79.885 193.055L77.76 193.02L76.36 184.524L77.69 178.765L82.73 182.149L81.65 185.529L79.885 193.055Z" fill="#734D5F"/>
<path d="M53.36 182.22L50.05 189.49L52.495 195.825L53.36 182.22Z" fill="#734D5F"/>
<path d="M60.125 180.6L62.645 185.565L59.335 189.705L52.64 191L53.36 182.22L60.125 180.6Z" fill="#DFBCA4"/>
<path d="M52.64 191L62.645 185.565L63.87 187.765L61.745 191L52.495 193.27L52.64 191Z" fill="#95627B"/>
<path d="M52.495 193.27L63.87 187.765L67.395 193.27L61.815 194.315L52.495 193.27Z" fill="#95627B"/>
<path d="M85.065 177.29L90.825 183.515L87.84 186.755L83.305 188.375L77.69 178.765L85.065 177.29Z" fill="#DFBCA4"/>
<path d="M83.305 188.375L90.825 183.515L92.59 185.245L89.89 188.265L84.49 189.925L83.305 188.375Z" fill="#95627B"/>
<path d="M84.49 190.424L92.59 185.245L98.025 190.424L90.86 191.504L84.49 190.424Z" fill="#95627B"/>
<path d="M52.495 195.825H67.395V193.27H52.495V195.825Z" fill="#734D5F"/>
<path d="M81.65 185.53L80.53 186.575L81 187.655L86.29 193.16H98.025V190.425H88.27L81.65 185.53Z" fill="#734D5F"/>
<path d="M40.655 156.45L67 150.475L95.72 157.17L88.595 132.375L73.55 115.06L49.58 137.195L47.6 139.07L40.655 156.45Z" fill="#532F42"/>
<path d="M145.79 96.0748L141.18 99.4299L137.7 97.4999L137.7 92.8749L145.79 96.0748Z" fill="#8A6651"/>
<path d="M131.875 87.4199L145.385 85.9199L145.79 96.0749L131.51 93.8899L131.875 87.4199Z" fill="#C3977A"/>
<path d="M133.13 96.7599L175.595 67.9248L177.535 70.7548L134.83 99.4299L133.13 96.7599Z" fill="#9DA0A1"/>
<path d="M131.795 97.3249L133.13 96.7599L134.83 99.4299L133.98 100.52L131.795 97.3249Z" fill="#4F5252"/>
<path d="M175.595 67.9248L176.89 65.8998L179.845 70.0248L177.535 70.7548L175.595 67.9248Z" fill="#4F5252"/>
<path d="M130.58 88.7949L142.915 91.3399L141.62 94.2949L130.055 94.7399L130.58 88.7949Z" fill="#DFBCA4"/>
<path d="M132.575 85.155L121.165 86.45L117.1 91.2L118.395 96.67L131.169 99.335L132.575 85.155Z" fill="#95627B"/>
<path d="M104.035 85.91L121.165 86.45L118.395 96.67L103.605 100.52L104.035 85.91Z" fill="#734D5F"/>
<path d="M81.83 89.47L86.905 88.215L89.135 85.405L104.035 85.91L112.205 93.575L103.605 100.52L84.275 105.345L81.83 89.47Z" fill="#734D5F"/>
<path d="M0.884979 63.235L16.29 84.11L20.61 84.255L24.53 71.26L22.265 66.15L0.884979 63.235Z" fill="#464646"/>
<path d="M82.73 48.225L33.6 89.365L16.29 84.11L35.615 26.02L82.73 48.225Z" fill="#4F5252"/>
<path d="M82.73 48.2251L77.15 66.8351L33.6 89.3651L56.13 35.7051L82.73 48.2251Z" fill="#464646"/>
<path d="M88.8105 11.48L101.549 28.47L91.0805 54.6L80.7505 10.475L88.8105 11.48Z" fill="#464646"/>
<path d="M89.28 9.14001L101.55 28.47L80.75 10.475L89.28 9.14001Z" fill="#464646"/>
<path d="M59.765 86.52L37.27 33.94L50.12 24.795L63.47 40.705L77.835 74.215L72.94 97.03L59.765 86.52Z" fill="#C3977A"/>
<path d="M86.685 15.585L94.355 72.52L63.075 78.1L49.545 24.975L86.685 15.585Z" fill="#DFBCA4"/>
<path d="M77.655 75.4L72.94 97.14L59.66 78.46L77.655 75.4Z" fill="#8A6651"/>
<path d="M46.34 31.0601L55.015 46.5001L52.57 48.6601L54.295 69.4601L55.985 77.7751L31.225 39.1201L46.34 31.0601Z" fill="#464646"/>
<path d="M52.57 48.66L45.155 50.855L49.11 60.75L55.66 58.055L52.57 48.66Z" fill="#DFBCA4"/>
<path d="M51.235 51.36L47.635 52.4L51.955 55.065L51.235 51.36Z" fill="#8A6651"/>
<path d="M53.07 56.72L54.905 62.3L51.955 63.2L50.515 57.55L53.07 56.72Z" fill="#734D5F"/>
<path d="M47.17 96.165L39.43 99.945L36.445 118.7L47.6 125.535L52.17 123.485L53.29 118.05L54.045 107.29L45.875 89.76L47.17 96.165Z" fill="#734D5F"/>
<path d="M40.585 92.53L39.43 99.945L50.985 105.67L53.505 103.185L50.91 84.83L41.41 87.135L40.585 92.53Z" fill="#734D5F"/>
<path d="M36.445 118.7L47.6 125.536L52.17 123.485L53.29 118.05L36.445 118.7Z" fill="#734D5F"/>
<path d="M64.625 163.72L49.87 136.98L53.105 129.025L73.765 111.57L87.405 128.63L85.785 163.935L64.625 163.72Z" fill="#95627B"/>
<path d="M52.03 163.575L49.87 136.98L53.105 129.024L73.765 111.569L78.155 125.93L64.625 163.72L52.03 163.575Z" fill="#734D5F"/>
<path d="M47.025 89.9395L50.91 84.83L52.82 84.11L62.645 89.725L73.155 94.765L76.68 101.134L73.585 117.795L66.35 126.365L50.015 138.345L53.29 118.05L47.025 89.9395Z" fill="#95627B"/>
<path d="M87.225 118.805L91.365 135.069L78.155 125.93L82.475 133.635L73.585 117.794L73.155 94.7649L81.865 88.3199L79.85 84.1799L87.625 86.1249L88.99 88.3949L87.225 118.805Z" fill="#B3879D"/>
<path d="M70.815 104.375L73.335 101.89L75.42 104.445L73.37 107L70.815 104.375Z" fill="#D1A0B8"/>
<path d="M70.995 113.585L73.48 111.21L75.64 113.73L73.585 116.14L70.995 113.585Z" fill="#D1A0B8"/>
<path d="M66.35 126.365L40.655 156.451L39.9 135.685L53.29 118.05L66.35 126.365Z" fill="#B3879D"/>
<path d="M87.225 118.806L97.88 141.121L95.72 157.17L82.475 133.635L78.155 125.931L87.225 118.806Z" fill="#D1A0B8"/>
<path d="M78.155 125.93L66.35 126.365L73.585 117.794L78.155 125.93Z" fill="#D1A0B8"/>
<path d="M75.17 67.3L70.205 65.5L75.455 63.92L79.345 64.71L83.59 64.135L85.105 64.35L78.12 67.52L75.17 67.3Z" fill="white"/>
<path d="M85.105 64.35L78.085 62.045L70.205 65.5L78.006 64.898L85.105 64.35Z" fill="#734D5F"/>
<path d="M77.69 69.1751L85.105 64.3501L78.155 66.2201L70.205 65.5001L77.69 69.1751Z" fill="#B3879D"/>
<path d="M77.905 40.0951L81.505 55.4251L76 56.2551L73.73 40.6351L77.905 40.0951Z" fill="#E8C9B6"/>
<path d="M78.445 58.775L81.505 55.425L76 56.255L78.445 58.775Z" fill="#8A6651"/>
<path d="M63.255 42.035L73.73 40.635L76 56.255L63.255 42.035Z" fill="#C3977A"/>
<path d="M80.71 51.97L86.005 38.115L77.905 40.095L80.71 51.97Z" fill="#C3977A"/>
<path d="M61.89 38.655L70.995 41L58.975 42.435L61.89 38.655Z" fill="#464646"/>
<path d="M88.34 37.395L77.905 40.095L86.22 33.795L88.34 37.395Z" fill="#464646"/>
<path d="M52.82 84.11L41.41 87.095L40.585 92.495V92.53L55.305 87.635L52.82 84.11Z" fill="#B3879D"/>
<path d="M76.97 78.0651L79.85 84.1801L81.61 86.7351L81.865 88.3201L78.195 93.8301L73.155 94.7651L76.97 78.0651Z" fill="#734D5F"/>
<path d="M52.82 84.11L55.88 77.525L73.155 94.765L60.235 94.73L52.82 84.11Z" fill="#734D5F"/>
<path d="M79.85 84.1801L89.135 85.4051L88.99 88.3951L81.865 88.3201L81.18 86.8801L79.85 84.1801Z" fill="#D1A0B8"/>
<path d="M84.45 40.5699C83.177 40.5699 82.145 41.6019 82.145 42.8749C82.145 44.1479 83.177 45.1799 84.45 45.1799C85.723 45.1799 86.755 44.1479 86.755 42.8749C86.755 41.6019 85.723 40.5699 84.45 40.5699Z" fill="#2B2B2B"/>
<path d="M67.07 43.5649C65.797 43.5649 64.765 44.5969 64.765 45.8699C64.765 47.1429 65.797 48.1749 67.07 48.1749C68.343 48.1749 69.375 47.1429 69.375 45.8699C69.375 44.5969 68.343 43.5649 67.07 43.5649Z" fill="#2B2B2B"/>
<path d="M84.525 0L35.615 26.02L25.61 37.395L55.015 46.5L93.92 14.8995L84.525 0Z" fill="#4F5252"/>
<path d="M84.525 0L33.0605 23.8995L25.61 37.395L84.525 0Z" fill="#464646"/>
<path d="M84.525 0L55.015 46.5L101.985 15.045L84.525 0Z" fill="#6E7073"/>
</svg>
