<svg width="152" height="200" viewBox="0 0 152 200" fill="none" xmlns="http://www.w3.org/2000/svg">
<g opacity="0.1">
<path d="M8.73 196.16L68.215 189.2L151.4 194.865L68.745 200L8.73 196.16Z" fill="black"/>
</g>
<path d="M119.325 109.425L111.445 110.845L111.145 80.945L112.625 78.6445L114.885 77.005L119.325 109.425Z" fill="#95627B"/>
<path d="M114.885 77.0049L111.145 80.9449L94.76 66.7049L94.8905 65.1149L96.405 64.4199L114.885 77.0049Z" fill="#B3879D"/>
<path d="M135.15 194.655L117.87 191.68L97.615 194.655V128.635L99.0995 123.435L97.615 114.065L135.15 104.565L133.43 131.225L135.15 155.16L132.974 177.35L135.15 194.655Z" fill="#90759F"/>
<path d="M135.15 104.565L97.615 113.505V128.635L135.15 155.16V104.565Z" fill="#584164"/>
<path d="M142.47 110.44L90.29 123.435V114.26L142.47 101.265V110.44Z" fill="#785D87"/>
<path d="M135.15 155.16L97.615 194.654H135.15V155.16Z" fill="#785D87"/>
<path d="M92.215 57.585L89.8505 61.44L86.96 64.85L84.25 60.24L87.065 56.335L92.215 57.585Z" fill="#B3879D"/>
<path d="M92.215 57.585L86.96 64.85L95.9955 67.78L97.775 65.355L92.215 57.585Z" fill="#95627B"/>
<path d="M52.12 162.4L59.35 172.175L69.425 169.65L76.77 163.695L68.745 132.98L54.795 154.265L52.12 162.4Z" fill="#785D87"/>
<path d="M59.35 172.175L68.215 184.79L79.185 182.181L80.96 179.4L76.77 163.695L59.35 172.175Z" fill="#584164"/>
<path d="M29.79 133.425L68.745 132.98L54.795 154.265L42.73 148.665L29.79 133.425Z" fill="#90759F"/>
<path d="M54.795 154.265L51.125 169.65L40.985 173.84L30.845 170.15L26.64 149.67L25.82 141.35L29.79 133.425L54.795 154.265Z" fill="#A687B9"/>
<path d="M51.125 169.65L47.865 183.505L41.78 186.65L33.81 186.115L30.845 170.15L51.125 169.65Z" fill="#785D87"/>
<path d="M47.865 183.505L52.315 193.895L43.1 194.895L33.565 193.895L33.81 186.115L47.865 183.505Z" fill="#95627B"/>
<path d="M80.96 179.399L93.66 191.365L78.92 192.365L68.455 191.365L68.215 184.789L80.96 179.399Z" fill="#95627B"/>
<path d="M33.565 193.895H52.315V197.165H33.565V193.895Z" fill="#532F42"/>
<path d="M68.455 191.365H93.66V194.635H68.455V191.365Z" fill="#532F42"/>
<path d="M71.19 82.84L76.285 98.08L74.795 112.215L65.39 118.77L65.317 115.53L64.875 95.875L71.19 82.84Z" fill="#B3879D"/>
<path d="M72.8605 109.55L74.795 112.215L85.5695 113.495L83.4855 124.495L66.895 125.34L65.8055 113.085L72.8605 109.55Z" fill="#95627B"/>
<path d="M72.425 111.12L71.81 116.855L79.435 124.065L85.57 113.495L79.8845 112.65L72.425 111.12Z" fill="#734D5F"/>
<path d="M78.2699 106.26L75.4699 103.246L85.7148 89.9655L88.2548 92.345L84.0949 99.4795L82.4099 104.65L78.2699 106.26Z" fill="#C3977A"/>
<path d="M78.2699 103.755L86.675 112.395L80.63 118.415L76.055 114.35L78.2699 103.755Z" fill="#C3977A"/>
<path d="M76.2849 98.08L73.5349 98.1751L72.425 111.12L76.055 114.35L78.2699 106.26L76.2849 98.08Z" fill="#DFBCA4"/>
<path d="M78.2699 106.259L84.0949 99.4794L90.0199 109.255L85.57 113.495L78.2699 106.259Z" fill="#E8C9B6"/>
<path d="M55.105 20.745L60.485 14.925L66.61 13.775L75.5 62.59L59.42 66.68L40.285 67.995L30.985 34.815L29.125 19.175L42.38 17.575L55.105 20.745Z" fill="#DFBCA4"/>
<path d="M51.79 70.175L75.5 62.59C63.8495 64.6101 52.199 66.6301 40.549 68.6506C38.0775 56.8671 35.606 45.0835 33.135 33.3L29.125 19.175L21.28 28.765L23.505 36.21L28.955 45.33L26.495 45.985L25.115 48.64L22.22 46.555L19.885 41.495L17.29 45.48L14.135 47.245L18.815 51.1L20.93 55.79L22.285 58.74L22.985 64.655L26.335 79.15L55.625 77.7551L51.79 70.175Z" fill="#C3977A"/>
<path d="M69.195 27.965L71.495 10.985L62.795 12.395L69.195 27.965Z" fill="#464646"/>
<path d="M25.115 48.64L26.335 51.43L20.93 55.79L14.135 47.245L19.885 41.495L25.115 48.64Z" fill="#DFBCA4"/>
<path d="M55.105 20.745L71.495 10.985L54.06 0L52.705 11.375L55.105 20.745Z" fill="#6E7073"/>
<path d="M55.105 20.745L54.06 0L8.73 17.085L18.51 20.075L29.125 19.175L55.105 20.745Z" fill="#8F8F8F"/>
<path d="M8.73 17.085L6.985 43.585L14.895 36.91L21.28 28.765L29.125 19.175L8.73 17.085Z" fill="#6E7073"/>
<path d="M21.28 28.765L28.955 45.33L25.115 48.64L19.885 41.495L14.135 47.245L6.985 43.585L21.28 28.765Z" fill="#464646"/>
<path d="M17.27 47.595L19.365 45.505L21.98 49.86L17.27 47.595Z" fill="#8A6651"/>
<path d="M20.93 55.79L24.77 52.65L23.05 64.93L20.93 55.79Z" fill="#8A6651"/>
<path d="M34.245 68.775L75.5 62.59L55.625 71.305V77.755L46.879 74.0815L34.245 68.775Z" fill="#8A6651"/>
<path d="M65.39 55.535L54.82 56.24L46.595 53.735L47.945 50.465L43.425 53.355L44.6 59.02L46.185 55.97L54.82 58.475L65.39 55.535Z" fill="#8A6651"/>
<path d="M58.415 27.545L56.845 31.38L56.61 35.36L58.62 40.235L67.485 25.8L63.3 21.095L58.415 27.545Z" fill="#C3977A"/>
<path d="M56.845 25.455L63.3 21.095L67.485 25.8L65.04 27.72L62.165 24.41L58.415 27.545L56.845 25.455Z" fill="#464646"/>
<path d="M37.32 31.205L48.025 36.765L54.235 47.595L53.49 37.52L51.79 32.08L37.32 31.205Z" fill="#C3977A"/>
<path d="M51.79 32.08L38.195 27.895L37.32 31.205L49.35 35.045L51.79 32.08Z" fill="#464646"/>
<path d="M56.845 31.38L59.81 46.2L57.445 47.8L54.235 47.595L51.79 32.08L56.845 31.38Z" fill="#E8C9B6"/>
<path d="M59.81 46.2L57.37 50.21L54.235 47.595L59.81 46.2Z" fill="#8A6651"/>
<path d="M56 78.1875L26.406 78.5625L25.125 81.4375L56 78.1875Z" fill="#C3987B"/>
<path d="M24.0325 80.435L24.707 90.1705L49.93 102.43L55.7585 77.849L26.319 79.194L24.0325 80.435Z" fill="#FDFDFD"/>
<path d="M26.43 78.8101L47.955 94.8351L35.57 104.675L20.325 114.07L15.145 102.245L11.625 86.9001L26.43 78.8101Z" fill="#95627B"/>
<path d="M55.625 77.755L71.19 82.84L66.445 98.625L57.695 100.495L47.955 94.835L55.625 77.755Z" fill="#95627B"/>
<path d="M20.325 114.069L24.56 128.935L29.79 133.424L52.21 135.72L52.315 113.495L47.955 94.8345L20.325 114.069Z" fill="#734D5F"/>
<path d="M47.955 94.8345L66.445 98.6245L68.745 132.979L52.21 135.72L47.955 94.8345Z" fill="#532F42"/>
<path d="M16.955 116.155L29.79 133.425L21.85 142.925L8.66 131.536L16.955 116.155Z" fill="#95627B"/>
<path d="M26.64 149.67L21.85 142.925L29.79 133.425L26.64 149.67Z" fill="#DFBCA4"/>
<path d="M11.625 86.9L0.145 124.241L8.66 131.535L20.325 114.07L11.625 86.9Z" fill="#B3879D"/>
<path d="M64.91 32.9299C64.91 34.0979 63.963 35.0449 62.795 35.0449C61.627 35.0449 60.68 34.0979 60.68 32.9299C60.68 31.7619 61.627 30.8149 62.795 30.8149C63.962 30.8179 64.9075 31.7629 64.91 32.9299Z" fill="#2B2B2B"/>
<path d="M48.025 36.7649C48.025 37.9329 47.078 38.8799 45.91 38.8799C44.742 38.8799 43.795 37.9329 43.795 36.7649C43.795 35.5969 44.742 34.6499 45.91 34.6499C47.078 34.6499 48.025 35.5969 48.025 36.7649Z" fill="#2B2B2B"/>
</svg>
