<svg width="200" height="200" viewBox="0 0 200 200" fill="none" xmlns="http://www.w3.org/2000/svg">
<g opacity="0.1">
<path d="M144.71 194.7L71.3951 190.774L1.87006 194.845L68.2951 200L144.71 194.7Z" fill="#2B2B2B"/>
</g>
<path d="M122.43 12.185L86.5403 35.1549L79.2548 28.2998L75.2304 21.4948L79.3704 18.4998L122.43 12.185Z" fill="#27788B"/>
<path d="M58.3904 28.6547L52.6453 29.7997L17.7952 54.2445L59.9353 45.7947L60.1803 35.7047L58.3904 28.6547Z" fill="#399FB9"/>
<path d="M59.9353 45.7941L86.5403 35.1543L75.2304 21.4942L66.5154 23.7942L58.3903 28.6541L59.9353 45.7941Z" fill="#308FA6"/>
<path d="M73.0603 34.2842L64.1954 20.3792L68.5453 38.3042L75.7152 53.9792L82.1516 69.9757L86.7626 66.5813L81.1602 53.1492L73.0603 34.2842Z" fill="#5EC0D9"/>
<path d="M68.7854 24.1096L63.1753 26.5996L68.5453 38.3046L73.0603 34.2847L68.7854 24.1096Z" fill="#399FB9"/>
<path d="M78.7404 20.0097L53.4703 30.7096L53.1054 20.2796L55.4755 5.78958L58.1105 3.68459L60.8405 3.80461L72.3404 12.2197L78.7404 20.0097Z" fill="#5EC0D9"/>
<path d="M60.8405 3.8042L122.43 12.1845L78.7404 20.0093L60.8405 3.8042Z" fill="#399FB9"/>
<path d="M55.4755 5.78974L17.7952 54.2446L53.4703 30.7097L55.4755 5.78974Z" fill="#308FA6"/>
<path d="M59.3755 -0.000218149L54.0904 1.91476L55.4759 5.78976L60.8404 3.80479L59.3755 -0.000218149Z" fill="#399FB9"/>
<path d="M36.8302 163.825L39.2301 180.33L53.2651 178.19L67.6252 173.39L52.0802 167.37L42.1052 165.051L36.8302 163.825Z" fill="#1C7678"/>
<path d="M39.23 180.33L49.46 183.435L55.37 184.21L67.625 173.39L39.23 180.33Z" fill="#369395"/>
<path d="M55.37 184.21L69.14 193.77L52.985 194.65L38.32 193.77L39.23 180.33L55.37 184.21Z" fill="#155E5F"/>
<path d="M38.32 193.77H69.14V197.035H38.32V193.77Z" fill="#1C7678"/>
<path d="M135.27 89.7944L121.515 103.714L114.87 118.004L133.7 129.599L139.7 114.919L139.075 103.159L135.27 89.7944Z" fill="#50A9AA"/>
<path d="M139.076 103.16L144.851 103.16L161.061 103.16L161.985 107.74L160.25 116.085L133.701 129.6L139.076 103.16Z" fill="#71CACC"/>
<path d="M159.63 103.159L169.085 102.384L182.585 103.159L160.25 116.085L159.63 103.159Z" fill="#C3977A"/>
<path d="M191.469 99.1216L179.414 98.7832L168.893 102.221L168.913 102.295L182.481 103.288L191.469 99.1216Z" fill="#8B6651"/>
<path d="M10.8751 143.37L5.78007 133.735L1.86506 133.07L0.500373 170.51L3.71037 170.545L10.8751 143.37Z" fill="#1C7678"/>
<path d="M32.7351 131.335L16.3401 135.765L20.2902 146.84L28.8203 161.28L33.2502 149.61L34.1002 141.375L32.7351 131.335Z" fill="#369395"/>
<path d="M16.3401 135.765L13.3852 145.955L13.4602 155.295L28.8203 161.279L16.3401 135.765Z" fill="#1C7678"/>
<path d="M13.4603 155.295L3.71039 170.545L5.78008 133.735L16.3401 135.765L13.4603 155.295Z" fill="#155E5F"/>
<path d="M29.115 103.975L32.7351 131.335L34.1001 141.375L40.265 122.105L42.37 109.995L36.72 106.115L29.115 103.975Z" fill="#1C7678"/>
<path d="M135.27 90.1648L114.075 126.31L84.5 115.64L34.545 94.6301L56.9199 56.6L77.3734 62.3135L105.84 70.2649L135.27 90.1648Z" fill="#1C7678"/>
<path d="M81.3404 68.8045L82.8419 81.0535L86.605 93.56L99.49 96.07L103.81 97.955L111.415 98.9149L117.88 101.645L124.456 94.2169L128.169 96.4174L124.904 107.896L115.995 123.134L99.9352 183.435L28.8202 161.28L42.37 109.995L29.115 103.975L34.545 94.6302L45.4 98.8751L76.45 99.8401L76.6794 83.4345L76.1104 68.8281L81.3404 68.8045Z" fill="#C4C4C4"/>
<path d="M42.3705 109.995L69.6556 131.405L60.5756 146.73L82.4702 171.69L105.175 163.605L113.34 133.069L55.9605 105.93L42.3705 109.995Z" fill="#8F8F8F"/>
<path d="M75.7149 53.9801L56.9199 56.6L42.3697 109.995L60.3897 106.265L76.4497 99.8401L77.1548 77.9051L75.7149 53.9801Z" fill="#71CACC"/>
<path d="M122.53 15.9498L139.254 28.2047L156.17 26.2496L135.269 90.1647L114.85 85.6948L103.81 97.9549L95.0244 82.8149L83.9447 52.7249L88.0092 53.0549L90.2947 51.8399L88.7452 39.3949L100.304 35.8149L101.964 49.5849L107.944 48.1448L103.144 17.6449L122.53 15.9498Z" fill="#DFBCA4"/>
<path d="M122.53 15.9498L102.78 80.2699L114.479 83.9598L108.685 90.0548L103.81 97.9549L101.45 89.3899L97.2744 83.1099L83.9447 52.7249L90.2947 51.8749L97.5697 51.2099L101.115 50.5849L108.314 49.1798L104.29 17.4599L122.53 15.9498Z" fill="#C3977A"/>
<path d="M97.4247 47.26L96.8297 41.57L91.9597 42.0551L97.4247 47.26Z" fill="#8A6651"/>
<path d="M90.2947 51.84L101.115 50.5849L90.9243 56.565L90.2947 51.84Z" fill="#8A6651"/>
<path d="M132.98 59.6295L128.66 61.5495L126.48 57.5945L132.98 59.6295Z" fill="#8A6651"/>
<path d="M122.75 39.245L127.295 42.9049L126.48 57.5949L131.16 47.2599L132.06 39.2099L122.75 39.245Z" fill="#C3977A"/>
<path d="M138.595 41.3498L134.18 47.2599L134.714 53.9799L141.694 45.9298L146.605 45.3398L138.595 41.3498Z" fill="#C3977A"/>
<path d="M102.48 80.1201L97.2749 83.1101L99.3049 90.4601L103.81 97.9551L109.535 91.6751L114.48 83.96L102.48 80.1201Z" fill="#8A6651"/>
<path d="M139.33 38.8398L147.49 42.5348L146.605 45.3398L138.595 41.3498L139.33 38.8398Z" fill="#464646"/>
<path d="M132.835 36.6999L123.16 36.365L122.75 39.245L132.06 39.2099L132.835 36.6999Z" fill="#464646"/>
<path d="M112.93 60.2944L139.075 68.5293L125.56 71.8894L112.93 60.2944Z" fill="#C3977A"/>
<path d="M119.21 63.9849L133.315 68.3798L125.78 70.5948L119.21 63.9849Z" fill="white"/>
<path d="M132.979 4.05972L111.675 6.12481L116.585 13.3648L122.53 15.9498L139.11 30.0897L137.89 17.3897L132.979 4.05972Z" fill="#464646"/>
<path d="M111.674 6.12492L94.1745 8.34L100.34 15.725L105.325 18.4949L122.53 15.9499L111.674 6.12492Z" fill="#6E7073"/>
<path d="M94.1745 8.34006L88.7446 39.3951L99.5996 37.88L101.115 50.585L109.165 49.625L105.325 18.495L94.1745 8.34006Z" fill="#464646"/>
<path d="M139.11 30.0898L132.979 4.05981L156.17 26.2497L139.11 30.0898Z" fill="#8F8F8F"/>
<path d="M132.06 39.2097L138.595 41.3497L132.98 59.6297L126.48 57.5947L132.06 39.2097Z" fill="#E8C9B6"/>
<path d="M83.9448 52.7251L84.6099 78.4201L86.6049 93.5601L103.81 97.955L97.2749 83.11L83.9448 52.7251Z" fill="#50A9AA"/>
<path d="M114.48 83.9599L103.81 97.955L111.27 99.9099L117.88 101.645L123.125 95.1099L126.815 87.6549L114.48 83.9599Z" fill="#71CACC"/>
<path d="M76.45 99.8401L86.605 93.56L83.9448 52.7251L75.7148 53.9801L76.45 99.8401Z" fill="#DDDDDC"/>
<path d="M117.88 101.645L123.826 109.735L135.27 90.1647L126.815 87.6547L117.88 101.645Z" fill="#DDDDDC"/>
<path d="M195.545 68.1546L148.35 68.1548L148.35 76.5698L179.925 77.6797L195.545 76.5696L195.545 68.1546Z" fill="#308FA6"/>
<path d="M195.545 83.2347L174.81 84.1747L148.35 83.2348L148.35 76.5698L195.545 76.5697L195.545 83.2347Z" fill="#5EC0D9"/>
<path d="M195.545 83.2347L148.35 83.2349L148.35 89.8999L172.79 90.5048L195.545 89.8997L195.545 83.2347Z" fill="#399FB9"/>
<path d="M195.545 93.2295L172.185 93.4996L148.35 93.2297L148.35 89.8997L195.545 89.8995L195.545 93.2295Z" fill="#5EC0D9"/>
<path d="M195.545 93.2296L148.35 93.2297L148.35 96.4947L174.205 96.9997L195.545 96.4946L195.545 93.2296Z" fill="#308FA6"/>
<path d="M195.545 99.8297L173.09 100.505L148.35 99.8299L148.35 96.4949L195.545 96.4947L195.545 99.8297Z" fill="#5EC0D9"/>
<path d="M199.045 99.8297L144.85 99.8298L144.85 103.16L199.045 103.16L199.045 99.8297Z" fill="#27788B"/>
<path d="M157.775 68.1548L148.32 68.1548L153.065 72.8348L157.775 68.1548L167.2 68.1547L171.915 72.8347L176.66 68.1547L186.085 68.1547L190.83 72.8347L195.545 68.1546L186.085 68.1547L181.375 72.8347L176.66 68.1547L167.2 68.1547L162.455 72.8347L157.775 68.1548Z" fill="#5EC0D9"/>
<path d="M193.185 52.0298L190.8 49.1118L188.397 52.0298L190.8 55.5298L193.185 52.0298Z" fill="#E4C728"/>
<path d="M183.626 52.0298L181.305 49.1118L178.872 52.0298L181.305 55.5298L183.626 52.0298Z" fill="#E4C728"/>
<path d="M164.775 52.0298L162.39 49.1118L159.987 52.0298L162.39 55.5298L164.775 52.0298Z" fill="#E4C728"/>
<path d="M155.216 52.0298L152.895 49.1118L150.462 52.0298L152.895 55.5298L155.216 52.0298Z" fill="#E4C728"/>
<path d="M192.145 54.2847L189.485 54.2847L189.485 68.4547L192.145 68.4547L192.145 54.2847Z" fill="#308FA6"/>
<path d="M163.735 54.2847L161.075 54.2847L161.075 68.4547L163.735 68.4547L163.735 54.2847Z" fill="#308FA6"/>
<path d="M182.585 54.2847L179.96 54.2847L179.96 68.4547L182.585 68.4547L182.585 54.2847Z" fill="#308FA6"/>
<path d="M154.175 54.2849L151.55 54.2849L151.55 68.4549L154.175 68.4549L154.175 54.2849Z" fill="#308FA6"/>
<path d="M177.435 62.7348L166.46 62.7349L171.915 68.2548L177.435 62.7348Z" fill="#27788B"/>
<path d="M177.435 62.7347L171.915 57.2497L166.46 62.7348L177.435 62.7347Z" fill="#5EC0D9"/>
<path d="M84.7947 114.125L93.5447 117.339L89.1147 119.959L84.7947 114.125Z" fill="#C3977A"/>
<path d="M102.405 112.134L111.714 116.044L126.63 140.969L84.6101 164.674L81.3601 158.879L117.88 138.164L102.405 112.134Z" fill="#27788B"/>
<path d="M109.015 117.634L111.714 116.044L102.404 112.134L104.625 115.825L106.69 117.374L109.015 117.634Z" fill="#27788B"/>
<path d="M104.625 115.824L109.015 117.634L122.05 139.899L118.765 139.564L117.88 138.164L110.125 127.455L104.625 115.824Z" fill="#DDDDDC"/>
<path d="M117.88 138.164L122.05 139.899L85.165 160.615L81.36 158.88L101.67 145.734L117.88 138.164Z" fill="#C4C4C4"/>
<path d="M102.405 112.134L62.6049 135.545L76.1206 161.87L117.88 138.165L102.405 112.134Z" fill="#399FB9"/>
<path d="M90.1499 136.024L76.9699 138.754L69.6548 131.404L74.8648 128.194L90.1499 136.024Z" fill="#27788B"/>
<path d="M84.7947 114.125L76.6347 117.375L71.9847 121.475L77.7449 134.88L85.9398 131.26L93.2898 125.645L84.7947 114.125Z" fill="#DFBCA4"/>
<path d="M93.2898 125.645L90.1499 136.025L77.7449 134.88L93.2898 125.645Z" fill="#8A6651"/>
<path d="M42.3697 109.995L71.9847 121.475L84.7947 114.125L76.4496 99.8397L42.3697 109.995Z" fill="#50A9AA"/>
<path d="M141.065 46.1897C139.908 46.1647 138.95 47.0822 138.925 48.2387C138.924 48.2692 138.924 48.2992 138.925 48.3297C138.867 49.5127 139.781 50.5187 140.964 50.5757C142.147 50.6327 143.153 49.7202 143.21 48.5367C143.213 48.4677 143.213 48.3987 143.21 48.3297C143.235 47.1732 142.318 46.2147 141.161 46.1897C141.129 46.1892 141.097 46.1892 141.065 46.1897Z" fill="#2B2B2B"/>
<path d="M125.67 41.9998C124.477 41.9943 123.505 42.9568 123.499 44.1498L123.499 44.1548C123.499 45.3478 124.466 46.3153 125.659 46.3158C126.851 46.3163 127.819 45.3498 127.819 44.1568L127.819 44.1548C127.822 42.9673 126.862 42.0023 125.674 41.9998L125.67 41.9998Z" fill="#2B2B2B"/>
</svg>
