<svg width="122" height="200" viewBox="0 0 122 200" fill="none" xmlns="http://www.w3.org/2000/svg">
<g opacity="0.1">
<path d="M5.79901 196.497L64.842 189.745L113.203 195.373L63.6805 200L5.79901 196.497Z" fill="black"/>
</g>
<path d="M54.114 164.106L67.534 158.7L75.857 140.888L49.163 147.628L54.114 164.106Z" fill="#856300"/>
<path d="M72.1715 80.3726L94.7005 104.049L92.5425 108.534L79.6315 103.575L72.507 97.4896L73.3035 87.1086L72.1715 80.3726Z" fill="#DFBCA4"/>
<path d="M79.6315 103.575L104.813 97.49L106.849 99.353L107.308 104.73L91.5005 112.331L79.6315 103.575Z" fill="#C3977A"/>
<path d="M107.295 98.4651L113.579 92.7461L116.201 97.1761L114.148 104.1L107.307 104.73L106.2 101.515L107.295 98.4651Z" fill="#8A6651"/>
<path d="M120.889 110.097L117.119 111.591L113.03 101.281L112.261 98.8081L109.802 93.1361L107.634 87.6691L111.403 86.1736L113.528 91.5346L116.058 98.6876L117.45 101.425L120.889 110.097Z" fill="#9E7700"/>
<path d="M118.607 104.343L114.149 104.101L107.634 87.6681L111.403 86.1736L118.607 104.343Z" fill="#755700"/>
<path d="M113.264 90.8666L117.678 90.0806L121.566 99.5951L115.906 103.125L113.351 98.0001L113.264 90.8666Z" fill="#C3977A"/>
<path d="M104.813 97.4902L106.2 101.515L109.969 99.3957L110.911 96.2307L113.876 99.0517L116.139 98.3127L113.264 90.8672L109.561 92.5282L104.813 97.4902Z" fill="#DFBCA4"/>
<path d="M115.344 86.2246L109.687 87.3931L104.799 90.4056L99.2365 85.8696L107.027 81.7046L116.287 79.1086L115.344 86.2246Z" fill="#CCAC13"/>
<path d="M116.287 79.1085L99.236 85.8695L98.0695 82.928L106.326 78.579L115.121 76.1665L116.287 79.1085Z" fill="#9E7700"/>
<path d="M115.122 76.1666L98.07 82.9276L96.903 79.9856L104.926 75.7286L113.955 73.2246L115.122 76.1666Z" fill="#E4C728"/>
<path d="M113.955 73.224L96.903 79.985L95.736 77.043L103.992 72.694L112.789 70.282L113.955 73.224Z" fill="#9E7700"/>
<path d="M107.225 65.7466L102.188 68.8196L96.68 69.9276L95.736 77.0431L112.789 70.2821L107.225 65.7466Z" fill="#CCAC13"/>
<path d="M104.799 90.4055L107.762 82.489L115.344 86.2245L104.799 90.4055Z" fill="#9E7700"/>
<path d="M96.6805 69.9276L104.262 73.6626L107.224 65.7466L96.6805 69.9276Z" fill="#9E7700"/>
<path d="M54.829 196.498L37.7075 196.138L36.973 191.026H45.1055L54.829 196.498Z" fill="#755700"/>
<path d="M45.2384 177.371L44.4209 184.318L55.4814 194.358L52.9424 195.221L42.7229 192.776L38.6054 189.845L37.7164 185.375L45.2384 177.371Z" fill="#DFBCA4"/>
<path d="M37.717 185.375L42.723 192.776L57.753 193.865L54.8295 196.498L36.973 191.026L37.717 185.375Z" fill="#C3977A"/>
<path d="M50.163 189.53L47.363 194.21L49.6615 194.915L51.995 191.193L50.163 189.53Z" fill="#9E7700"/>
<path d="M49.6614 173.39L44.4214 184.317L37.7164 185.375L39.7534 169.89L42.3554 165.337L49.6614 173.39Z" fill="#C3977A"/>
<path d="M39.864 169.845L49.6615 173.39L54.114 164.106L45.57 161.573L39.864 169.845Z" fill="#8A6651"/>
<path d="M43.6945 85.1636L29.491 104.998L34.4815 108.258L44.1635 104.998L45.239 90.5476L43.6945 85.1636Z" fill="#DFBCA4"/>
<path d="M44.1635 104.997L17.703 97.136L15.5695 98.8855L14.8185 104.23L32.1875 112.788L44.1635 104.997Z" fill="#C3977A"/>
<path d="M78.8955 184.082L63.5945 175.366L65.7885 170.624L73.3955 177.235L78.8955 184.082Z" fill="#755700"/>
<path d="M75.684 166.483L80.3375 182.371L78.2295 181.867L75.806 180.616L69.1535 174.078L67.9785 170.123L69.606 166.869L72.507 161.574L75.684 166.483Z" fill="#DFBCA4"/>
<path d="M69.606 166.87L69.154 174.079L82.6195 182.812L78.8955 184.082L65.789 170.624L69.606 166.87Z" fill="#C3977A"/>
<path d="M78.1615 174.944L73.2435 178.278L74.7235 179.798L78.8675 177.353L78.1615 174.944Z" fill="#9E7700"/>
<path d="M78.932 141.413L75.684 166.484L69.606 166.87L67.534 158.7L73.0055 140.352L78.932 141.413Z" fill="#C3977A"/>
<path d="M66.081 152.973L67.534 158.701L78.932 141.414L69.924 137.977L66.081 152.973Z" fill="#8A6651"/>
<path d="M43.6095 84.894L72.1715 80.373L63.2475 94.807L43.6095 84.894Z" fill="#DFBCA4"/>
<path d="M43.6095 84.8936L44.163 104.998L57.8715 98.3516L63.1305 92.7026L43.6095 84.8936Z" fill="#9E7700"/>
<path d="M63.1305 92.7025L72.1715 80.373L79.6315 103.575L67.633 100.008L63.1305 92.7025Z" fill="#9E7700"/>
<path d="M44.1635 104.998L44.5745 117.924L63.184 135.863L79.6315 103.575L63.1305 92.7026L44.1635 104.998Z" fill="#755700"/>
<path d="M45.9015 124.494L78.9325 141.415L53.3705 164.405L47.371 163.398L32.6875 132.168L45.9015 124.494Z" fill="#E4C728"/>
<path d="M32.6875 132.167L54.1145 164.106L39.7535 169.89L32.6875 132.167Z" fill="#CCAC13"/>
<path d="M78.9325 141.414L32.6875 132.168L44.5745 117.924L78.9325 141.414Z" fill="#F4D65D"/>
<path d="M15.1725 97.9756L9.20749 91.9236L6.34949 96.2041L8.02149 103.23L14.8185 104.231L16.0995 101.081L15.1725 97.9756Z" fill="#8A6651"/>
<path d="M0.966003 108.851L4.649 110.548L9.2915 100.475L10.1945 98.0475L12.958 92.518L15.42 87.176L11.738 85.4785L9.3245 90.7155L6.4095 97.7205L4.871 100.379L0.966003 108.851Z" fill="#9E7700"/>
<path d="M3.55701 103.23H8.02151L15.42 87.1765L11.738 85.4785L3.55701 103.23Z" fill="#755700"/>
<path d="M9.62499 90.0636L5.25949 89.0391L0.859985 98.3276L6.32049 102.159L9.14999 97.1811L9.62499 90.0636Z" fill="#C3977A"/>
<path d="M17.703 97.1365L16.0995 101.08L12.4505 98.758L11.6825 95.548L8.5685 98.2035L6.349 97.3415L9.625 90.0635L13.232 91.9235L17.703 97.1365Z" fill="#DFBCA4"/>
<path d="M7.8 85.3157L13.3855 86.7897L18.102 90.0642L23.904 85.8367L16.35 81.2547L7.245 78.1592L7.8 85.3157Z" fill="#CCAC13"/>
<path d="M7.245 78.1587L23.9035 85.8362L25.228 82.9627L17.2205 78.1712L8.56849 75.2852L7.245 78.1587Z" fill="#9E7700"/>
<path d="M8.56897 75.2847L25.228 82.9627L26.553 80.0882L18.773 75.4007L9.89397 72.4102L8.56897 75.2847Z" fill="#E4C728"/>
<path d="M9.89447 72.4096L26.553 80.0876L27.8785 77.2131L19.871 72.4221L11.2185 69.5356L9.89447 72.4096Z" fill="#9E7700"/>
<path d="M17.021 65.3091L21.883 68.6516L27.3225 70.0571L27.8785 77.2136L11.2185 69.5356L17.021 65.3091Z" fill="#CCAC13"/>
<path d="M18.1025 90.0636L15.574 81.9976L7.80048 85.3156L18.1025 90.0636Z" fill="#9E7700"/>
<path d="M27.322 70.0571L19.548 73.3746L17.021 65.3096L27.322 70.0571Z" fill="#9E7700"/>
<path d="M32.482 70.733L50.72 71.646V56.085L32.482 70.733Z" fill="#2B2B2B"/>
<path d="M27.192 29.3484L15.1775 47.5844L32.9725 43.1749L27.192 29.3484Z" fill="#6E7073"/>
<path d="M108.554 45.0505L108.08 53.748L95.9125 53.198L98.603 39.208L108.554 45.0505Z" fill="#2B2B2B"/>
<path d="M104.649 26.3821L113.792 41.6741L103.685 44.5591L99.629 41.7906L98.002 29.9686L104.649 26.3821Z" fill="#4F5252"/>
<path d="M113.792 41.6741L99.629 41.7906L92.442 46.0566L95.9125 53.1981L113.792 41.6741Z" fill="#464646"/>
<path d="M15.1775 47.5845L37.9805 58.2615L49.2765 59.465L49.6635 46.065L43.6095 35.72L15.1775 47.5845Z" fill="#464646"/>
<path d="M95.9695 45L99.8155 58.8L90.4445 61.959L92.0395 57.066L94.5185 56.2005L93.529 52.492L92.8415 49.6355L95.9695 45Z" fill="#856300"/>
<path d="M47.902 47.8591L50.7405 64.1996L55.9875 79.2491L65.4975 79.8726L71.0805 73.2216L87.6975 78.4141L104.649 26.3826L64.459 36.0921L47.902 47.8591Z" fill="#DFBCA4"/>
<path d="M65.2385 47.646L59.9125 70.5975L71.081 73.2215L64.5225 80.9755L63.899 86.607L51.97 83.571L49.277 59.465L50.246 55.416L47.902 47.8595L61.0835 37L65.2385 47.646Z" fill="#C3977A"/>
<path d="M91.333 38.5579L89.6445 39.8569L86.1735 50.5589L93.9055 43.8359L96.9145 41.2844L91.333 38.5579Z" fill="#C3977A"/>
<path d="M86.107 38.688L83.5435 35.832L75.25 35.614L80.298 45.05L80.9465 52.969L86.107 38.688Z" fill="#C3977A"/>
<path d="M57.448 55.1754L49.2765 59.4644L47.9015 47.8589L55.6355 39.9814L62.7975 46.3004L57.448 55.1754Z" fill="#8A6651"/>
<path d="M86.107 38.6885L89.6445 39.857L84.9715 54.2675L80.9465 52.9695L86.107 38.6885Z" fill="#E8C9B6"/>
<path d="M80.9465 52.969L82.2455 56.085L84.9715 54.268L80.9465 52.969Z" fill="#8A6651"/>
<path d="M103.557 29.7371L64.849 49.5941L57.949 49.1616L60.509 42.9961L83.544 35.8321L104.649 26.3821L103.557 29.7371Z" fill="#8A6651"/>
<path d="M40.6685 27.4355L38.439 22.0915L17.203 16.748L33.6905 54.034L44.355 44.5585L45.739 36.8935L40.6685 27.4355Z" fill="#4F5252"/>
<path d="M33.691 30.2496L17.203 16.7476L47.902 13.6106L44.186 24.3931L33.691 30.2496Z" fill="#6E7073"/>
<path d="M33.6905 30.25L65.1035 21.431L85.3155 9.42998L59.525 0.000976562L33.6905 30.25Z" fill="#4F5252"/>
<path d="M93.15 34.793L96.915 41.285L91.333 38.5585L93.15 34.793Z" fill="#2B2B2B"/>
<path d="M67.633 54.8469L81.8815 57.0964L89.875 62.8319L76.98 71.3349L67.633 54.8469Z" fill="#856300"/>
<path d="M73.799 61.4679L78.8715 59.7969L83.293 64.8774L79.931 67.1489L76.3305 65.8814L73.799 61.4679Z" fill="#755700"/>
<path d="M73.799 61.4679L83.293 64.8774L86.6555 62.6059L71.268 57.0544L73.799 61.4679Z" fill="white"/>
<path d="M60.839 45.2205L57.448 55.1755L43.73 50.833L44.5015 48.516L47.9015 47.8585L54.9815 49.982L56.2415 46.158L60.839 45.2205Z" fill="#856300"/>
<path d="M71.081 73.2215L56.28 68.418L63.8995 86.607L71.081 73.2215Z" fill="#8A6651"/>
<path d="M45.7395 36.8936L33.691 54.0346L60.839 45.2211L45.7395 36.8936Z" fill="#2B2B2B"/>
<path d="M15.177 47.584L49.277 59.465L32.482 70.733L15.177 47.584Z" fill="#464646"/>
<path d="M94.6505 46.0566C94.6505 47.2761 93.6615 48.2651 92.442 48.2651C91.2225 48.2651 90.2335 47.2761 90.2335 46.0566C90.2335 44.8371 91.2225 43.8481 92.442 43.8481C93.6615 43.8481 94.6505 44.8371 94.6505 46.0566Z" fill="#2B2B2B"/>
<path d="M81.5365 41.6741C81.5365 42.8936 80.5465 43.8826 79.327 43.8826C78.1075 43.8826 77.119 42.8936 77.119 41.6741C77.119 40.4546 78.1075 39.4656 79.327 39.4656C80.5465 39.4656 81.5365 40.4546 81.5365 41.6741Z" fill="#2B2B2B"/>
<path d="M111.195 22.8494L65.238 47.6464L33.6905 30.2499L70.3615 25.3554L111.195 22.8494Z" fill="#464646"/>
<path d="M111.195 22.8499L96.7845 4.80493L33.6905 30.2499L111.195 22.8499Z" fill="#8F8F8F"/>
</svg>
