<svg width="109" height="200" viewBox="0 0 109 200" fill="none" xmlns="http://www.w3.org/2000/svg">
<path d="M65.305 82.7451L79.52 103.4L76.3895 109.449L71.64 118.625V112.145L73.585 103.51L70.2 97.5351L65.305 82.7451Z" fill="#8F8F8F"/>
<path d="M90.465 108.115L95.5755 116.359L89.67 118.805L76.82 122.08L71.46 118.625L70.8455 114.089L70.98 109.845L90.465 108.115Z" fill="#464646"/>
<path d="M75.96 13.5344L54.505 18.8594L35.215 25.9144L36.8 34.7644L41.875 45.1344L39.645 45.0244L38.06 47.6494L35.575 43.0094L33.56 40.9944L30.36 42.5394L26.905 46.4294L27.91 48.8044L30.755 52.1144L33.31 55.8594L43.53 78.5644L61.525 82.0194L61.38 71.5844L63.035 64.6394L70.775 61.7944L82.295 58.4494L81.07 36.9594L75.96 13.5344Z" fill="#DFBCA4"/>
<path d="M52.925 40.85L56.09 33.4L64.55 33.185L69.55 45.745L65.81 28.615L57.065 29.115L51.845 33.185L49.685 36.96L52.925 40.85Z" fill="#C3977A"/>
<path d="M78.9105 27.0301L73.26 31.1351L72.8995 38.6901L67.715 26.9551L78.9105 27.0301Z" fill="#C3977A"/>
<path d="M50.91 44.3044L68.795 43.7644L68.58 41.2444L50.91 44.3044Z" fill="#C3977A"/>
<path d="M81.105 37.7544L73.835 42.6494L73.185 39.9844L81.105 37.7544Z" fill="#C3977A"/>
<path d="M40.94 24.1851L48.64 30.8801L50.91 44.3051L52.455 64.4951L61.525 82.0201L53.21 81.2651L43.53 78.5651L40.459 71.7421L33.31 55.8601L38.925 52.5451L38.06 47.6501L41.875 45.1351L35.215 25.9151L40.94 24.1851Z" fill="#C3977A"/>
<path d="M33.31 55.8599L38.925 52.5449L37.235 64.5299L33.31 55.8599Z" fill="#8A6651"/>
<path d="M82.295 58.4495L47.235 65.3245L56.3455 81.0145L58.505 82.3795L61.525 82.0195L63.035 64.6395L82.295 58.4495Z" fill="#8A6651"/>
<path d="M51.845 26.095L57.605 29.37L65.555 27.28L51.845 26.095Z" fill="#2B2B2B"/>
<path d="M68.5805 24.0045L72.755 19.3245L76.2795 20.0845L68.5805 24.0045Z" fill="#2B2B2B"/>
<path d="M65.555 27.28L69.5495 45.745L74.41 45.025L69.91 26.635L65.555 27.28Z" fill="#E8C9B6"/>
<path d="M69.55 45.7449L72.1445 48.3349L74.4105 45.0249L69.55 45.7449Z" fill="#8A6651"/>
<path d="M55.765 51.5749L66.6 51.5049L71.925 53.7349L65.0895 54.0599L60.95 53.6599L59.835 53.4849L58.5045 52.6549L55.765 51.5749Z" fill="#27788B"/>
<path d="M58.36 52.6199L61.06 55.5699L71.925 53.7349L60.9505 53.6599L58.36 52.6199Z" fill="#399FB9"/>
<path d="M30.465 47.7944L32.95 45.2744L35.575 49.1994L30.465 47.7944Z" fill="#8A6651"/>
<path d="M55.9105 0L56.5605 10.1855L59.3655 18.57L75.9605 13.5345L55.9105 0Z" fill="#464646"/>
<path d="M55.9105 0L23.305 11.155L20.9295 16.845L21.0745 21.6295L27.985 24.475L35.215 25.915L40.94 24.185L59.3655 18.5695L55.9105 0Z" fill="#6E7073"/>
<path d="M21.075 21.6294L19.705 25.0844L20.065 27.7494L17.51 43.0094L28.81 41.2094L39.14 37.2844L35.215 25.9144L21.075 21.6294Z" fill="#464646"/>
<path d="M17.51 43.0099L39.14 37.2849L41.875 45.1349L38.06 47.6499L33.56 40.9949L26.905 46.4299L30.755 52.1149L17.51 43.0099Z" fill="#2B2B2B"/>
<path d="M20.03 27.82L9.30502 26.85L14.7 19.76L23.305 11.155L21.075 21.63L20.03 27.82Z" fill="#2B2B2B"/>
<path d="M23.305 11.155L9.91507 4.17487L0.414836 36.3498L9.3049 26.8499L23.305 11.155Z" fill="#6E7073"/>
<path d="M43.53 78.5645L65.305 82.7445L63.075 88.0695L58.285 94.2595L46.48 88.3945L39.175 81.1945L43.53 78.5645Z" fill="#464646"/>
<path d="M39.175 81.1943L31.905 84.8993L34.82 95.0493L39.61 105.344L43.745 106.999L58.465 108.509L73.585 103.509L65.305 82.7443L58.285 94.2593L39.175 81.1943Z" fill="#71CACC"/>
<path d="M39.61 105.345L73.585 103.51L70.2 127.84L59.15 128.451L45.835 126.4L39.61 105.345Z" fill="#1C7678"/>
<g opacity="0.1">
<path d="M21.215 194.134L63.72 188.16L103.6 194.674L63.47 200L21.215 194.134Z" fill="#2B2B2B"/>
</g>
<path d="M41.91 183.154L38.705 190.104L41.045 196.254L41.91 183.154Z" fill="#464646"/>
<path d="M51.195 186.214L49.83 182.004L41.91 183.154L41.155 191.615L41.045 193.74L49.975 191.615L51.99 188.484L51.195 186.214Z" fill="#C3977A"/>
<path d="M41.045 193.74L51.99 188.484L55.405 193.74L50.045 194.779L41.045 193.74Z" fill="#6E7073"/>
<path d="M41.045 196.254H55.405V193.74H41.045V196.254Z" fill="#464646"/>
<path d="M44.285 152.78L41.59 183.77L50.475 183.985L51.99 150.875L44.285 152.78Z" fill="#1C7678"/>
<path d="M72.985 193.345L70.935 193.27L69.605 185.134L71.545 179.56L75.76 182.834L74.6805 186.069L72.985 193.345Z" fill="#464646"/>
<path d="M82.96 183.339L80.93 179.475L71.545 179.559L76.26 188.805L77.415 190.285L82.63 188.734L84.165 185.289L82.96 183.339Z" fill="#C3977A"/>
<path d="M77.415 190.785L84.165 185.29L90.445 190.785L83.5295 191.83L77.415 190.785Z" fill="#6E7073"/>
<path d="M74.75 185.855L73.6 187.08L73.455 189.815L79.14 193.415H90.445V190.785H81.05L74.75 185.855Z" fill="#464646"/>
<path d="M45.835 126.4L57.135 139.895L64.01 144.285L69.875 138.814L70.2 127.84L45.835 126.4Z" fill="#71CACC"/>
<path d="M45.8355 126.399L64.0105 144.285L65.991 164.799L50.475 183.984L37.41 141.084L45.8355 126.399Z" fill="#369395"/>
<path d="M70.2005 127.839L76.2105 156.309L71.17 153.249L64.0095 144.285L70.2005 127.839Z" fill="#50A9AA"/>
<path d="M64.01 144.284L76.21 156.309L80.9305 179.474L50.4755 183.984L64.01 144.284Z" fill="#1C7678"/>
<g opacity="0.2">
<path d="M38.105 143.35L39.61 148.295L71.135 121.18L71.46 118.625L42.595 132.155L38.105 143.35Z" fill="#2B2B2B"/>
</g>
<path d="M100.935 109.049L104.32 104.875L102.125 103.365L99.35 105.345L99.39 107.47L100.935 109.049Z" fill="#C3977A"/>
<path d="M31.905 84.8994L14.88 112.434L24.13 110.849L30.68 107.865L39.57 105.274L31.905 84.8994Z" fill="#8F8F8F"/>
<path d="M30.72 107.865L35.325 123.99L31.98 126.759L28.235 127.045L14.88 112.435L30.72 107.865Z" fill="#464646"/>
<path d="M21.215 134.93L25.75 143.35L108.315 98.6854L103.745 90.2649L21.215 134.93ZM27.715 139.97C27.127 140.287 26.3935 140.078 26.06 139.5C25.7725 138.93 25.9785 138.235 26.53 137.915C27.1175 137.593 27.8545 137.802 28.185 138.385C28.4995 138.94 28.3045 139.645 27.7495 139.96C27.743 139.963 27.7365 139.966 27.73 139.97H27.715Z" fill="#5EC0D9"/>
<path d="M105.4 93.2899L22.8 137.95L21.215 134.93L103.745 90.2649L105.4 93.2899Z" fill="#73CFE4"/>
<path d="M25.605 136.404L24.67 136.91L23.015 133.919L24.025 133.345L25.605 136.404Z" fill="#308FA6"/>
<path d="M27.37 134.134L26.94 134.354L25.86 132.374L26.29 132.154L27.37 134.134Z" fill="#308FA6"/>
<path d="M29.675 132.875L29.245 133.13L28.16 131.115L28.595 130.9L29.675 132.875Z" fill="#308FA6"/>
<path d="M31.98 131.619L31.545 131.904L30.465 129.89L30.895 129.64L31.98 131.619Z" fill="#308FA6"/>
<path d="M35.325 131.149L34.39 131.689L32.735 128.664L33.74 128.124L35.325 131.149Z" fill="#308FA6"/>
<path d="M37.125 128.885L36.655 129.135L35.575 127.155L36.01 126.865L37.125 128.885Z" fill="#308FA6"/>
<path d="M41.695 126.399L41.265 126.615L40.185 124.634L40.615 124.42L41.695 126.399Z" fill="#308FA6"/>
<path d="M45.045 125.895L44.105 126.4L42.45 123.375L43.46 122.87L45.045 125.895Z" fill="#308FA6"/>
<path d="M46.84 123.629L46.375 123.845L45.26 121.865L45.76 121.65L46.84 123.629Z" fill="#308FA6"/>
<path d="M49.11 122.369L48.675 122.654L47.595 120.604L48.03 120.39L49.11 122.369Z" fill="#308FA6"/>
<path d="M51.415 121.145L50.98 121.395L49.9 119.42L50.335 119.13L51.415 121.145Z" fill="#308FA6"/>
<path d="M54.795 120.64L53.825 121.18L52.205 118.154L53.14 117.62L54.795 120.64Z" fill="#308FA6"/>
<path d="M56.56 118.375L56.09 118.625L55.01 116.645L55.48 116.36L56.56 118.375Z" fill="#308FA6"/>
<path d="M58.86 117.149L58.4305 117.365L57.35 115.385L57.78 115.135L58.86 117.149Z" fill="#308FA6"/>
<path d="M61.13 115.89L60.7005 116.105L59.62 114.125L60.05 113.91L61.13 115.89Z" fill="#308FA6"/>
<path d="M64.515 115.384L63.58 115.89L61.92 112.865L62.8595 112.365L64.515 115.384Z" fill="#308FA6"/>
<path d="M66.24 113.12L65.81 113.335L64.7295 111.355L65.16 111.14L66.24 113.12Z" fill="#308FA6"/>
<path d="M68.5805 111.895L68.1105 112.145L67.0295 110.095L67.5005 109.88L68.5805 111.895Z" fill="#308FA6"/>
<path d="M70.845 110.634L70.415 110.884L69.3345 108.905L69.77 108.62L70.845 110.634Z" fill="#308FA6"/>
<path d="M74.23 110.169L73.295 110.669L71.64 107.649L72.61 107.109L74.23 110.169Z" fill="#308FA6"/>
<path d="M75.96 107.865L75.525 108.115L74.445 106.135L74.88 105.885L75.96 107.865Z" fill="#308FA6"/>
<path d="M78.295 106.64L77.83 106.855L76.75 104.875L77.2205 104.625L78.295 106.64Z" fill="#308FA6"/>
<path d="M80.6 105.379L80.095 105.595L79.015 103.615L79.52 103.4L80.6 105.379Z" fill="#308FA6"/>
<path d="M84.09 104.805L83.155 105.345L81.5 102.32L82.435 101.82L84.09 104.805Z" fill="#308FA6"/>
<path d="M85.82 102.535L85.385 102.79L84.31 100.774L84.7405 100.56L85.82 102.535Z" fill="#308FA6"/>
<path d="M88.1605 101.279L87.6905 101.564L86.6095 99.5498L87.0805 99.2998L88.1605 101.279Z" fill="#308FA6"/>
<path d="M90.465 100.09L89.9955 100.305L88.915 98.2898L89.3455 98.0398L90.465 100.09Z" fill="#308FA6"/>
<path d="M93.81 99.5498L92.875 100.09L91.22 97.0648L92.19 96.5298L93.81 99.5498Z" fill="#308FA6"/>
<path d="M95.5355 97.3199L95.105 97.5349L94.0245 95.5549L94.46 95.2649L95.5355 97.3199Z" fill="#308FA6"/>
<path d="M97.875 96.0598L97.41 96.2748L96.33 94.2948L96.795 94.0798L97.875 96.0598Z" fill="#308FA6"/>
<path d="M100.18 94.7998L99.75 95.0498L98.6695 93.0348L99.1005 92.8198L100.18 94.7998Z" fill="#308FA6"/>
<path d="M103.53 94.2943L102.59 94.7993L100.935 91.8093L101.905 91.3093L103.53 94.2943Z" fill="#308FA6"/>
<path d="M28.235 127.045L33.415 139.21L37.88 137.95L45.575 132.624L35.325 123.99L28.235 127.045Z" fill="#DFBCA4"/>
<path d="M45.575 132.625L33.415 139.21L38.105 143.35L45.575 132.625Z" fill="#8A6651"/>
<path d="M100.935 109.05L96.075 117.15L89.67 118.805L87.765 115.241L92.2995 109.305L100.935 109.05Z" fill="#8A6651"/>
<path d="M97.3 100.595L89.815 105.774L87.7655 115.24L100.936 109.049L97.3 100.595Z" fill="#DFBCA4"/>
<path d="M78.5 31.5C78.5085 32.5245 77.6845 33.3615 76.66 33.37C75.6355 33.378 74.7985 32.554 74.79 31.53C74.7815 30.5075 75.6025 29.671 76.625 29.66C77.6495 29.649 78.489 30.4705 78.5 31.495V31.5Z" fill="#2B2B2B"/>
<path d="M61.535 35.7745C61.535 36.788 60.713 37.6095 59.7 37.6095C58.6865 37.6095 57.865 36.788 57.865 35.7745C57.865 34.761 58.6865 33.9395 59.7 33.9395C60.711 33.945 61.529 34.7635 61.535 35.7745Z" fill="#2B2B2B"/>
<path d="M85.605 22.3149L48.6395 30.8799L50.91 44.3049L68.58 41.2449L66.13 29.9399L70.485 28.9399L73.1855 39.9399L88.1855 35.7299L85.605 22.3149ZM51.8455 33.1849L63.69 30.4999L65.4595 38.6999L52.925 40.8499L51.8455 33.1849ZM74.8455 36.6849L72.6545 28.6449L83.3845 25.9049L84.7745 33.4999L74.8455 36.6849Z" fill="#308FA6"/>
</svg>
