<svg width="144" height="200" viewBox="0 0 144 200" fill="none" xmlns="http://www.w3.org/2000/svg">
<g opacity="0.1">
<path d="M136.751 193.511L74.6345 188.077L13.748 195.623L74.315 200.001L136.751 193.511Z" fill="black"/>
</g>
<path d="M12.1226 134.571L16.9786 125.208L19.3666 120.838L25.4156 122.581L22.9366 126.573L16.9101 137.173L12.1226 134.571Z" fill="#4F5252"/>
<path d="M33.359 94.1494L49.6285 122.15L37.0905 126.411L24.929 110.625L33.359 94.1494Z" fill="#856300"/>
<path d="M93.1235 80.9136L107.837 102.925L105.671 113.449L99.633 119.792L91.9505 113.233L90.1155 94.6296L93.1235 80.9136Z" fill="#856300"/>
<path d="M107.837 102.924L120.782 101.802L122.786 108.401L120.916 116.321L99.6335 119.792L107.837 102.924Z" fill="#BE8F00"/>
<path d="M91.351 142.033L93.9995 162.569L87.4225 173.202L75.4995 171.212L63.873 152.152L91.351 142.033Z" fill="#856300"/>
<path d="M75.4995 171.213L93.9995 162.57L95.992 178.026L89.8915 183.836L82.7545 183.106L75.4995 171.213Z" fill="#755700"/>
<path d="M96.342 179.528L101.136 182.503L109.339 189.645L94.414 190.754L83.322 189.645L82.7545 183.106L93.1235 177.014L96.342 179.528Z" fill="#B58A00"/>
<path d="M92.622 179.318L97.64 183.835L101.135 182.503L95.992 178.025L93.9995 177.013L92.622 179.318Z" fill="#E4C728"/>
<path d="M73.911 156.202L70.581 167.743L60.105 173.202L49.629 170.386L43.648 142.835L65.743 149.311L73.911 156.202Z" fill="#BE8F00"/>
<path d="M49.6285 170.386L70.5805 167.744L66.243 182.777L59.2865 186.284L52.595 185.298L49.6285 170.386Z" fill="#856300"/>
<path d="M66.2435 182.778L70.581 192.905L59.9285 194.401L51.298 192.905L52.595 185.298L57.192 182.345L59.4725 181.752H61.7085L66.2435 182.778Z" fill="#B58A00"/>
<path d="M70.581 195.897H51.298V192.905H70.581V195.897Z" fill="#E4C728"/>
<path d="M57.1925 184.39L57.869 189.196H63.4115L61.588 183.607L59.4725 183.106L57.1925 184.39Z" fill="#E4C728"/>
<path d="M109.362 192.586H83.3225V189.595H109.362V192.586Z" fill="#E4C728"/>
<path d="M91.351 142.033L73.9105 156.202L43.6475 142.835L64.6335 139.926L74.6335 133.75L80.767 138.359L91.351 142.033Z" fill="#9E7700"/>
<path d="M50.795 176.251L68.149 176.173L66.243 182.778L52.595 185.299L50.795 176.251Z" fill="#9E7700"/>
<path d="M57.202 184.448V179.529L61.873 179.058L61.593 183.637L57.202 184.448Z" fill="#CCAC13"/>
<path d="M79.312 177.462L94.968 170.08L95.992 178.026L82.7545 183.106L79.312 177.462Z" fill="#9E7700"/>
<path d="M92.6225 179.319L91.696 174.321L95.37 173.203L95.992 178.026L92.6225 179.319Z" fill="#CCAC13"/>
<path d="M88.2075 84.086L80.767 80.7795L75.6575 87.786L71.5545 97.6105L58.0085 93.0015L44.602 90.056L38.339 97.006L42.492 122.149L44.602 128.618L43.6475 142.835L69.0625 147.177L74.634 134.467L81.455 145.732L91.351 142.034L91.95 113.233L88.2075 84.086Z" fill="#E4C728"/>
<path d="M40.5685 78.8964L45.629 73.6094L46.4035 78.4479L49.4645 83.5634L40.5685 78.8964Z" fill="#755700"/>
<path d="M75.3885 67.7095L85.418 72.982L80.7675 80.7795L71.555 97.6105L72.051 80.4935L75.3885 67.7095Z" fill="#755700"/>
<path d="M42.493 122.15L44.6025 90.0564L33.3585 94.1494L42.493 122.15Z" fill="#BE8F00"/>
<path d="M93.123 80.9136L91.95 113.233L80.767 80.7791L93.123 80.9136Z" fill="#BE8F00"/>
<path d="M67.2835 107.765L48.0315 110.83L48.4545 113.485L67.7055 110.421L67.2835 107.765Z" fill="#BE8F00"/>
<path d="M40.9845 25.8839L70.086 22.8204L79.0405 18.4609L88.8195 63.5854L75.3885 67.7094L73.5515 73.5384L71.67 77.3614L59.365 84.0859L49.232 77.6924L33.843 60.1294L27.671 50.5079L25.9435 40.6279L40.9845 25.8839Z" fill="#DFBCA4"/>
<path d="M44.3135 25.5334L58.087 72.7554L75.388 67.7099L73.799 73.7594L73.9445 79.7274L71.5545 97.6105L56.031 88.6669L46.64 80.0804L37.709 66.1569L37.391 62.208L33.844 60.1304L41.4575 54.4169L34.976 45.2059L27.6715 50.5079L23.076 43.4389L37.06 29.7319L40.985 25.8839L44.3135 25.5334Z" fill="#C3977A"/>
<path d="M72.025 48.4404L63.5895 36.4224L52.8855 32.9529L65.138 29.1824L68.2845 32.9959L72.7445 41.0314L72.025 48.4404Z" fill="#C3977A"/>
<path d="M72.8675 31.8986L73.3605 28.0046L80.6245 25.7686L74.928 43.6746L72.8675 31.8986Z" fill="#C3977A"/>
<path d="M41.4575 54.416L33.8435 60.131L37.708 66.155L41.4575 54.416Z" fill="#8A6651"/>
<path d="M69.8865 39.6121L55.948 51.2741L50.208 45.7416L47.754 45.6531L46.6295 43.9796L52.8845 40.9871L69.8865 39.6121Z" fill="#8A6651"/>
<path d="M74.523 38.736L84.111 41.859L83.703 39.979L81.8345 36.624L74.523 38.736Z" fill="#8A6651"/>
<path d="M37.8825 30.9556L52.045 52.0416L44.6525 58.9566L34.976 45.2066L27.671 50.5081L23.076 43.4396L30.455 34.4976L37.8825 30.9556Z" fill="#856300"/>
<path d="M72.8675 31.8984L68.2835 32.9954L72.0245 48.4404L76.6055 47.3309L72.8675 31.8984Z" fill="#E8C9B6"/>
<path d="M37.515 53.6726L34.545 48.5386L30.156 51.5711L37.515 53.6726Z" fill="#8A6651"/>
<path d="M52.885 32.9529L61.3675 27.1799L65.138 29.1829L52.885 32.9529Z" fill="#856300"/>
<path d="M73.3605 28.0041L76.9925 24.2061L80.624 25.7686L73.3605 28.0041Z" fill="#856300"/>
<path d="M83.8705 49.8005L58.0685 56.0445L67.8475 60.9935L79.0405 58.4015L83.8705 49.8005Z" fill="#C3977A"/>
<path d="M80.903 52.198L62.777 56.564L68.198 59.584L77.89 57.3145L80.903 52.198Z" fill="white"/>
<path d="M76.6055 47.3311L74.6355 50.5941L72.0245 48.4406L76.6055 47.3311Z" fill="#8A6651"/>
<path d="M47.755 45.6525L35.7875 46.3595L34.976 45.2055L41.366 43.4385L46.658 44.0205L47.755 45.6525Z" fill="#755700"/>
<path d="M75.3885 67.709L52.7665 74.307L73.9445 79.727L75.3885 67.709Z" fill="#8A6651"/>
<path d="M70.086 4.91138L27.6715 15.5154L19.931 28.4754L46.64 18.4609L70.086 4.91138Z" fill="#BE8F00"/>
<path d="M44.314 25.5335L23.0765 43.439L19.931 28.4755L38.941 19.168L44.314 25.5335Z" fill="#9E7700"/>
<path d="M44.3135 25.5334L38.941 23.4679V19.1679L70.0865 4.91138L71.077 14.0689L70.0865 22.8199L44.3135 25.5334Z" fill="#856300"/>
<path d="M70.086 4.91148V22.82L79.0405 18.461L90.469 0.000976562L70.086 4.91148Z" fill="#BE8F00"/>
<path d="M51.2355 37.0759L28.2605 42.6139L27.671 50.5079L34.9755 45.2064L52.885 43.3209L52.676 39.8414L51.2355 37.0759Z" fill="#464646"/>
<path d="M72.867 31.8984L68.2835 32.9954L68.044 34.9474L69.253 36.9994L73.824 35.8494L74.3195 34.1799L72.867 31.8984Z" fill="#464646"/>
<path d="M87.1695 28.4761L90.1155 40.8466L74.523 38.7366L72.8675 31.8986L87.1695 28.4761ZM69.8865 39.6116L54.5345 49.5651L51.2355 37.0761L68.284 32.9961L69.8865 39.6116Z" fill="#4F5252"/>
<path d="M59.9285 84.4315L40.5685 78.897L44.602 90.056L71.5545 97.61L59.9285 84.4315Z" fill="#BE8F00"/>
<path d="M44.602 128.617L71.67 116.671H74.6335L91.696 125.439L74.6335 133.75L44.602 128.617Z" fill="#CCAC13"/>
<path d="M71.555 97.6104L71.67 116.671L74.634 134.466V116.671L71.555 97.6104Z" fill="#BE8F00"/>
<path d="M24.9285 110.625L49.232 126.573L48.0315 133.75L43.9475 138.37L16.979 125.208L24.9285 110.625Z" fill="#BE8F00"/>
<path d="M49.2325 126.573L55.2685 130.439L43.9475 138.37L49.2325 126.573Z" fill="#DFBCA4"/>
<path d="M120.782 101.801L128.413 101.241L131.897 107.657L129.624 116.343L120.916 116.32L120.782 101.801Z" fill="#C3977A"/>
<path d="M128.413 101.241L143.896 100.353V103.5L130.706 106.609L128.413 101.241Z" fill="#C3977A"/>
<path d="M120.781 101.801L126.71 91.8774L130.01 92.8794L127.482 106.103L120.844 108.542L120.781 101.801Z" fill="#DFBCA4"/>
<path d="M136.28 105.295L136.75 114.031L129.624 116.343L127.482 106.103L136.28 105.295Z" fill="#DFBCA4"/>
<path d="M9.71403 138.359L45.409 152.228L52.045 158.019L49.6285 170.386L6.73253 161.62L0.726028 144.976L9.71403 138.359Z" fill="#858585"/>
<path d="M45.4085 152.229L0.726528 144.976L12.123 134.573L58.6515 140.338L55.0085 148.679L45.4085 152.229Z" fill="#9DA0A1"/>
<path d="M57.5035 142.116L53.917 144.589L45.409 152.228L49.6285 170.386L63.51 158.019L60.1105 145.645L57.5035 142.116Z" fill="#6E7073"/>
<path d="M44.6025 90.0559L60.105 145.646L53.9175 144.589L40.278 91.6299L44.6025 90.0559Z" fill="#4F5252"/>
<path d="M18.226 152.274L14.1405 152.553L13.8615 154.595L15.997 156.08L13.4905 157.009L13.5835 158.402L17.018 157.937L17.947 155.617L15.2545 153.945L18.5045 153.666L18.226 152.274Z" fill="#DDDDDC"/>
<path d="M23.2385 153.852L19.803 153.202L18.5965 158.773L20.4535 159.33L20.267 156.73L22.9605 157.102L23.2385 153.852ZM21.382 155.988L20.267 155.523L20.4535 154.316L21.567 154.967L21.382 155.988Z" fill="#DDDDDC"/>
<path d="M28.159 154.967L24.445 154.502L23.981 159.701L27.88 159.98L28.159 154.967ZM26.4875 158.587L25.0945 158.215L25.373 156.173L27.045 156.638L26.4875 158.587Z" fill="#DDDDDC"/>
<path d="M33.752 161.233L32.8 158.958L33.6355 155.709L30.201 155.059L28.994 160.63L30.851 161.186L30.665 158.587L32.4985 161.372L33.752 161.233ZM30.851 156.173L31.965 156.823L31.779 157.845L30.665 157.38L30.851 156.173Z" fill="#DDDDDC"/>
<path d="M34.7965 156.22L39.8095 156.498L39.6005 157.821L37.3725 157.682L37.0245 161.79L35.214 161.441L36.2585 157.751L34.4485 157.473L34.7965 156.22Z" fill="#DDDDDC"/>
</svg>
