<svg width="146" height="200" viewBox="0 0 146 200" fill="none" xmlns="http://www.w3.org/2000/svg">
<path d="M99.8255 46.311L85.9195 48.996L86.845 55.946L88.265 64.381L95.2945 59.486L99.8255 46.311Z" fill="#8F8F8F"/>
<path d="M84.27 39.896L88.12 50.351L99.825 46.311L84.27 39.896Z" fill="#DDDDDC"/>
<path d="M89.755 73.211L92.455 75.411L98.165 76.576L103.155 65.946L95.205 68.601L89.755 73.211Z" fill="#8F8F8F"/>
<path d="M95.295 59.4861H85.92L89.755 73.2111L103.155 65.9461L95.295 59.4861Z" fill="#C4C4C4"/>
<path d="M37.56 68.6011L26.08 71.7461L22.73 80.5111L29.64 81.7811L38.46 74.3011L37.56 68.6011Z" fill="#C4C4C4"/>
<path d="M36.07 60.5911L20.115 64.7811L26.08 71.7461L36.935 73.7961L40.095 68.6011L36.07 60.5911Z" fill="#8F8F8F"/>
<path d="M36.115 49.1059L32.96 49.7859L30.555 46.7109L20.115 64.7809L36.43 62.5259L36.115 49.1059Z" fill="#DDDDDC"/>
<path d="M45.14 76.1709L22.73 80.5109L27.545 84.0759L46.78 80.9309L45.14 76.1709Z" fill="#8F8F8F"/>
<path d="M122.709 77.0558L126.974 73.2908L130.659 67.0208L130.389 52.6958L121.819 61.4058L119.294 71.4208L122.709 77.0558Z" fill="#8A6651"/>
<path d="M145.259 26.4707L143.939 27.4457L138.049 37.8707L135.604 41.3307L136.225 48.3507L130.66 52.1107L131.495 54.8657L128.049 62.8757L124.845 64.9657L121.084 73.2107L126.975 73.2907L133.439 54.9557L139.395 49.9507L139.165 41.1757L145.259 26.4707Z" fill="#35785D"/>
<path d="M128.775 64.5556L131.494 54.8656L130.66 52.1106L124.845 64.9656L128.775 64.5556Z" fill="#53AF8A"/>
<path d="M143.939 27.4457L145.259 26.4707L143.044 26.6407L135.604 41.3307L138.669 39.5357L143.939 27.4457Z" fill="#53AF8A"/>
<path d="M117.595 64.9657L119.834 57.2707L129.285 51.1357L130.66 52.1107L128.774 56.1907L124.865 59.6157L124.845 64.9657L123.185 68.6007L119.294 71.4207L117.595 64.9657Z" fill="#DFBCA4"/>
<path d="M136.315 52.5406L135.605 68.6256L126.975 73.2906L130.66 52.1106L136.315 52.5406Z" fill="#C3977A"/>
<path d="M124.525 87.0556L115.095 67.9756L107.005 78.1006L97.995 96.8706L124.525 87.0556Z" fill="#738D56"/>
<path d="M89.755 73.2107L88.605 84.2557L100.765 94.2657L107.005 78.1007L89.755 73.2107Z" fill="#99C26C"/>
<path d="M91.6 99.0356L108.81 101.671L119.295 94.2656L122.165 85.5906L100.765 94.2656L91.6 84.5506L76.93 69.3906L91.6 99.0356Z" fill="#5A753C"/>
<path d="M117.595 64.9656L115.095 67.9756L122.165 85.5906L108.81 101.671L112.709 102.021L126.74 86.5756L117.595 64.9656Z" fill="#35785D"/>
<path d="M85.16 101.236L94.0665 100.115L90.7585 84.9478L85.16 101.236Z" fill="#738D56"/>
<path d="M45.625 86.2007L40.655 85.4507L27.545 84.0757L45.05 98.2007L46.285 102.351L54.275 118.606L65.02 108.126L45.625 86.2007Z" fill="#738D56"/>
<path d="M38.92 104.856L44.705 115.006L50.765 117.726L55.13 111.511L46.285 96.1008L38.92 104.856Z" fill="#446024"/>
<path d="M61.7695 85.4441C69.1965 93.2036 76.6225 100.963 84.0495 108.722C84.271 97.3046 84.4925 85.8876 84.7145 74.4701C84.3395 74.2186 69.085 73.1401 69.085 73.1401C67.8755 74.1951 66.393 75.7096 65.03 77.7686C63.0775 80.7201 62.196 83.5446 61.7695 85.4441Z" fill="#53AF8A"/>
<path d="M61.15 77.7651L59.545 84.5501L44.505 91.2256L67.345 107.091L67.485 107.286L82.53 102.136L61.15 77.7651Z" fill="#53AF8A"/>
<path d="M40.445 90.0307L44.505 91.2257L62.28 84.5507L36.935 73.7957L29.64 81.7807L40.445 90.0307Z" fill="#71C8A6"/>
<path d="M76.085 67.4306L76.055 67.3706L75.95 67.4406L76.085 67.4306Z" fill="#35785D"/>
<path d="M65.865 104.791L29.64 81.7808L27.545 84.0758L65.02 108.126L78.825 126.026L86.35 102.141L65.865 104.791Z" fill="#35785D"/>
<path d="M61.15 77.7658L52.84 72.0858L37.56 68.6008L36.935 73.7958L62.28 84.5508L61.15 77.7658Z" fill="#35785D"/>
<path d="M62.322 84.1022C64.909 80.5592 67.495 77.0157 70.082 73.4727C69.0845 70.9232 68.087 68.3737 67.089 65.8242C65.5375 68.2627 63.986 70.7017 62.434 73.1402C62.3965 76.7942 62.3595 80.4482 62.322 84.1022Z" fill="#35785D"/>
<g opacity="0.1">
<path d="M5.41498 194.62L54.905 200L131.69 193.89L58.85 188.555L5.41498 194.62Z" fill="#2B2B2B"/>
</g>
<path d="M69.065 180.585V187.42L77.505 184.815L82.3 181.17L83.87 175.015L69.065 180.585Z" fill="#35785D"/>
<path d="M32.805 174.435L30.27 187.455L37.575 187.42L44.505 183.035L46.06 179.76L32.805 174.435Z" fill="#35785D"/>
<path d="M82.2995 181.17L69.0645 187.42V190.971L80.2945 191.915L94.08 190.971L82.2995 181.17Z" fill="#53AF8A"/>
<path d="M69.065 190.97H94.08V194.35H69.065V190.97Z" fill="#35785D"/>
<path d="M44.505 183.035L47.585 192.845L38.92 194.535L29.04 192.845L30.27 187.455L44.505 183.035Z" fill="#53AF8A"/>
<path d="M29.04 192.845H47.585V196.225H29.04V192.845Z" fill="#35785D"/>
<path d="M94.145 99.2808L93.299 100.525L68.325 137.241L55.13 111.51L44.705 115.006L24.94 170.041L51.65 186.206L51.745 186.276L96.045 168.836L94.145 99.2808Z" fill="#738D56"/>
<path d="M84.825 102.141L76.085 117.406L71.6295 113.411L65.02 108.126L55.1295 111.511L52.1 182.485L91.6 99.0361L85.16 101.236L84.825 102.141Z" fill="#99C26C"/>
<path d="M52.1 182.485L24.94 170.04L23.74 173.826L51.65 186.205L51.745 186.275L96.15 172.94L96.045 168.835L52.1 182.485Z" fill="#35785D"/>
<path d="M93.7395 98.6387L82.729 98.8457C82.729 98.8457 81.9375 113.313 81.75 113.501C81.5625 113.688 94.0625 112.251 94.0625 112.251L93.7395 98.6387Z" fill="#728C56"/>
<path d="M17.5697 129.63L12.4197 135.565L10.2597 138.056L13.0196 140.61L19.7847 131.266L17.5697 129.63Z" fill="#C3977A"/>
<path d="M12.4198 120.05L5.82976 122.54L3.14973 128.351L6.54468 136.315L10.2597 138.056L10.2647 138.05L15.4747 132.701L12.4198 120.05Z" fill="#DFBCA4"/>
<path d="M17.8248 129.34L8.04983 117.726L5.8298 122.54L15.4747 132.701L17.5698 129.63L17.8248 129.34Z" fill="#8A6651"/>
<path d="M10.2597 138.055L3.14974 128.35L0.424684 137.791L4.90964 144.28L10.2647 138.05L10.2597 138.055Z" fill="#C3977A"/>
<path d="M27.545 84.0756L7.34486 110.93L31.7048 114.641L41.295 91.2257L27.545 84.0756Z" fill="#99C26C"/>
<path d="M7.34485 110.931L17.0397 130.38L22.5147 128.486L40.655 92.2063L7.34485 110.931Z" fill="#738D56"/>
<path d="M41.295 91.2257L17.0397 128.351L25.8347 127.691L30.8848 124.635L46.2849 96.1008L41.295 91.2257Z" fill="#5A753C"/>
<path d="M15.4747 132.701L28.5247 128.351L30.8847 124.636L17.0397 128.351L7.34483 110.931L4.88481 114.161L15.4747 132.701Z" fill="#35785D"/>
<path d="M90.745 65.6262L82.43 17.0762L68.61 6.43115L59.84 13.8462L41.63 12.6512L38.46 15.5362L45.05 28.4012L56.37 75.0512L73.025 70.4562L90.745 65.6262Z" fill="#DFBCA4"/>
<path d="M68.61 9.20119L82.43 17.0762L74.19 6.08119L67.41 4.09619L65.985 6.43119L68.61 9.20119Z" fill="#EBEBEB"/>
<path d="M53.8055 10.3961L61.3255 17.0761L68.6105 9.2011L67.4105 4.0966L53.4755 0.00610352L53.8055 10.3961Z" fill="#DDDDDC"/>
<path d="M40.2054 10.3961L40.3504 12.0261L41.4754 12.9506L61.2999 17.1011L61.3254 17.0766L53.4754 0.00610352L40.2054 10.3961Z" fill="#C4C4C4"/>
<path d="M46.59 21.1111L41.63 12.6511L33.46 26.5661L37.56 31.3061L38.46 43.7811L34.755 39.6211L32.06 43.7061L27.545 45.3761L31.255 56.2011L35.075 55.2461L37.56 55.7461L36.43 62.5261L37.56 68.6011L53.805 74.9111L56.815 75.1161L46.59 21.1111Z" fill="#C3977A"/>
<path d="M35.075 55.2461L36.43 62.5261L40.04 53.9111L35.075 55.2461Z" fill="#8A6651"/>
<path d="M30.555 46.7112L36.935 50.9812L35.255 45.1912L30.555 46.7112Z" fill="#8A6651"/>
<path d="M64.6 72.781L53.805 74.911L62.01 78.101L64.6 72.781Z" fill="#8A6651"/>
<path d="M25.285 22.226L32.06 43.706L34.225 42.931L38.84 45.601L40.17 28.681L34.855 25.566L41.63 12.651L40.205 10.396L25.285 22.226Z" fill="#8F8F8F"/>
<g opacity="0.99">
<path d="M65.865 104.791L29.64 81.7805L27.545 84.0755L65.02 108.126L78.825 126.026L86.35 102.141L65.865 104.791Z" fill="#35785D"/>
</g>
<path d="M70.585 50.3511L58.4 61.3161L65.865 104.791L79.545 117.386L80.59 119.241L80.1155 121.086L78.825 126.026L86.315 131.231L81.32 78.1011L74.205 51.1361L70.585 50.3511Z" fill="#C4C4C4"/>
<path d="M87.75 116.13L94.145 99.2805L86.845 55.9455L76.27 49.1055L74.205 51.1355L86.315 131.23L90.425 123.25L88.32 119.83L87.16 118.141L87.75 116.13Z" fill="#EBEBEB"/>
<path d="M88.32 119.831L80.1155 121.086L79.545 117.385L87.75 116.131L88.32 119.831Z" fill="#446024"/>
<path d="M79.735 57.436L68.38 59.376L67.875 57.071L79.225 55.136L79.735 57.436Z" fill="#8A6651"/>
<path d="M86.2704 39.761L86.2994 39.896L86.2854 39.761H86.2704Z" fill="#8F8F8F"/>
<path d="M52.6605 32.021L70.5855 50.351L69.6705 34.736L63.0755 28.361L68.6655 27.381L71.5455 35.416L74.221 39.851L77.9555 26.566L70.4705 25.396L68.6655 27.381L63.0755 28.361L59.8405 26.786L52.6605 32.021Z" fill="#C3977A"/>
<path d="M59.1755 24.7861L59.8405 26.7861L52.6605 32.0211L51.7355 29.6811L59.1755 24.7861Z" fill="#8F8F8F"/>
<path d="M69.6755 23.0061L70.4705 25.3961L77.9555 26.5661L78.4605 24.9461L69.6755 23.0061Z" fill="#8F8F8F"/>
<path d="M68.6655 27.3811L72.7355 33.1711L76.2705 49.1061L70.5855 50.3511L67.5055 34.6161L63.0755 28.3611L68.6655 27.3811Z" fill="#E8C9B6"/>
<path d="M76.2704 49.1062L70.5854 50.3512L74.4404 52.6962L76.2704 49.1062Z" fill="#8F8F8F"/>
<path d="M59.76 35.9211C60.931 35.9211 61.88 36.8701 61.88 38.0411C61.88 39.2121 60.931 40.1611 59.76 40.1611C58.589 40.1611 57.64 39.2121 57.64 38.0411C57.64 36.8701 58.589 35.9211 59.76 35.9211Z" fill="#2B2B2B"/>
<path d="M76.27 32.176C77.441 32.176 78.39 33.125 78.39 34.296C78.39 35.467 77.441 36.416 76.27 36.416C75.099 36.416 74.15 35.467 74.15 34.296C74.15 33.125 75.099 32.176 76.27 32.176Z" fill="#2B2B2B"/>
</svg>
