<svg width="144" height="200" viewBox="0 0 144 200" fill="none" xmlns="http://www.w3.org/2000/svg">
<g opacity="0.1">
<path d="M108.495 195.01L68.05 188.295L18.885 193.445L56.955 200L108.495 195.01Z" fill="#2B2B2B"/>
</g>
<path d="M96.175 61.1951L113.971 54.1001L101.94 15.8501L97.255 13.4751L92.465 11.1701L85.19 8.36011L79.715 16.5701L78.6005 15.9951L76.3705 20.6051L86.92 64.4701L96.175 61.1951Z" fill="#DFBCA4"/>
<path d="M76.4051 20.675L86.9201 64.47L85.4101 66.095L81.4101 66.635L78.6001 63.14L76.6206 58.135L75.4301 44.95L76.4051 20.675Z" fill="#C3977A"/>
<path d="M76.405 20.6755L86.92 64.47L85.41 66.095C81.9135 66.5685 78.4165 67.042 74.92 67.5155C70.8135 54.8695 66.7065 42.2235 62.6 29.577C67.2015 26.61 71.8035 23.643 76.405 20.6755Z" fill="#C3977A"/>
<path d="M96.175 61.1951L113.971 54.1001L101.94 15.8501L97.255 13.4751L92.465 11.1701L85.19 8.36011L79.715 16.5701L78.6005 15.9951L76.3705 20.6051L86.92 64.4701L96.175 61.1951Z" fill="#DFBCA4"/>
<path d="M98.2655 40.5549L97.6545 43.1849L95.7795 41.3149L98.2655 40.5549Z" fill="#8A6651"/>
<path d="M101.975 15.85L99.49 8.755L82.13 0L81.015 8.465L85.19 8.36L92.4645 11.17L97.255 13.475L101.975 15.85Z" fill="#E8EF78"/>
<path d="M82.1301 0L57.3851 8.215L50.8701 25.54L48.5651 30.295L55.5151 27.88L62.4301 25.575L69.3451 23.125L76.4051 20.675L79.7151 16.57L85.1901 8.36L82.1301 0Z" fill="#D9E253"/>
<path d="M76.405 20.675L69.525 23.09L62.43 25.575L55.515 27.88L48.565 30.295L46.545 64.185L67.9315 69.3675L76.1025 43.874L76.3225 23.68L76.405 20.675Z" fill="#B8C645"/>
<path d="M81.4106 66.6351L87.1701 77.1151L96.1746 61.1951L86.9201 64.4701L81.4106 66.6351Z" fill="#8A6651"/>
<path d="M92.79 25.72L96.395 35.515L102.91 23.845L92.79 25.72Z" fill="#C3977A"/>
<path d="M90.3801 26.1501L81.7701 32.5251L89.08 33.4601L95.7801 41.3151L90.3801 26.1501Z" fill="#C3977A"/>
<path d="M90.38 26.1501L82.31 29.7151L81.7701 32.5251L90.38 26.1501Z" fill="#B8C645"/>
<path d="M92.79 25.7201L102.12 22.3301L102.91 23.8451L92.79 25.7201Z" fill="#B8C645"/>
<path d="M90.3801 26.15L95.7796 41.315L98.2651 40.555L96.4226 35.5625L92.7896 25.72L90.3801 26.15Z" fill="#E8C9B6"/>
<path d="M106.515 44.77L99.2 49.85L89.6945 50.1L99.96 52.66L106.515 44.77Z" fill="#99C26C"/>
<path d="M106.515 44.77L103.525 45.85L99.3795 46.535L96.7145 47.435L93.585 49.235L89.6945 50.1L99.2 49.85L106.515 44.77Z" fill="#5A753C"/>
<path d="M50.9402 104.161L45.7203 126.351L41.8553 120.331L42.2602 115.26L39.7437 107.14L50.9402 104.161Z" fill="#99C26C"/>
<path d="M51.245 83.3151L39.7442 107.139L58.6286 102.068L51.245 83.3151Z" fill="#738D56"/>
<path d="M45.7203 126.351L41.2003 126.816L35.8303 125.276L42.2652 115.256L45.7203 126.351Z" fill="#DFBCA4"/>
<path d="M41.2003 126.816L31.7552 118.996L30.1703 125.186L34.3453 127.561L41.2003 126.816Z" fill="#C3977A"/>
<path d="M68.155 175.69L66.7205 176.756L60.595 181.31L68.05 195.935L72.84 179.975L68.155 175.69Z" fill="#DFBCA4"/>
<path d="M68.05 195.935L76.545 195.75L69.525 190.96L68.05 195.935Z" fill="#C3977A"/>
<path d="M72.84 179.975L66.32 177.095L67.83 175.44L70.9005 178.219L72.84 179.975Z" fill="#8A6651"/>
<path d="M37.685 147.96L31.095 145.58L27.53 165.21L42.44 152.28L37.685 147.96Z" fill="#DFBCA4"/>
<path d="M31.78 161.535L33.22 169.855L27.53 165.21L31.78 161.535Z" fill="#C3977A"/>
<path d="M37.6849 147.96L39.2349 155.09L42.4399 152.28L39.4354 149.55L37.6849 147.96Z" fill="#8A6651"/>
<path d="M100.5 28.31C99.3955 28.31 98.5 29.2055 98.5 30.31C98.5 31.4145 99.3955 32.31 100.5 32.31C101.615 32.313 102.525 31.424 102.55 30.31C102.55 29.2055 101.655 28.3105 100.551 28.31C100.533 28.31 100.517 28.3095 100.5 28.31Z" fill="#2B2B2B"/>
<path d="M87.245 33.1001C86.1155 33.1136 85.2035 34.0261 85.19 35.1556C85.214 36.2711 86.129 37.1611 87.245 37.1556C88.3495 37.1556 89.245 36.2601 89.245 35.1556C89.251 34.0396 88.3605 33.1246 87.245 33.1001Z" fill="#2B2B2B"/>
<path d="M50.8075 83.9396L61.8775 112.77L68.5425 114.82C75.561 114.496 87.911 115.098 87.911 115.098L86.3215 81.2851L81.618 72.3451L61.596 71.0076L50.8075 83.9396Z" fill="#5A753C"/>
<path d="M87.81 114.26L61.815 112.521L63.44 116.84L73.02 123.72L89.045 124.44L88.92 123.332L87.81 114.26Z" fill="#99C26C"/>
<path d="M63.44 116.84L50.47 133.48L67.47 136.326L89.045 124.44L63.44 116.84Z" fill="#53AF8A"/>
<path d="M50.47 133.48L58.285 145.075L54.18 157.18L75.505 170.575L89.045 124.44L50.47 133.48Z" fill="#3E8F6E"/>
<path d="M58.285 145.075L37.685 147.96C49.4035 158.631 61.1215 169.303 72.84 179.975L75.505 170.575L58.285 145.075Z" fill="#35785D"/>
<path d="M104.245 11.0599L99.4901 8.75488L97.1501 13.5099L101.975 15.8499L104.245 11.0599Z" fill="#35785D"/>
<path d="M97.2551 13.4749L92.4651 11.1699L90.1606 15.9199L94.9906 18.2649L97.2551 13.4749Z" fill="#53AF8A"/>
<path d="M90.3396 15.8498L85.5151 13.5098L83.2451 18.2998L87.9996 20.6048L90.3396 15.8498Z" fill="#35785D"/>
<path d="M83.3551 18.2999L78.6001 15.9949L76.2601 20.7849L81.0501 23.0899L83.3551 18.2999Z" fill="#53AF8A"/>
<path d="M76.4051 20.675L71.6151 18.335L69.3451 23.125L74.1351 25.43L76.4051 20.675Z" fill="#35785D"/>
<path d="M69.5251 23.09L64.7701 20.75L62.4301 25.575L67.2551 27.845L69.5251 23.09Z" fill="#53AF8A"/>
<path d="M62.6101 25.43L57.7851 23.125L55.5151 27.88L60.3051 30.22L62.6101 25.43Z" fill="#35785D"/>
<path d="M55.6601 27.8448L50.8701 25.5398L48.5651 30.2948L53.3151 32.6348L55.6601 27.8448Z" fill="#53AF8A"/>
<path d="M88.2147 106.25L109.935 100.02L111.99 101.895L112.745 104.305L89.0447 124.44L88.2147 106.25Z" fill="#99C26C"/>
<path d="M87.5075 91.9823L89.0452 124.44L67.4 91.595L76.3305 91.9749L87.5075 91.9823Z" fill="#738D56"/>
<path d="M109.935 100.02L113.355 96.4899L117.715 99.7349L122.47 92.0249H123.765L121.53 102.325L112.745 104.305L109.935 100.02Z" fill="#DFBCA4"/>
<path d="M111.625 98.2199L121.53 102.325L123.44 97.6799L123.765 92.0249H122.47L119.335 95.9499L117.715 99.7349L115.66 97.2849L113.355 96.4899L111.625 98.2199Z" fill="#8A6651"/>
<path d="M125.53 102.47L125.675 111.76H123.8L123.945 102.47H125.53Z" fill="#738D56"/>
<path d="M124.52 84.4249L125.28 75.3499L114.69 78.1949L120.67 84.4249H124.52Z" fill="#B8C645"/>
<path d="M120.67 86.0799L110.69 81.5049L107.125 90.5099L120.67 88.9249V86.0799Z" fill="#B8C645"/>
<path d="M120.67 90.5098L109.035 93.1748L117.715 99.7348L122.47 92.0248H120.67V90.5098Z" fill="#B8C645"/>
<path d="M123.766 92.0249L121.53 102.325L130.681 102.47L126.465 92.0249H123.766Z" fill="#B8C645"/>
<path d="M128.306 92.0247L135.325 101.315L141.195 95.6247L128.306 89.8647V92.0247Z" fill="#B8C645"/>
<path d="M128.305 88.64L141.915 91.88L143.285 84.21L128.305 86.875V88.64Z" fill="#B8C645"/>
<path d="M128.305 85.6149L139.9 79.5249L132.015 74.7349L125.71 84.4249H128.305V85.6149Z" fill="#B8C645"/>
<path d="M128.305 92.0248H120.67V84.4248H128.305V92.0248Z" fill="#5A753C"/>
<path d="M124.52 84.4248L120.67 88.2448L124.52 92.0248L128.305 88.2448L124.52 84.4248Z" fill="#D9E253"/>
<path d="M75.7502 56.75L74.0003 87.75L76.2504 92.375L80.0043 88L78.4132 62.48L75.7502 56.75Z" fill="#D9E354"/>
<path d="M76.6202 58.135L87.1703 77.115L95.2404 92.0249L76.3304 92.35L76.6202 58.135Z" fill="#D9E253"/>
<path d="M72.9096 37.135L50.8698 84.3151L37.4348 77.2952L46.5447 64.1851L74.1345 25.43L72.9096 37.135Z" fill="#D9E253"/>
<path d="M72.9098 37.135L65.627 52.7256L50.8704 84.3153L64.6875 90.4001L67.4005 91.595L69.2702 72.97L72.48 58.78L72.9098 37.135Z" fill="#B8C645"/>
<path d="M74.1351 25.4299L67.4006 91.595L76.3311 92.3499L76.6208 58.1349L76.3705 20.6049L74.1351 25.4299Z" fill="#E8EF78"/>
<path d="M76.4401 34.7199L72.9102 37.135L72.0802 45.565L76.5102 42.5749L76.4401 34.7199Z" fill="#5A753C"/>
<path d="M76.5097 42.5749L72.0802 45.5649L71.4697 51.685L76.5447 48.8749L76.5097 42.5749Z" fill="#99C26C"/>
<path d="M76.5452 48.875L71.4703 51.685L70.7503 58.495L76.5853 55.25L76.5452 48.875Z" fill="#5A753C"/>
<path d="M76.5853 55.25L70.7503 58.495L69.9954 66.02L76.5854 62.24L76.5853 55.25Z" fill="#99C26C"/>
<path d="M76.5853 62.2399L69.9954 66.02L69.2704 72.97L76.5454 68.9399L76.5853 62.2399Z" fill="#5A753C"/>
<path d="M18.6702 91.9368L14.941 75.366L10.0981 86.0366L18.6702 91.9368Z" fill="#3E8F6E"/>
<path d="M10.0981 86.0366L1.112 77.9954L4.35027 94.3888L10.0981 86.0366Z" fill="#53AF8A"/>
<path d="M17.2942 94.8603L10.0981 86.0366L10.3499 90.4364L11.4851 93.7358L17.2942 94.8603Z" fill="#738D56"/>
<path d="M10.0981 86.0365L6.70054 96.8096L11.4851 93.7357L10.0981 86.0365Z" fill="#99C26C"/>
<path d="M139.82 15.9328L132.003 2.28824L130.246 14.1757L139.82 15.9328Z" fill="#3E8F6E"/>
<path d="M130.247 14.1755L119.759 9.375L126.914 23.5661L130.247 14.1755Z" fill="#53AF8A"/>
<path d="M139.618 19.3711L130.246 14.1755L131.682 18.1895L134.216 20.914L139.618 19.3711Z" fill="#738D56"/>
<path d="M130.247 14.1755L129.944 25.192L134.216 20.9139L130.247 14.1755Z" fill="#99C26C"/>
<path d="M22.4377 16.9077L30.6323 2.81519L33.06 14.8751L22.4377 16.9077Z" fill="#3E8F6E"/>
<path d="M33.06 14.875L44.9167 11.4172L36.7474 25.114L33.06 14.875Z" fill="#53AF8A"/>
<path d="M22.6396 21.0737L33.06 14.875L31.005 19.525L28.99 21.575L22.6396 21.0737Z" fill="#738D56"/>
<path d="M33.06 14.875L32.9165 27.0234L28.99 21.575L33.06 14.875Z" fill="#99C26C"/>
</svg>
