<svg width="164" height="192" viewBox="0 0 164 192" fill="none" xmlns="http://www.w3.org/2000/svg">
<g opacity="0.1">
<path d="M163.59 182.14L143.32 173.955L55.8705 171.84L0.100494 183.97L50.035 192L163.59 182.14Z" fill="black"/>
</g>
<path d="M122.615 166.395L123.705 177.63L131.42 177.6L131.725 167.275L122.615 166.395Z" fill="#4F5252"/>
<path d="M69.745 166.395L70.84 177.63L78.55 177.6L80.565 167.275L69.745 166.395Z" fill="#4F5252"/>
<path d="M71.705 181.135L73.175 165.38L58.465 167.085L59.34 181.89L71.705 181.135Z" fill="#858585"/>
<path d="M142.895 181.89L143.32 167.37L129.7 165.38L129.96 181.89H142.895Z" fill="#858585"/>
<path d="M143.32 169.076L143.465 161.826L103.98 145.65L58.94 158.525L59.285 169.076H143.32Z" fill="#858585"/>
<path d="M139.485 161.825L61.875 159.405L104.92 149.805L139.485 161.825Z" fill="#C4C4C4"/>
<g opacity="0.1">
<path d="M105.86 157.96L59.735 171.995L62.49 166.616L84.3905 158.88L105.86 157.96Z" fill="black"/>
</g>
<g opacity="0.1">
<path d="M105.86 153.965V157.96L143.29 168.346L143.465 161.826L105.86 153.965Z" fill="#2B2B2B"/>
</g>
<path d="M62.49 166.616L105.86 157.96L108.045 152.89L105.165 147.675L63.86 152.326L62.49 166.616Z" fill="#CECECD"/>
<path d="M104.92 149.805L63.86 152.326L66.42 132.525L78.405 135.53L103.14 141.76L105.165 146.135L104.92 149.805Z" fill="#9DA0A1"/>
<path d="M103.14 141.76L104.92 149.806L121.14 151.59L139.83 147.03L145.37 132.525L103.14 141.76Z" fill="#C4C4C4"/>
<path d="M104.92 149.805L105.86 157.96L154.635 163.28L139.83 147.03L104.92 149.805Z" fill="#EBEBEB"/>
<g opacity="0.1">
<path d="M139.83 148.032L133.25 152.917L123.47 149.373L139.83 148.032Z" fill="black"/>
</g>
<g opacity="0.1">
<path d="M118.845 152.591L111.365 156.396L105.165 152.865L118.845 152.591Z" fill="black"/>
</g>
<g opacity="0.1">
<path d="M99.675 147.797L92.1445 150.382L83.6247 143.994L99.675 147.797Z" fill="black"/>
</g>
<path d="M131.105 133.425H133.25V150.855H131.105V133.425Z" fill="#785D87"/>
<path d="M111.365 136.905H113.51V154.335H111.365V136.905Z" fill="#785D87"/>
<path d="M92.275 130.89H94.42V148.32H92.275V130.89Z" fill="#785D87"/>
<path d="M82.1855 85.75L91.3045 112.696L77.845 126.015L57.1955 86.5125L72.44 78.98L82.1855 85.75Z" fill="#734D5F"/>
<path d="M82.51 97.745L77.885 126.14L97.1555 118.475L91.43 98.66L87.6895 96.04L82.51 97.745Z" fill="#95627B"/>
<path d="M56.4375 160.562L50.3185 163.707L41.5625 161.188L42.875 173.875L48.061 175.605L53.375 173.688L56.4375 160.562Z" fill="#543042"/>
<path d="M78.405 136.53L50.035 147.686V163.795L57.04 167.241L66.92 158.96L78.405 136.53Z" fill="#734D5F"/>
<path d="M66.92 158.96L50.035 163.795L48.025 175.525H54.255L59.735 172.995L66.92 158.96Z" fill="#532F42"/>
<path d="M50.035 163.795L52.325 150.435L42.875 141.97L23.82 133.525L29.275 161.125L40.175 168.085L50.035 163.795Z" fill="#95627B"/>
<path d="M78.405 136.53L52.325 150.436L23.82 133.525L54.255 133.51L78.405 136.53Z" fill="#532F42"/>
<path d="M29.275 161.125L50.035 163.795L48.025 175.525L40.175 177.565L32.405 176.965L29.275 161.125Z" fill="#734D5F"/>
<path d="M47.565 182.135L57.475 183.03L71.705 182.135L59.735 172.995L48.025 175.525L47.565 182.135Z" fill="#785D87"/>
<path d="M47.565 182.135H71.705V185.536H47.565V182.135Z" fill="#584164"/>
<path d="M48.025 175.525L52.62 185.54L41.765 186.58L30.915 185.54L32.405 176.965L48.025 175.525Z" fill="#90759F"/>
<path d="M30.915 185.54H52.62V188.94H30.915V185.54Z" fill="#584164"/>
<path d="M47.2499 70L26.4999 80.75L36.7499 110.5L57.9999 82.5L47.2499 70Z" fill="#B3889D"/>
<path d="M24.3249 122.175L24.9949 117.541L29.4849 86.4799L17.9799 79.7749L8.3999 105.51L24.3249 122.175Z" fill="#734D5F"/>
<path d="M8.3999 105.51L25.7899 104.98L27.5149 115.33L24.1399 126.355L8.3999 105.51Z" fill="#532F42"/>
<path d="M53.8399 90.85L63.5599 76.83L74.8449 80.425L77.8449 126.015L50.0299 129.185L24.1399 126.355L27.3049 87.215L33.2649 82.49L36.1449 74.51L53.8399 90.85Z" fill="#95627B"/>
<path d="M65.0499 111.325L68.1099 126.075L37.1299 126.27L39.8449 115.33L45.9499 98.1851L53.8399 90.8501L60.6799 98.1851L65.0499 111.325Z" fill="#734D5F"/>
<path d="M53.8399 90.85L65.0499 111.325L64.4499 78.78L53.8399 90.85Z" fill="#B3879D"/>
<path d="M55.0349 102.975L57.0399 106.645L53.3649 109.15L50.6949 105.31L55.0349 102.975Z" fill="#B3879D"/>
<path d="M54.8699 114.325L51.1999 116.66L54.0349 120.335L57.2049 117.995L54.8699 114.325Z" fill="#B3879D"/>
<path d="M24.1399 126.355L46.6299 126.21L54.1999 128.11L61.8749 126.115L77.8449 126.015L78.4049 136.53L61.3549 135.59L55.6549 134.465L46.6849 134.785L23.8199 133.525L24.1399 126.355Z" fill="#584164"/>
<path d="M61.8749 126.115L46.6299 126.209L46.6849 134.785L61.3549 135.589L61.8549 126.115H61.8749ZM58.0399 132.524H49.8599L50.0299 129.184L58.2099 128.849L58.0399 132.524Z" fill="#B3879D"/>
<g opacity="0.1">
<path d="M53.8399 90.85L75.4299 80.605L64.4499 78.78L53.8399 90.85Z" fill="black"/>
</g>
<path d="M64.6349 85.7255L82.4699 86.6705L80.7799 80.9405L64.4499 78.7805L64.6349 85.7255Z" fill="#584164"/>
<path d="M43.8449 81.6201L22.6549 88.7901L17.9799 79.7751L26.1689 77.3721L37.8499 73.9451L43.8449 81.6201Z" fill="#584164"/>
<path d="M37.8499 73.9451L39.8449 115.33L53.8399 90.8501L52.1159 89.0276L38.3954 74.5221L37.8499 73.9451Z" fill="#B3879D"/>
<path d="M30.5996 49.7154L36.0945 48.2404L44.9946 54.9853L39.3397 60.3103L24.8397 61.7355L30.5996 49.7154Z" fill="#584164"/>
<path d="M99.6743 29.2848L96.93 42.3499L84.4553 82.34L64.4498 78.7802L53.8404 90.8503L41.6647 70.8754L46.9295 49.2154L50.465 47.7303L52.4949 37.4853L51.7493 22.0503L69.0742 13.2951L85.4698 22.775L88.8842 13.935L99.6743 29.2848Z" fill="#DFBCA4"/>
<path d="M52.3793 22.3001L62.3595 41.34L60.0448 79.6151L53.8399 90.8501L37.8498 73.9453L39.3396 60.3103L40.6746 57.3752L40.6596 54.4452L34.9196 53.6753L35.0095 40.2403L43.6995 40.2052L46.9295 47.9602L49.7145 48.2302L51.9944 37.6101L52.3793 22.3001Z" fill="#C3977A"/>
<path d="M37.3595 43.0803L41.7445 43.2053L42.8096 51.8653L37.3595 43.0803Z" fill="#8A6651"/>
<path d="M64.4498 78.7801L50.3598 76.2603L53.8399 90.8502L64.4498 78.7801Z" fill="#8A6651"/>
<path d="M40.6596 54.4453L44.4396 54.9853L39.3396 60.3103L40.6596 54.4453Z" fill="#8A6651"/>
<path d="M98.6688 29.1598L102.099 23.5847L109.349 18.7897L96.9295 42.3498L98.6688 29.1598Z" fill="#A687B9"/>
<path d="M52.3793 22.3003L42.2392 16.3554L25.7142 11.2805L28.8244 35.7305L42.9044 37.7754L54.4994 37.6102L52.3793 22.3003Z" fill="#90759F"/>
<path d="M98.6693 29.1599L88.9392 17.1949L83.1092 11.71L77.1391 2.68506L109.349 18.7897L98.6693 29.1599Z" fill="#785D87"/>
<path d="M52.3793 22.3003L70.0742 15.9252L59.8891 7.28527L46.6091 2.11039L25.7142 11.2806L52.3793 22.3003Z" fill="#785D87"/>
<path d="M57.7695 -6.99986L46.6096 2.11074L70.0747 15.9255L86.7203 25.5349L88.9387 17.1948L77.1391 2.68545L57.7695 -6.99986Z" fill="#90759F"/>
<path d="M54.4994 37.6102L28.8244 35.7305L30.5995 49.7155L34.9196 53.6754L35.5745 40.8054L43.6995 41.3403L45.7945 49.9703L50.7145 49.2353L54.4994 37.6102Z" fill="#785D87"/>
<path d="M91.6395 46.6098L62.3595 41.3401L70.0745 49.375L74.0947 62.88L91.6395 46.6098Z" fill="#C3977A"/>
<path d="M60.6797 69.125L75.0443 73.9499L85.3448 72.8448L75.6742 67.7999L60.6797 69.125Z" fill="#8A6651"/>
<path d="M60.6797 69.1251L74.0942 62.88L80.0442 64.0049L85.3448 72.8449L60.6797 69.1251Z" fill="#785D87"/>
<path d="M78.4045 44.2299L74.0947 62.88L80.0447 64.0049L83.0945 45.0749L78.4045 44.2299Z" fill="#E8C9B6"/>
<path d="M62.36 41.3402L91.64 46.6099L92.5695 42.8199L64.315 39.4101L62.36 41.3402Z" fill="#785D87"/>
<path d="M80.0447 63.9751L76.5247 65.7751L74.0947 62.8801L80.0447 63.9751Z" fill="#584164"/>
<path d="M86.3346 50.7549C87.6021 50.7548 88.6296 51.7823 88.6296 53.0498C88.6296 54.3173 87.6021 55.3448 86.3346 55.3449C85.0671 55.3449 84.0396 54.3174 84.0396 53.0499C84.0396 51.7824 85.0671 50.7549 86.3346 50.7549Z" fill="#2B2B2B"/>
<path d="M70.1695 47.6501C71.437 47.6501 72.4646 48.6776 72.4646 49.9451C72.4646 51.2126 71.4371 52.2401 70.1696 52.2401C68.9021 52.2401 67.8746 51.2126 67.8746 49.9451C67.8746 48.6776 68.902 47.6501 70.1695 47.6501Z" fill="#2B2B2B"/>
<path d="M84.8668 91.8884L90.2962 89.9709L85.9899 80.5549L82.285 80.3405L80.0292 83.6343L84.8668 91.8884Z" fill="#C3987B"/>
<path d="M79.045 93.85L82.47 97.62L85.75 98.06L89.155 87.27L79.105 88.79L79.045 93.85Z" fill="#8A6651"/>
<path d="M97.4555 86.5145L91.3905 98.5355L82.4705 97.62L89.155 87.2695L91.3905 84.8145L97.4555 86.5145Z" fill="#C3977A"/>
<path d="M77.845 81.1649L86.035 77.2749L97.455 86.5149L89.155 87.2699L82.185 85.7499L77.845 81.1649Z" fill="#E8C9B6"/>
<path d="M89.155 87.2698L82.47 90.9648L75.23 86.2848L77.845 81.1648L89.155 87.2698Z" fill="#DFBCA4"/>
</svg>
