<svg width="132" height="200" viewBox="0 0 132 200" fill="none" xmlns="http://www.w3.org/2000/svg">
<path d="M41.54 175.195L98.555 175.7L99.6545 161.345L51.57 159.74L41.54 175.195Z" fill="#8F8F8F"/>
<path d="M80.25 71.7051L98.115 59.4751L114.435 62.2701L94.5 88.0101L80.25 71.7051Z" fill="#C4C4C4"/>
<path d="M114.435 62.27L116.15 39.7L109.845 35.105L98.115 59.475L114.435 62.27Z" fill="#9DA0A1"/>
<path d="M108.495 19.9401L103.285 6.2251L98.1655 7.6351L100.775 21.4601L95.405 40.9201L99.8355 44.5851L110.31 41.7001L120.78 38.8151L122.71 33.3951L108.495 19.9401Z" fill="#EBEBEB"/>
<path d="M120.845 33.8451L113.154 26.5701L99.975 30.4151L97.2345 40.3451L100.214 42.8151L119.544 37.4851L120.845 33.8451Z" fill="#785D87"/>
<path d="M100.656 39.8337L101.515 37.9832L103.365 38.8417L102.506 40.6922L100.656 39.8337Z" fill="#A687B9"/>
<path d="M100.646 36.403L101.017 35.605L101.815 35.976L101.444 36.774L100.646 36.403Z" fill="#A687B9"/>
<path d="M103.999 38.776L104.37 37.978L105.168 38.349L104.797 39.147L103.999 38.776Z" fill="#A687B9"/>
<path d="M103.995 36.1916L104.365 35.3936L105.164 35.7646L104.793 36.5626L103.995 36.1916Z" fill="#A687B9"/>
<path d="M107.385 21.1301L110.68 13.5051L118.06 24.6901L117.275 28.2501L113.145 26.6201L107.385 21.1301Z" fill="#DFBCA4"/>
<path d="M102.345 19.8501L107.75 28.1501L113.145 26.6201L110.68 13.5051L102.345 19.8501Z" fill="#C3977A"/>
<g opacity="0.1">
<path d="M23.94 196.155L80.25 200L131.46 194.175L81.33 189.355L23.94 196.155Z" fill="#2B2B2B"/>
</g>
<path d="M61.295 196.685L64.08 192.154L61.09 184.565L58.47 188.445L59.375 196.685H61.295Z" fill="#584164"/>
<path d="M68.105 184.015L68.82 165.18H54.61L61.09 184.565L65.955 188.935L68.105 184.015Z" fill="#C3977A"/>
<path d="M68.205 181.365L59.39 179.484L60.455 182.665L68.205 181.365Z" fill="#8A6651"/>
<path d="M61.09 184.565L68.105 184.015L74.855 196.685H61.295L61.09 184.565Z" fill="#785D87"/>
<path d="M85.82 130.965L114.89 160.44L92.585 117.78L87.5805 121.3L85.82 130.965Z" fill="#EBEBEB"/>
<path d="M87.58 129.105L114.89 160.44L98.555 175.7L90.11 152.405L87.58 129.105Z" fill="#C4C4C4"/>
<path d="M77.37 96.2101L87.58 129.105L92.585 117.78L94.27 91.5901L77.37 96.2101Z" fill="#8F8F8F"/>
<path d="M69.717 75.0761L80.25 98.4751L94.27 91.5901L94.5 88.0101L80.25 71.7051L69.717 75.0761Z" fill="#DDDDDC"/>
<path d="M72.377 76.854C72.377 76.854 62.7335 87.678 60.23 90.0145C62.955 94.329 65.6805 98.6435 68.406 102.958C72.396 101.628 76.387 100.298 80.377 98.9675C79.0105 93.706 72.377 76.854 72.377 76.854Z" fill="#584164"/>
<path d="M69.7675 75.1431L77.6175 92.3726L67.1295 82.7551L69.7675 75.1431Z" fill="#90759F"/>
<path d="M82.69 108.675L80.255 98.49L68.205 102.525L70.15 126.955L70.285 127.105L87.58 129.105L82.69 108.675Z" fill="#584164"/>
<path d="M69.725 75.115L80.285 98.485L83.275 96.881L88.64 81.305L69.725 75.115Z" fill="#EBEBEB"/>
<path d="M95.945 192.695L97.505 186.706L95.4 182.78L92.885 180.52L91.5 185.181L93.695 192.695H95.945Z" fill="#584164"/>
<path d="M99.31 179.015L96.0495 165.18H82.625L92.8845 180.52L97.785 186.46L99.31 179.015Z" fill="#C3977A"/>
<path d="M96.05 165.18L85.82 162.46L82.625 165.18L85.3105 169.19L96.05 165.18Z" fill="#8A6651"/>
<path d="M92.885 180.52L99.3105 179.015L113.36 192.695H100.14L92.885 180.52Z" fill="#785D87"/>
<path d="M54.6105 125.295L76.2655 123.76L86.4855 132.875L96.0495 165.181L49.7835 165.032L54.6105 125.295Z" fill="#785D87"/>
<path d="M70.145 127.09L96.05 165.05L87.58 129.105L79.18 126.36L70.145 127.09Z" fill="#90759F"/>
<path d="M17.765 96.8547L1.85 85.7647L16.71 81.3047L22.295 83.3398L17.765 96.8547Z" fill="#95627B"/>
<path d="M42.7401 69.8298L17.765 96.8547L15.4851 60.2197L42.7401 69.8298Z" fill="#532F42"/>
<path d="M22.6002 21.5347L15.4852 39.6247L0.415094 59.6497L5.42521 25.9797L22.6002 21.5347Z" fill="#B3879D"/>
<path d="M22.6002 21.5347L0.415094 59.6497L21.5801 53.1497L22.6002 21.5347Z" fill="#95627B"/>
<path d="M0.415092 59.6498L15.4851 51.9148L26.8551 55.9399L37.3651 62.1749L42.7401 69.8299L0.415092 59.6498Z" fill="#734D5F"/>
<path d="M15.4851 51.9147L35.8351 62.6848L27.1651 49.1997L15.4851 51.9147Z" fill="#532F42"/>
<path d="M71.6053 11.18L75.2203 13.74L90.1101 55.1851L73.7501 62.335L67.2395 82.8615L51.57 74.125L31.5751 50.0999L25.8152 16.7499L59.2103 1.61999L71.6053 11.18Z" fill="#DFBCA4"/>
<path d="M67.654 82.756L69.3275 77.351L61.2051 69.915L44.5952 28.1699L38.5152 22.9849L25.8151 52.3149L35.8351 62.6849L38.5951 64.1999L42.7401 69.8299L51.57 78.97L58.6 82.725L67.654 82.756Z" fill="#C3977A"/>
<path d="M54.6101 70.74L69.015 77.32L69.329 77.4L73.7501 62.335L54.6101 70.74Z" fill="#8A6651"/>
<path d="M38.5152 22.9848L56.6802 16.5049L62.4453 10.1149L59.4853 -0.000121474L23.9402 15.8298L30.2452 25.2848L38.5152 22.9848Z" fill="#B3879D"/>
<path d="M35.8351 62.6848L38.7951 58.5698L42.7401 69.8298L35.8351 62.6848Z" fill="#8A6651"/>
<path d="M35.8351 62.6848L40.6151 56.0298L29.5851 43.6148L25.8151 52.3147L35.8351 62.6848Z" fill="#DFBCA4"/>
<path d="M30.7851 48.22L35.1101 53.51L27.9901 52.155L30.7851 48.22Z" fill="#8A6651"/>
<path d="M43.3351 58.7649L41.1651 60.9449L36.5501 56.3199L38.8351 54.0249L43.3351 58.7649Z" fill="white"/>
<path d="M59.4853 9.68012e-06L56.6802 16.505L71.6053 11.1801L59.4853 9.68012e-06Z" fill="#95627B"/>
<path d="M29.5851 43.6149L38.8351 54.0249L42.7201 48.2899L32.9052 35.9399L38.5152 22.9849L23.9402 15.8299L15.4851 51.9148L22.5951 52.1899L25.8151 52.3149L29.5851 43.6149Z" fill="#734D5F"/>
<path d="M51.57 78.97L63.68 94.415C65.6245 97.1885 67.5695 99.962 69.514 102.736C69.724 110.854 69.9345 118.971 70.145 127.09C64.9835 126.509 59.822 125.929 54.6605 125.348C49.537 113.972 44.4135 102.596 39.29 91.22L51.57 78.97Z" fill="#DDDDDC"/>
<path d="M51.57 78.97L48.8 94.05L63.68 94.415L59.44 87.18L51.57 78.97Z" fill="#EBEBEB"/>
<path d="M82.69 108.675L80.255 98.49L68.205 102.525L70.15 126.955L70.285 127.105L87.58 129.105L82.69 108.675Z" fill="#584164"/>
<path d="M55.445 91.885L53.88 99.215L66.51 105.33L71.005 103.085L63.181 93.7005L55.445 91.885Z" fill="#EBEBEB"/>
<path d="M51.57 78.97L63.68 94.415L66.51 105.33L70.145 127.09L68.205 181.365L39.29 175.195L57.96 123.76L39.29 91.22L51.57 78.97Z" fill="#DDDDDC"/>
<path d="M70.145 127.09L39.29 175.195L54.61 125.295L62.915 123.76L70.145 127.09Z" fill="#C4C4C4"/>
<path d="M71.005 103.1L58.6 105.33L49.46 113.83L54.61 125.295L70.145 127.09L71.005 103.1Z" fill="#8F8F8F"/>
<path d="M51.57 78.97L48.8 94.05L63.68 94.415L59.44 87.18L51.57 78.97Z" fill="#EBEBEB"/>
<path d="M67.31 82.725L64.18 88.01L60.23 90.015L51.57 78.97L67.31 82.725Z" fill="#90759F"/>
<path d="M67.33 82.7299L67.31 82.7249L60.23 90.0149L63.68 94.4149L68.555 90.2799L67.33 82.7299Z" fill="#584164"/>
<path d="M49.3105 91.8589L47.7455 99.1889L60.3755 105.304L70.386 102.77L62.893 93.3949L49.3105 91.8589Z" fill="#EBEBEB"/>
<path d="M75.4907 42.8799L73.7951 46.1949L69.6806 44.9849L75.4907 42.8799Z" fill="#8A6651"/>
<path d="M49.2102 30.2949L52.2452 29.7349L54.2402 27.2499L58.6002 27.2499L52.7652 25.8699L49.2102 30.2949Z" fill="#734D5F"/>
<path d="M68.5302 24.415L70.8657 23.635L72.4252 19.955L75.7952 19.9551L71.2802 18.655L68.5302 24.415Z" fill="#734D5F"/>
<path d="M60.8551 54.3299L66.8651 52.7199L72.1651 54.3299L69.0151 50.9099L67.0001 51.5099L65.9251 50.5049L60.8551 54.3299Z" fill="#584164"/>
<path d="M61.1751 54.245L64.4501 55.4L70.2851 53.76L66.8651 52.72L61.1751 54.245Z" fill="#90759F"/>
<path d="M80.0702 35.48L74.1852 39.625L72.5202 36.84L80.0702 35.48Z" fill="#C3977A"/>
<path d="M53.9051 44.985L68.7201 42.58L68.6452 38.45L53.9051 44.985Z" fill="#C3977A"/>
<path d="M50.4502 35.4649L62.9152 35.3649L61.3802 31.4949L50.4502 35.4649Z" fill="#C3977A"/>
<path d="M77.1802 25.77L73.7502 31.25L72.1652 27.545L77.1802 25.77Z" fill="#C3977A"/>
<path d="M75.4901 42.88L69.6801 44.985L62.9152 28.08L68.7202 25.98L75.4901 42.88Z" fill="#E8C9B6"/>
<path d="M29.5851 43.6148L27.5901 48.2198L25.8151 42.2548L46.9202 33.8948L49.2102 39.5499L29.5851 43.6148Z" fill="#584164"/>
<path d="M73.5357 37.86L88.1207 32.5551L83.4107 20.66L46.9102 33.8949L51.7251 45.7749L67.6252 40L63.9052 30.61L69.7207 28.47L73.5357 37.86ZM53.2457 42.3599L50.4502 35.4649L61.3802 31.5L64.1152 38.405L53.2457 42.3599ZM84.6102 31L75.0502 34.45L72.2502 27.55L81.8752 24.05L84.6102 31Z" fill="#584164"/>
<path d="M59.9852 34.9299C60.8882 34.9299 61.6202 35.6619 61.6202 36.5649C61.6202 37.4679 60.8882 38.1999 59.9852 38.1999C59.0822 38.1999 58.3502 37.4679 58.3502 36.5649C58.3502 35.6619 59.0822 34.9299 59.9852 34.9299Z" fill="#2B2B2B"/>
<path d="M77.9802 28.27C78.8832 28.27 79.6157 29.002 79.6157 29.905C79.6157 30.808 78.8832 31.54 77.9802 31.54C77.0772 31.54 76.3452 30.808 76.3452 29.905C76.3452 29.002 77.0772 28.27 77.9802 28.27Z" fill="#2B2B2B"/>
<path d="M39.29 91.2202L49.455 113.83L83.285 96.9852L73.75 94.0902L63.68 94.4152L39.29 91.2202Z" fill="#9DA0A1"/>
<path d="M83.28 96.9851L80.25 71.7051L76.5955 67.3601H72.1655L63.68 94.4151L83.28 96.9851Z" fill="#C4C4C4"/>
<path d="M72.165 67.3601L76.09 54.4551L83.095 57.4851L86.485 63.2051L80.25 71.7051L72.165 67.3601Z" fill="#C3977A"/>
<path d="M76.09 54.455L85.415 51.645L90.11 55.185L84.375 57.3L76.09 54.455Z" fill="#C3977A"/>
<path d="M76.09 54.4551L90.11 55.1851L91.005 61.5851L86.485 63.2051L76.09 54.4551Z" fill="#DFBCA4"/>
</svg>
