<svg width="88" height="200" viewBox="0 0 88 200" fill="none" xmlns="http://www.w3.org/2000/svg">
<path d="M50.8899 82.8398L56.0149 85.1398L73.14 110.42L60.605 104.49L50.89 98.2598L50.8899 82.8398Z" fill="#50A9AA"/>
<path d="M24.1049 86.955L8.94001 119.12L21.61 112.01L29.94 107.92L24.1049 86.955Z" fill="#50A9AA"/>
<path d="M50.8904 82.84L45.1555 97.485L37.09 100.935L45.3304 94.745L34.5999 81.6301L24.1049 86.9551L27.665 106.835L23.1451 120.37L16.7546 134.215L32.8251 134.215L50.8906 130.985L55.7306 124.384L60.6055 104.49L50.8904 82.84Z" fill="#71CACC"/>
<path d="M27.665 106.834L23.1451 120.37L38.6801 120.295L55.5901 123.01L60.255 109.319L60.605 104.49L27.665 106.834Z" fill="#369395"/>
<path d="M50.8904 82.8401L32.8249 82.4102L32.825 103.305L45.155 97.4851L58.82 100.51L50.8904 82.8401Z" fill="white"/>
<g opacity="0.2">
<path d="M21.66 123.585L23.145 120.37L43.235 120.295L52.356 123.281L55.7301 124.385L50.8901 130.985L21.66 123.585Z" fill="#2B2B2B"/>
</g>
<g opacity="0.1">
<path d="M0.280029 196.165L47.825 188.53L87.6 195.69L51.0095 200L0.280029 196.165Z" fill="black"/>
</g>
<path d="M47.8051 170.625L55.4301 183.195L59.6051 184.005L61.5501 182.165L60.6051 171.965L47.8051 170.625Z" fill="#C3977A"/>
<path d="M40.335 169.879L39.02 184.015L33.74 185.754L32.56 183.379L27.825 168.595L40.335 169.879Z" fill="#C3977A"/>
<path d="M61.55 182.165L67.3305 187.5L61.7695 193.675L55.0045 192.735L55.43 183.195L61.55 182.165Z" fill="#27788B"/>
<path d="M39.02 184.015L42.975 194.484L36.02 195.525L29.13 194.484L32.56 183.379L39.02 184.015Z" fill="#27788B"/>
<path d="M60.6051 171.965L50.2701 174.69L47.8051 170.625L54.2051 170.016L60.6051 171.965Z" fill="#8A6651"/>
<path d="M27.825 168.595L40 173.515L40.335 169.879L34.35 168.595H27.825Z" fill="#8A6651"/>
<path d="M50.8905 130.985L41.5355 147.866L25.86 162.59L16.7545 134.215L30.0315 132.959L50.8905 130.985Z" fill="#369395"/>
<path d="M50.89 130.985L54.9245 137.76L59.345 159.195V170.015L27.825 168.595L25.86 162.59L50.89 130.985Z" fill="#50A9AA"/>
<path d="M27.825 168.595L43.2345 164L53.7165 160.874L59.3455 159.195L60.605 171.965L27.825 168.595Z" fill="#369395"/>
<path d="M50.89 130.985L58.1185 155.103L59.345 159.195L55.73 124.385L50.89 130.985Z" fill="#369395"/>
<path d="M67.33 187.5L59.88 192.735H55.005V194.325H74.785V190.735L67.33 187.5Z" fill="#399FB9"/>
<path d="M38.65 190.44H33.52L29.13 194.485V196.13H42.975V194.485L38.65 190.44Z" fill="#399FB9"/>
<path d="M27.6649 106.835L42.335 116.03L43.235 118.86L42.335 122.06L8.93999 119.12L27.6649 106.835Z" fill="#DFBCA4"/>
<path d="M69.4696 29.1248L80.5046 36.1597L71.8192 47.9197L69.4696 38.5248L69.4696 29.1248Z" fill="#4F5252"/>
<path d="M46.8295 -0.000153148L9.83961 16.48L15.1046 25.78L19.4647 29.125L34.1796 26.2799L50.5646 17.4748L50.0646 9.82983L46.8295 -0.000153148Z" fill="#71CACC"/>
<path d="M50.5646 17.4747L58.5046 24.4897L69.4696 29.1247L72.4746 10.6897L46.8295 -0.000244141L50.5646 17.4747Z" fill="#8BDFDC"/>
<path d="M9.8396 16.48L12.0947 38.525L17.1997 34.1399L19.4647 29.1249L9.8396 16.48Z" fill="#369395"/>
<path d="M47.5895 3.5449L46.109 4.14491L46.9041 8.37491L43.3601 9.79992L43.8941 12.6049L47.5791 11.2049L48.4191 15.0799L49.9391 14.5649L50.0641 9.82989L47.5895 3.5449Z" fill="#27788B"/>
<path d="M47.5895 3.54492L49.334 4.39991L50.1746 8.00991L53.7846 9.7449L53.7341 12.2649L50.7791 10.9449L51.5946 15.0949L49.9396 14.5649L47.5895 3.54492Z" fill="#308FA6"/>
<path d="M69.4697 29.1248L74.9549 73.0298L53.2594 76.5148L45.155 97.4849L27.7744 73.0699L15.5998 61.35L23.9393 56.765L26.0843 59.18L34.0597 39.3849L41.2197 35.0799L50.0642 31.1449L69.4697 29.1248Z" fill="#DFBCA4"/>
<path d="M34.0602 39.3849L39.4354 79.0749L53.2593 76.5148L48.9154 80.6499L50.0654 84.7849L45.1549 97.4849L23.7903 71.285L22.2553 67.885L20.0203 66.665L13.3203 58.445L21.6602 51.385L25.5003 60.05L28.3402 51.8849L34.0602 39.3849Z" fill="#C3977A"/>
<path d="M65.8347 40.5897L57.8297 51.6298L53.9647 56.7748L42.4247 44.3498L65.8347 40.5897Z" fill="#C3977A"/>
<path d="M51.9347 42.7898L53.9648 56.7748L58.5048 56.1498L56.3897 42.0598L51.9347 42.7898Z" fill="#E8C9B6"/>
<path d="M58.5048 56.1499L56.5298 59.1799L53.9648 56.7749L58.5048 56.1499Z" fill="#8A6651"/>
<path d="M53.2599 76.5148L50.0644 84.7848L35.2999 79.1149L53.2599 76.5148Z" fill="#8A6651"/>
<path d="M25.3798 63.3049L23.7948 71.2899L20.0248 66.6699L25.3798 63.3049Z" fill="#8A6651"/>
<path d="M23.6298 61.9598L20.6898 56.8699L16.7548 59.1799L23.6298 61.9598Z" fill="#8A6651"/>
<path d="M48.9147 35.0799L51.4846 26.2799L50.5646 17.4749L19.4646 29.125L4.69471 47.8201L19.6247 44.35L34.0597 39.385L40.5097 37.5149L48.9147 35.0799Z" fill="#4F5252"/>
<path d="M34.0597 39.3849L25.9998 61.0499L21.6598 53.8599L13.3198 58.445L4.69474 47.82L34.0597 39.3849Z" fill="#2B2B2B"/>
<path d="M50.5646 17.4748L69.4697 29.1248L48.9147 35.0799L50.5646 17.4748Z" fill="#6E7073"/>
<path d="M60.605 104.49L58.42 112.555L59.69 119.12L72.36 116.174L73.14 110.419L60.605 104.49Z" fill="#DFBCA4"/>
<path d="M59.69 119.12L55.73 124.384L42.335 122.06L53.26 117.734L59.69 119.12Z" fill="#8A6651"/>
<path d="M59.69 119.12L55.73 124.384L54.205 119.549L59.69 119.12Z" fill="#C3977A"/>
<path d="M42.335 116.029L51.485 110.419L53.965 113.884L54.205 119.549L42.335 122.06V116.029Z" fill="#C3977A"/>
<path d="M51.485 110.42L58.42 112.555L59.69 119.12L54.205 119.55L54.119 119.261L51.485 110.42Z" fill="#E8C9B6"/>
<path d="M51.9347 42.7898L51.4647 39.6948L42.4247 44.3498L51.9347 42.7898Z" fill="#4F5252"/>
<path d="M56.3897 42.0598L65.8347 40.5898L56.0447 39.0698L56.3897 42.0598Z" fill="#4F5252"/>
<path d="M52.3999 65.0649L57.0353 62.1799L62.1048 63.5199L57.5754 66.2199L52.3999 65.0649Z" fill="#1C7678"/>
<path d="M48.4998 64.575L58.0948 68.6499L65.3248 61.9599L57.5748 65.7199L48.4998 64.575Z" fill="#50A9AA"/>
<path d="M50.3702 49.745C50.3702 50.927 49.4118 51.885 48.2298 51.885C47.0478 51.885 46.0892 50.927 46.0892 49.745C46.0892 48.563 47.0477 47.605 48.2297 47.605C49.4117 47.605 50.3702 48.563 50.3702 49.745Z" fill="#2B2B2B"/>
<path d="M63.6898 47.6045C63.6928 48.7865 62.7368 49.747 61.5548 49.7495C60.3728 49.752 59.4118 48.797 59.4093 47.615C59.4067 46.433 60.3627 45.472 61.5442 45.4695L61.5547 45.4695C62.7342 45.4695 63.6897 46.4255 63.6898 47.6045Z" fill="#2B2B2B"/>
</svg>
