<svg width="144" height="200" viewBox="0 0 144 200" fill="none" xmlns="http://www.w3.org/2000/svg">
<g opacity="0.1">
<path d="M129.431 195.665L73.9855 191.657L21.2095 194.833L71.389 199.875L129.431 195.665Z" fill="black"/>
</g>
<path d="M88.8411 189.784L89.3721 195.101H97.2246L99.8201 193.829L102.037 191.681L95.0936 184.699L91.7061 184.584L88.8411 189.784Z" fill="#DFBCA4"/>
<path d="M89.372 195.101L88.957 190.946L93.5515 195.101L104.823 189.402L109.889 195.101H89.372Z" fill="#C3977A"/>
<path d="M60.2705 184.583L63.7495 188.992L64.9285 195.988H58.7225L55.8365 193.48L52.7705 189.784L55.1405 185.679L60.2705 184.583Z" fill="#DFBCA4"/>
<path d="M53.0756 189.463L46.8181 195.988H64.9291L64.1296 191.248L60.8536 195.988L53.0756 189.463Z" fill="#C3977A"/>
<path d="M93.3485 182.944L90.5785 183.214L88.3105 184.468L88.841 189.785L95.0935 184.7L93.3485 182.944Z" fill="#8A6651"/>
<path d="M62.865 183.743L60.6365 182.366L57.0125 182.436L55.1405 185.679L63.7495 188.992L62.865 183.743Z" fill="#8A6651"/>
<path d="M95.3885 141.972L83.7485 146.674L72.338 153.117L79.4935 172.304L90.54 169.974L101.278 165.845L95.3885 141.972Z" fill="#BE8F00"/>
<path d="M79.4935 172.304L82.0265 179.523L91.891 173.491L101.278 165.845L79.4935 172.304Z" fill="#E4C728"/>
<path d="M82.0266 179.523L101.277 165.845L105.077 179.396L93.5845 180.523L82.0266 179.523Z" fill="#CCAC13"/>
<path d="M82.0266 179.524L84.5596 185.603L105.077 179.397L82.0266 179.524Z" fill="#E4C728"/>
<path d="M72.338 153.117L70.7545 171.671L59.3195 170.406L45.804 167.365L47.7675 142.985L62.242 147.96L72.338 153.117Z" fill="#BE8F00"/>
<path d="M45.8046 167.365L58.5061 174.719L70.1216 179.523L70.7546 171.671L45.8046 167.365Z" fill="#E4C728"/>
<path d="M45.8045 167.365L44.538 179.65L58.5015 180.29L70.121 179.523L45.8045 167.365Z" fill="#CCAC13"/>
<path d="M70.1215 179.523L44.5375 179.65L69.4885 185.222L70.1215 179.523Z" fill="#E4C728"/>
<path d="M83.4888 85.641L88.6803 87.3785L91.5568 90.1194L95.3248 89.6024L102.417 96.8209L100.38 103.442L95.1979 111.132L50.1104 112.273L44.7159 107.723L40.6119 102.141L50.7438 89.4756L54.6033 88.9771L56.5513 86.9906L62.3593 84.5055L71.3243 90.9535L83.4888 85.641Z" fill="#464646"/>
<path d="M95.388 141.971L72.3375 153.116L47.768 142.985L50.1104 112.272L53.9339 107.925L57.7729 105.749L87.7889 104.103L91.3359 105.981L95.1979 111.132L95.388 141.971Z" fill="#856300"/>
<path d="M95.3248 89.6024L95.1984 111.133L87.7889 104.103L88.6778 87.3779L95.3248 89.6024Z" fill="#BE8F00"/>
<path d="M56.5513 86.9905L57.7729 105.75L50.1099 112.272L50.7433 89.4755L56.5513 86.9905Z" fill="#BE8F00"/>
<path d="M82.846 132.093L62.586 132.093L62.5859 111.444L82.8459 111.444L82.846 132.093Z" fill="#9E7700"/>
<path d="M95.2669 122.342L92.9814 120.695L90.7019 124.874L93.7414 124.368L95.3019 128.042L95.2669 122.342Z" fill="#9E7700"/>
<path d="M81.963 134.626L78.6705 137.285L79.177 139.945L83.483 143.112L85.1295 136.399L81.963 134.626Z" fill="#CCAC13"/>
<path d="M62.5865 129.939L67.9055 128.167L67.3989 123.861L69.9319 122.848L68.4119 118.668L67.0189 119.175L67.1459 121.201L63.8529 120.948L62.5864 124.115L62.1134 126.711L62.5865 129.939Z" fill="#CCAC13"/>
<path d="M72.971 136.019L69.678 135.133L70.438 138.679L72.8445 138.299L72.971 136.019Z" fill="#9E7700"/>
<path d="M62.5859 124.114L58.2799 124.747L60.3059 129.939L62.5859 129.939L62.5859 124.114Z" fill="#B58A00"/>
<path d="M112.296 105.243L102.416 96.8208L95.1978 111.132L102.48 113.602L109.139 111.278L112.296 105.243Z" fill="#DFBCA4"/>
<path d="M50.1104 112.272L37.952 122.278L34.5934 109.236L40.6114 102.141L50.1104 112.272Z" fill="#DFBCA4"/>
<path d="M32.5059 101.128L7.93589 104.8L0.0834566 125.825L11.229 143.429L33.646 151.281L55.8735 146.327L53.783 125.318L37.9519 122.278L32.5059 101.128Z" fill="#E4C728"/>
<path d="M26.8069 111.893L24.1114 114.529L20.2215 116.959L25.6675 125.571L31.7465 120.505L28.5339 115.67L26.8069 111.893Z" fill="#C3977A"/>
<path d="M29.8285 122.104L27.8209 116.072L20.2215 116.959L26.8074 111.893L31.7465 120.505L29.8285 122.104Z" fill="#8A6651"/>
<path d="M27.8209 116.072L20.2209 116.959L18.0689 125.092L20.4389 126.396L27.8209 116.072Z" fill="#DFBCA4"/>
<path d="M15.8734 112.414L11.1174 110.668L9.37141 115.424L14.1274 117.17L15.8734 112.414Z" fill="#464646"/>
<path d="M12.8339 120.773L8.07791 119.027L6.33193 123.783L11.0874 125.529L12.8339 120.773Z" fill="#802C00"/>
<path d="M15.8735 130.146L11.1175 128.399L9.37148 133.155L14.1275 134.901L15.8735 130.146Z" fill="#A84000"/>
<path d="M23.599 136.478L18.843 134.732L17.097 139.488L21.853 141.234L23.599 136.478Z" fill="#CC4E00"/>
<path d="M32.211 139.644L27.455 137.898L25.709 142.653L30.465 144.4L32.211 139.644Z" fill="#EC8500"/>
<path d="M41.9635 139.897L37.2075 138.151L35.4615 142.906L40.2165 144.653L41.9635 139.897Z" fill="#FF9B01"/>
<path d="M50.5755 134.958L45.8195 133.212L44.0735 137.967L48.8295 139.713L50.5755 134.958Z" fill="#F4D65D"/>
<path d="M27.8204 116.072L25.667 125.571L23.4744 122.104L27.8204 116.072Z" fill="#8A6651"/>
<path d="M23.4745 122.104L20.439 126.397L25.667 125.571L23.4745 122.104Z" fill="#CCAC13"/>
<path d="M102.481 113.602L120.109 98.3856L125.962 98.0526L124.971 104.944L115.073 117.668L102.481 113.602Z" fill="#C3977A"/>
<path d="M120.109 98.3861L124.971 104.944L129.43 103.384L125.883 94.2037L120.109 98.3861Z" fill="#8A6651"/>
<path d="M104.532 76.4753L127.667 101.479L130.224 99.4697L131.657 96.7687L104.532 76.4753Z" fill="#464646"/>
<path d="M136.76 107.93L137.46 111.685L143.792 112.572L142.399 109.279L139.577 108.589L137.891 107.305L136.76 107.93Z" fill="#BE8F00"/>
<path d="M137.713 101.299L139.577 108.589L132.774 106.998L135.007 103.676L137.713 101.299Z" fill="#856300"/>
<path d="M124.679 98.2496L132.774 106.998L137.713 101.299L131.657 96.7682L124.679 98.2496Z" fill="#8F8F8F"/>
<path d="M122.892 102.141L124.679 98.2502L130.281 98.9128L131.657 96.7688L123.884 90.9537L120.109 98.3861L122.892 102.141Z" fill="#DFBCA4"/>
<path d="M133.402 91.5962L138.949 99.5738L137.713 101.299L123.884 90.9536L127.997 91.2312L133.402 91.5962Z" fill="#C3977A"/>
<path d="M39.5791 45.9483L66.8102 39.347L95.1692 31.0242L94.7798 26.9382L92.4653 20.9656L65.4917 33.192L39.5791 45.9483Z" fill="#CCAC13"/>
<path d="M92.4658 20.9652L63.6803 28.0985L34.6037 37.4048L35.8442 41.1403L39.5792 45.9489L92.4658 20.9652Z" fill="#E4C728"/>
<path d="M60.4998 22.065L57.8718 30.7939L69.3868 27.5225L60.4998 22.065Z" fill="#755700"/>
<path d="M92.4663 20.9651L97.0713 22.5041L102.091 26.1571L96.2382 35.4061L94.9477 32.7711L95.1703 31.0236L92.4663 20.9651Z" fill="#755700"/>
<path d="M92.4663 20.9652L91.8744 16.2637L93.0069 10.1497L98.8883 18.9032L102.091 26.1567L92.4663 20.9652Z" fill="#CCAC13"/>
<path d="M93.0064 10.1497L108.472 19.7757L102.091 26.1567L93.0064 10.1497Z" fill="#BE8F00"/>
<path d="M92.4663 20.9652L93.0069 10.1497L93.3314 4.20173L91.2284 6.41121L82.1318 15.9702L82.4048 23.8237L92.4663 20.9652Z" fill="#856300"/>
<path d="M74.9109 5.61149L74.0799 10.15L78.5764 14.0485L82.8404 16.2065L89.8034 8.23908L77.1085 -0.124494L74.9109 5.61149Z" fill="#BE8F00"/>
<path d="M82.8404 16.206L74.0799 10.1499L71.3444 16.9784L69.3873 27.5219L82.4048 23.823L82.8404 16.206Z" fill="#CCAC13"/>
<path d="M59.3709 9.28399L69.0678 10.3405L74.0799 10.1501L77.1079 -0.124408L59.3709 9.28399Z" fill="#CCAC13"/>
<path d="M74.0804 10.1495L59.3714 9.28442L62.4874 16.3124L69.3873 27.5225L74.0804 10.1495Z" fill="#BE8F00"/>
<path d="M31.9991 49.5467L43.1636 52.0173L41.4171 48.0963L39.5791 45.9483L35.8736 46.8423L31.9991 49.5467Z" fill="#755700"/>
<path d="M69.3872 27.5221L60.9723 22.8916L55.7203 20.645L52.5573 18.2615L53.8838 13.1215L56.0029 9.02204L57.3164 5.49905L59.3714 9.28406L69.3872 27.5221Z" fill="#CCAC13"/>
<path d="M52.5578 18.2615L47.7128 16.7229L42.8779 12.9079L41.8534 7.87939L56.0034 9.02248L52.5578 18.2615Z" fill="#BE8F00"/>
<path d="M52.5578 18.2613L42.8779 12.9073L38.0108 19.3967L41.2743 25.7372L46.7512 33.9533L51.2493 24.1508L52.5578 18.2613Z" fill="#856300"/>
<path d="M30.1812 38.7203L27.9831 51.4538L39.5792 45.9484L34.6042 37.4043L32.4902 37.2898L30.1812 38.7203Z" fill="#856300"/>
<path d="M38.0108 19.3963L33.6228 24.4047L32.0623 28.1572L37.2908 30.4568L46.7512 33.9533L38.0108 19.3963Z" fill="#BE8F00"/>
<path d="M38.0113 19.3963L22.5443 24.5882L32.0628 28.1573L38.0113 19.3963Z" fill="#CCAC13"/>
<path d="M32.0623 28.1568L23.5177 40.7027L34.6037 37.4043L46.7507 33.9534L32.0623 28.1568Z" fill="#CCAC13"/>
<path d="M52.5578 18.2615L46.7513 33.9535L53.3312 42.2565L57.8723 30.7935L60.9723 22.8921L52.5578 18.2615Z" fill="#BE8F00"/>
<path d="M95.1697 31.0242L104.687 70.0668L87.3825 76.2317L85.0929 80.3382L83.4889 85.6412L76.0464 90.8046L69.8613 97.2131L59.0855 77.325L51.7475 66.532L45.8816 56.6185L44.6416 51.738L39.5791 45.9489L95.1697 31.0242Z" fill="#DFBCA4"/>
<path d="M56.6631 60.7244L53.7161 55.7664L48.9281 58.2454L53.0831 60.2039L56.6631 60.7244Z" fill="#8A6651"/>
<path d="M61.5947 40.0374L76.6619 79.964L82.8399 79.935L83.4894 85.641L69.8613 97.213L60.4334 81.2434L59.371 77.8499L57.631 76.4969L51.7475 66.5314L60.8441 61.1279L57.8571 55.4659L62.8316 52.5459L56.4542 41.4179L61.5947 40.0374Z" fill="#C3977A"/>
<path d="M70.6262 45.875L75.9182 45.8406L81.9751 54.0606L80.8157 44.3721L77.4582 39.4576L70.6262 45.875Z" fill="#C3977A"/>
<path d="M84.4047 37.438L86.8111 50.263L89.3292 41.2985L93.7027 38.6245L84.4047 37.438Z" fill="#C3977A"/>
<path d="M77.4582 39.4571L69.1772 42.563L70.6261 45.875L77.4582 39.4571Z" fill="#856300"/>
<path d="M84.4047 37.4376L92.9317 35.0916L93.7027 38.6246L84.4047 37.4376Z" fill="#856300"/>
<path d="M80.3731 63.1747L87.0796 58.6292L94.2691 59.1137L88.5181 63.4182L80.3731 63.1747Z" fill="#755700"/>
<path d="M96.2511 57.8456L88.2821 62.9465L77.6486 63.253L89.0051 66.0655L96.2511 57.8456Z" fill="#B58A00"/>
<path d="M56.4547 41.4173L62.8321 52.5459L57.8571 55.4663L55.2611 51.2478L45.8816 56.6183L39.5791 45.9487L56.4547 41.4173Z" fill="#856300"/>
<path d="M87.3825 76.231L72.782 81.315L83.4889 85.641L87.3825 76.231Z" fill="#8A6651"/>
<path d="M60.7906 64.179L58.5635 72.924L53.9416 67.8285L60.7906 64.179Z" fill="#8A6651"/>
<path d="M67.6075 70.5706L60.4325 81.2436L57.6575 76.4816L60.9715 72.9246L67.6075 70.5706Z" fill="#8A6651"/>
<path d="M84.4047 37.4375L77.4577 39.457L81.9751 54.0605L88.7886 52.0051L84.4047 37.4375Z" fill="#E8C9B6"/>
<path d="M88.7892 52.0052L86.4096 56.4392L81.9751 54.0601L88.7892 52.0052Z" fill="#8A6651"/>
<path d="M61.6971 60.6214L67.6075 70.5709L57.6575 76.4814L51.7475 66.5318L61.6971 60.6214ZM55.305 67.4379L58.5635 72.9244L64.05 69.6649L60.791 64.1789L55.305 67.4379Z" fill="#755700"/>
<path d="M55.5006 58.7673L53.0831 60.2038L57.612 67.8284L60.03 66.3919L55.5006 58.7673Z" fill="#B58A00"/>
<path d="M78.4492 49.912C78.4492 51.0885 77.4957 52.042 76.3197 52.042C75.1432 52.042 74.1892 51.0885 74.1892 49.912C74.1892 48.7355 75.1432 47.782 76.3197 47.782C77.4957 47.782 78.4492 48.7355 78.4492 49.912Z" fill="#2B2B2B"/>
<path d="M92.8322 45.1505C92.8322 46.3265 91.8782 47.28 90.7017 47.28C89.5257 47.28 88.5722 46.3265 88.5722 45.1505C88.5722 43.974 89.5257 43.021 90.7017 43.021C91.8782 43.021 92.8322 43.974 92.8322 45.1505Z" fill="#2B2B2B"/>
</svg>
