<svg width="107" height="200" viewBox="0 0 107 200" fill="none" xmlns="http://www.w3.org/2000/svg">
<g opacity="0.1">
<path d="M0.699005 194.024L52.643 190.209L101.887 194.168L54.839 200L0.699005 194.024Z" fill="#2B2B2B"/>
</g>
<path d="M46.091 193.844L57.142 193.988L57.106 191.541L37.056 189.453L43.7155 194.528L46.091 193.844Z" fill="#27788B"/>
<path d="M31.872 190.46L27.9125 193.376L27.8765 195.788L46.1635 196.256L46.0915 193.844L31.872 190.46Z" fill="#27788B"/>
<path d="M50.951 136.681L54.803 135.205L67.654 136.105L57.2505 162.311L46.163 171.706L38.244 170.266L38.748 149.676L50.951 136.681Z" fill="#4F5252"/>
<path d="M57.2505 162.311L49.2225 181.821L44.723 183.586L38.2435 185.565L44.003 165.407L57.2505 162.311Z" fill="#6E7073"/>
<path d="M49.223 181.821L57.1065 191.54H39.4675L39.3955 187.761L41.3395 182.83L49.223 181.821Z" fill="#308FA6"/>
<path d="M46.4515 150.756L44.004 165.407L33.348 174.37L25.393 164.867L21.4695 147.157L34.069 139.453L46.4515 150.756Z" fill="#6E7073"/>
<path d="M63.478 130.634L67.654 136.105L49.547 146.832L41.267 136.285L63.478 130.634Z" fill="#464646"/>
<path d="M44.004 165.406L41.34 182.829L36.66 187.544L29.8205 184.773L25.393 164.866L44.004 165.406Z" fill="#4F5252"/>
<path d="M41.34 182.83L46.091 193.844L27.913 193.376L29.8205 184.774L41.34 182.83Z" fill="#399FB9"/>
<path d="M46.451 150.756L22.873 153.806L21.404 146.9L26.3435 147.66L46.451 150.756Z" fill="#464646"/>
<path d="M62.1815 3.52808L46.703 6.69608L37.7395 10.5831L30.072 7.99207H19.021L21.7925 13.6796L26.544 16.0556L23.7365 23.0386L24.4925 30.0941L27.12 38.7336L32.0155 45.6446L29.856 45.8966L28.1285 47.6241L26.8325 43.7371L23.5205 37.6531L17.725 38.9136L14.017 41.2531L19.7045 50.9366L23.8085 55.9041L23.9525 59.5036L26.688 64.0751L28.416 66.1631L28.1645 68.3951L35.2555 72.7866L46.343 77.2141L49.403 74.0826L50.843 70.3026V63.3191L71.613 58.8921L68.1215 34.7016L69.057 30.0216L67.33 21.7791L65.3855 19.4386L62.1815 3.52808Z" fill="#DFBCA4"/>
<path d="M28.381 9.28696L33.2405 25.7375L36.48 40.964L42.276 64.9745L50.843 63.319L50.051 66.6665L50.843 70.302L46.343 77.2135L28.1645 68.3945L23.701 59.1075L20.8215 50.936L28.1295 47.6235L26.302 43.6825L25.8065 40.0715L28.812 41.1805L24.493 30.093L24.5295 23.47L26.5445 16.0545L22.441 12.8865L19.021 7.99146L24.997 8.31546L28.381 9.28696Z" fill="#C3977A"/>
<path d="M20.8215 50.936L28.1285 47.6235L23.7005 59.1075L21.0005 54.391L20.8215 50.936Z" fill="#8A6651"/>
<path d="M50.843 63.3186L38.676 65.6586L46.343 77.2136L49.691 73.9746L50.843 70.3021V63.3186Z" fill="#8A6651"/>
<path d="M39.216 36.717L39.864 29.9135L46.451 28.3295L49.6551 35.349L36.4801 40.965L50.195 39.5605L52.8225 41.9005L49.0791 22.6785L37.704 28.726L36.4445 32.937L39.216 36.717Z" fill="#C3977A"/>
<path d="M60.598 32.0369L60.742 26.1334L66.7175 24.1899L68.409 25.0894L68.1215 32.7929L57.394 36.7884L57.7905 38.9854L68.1215 34.7009L69.9575 28.1494L67.7615 20.4824L56.8545 23.5779L57.7545 32.2894L60.598 32.0369Z" fill="#C3977A"/>
<path d="M52.823 41.9006L55.9545 44.2046L58.186 40.9646L52.823 41.9006Z" fill="#8A6651"/>
<path d="M49.943 26.422L55.1625 25.2695L58.186 40.9645L52.8225 41.9005L49.943 26.422Z" fill="#E8C9B6"/>
<path d="M49.943 26.4221L48.7555 24.5861L49.0785 22.6786L54.4065 21.5991L55.9545 23.2901L55.1625 25.2696L49.943 26.4221Z" fill="#27788B"/>
<path d="M49.079 22.678L33.2405 25.738L33.8525 31.4975L35.2565 35.0255L36.4795 40.965L52.0305 37.6895L49.943 26.4225L49.079 22.678ZM37.704 28.7255L46.1995 27.07L47.747 34.989L39.2155 36.717L37.704 28.7255Z" fill="#308FA6"/>
<path d="M54.4065 21.598L69.921 18.5745L72.8015 33.7295L57.394 36.7885L55.1625 25.2695L54.4065 21.598ZM59.1585 24.6215L60.598 32.0375L67.9785 30.7055L66.502 23.1455L59.1585 24.6215Z" fill="#308FA6"/>
<path d="M47.7115 51.6554L63.19 48.5959L63.4415 49.8199L47.963 52.9159L47.7115 51.6554Z" fill="#8A6651"/>
<path d="M24.4175 46.2814L21.2535 40.2444L18.0135 41.7204L24.4175 46.2814Z" fill="#8A6651"/>
<path d="M32.808 0L34.788 6.4075L37.7395 10.583L62.182 3.5285L32.808 0Z" fill="#DDDDDC"/>
<path d="M19.0215 7.99146L12.65 11.0515L11.1015 23.6505L18.373 21.563L26.5445 16.0555L19.0215 7.99146Z" fill="#C4C4C4"/>
<path d="M11.102 23.6499L8.22253 45.1399L17.7255 38.9124L25.2135 31.9294L26.5445 16.0549L11.102 23.6499Z" fill="#DDDDDC"/>
<path d="M25.717 32.8655L30.1705 41.901L26.302 43.683L23.341 37.2935L15.2055 41.613L20.6415 50.6485L23.7005 59.1075L8.51053 44.889L12.7585 41.505L25.717 32.8655Z" fill="#9DA0A1"/>
<path d="M32.808 0L19.0215 7.9915L37.7395 10.583L32.808 0Z" fill="#C4C4C4"/>
<path d="M33.2405 25.738L12.758 41.5045L15.0255 47.048L15.2055 41.6125L34.68 32.3615L33.2405 25.738Z" fill="#27788B"/>
<path d="M27.2645 35.8526L34.6805 32.3616L34.8605 33.1541L35.2565 35.0251L28.0055 37.5096L27.2645 35.8526Z" fill="#8A6651"/>
<path d="M23.521 37.653L27.265 35.853L28.006 37.509L24.097 38.949L23.521 37.653Z" fill="#737373"/>
<path d="M28.1645 68.395L26.4725 75.414L41.9875 83.9815L48.359 86.033L53.0745 80.7415L55.6665 74.01L50.8425 70.302L46.343 77.214L28.1645 68.395Z" fill="#DDDDDC"/>
<path d="M46.343 77.2134L42.5275 83.1894L48.359 86.0334L52.0305 80.0939L46.343 77.2134Z" fill="#4F5252"/>
<path d="M55.667 74.01L62.65 76.1695L57.142 87.113L50.627 95.933L34.248 88.481L20.425 79.986L26.4725 75.4145L48.3595 86.0335L55.667 74.01Z" fill="#C4C4C4"/>
<path d="M20.425 79.9856L44.2195 92.5486L47.1345 93.4126L50.627 95.9326L34.6435 114.543L20.497 90.6411L20.425 79.9856Z" fill="#1C7678"/>
<path d="M50.627 95.9319L51.9225 92.3684L54.8025 89.0564L62.6495 76.1694L70.173 93.3039L65.2415 106.154L58.006 115.029L53.6865 120.086L48.827 108.063L50.627 95.9319Z" fill="#1C7678"/>
<path d="M48.3595 86.033L44.219 92.549L50.6275 95.933L54.803 89.057L48.3595 86.033Z" fill="#737373"/>
<path d="M65.242 106.155L53.6865 120.086L53.075 124.118L51.131 136.681L67.762 136.105L65.242 106.155Z" fill="#369395"/>
<path d="M19.3812 90.4609L50.6268 95.9321L57.2498 97.0841L53.6949 120.089L51.1311 136.681L48.8992 151.116L10.8862 145.32L19.3812 90.4609Z" fill="#8F8F8F"/>
<path d="M51.1311 136.681L12.5061 135.133L13.55 128.186L38.4955 130.525L43.8596 133.081L47.3156 133.944L51.1311 136.681Z" fill="#6E7073"/>
<path d="M20.4255 79.9861L20.8215 114.328L5.1265 126.71L8.006 87.1851L20.4255 79.9861Z" fill="#71CACC"/>
<path d="M20.8214 113.553L37.794 119.6L39.486 120.499L42.0415 120.896L40.4941 132.307L37.866 131.263L35.3105 131.443L5.12651 126.709L20.8214 113.553Z" fill="#369395"/>
<path d="M62.6495 76.1694L77.4804 98.524L72.0809 103.347L65.2414 106.155L62.6495 76.1694Z" fill="#369395"/>
<path d="M65.2415 106.155L77.481 98.5236L87.4876 92.0087L89.3596 91.9368L90.8721 89.8128L95.2636 93.5923L94.2915 98.8118L94.1475 102.268L75.5369 116.739L65.2415 106.155Z" fill="#71CACC"/>
<path d="M45.443 30.7061C45.443 31.6056 44.687 32.2896 43.859 32.2896C42.9595 32.2896 42.239 31.6056 42.239 30.7061C42.239 29.8056 42.9595 29.1216 43.859 29.1216C44.687 29.1216 45.443 29.8056 45.443 30.7061Z" fill="#2B2B2B"/>
<path d="M65.1875 27.0695C65.1875 27.9695 64.5035 28.6535 63.603 28.6535C62.775 28.6535 62.0195 27.9695 62.0195 27.0695C62.0195 26.205 62.775 25.5215 63.603 25.5215C64.5035 25.5215 65.1875 26.205 65.1875 27.0695Z" fill="#2B2B2B"/>
<path d="M90.8721 89.813L95.1546 94.2766L97.6025 99.5316L94.1475 102.268L87.4876 92.009L90.8721 89.813Z" fill="#DDDDDC"/>
<path d="M100.843 70.9863L104.01 63.5708L105.451 71.5269L102.751 72.1748L100.843 70.9863Z" fill="#8F8F8F"/>
<path d="M93.8596 94.0605L97.603 99.5316L100.663 97.5886L99.6907 87.5086L93.8596 94.0605Z" fill="#8A6651"/>
<path d="M100.843 70.9861L105.451 71.5262L101.634 105.039L96.9915 104.499L97.5625 99.5276L100.446 95.3391L99.0932 86.2086L100.843 70.9861Z" fill="#4F5252"/>
<path d="M98.6547 85.5357L106.991 88.0132L102.405 100.119L97.6025 99.5316L98.5922 89.1352L98.6547 85.5357Z" fill="#C3977A"/>
<path d="M90.8721 89.8125L99.3322 84.1251L101.796 92.6641L98.2081 93.1636L97.1581 90.4821L94.7341 95.3395L90.8721 89.8125Z" fill="#DFBCA4"/>
<path d="M37.7939 119.6L42.0419 120.895L41.934 126.187L40.494 132.307L35.31 131.443L37.7939 119.6Z" fill="#DDDDDC"/>
<path d="M42.0415 120.896L47.9359 118.285L53.6335 120.436L53.2625 122.877L48.8275 122.877L42.0415 120.896Z" fill="#C3977A"/>
<path d="M42.0415 120.895L53.2625 122.877L54.0955 127.459L55.3785 130.453L53.4361 133.188L51.1311 136.68L40.4936 132.307L42.0415 120.895Z" fill="#DFBCA4"/>
<path d="M53.263 122.876L51.1306 136.68L54.4611 134.218L58.0065 125.773L53.263 122.876Z" fill="#C3977A"/>
</svg>
