<svg width="150" height="200" viewBox="0 0 150 200" fill="none" xmlns="http://www.w3.org/2000/svg">
<path d="M27.34 60.3266L32.5995 57.7756L39.536 72.0786L34.4135 74.6656L27.34 60.3266Z" fill="#4F5252"/>
<path d="M42.34 55.759L19.725 66.727L20.664 79.155L47.0585 66.848L42.34 55.759Z" fill="#858585"/>
<path d="M20.6645 79.1551L27.3405 80.1321L51.5715 69.4066L48.613 66.1116L45.898 66.1891L20.6645 79.1551Z" fill="#6E7073"/>
<path d="M49.923 93.4946L39.536 72.0786L34.413 74.6651L44.663 96.0456L49.923 93.4946Z" fill="#4F5252"/>
<path d="M42.34 55.7586L45.0255 55.6641H48.865L51.571 69.4061L45.8975 66.1896L42.34 55.7586Z" fill="#6E7073"/>
<g opacity="0.1">
<path d="M20.46 195.444L65.5585 188.28L133.949 192.503L75.054 200.001L20.46 195.444Z" fill="black"/>
</g>
<path d="M100.425 138.146L95.162 151.694L90.0065 158.001L89.0435 167.445L85.654 176.171L79.451 179.16L71.775 181.249L74.9665 154.876L100.425 138.146Z" fill="#856300"/>
<path d="M73.2155 175.251L87.99 170.156L85.654 176.171L78.932 181.25H71.775V178.713L73.2155 175.251Z" fill="#9E7700"/>
<path d="M85.654 176.17L97.17 189.335L83.4315 190.919L68.214 189.335V182.552L85.654 176.17Z" fill="#755700"/>
<path d="M68.1915 192.503H97.1705V189.335H68.1915V192.503Z" fill="#BB8F2C"/>
<path d="M91.3975 155.357L84.851 154.585L81.3905 168.032L89.0435 167.445L91.3385 161.536L91.3975 155.357Z" fill="#9E7700"/>
<path d="M84.851 154.585L91.3035 161.522L95.162 151.694L84.851 154.585Z" fill="#B58A00"/>
<path d="M77.5565 157.177L71.775 181.249L67.6565 182.718L52.514 185.562L49.5075 148.294L77.5565 157.177Z" fill="#9E7700"/>
<path d="M100.425 138.146L77.5565 157.177L49.508 148.295L65.148 144.264L100.425 138.146Z" fill="#BE8F00"/>
<path d="M71.7745 181.25L75.054 192.501H52.2L52.514 185.562L71.7745 181.25Z" fill="#856300"/>
<path d="M52.2 195.668H75.054V192.5H52.2V195.668Z" fill="#CCAC13"/>
<path d="M73.2155 175.25L51.9205 178.201L52.5145 185.561L71.775 181.249L73.2155 175.25Z" fill="#BE8F00"/>
<path d="M55.6865 78.0449L79.507 83.6259L93.801 123.159L97.2545 130.3L58.191 132.469L49.009 134.973L48.5085 127.628L55.6865 78.0449Z" fill="#E4C728"/>
<path d="M45.67 84.3884L55.687 78.0449L62.272 106.854L56.522 107.26L49.3515 93.9724L45.67 84.3884Z" fill="#BE8F00"/>
<path d="M48.508 127.628L76.5415 108.402L91.5705 114.442L97.647 130.71L58.3695 133.451L49.0085 134.973L48.508 127.628Z" fill="#BE8F00"/>
<g opacity="0.2">
<path d="M74.5615 121.516L83.733 127.127L96.678 128.116L94.817 123.133L78.198 112.715L63.165 119.33L48.508 127.628L74.5615 121.516Z" fill="#2B2B2B"/>
</g>
<path d="M97.6475 130.71L85.9605 131.256L82.692 134.376L78.9315 131.585L63.7 132.297L63.7295 138.489L64.702 145.157L80.186 142.117L82.692 139.501L87.0955 140.762L100.425 138.146L97.6475 130.71Z" fill="#856300"/>
<path d="M78.932 131.585L80.185 142.118L87.095 140.762L85.961 131.257L78.932 131.585Z" fill="#CCAC13"/>
<path d="M97.2185 30.7681L98.744 49.5126L97.4225 67.4571L82.763 71.8336L75.756 79.3766L64.7355 79.6726L55.6865 78.0456L49.7905 64.2386L45.026 55.6636L40.236 45.6091L38.153 29.5921L53.3625 35.0621L74.732 33.0916L79.667 25.9036L85.6375 31.2841L97.2185 30.7681Z" fill="#DFBCA4"/>
<path d="M58.189 35.1941L60.5555 53.8861L56.5215 56.8351L52.2 54.8426L50.3445 47.3281L54.184 46.9941L53.3625 35.6871L58.189 35.1941Z" fill="#C3977A"/>
<path d="M77.376 51.9591L70.585 41.7851L58.189 35.1941L76.291 31.6941L77.376 51.9591Z" fill="#C3977A"/>
<path d="M86.861 48.1989L89.8515 38.3339L95.7865 30.9154L83.2275 30.1919L86.861 48.1989Z" fill="#C3977A"/>
<path d="M98.744 49.5125L45.0255 55.6635L55.6865 78.045L63.099 79.7675L69.5075 80.837L79.5065 83.6259L81.4625 76.357L83.5665 72.3689L100.428 70.1985L98.744 49.5125Z" fill="#C3977A"/>
<path d="M60.556 53.886L63.241 74.7435L68.449 76.398L70.3445 81.8765L68.7085 87.8955L55.686 78.0455L48.1085 62.1375L47.7465 59.0555L45.0255 55.664L52.2 54.8425L60.556 53.886Z" fill="#C3977A"/>
<g opacity="0.15">
<path d="M60.556 53.8855L63.241 74.743L68.449 76.3975L70.3445 81.876L68.7085 87.895L55.6865 78.045L48.109 62.137L47.747 59.055L45.026 55.6635L52.2005 54.842L60.556 53.8855Z" fill="#2B2B2B"/>
</g>
<path d="M83.5665 72.3689L60.5895 75.0704L68.708 87.8949L79.5065 83.6259L83.5665 72.3689Z" fill="#8A6651"/>
<path d="M52.2005 54.842L48.1085 62.137L45.0255 55.6635L52.2005 54.842Z" fill="#8A6651"/>
<path d="M65.7055 59.387L87.0955 62.186L86.8765 63.856L65.4865 61.057L65.7055 59.387Z" fill="#8A6651"/>
<path d="M77.376 51.9595L82.794 54.854L87.119 50.844L82.217 50.88L77.376 51.9595Z" fill="#8A6651"/>
<path d="M58.1895 35.194L75.7555 38.2235L75.2675 33.4485L68.464 33.5375L58.1895 35.194Z" fill="#464646"/>
<path d="M85.8395 37.4511L85.28 31.9981L89.8795 30.8101L95.786 30.9156L85.8395 37.4511Z" fill="#464646"/>
<path d="M53.3625 35.6864L54.1845 46.9929L50.3445 47.3269L48.9075 41.8999L40.2355 45.6074L32.9125 30.2339L44.526 30.6799L53.3625 35.6864Z" fill="#464646"/>
<path d="M43.3325 47.1605L46.672 45.825L48.8655 52.218L43.3325 47.1605Z" fill="#8A6651"/>
<path d="M37.8045 17.1619L28.6615 8.66089L17.2735 19.0059L26.932 18.9339L37.8045 17.1619Z" fill="#9E7700"/>
<path d="M17.274 19.0059L0.513 34.5639L25.25 23.5559L37.8045 17.1619L17.274 19.0059Z" fill="#BE8F00"/>
<path d="M0.513 34.5639L32.913 30.2339L37.805 17.1619L0.513 34.5639Z" fill="#755700"/>
<path d="M51.6785 15.3979L44.284 15.6349L37.8045 17.1619L32.9125 30.2339L45.0135 21.6819L51.6785 15.3979Z" fill="#9E7700"/>
<path d="M73.3315 0L56.5895 6.9325L37.8045 17.162L45.5125 16.182L51.6785 15.3975L71.0385 14.627L94.3125 11.2445L73.3315 0Z" fill="#856300"/>
<path d="M43.4985 2.4055L37.8045 17.162L73.3315 0L43.4985 2.4055Z" fill="#BE8F00"/>
<path d="M51.6785 15.3979L104.367 10.2649L106.292 29.8329L85.281 31.9979L79.6675 25.9034L75.268 33.4489L53.3625 35.6869L51.5715 24.0624L51.6785 15.3979Z" fill="#E4C728"/>
<path d="M57.693 19.5676L77.02 17.6431L71.326 28.3891L58.5745 29.5921L57.693 19.5676Z" fill="#464646"/>
<path d="M100.201 15.3711L80.865 17.2026L88.521 26.6521L101.265 25.3781L100.201 15.3711Z" fill="#464646"/>
<path d="M53.3625 35.6869L32.9125 30.2339L51.678 15.3979L53.3625 35.6869Z" fill="#CCAC13"/>
<path d="M79.667 25.9031L85.28 31.9976L87.1195 50.8436L77.376 51.9591L75.336 33.4411L79.667 25.9031Z" fill="#E8C9B6"/>
<path d="M92.241 41.0201C92.241 42.3396 91.1715 43.4096 89.852 43.4096C88.5325 43.4096 87.462 42.3396 87.462 41.0201C87.462 39.7001 88.5325 38.6306 89.852 38.6306C91.1715 38.6306 92.241 39.7001 92.241 41.0201Z" fill="#2B2B2B"/>
<path d="M64.3895 41.104L72.441 41.9895L72.248 43.743L64.197 42.858L64.3895 41.104Z" fill="#2B2B2B"/>
<path d="M39.9945 109.597L31.3135 91.7344L45.67 84.3884L56.5215 107.26L50.7195 112.352L39.9945 109.597Z" fill="#CCAC13"/>
<path d="M62.6985 120.616L48.508 127.627L39.9935 109.598L56.5215 107.26L62.198 113.426L62.6985 120.616Z" fill="#E4C728"/>
<path d="M74.8855 104.089L56.521 107.261L62.698 120.617L78.198 112.716L78.9315 108.402L74.8855 104.089Z" fill="#DFBCA4"/>
<path d="M63.7 132.297L58.191 132.469L59.5615 154.558L62.198 178.712L67.962 175.978L63.7 132.297Z" fill="#CCAC13"/>
<path d="M42.776 146.13L47.84 152.316L58.191 132.469L43.567 136.585L35.787 138.852L42.776 146.13Z" fill="#CCAC13"/>
<path d="M40.5675 120.082L43.833 121.688L41.95 128.116L38.153 130.711V125.335L40.5675 120.082Z" fill="#4F5252"/>
<path d="M24.9405 122.505L28.8445 122.667L34.4135 130.71L28.9265 131.256L24.9405 122.505Z" fill="#4F5252"/>
<path d="M41.9505 128.115L54.184 147.661L53.246 151.053L43.333 139.584L38.6875 129.155L41.9505 128.115Z" fill="#858585"/>
<path d="M29.944 130.124L33.2205 127.972L36.4975 125.82L31.4935 118.2L40.567 120.081L38.6875 129.155L53.2455 151.052L49.969 153.205L46.692 155.357L32.1335 133.458L23.059 131.578L24.9395 122.505L29.944 130.124Z" fill="#6E7073"/>
<path d="M62.1975 178.712L38.658 177.543L35.6535 138.812L47.84 151.333L58.191 132.469L62.1975 178.712Z" fill="#E4C728"/>
<path d="M95.193 96.0906L99.4505 98.1506L97.017 104.093L91.571 114.443L91.3975 102.067L92.0485 97.3301L95.193 96.0906Z" fill="#CCAC13"/>
<path d="M91.571 114.442L101.683 93.5346L109.903 92.4861L111.447 99.9131L106.936 117.61L91.571 114.442Z" fill="#C3977A"/>
<path d="M74.885 104.089L83.733 127.127L94.817 123.133L85.9605 99.7266L74.885 104.089Z" fill="#4F5252"/>
<path d="M78.1985 112.715L91.571 114.442L88.5495 104.377L85.96 99.7271L81.3105 100.001L74.885 104.089L78.1985 112.715Z" fill="#C3977A"/>
<path d="M91.571 114.443L95.408 106.51L95.193 96.0911L90.5335 96.6266L85.9605 99.7271L91.571 114.443Z" fill="#8A6651"/>
<path d="M68.7085 87.8945L111.78 70.866L115.305 78.6375L118.123 87.06L74.8855 104.088L68.7085 87.8945Z" fill="#6E7073"/>
<path d="M111.78 70.8665L118.792 74.5395L120.466 77.5195L121.129 80.382L118.124 87.0605L111.78 70.8665Z" fill="#4F5252"/>
<path d="M118.792 74.5396L124.943 72.0786L125.047 75.5406L123.858 79.2841L121.129 80.3826L118.792 74.5396Z" fill="#464646"/>
<path d="M124.944 72.0786L130.023 70.0471L130.269 73.1501L128.939 77.2386L123.858 79.2841L124.944 72.0786Z" fill="#6E7073"/>
<path d="M130.022 70.0465L135.031 68.0435L134.772 71.4455L133.949 75.2225L128.939 77.2385L130.022 70.0465Z" fill="#464646"/>
<path d="M135.031 68.0436L139.862 66.1121L139.791 69.3681L138.782 73.2771L133.949 75.2221L135.031 68.0436Z" fill="#6E7073"/>
<path d="M139.861 66.1119L144.665 64.1899L144.524 67.4039L143.587 71.3424L138.851 73.2554L139.861 66.1119Z" fill="#464646"/>
<path d="M144.665 64.19L149.175 62.3525L148.006 69.5315L143.587 71.3425L144.665 64.19Z" fill="#6E7073"/>
<path d="M85.7575 88.348L75.318 92.325L74.7245 90.768L85.1635 86.791L85.7575 88.348Z" fill="#4F5252"/>
<path d="M86.8265 91.1534L76.3865 95.1304L75.7935 93.5734L86.2325 89.5964L86.8265 91.1534Z" fill="#4F5252"/>
<path d="M87.8955 93.9596L77.4555 97.9366L76.8625 96.3796L87.3015 92.4026L87.8955 93.9596Z" fill="#4F5252"/>
<path d="M111.447 99.9135L118.124 94.738V87.0605L112.447 92.653L111.447 99.9135Z" fill="#C3977A"/>
<path d="M101.683 93.5345L109.582 89.8365L118.124 87.0605L111.447 99.9135L101.683 93.5345Z" fill="#8A6651"/>
<path d="M101.683 93.5344L104.096 83.2499L114.592 78.0449L118.124 87.0604L101.683 93.5344Z" fill="#DFBCA4"/>
</svg>
