<svg width="20" height="20" viewBox="0 0 20 20" fill="none" xmlns="http://www.w3.org/2000/svg">
<path d="M19.0665 8.68887H3.18535L7.74059 2.25701C8.10464 1.74299 8.10464 0.899463 7.74059 0.385442C7.65424 0.263258 7.55166 0.166322 7.43874 0.100183C7.32582 0.0340437 7.20476 0 7.08251 0C6.96026 0 6.83921 0.0340437 6.72628 0.100183C6.61336 0.166322 6.51078 0.263258 6.42443 0.385442L0.272982 9.07109C0.186448 9.19302 0.117795 9.33785 0.0709532 9.4973C0.0241112 9.65674 0 9.82766 0 10.0003C0 10.1729 0.0241112 10.3438 0.0709532 10.5033C0.117795 10.6627 0.186448 10.8075 0.272982 10.9295L6.42443 19.6151C6.51085 19.7371 6.61344 19.8339 6.72636 19.9C6.83927 19.966 6.96029 20 7.08251 20C7.20473 20 7.32575 19.966 7.43866 19.9C7.55158 19.8339 7.65417 19.7371 7.74059 19.6151C7.82701 19.4931 7.89557 19.3482 7.94234 19.1888C7.98911 19.0294 8.01318 18.8585 8.01318 18.6859C8.01318 18.5134 7.98911 18.3425 7.94234 18.183C7.89557 18.0236 7.82701 17.8788 7.74059 17.7567L3.18535 11.3249H19.0665C19.5799 11.3249 20 10.7318 20 10.0069C20 9.28197 19.5799 8.68887 19.0665 8.68887Z" fill="black"/>
</svg>
