<svg width="14" height="24" viewBox="0 0 14 24" fill="none" xmlns="http://www.w3.org/2000/svg">
<path d="M3.58015 0.587788L13.4122 10.4198C13.626 10.6336 13.777 10.8651 13.8653 11.1145C13.9537 11.3639 13.9986 11.631 14 11.916C14 12.201 13.9551 12.4682 13.8653 12.7176C13.7756 12.9669 13.6245 13.1985 13.4122 13.4122L3.58015 23.2443C3.1883 23.6361 2.68957 23.8321 2.08397 23.8321C1.47837 23.8321 0.979646 23.6361 0.587788 23.2443C0.19593 22.8524 9.53674e-07 22.3537 9.53674e-07 21.7481C9.53674e-07 21.1425 0.19593 20.6438 0.587788 20.2519L8.92366 11.916L0.587788 3.58015C0.19593 3.1883 9.53674e-07 2.68957 9.53674e-07 2.08397C9.53674e-07 1.47837 0.19593 0.979645 0.587788 0.587788C0.979646 0.19593 1.47837 -1.90735e-06 2.08397 -1.90735e-06C2.68957 -1.90735e-06 3.1883 0.19593 3.58015 0.587788Z" fill="black"/>
</svg>
