<svg width="14" height="24" viewBox="0 0 14 24" fill="none" xmlns="http://www.w3.org/2000/svg">
<path d="M10.4198 23.2443L0.587785 13.4122C0.374045 13.1985 0.223002 12.9669 0.134656 12.7176C0.0463098 12.4682 0.00142494 12.201 0 11.916C0 11.631 0.0448849 11.3639 0.134656 11.1145C0.224427 10.8651 0.37547 10.6336 0.587785 10.4198L10.4198 0.587785C10.8117 0.195928 11.3104 0 11.916 0C12.5216 0 13.0204 0.195928 13.4122 0.587785C13.8041 0.979643 14 1.47837 14 2.08397C14 2.68957 13.8041 3.1883 13.4122 3.58015L5.07634 11.916L13.4122 20.2519C13.8041 20.6438 14 21.1425 14 21.7481C14 22.3537 13.8041 22.8524 13.4122 23.2443C13.0204 23.6361 12.5216 23.8321 11.916 23.8321C11.3104 23.8321 10.8117 23.6361 10.4198 23.2443Z" fill="black"/>
</svg>
